<svg width="89" height="89" viewBox="0 0 89 89" fill="none" xmlns="http://www.w3.org/2000/svg">
<path fill-rule="evenodd" clip-rule="evenodd" d="M52.446 51.9498C53.3416 52.2191 53.9921 53.021 53.9913 53.9562L53.9887 57.1027C53.9878 58.2086 54.8845 59.1052 55.9904 59.1043L62.8567 59.0988C63.96 59.0979 64.8542 58.2037 64.8551 57.1004L64.8578 53.7615C64.8585 52.848 65.4813 52.0599 66.3492 51.7747C67.6598 51.344 68.9186 50.7995 70.1139 50.1527C70.9386 49.7065 71.9688 49.8131 72.6308 50.4772L75.0511 52.9054C75.8318 53.6886 77.0999 53.6896 77.8818 52.9077L82.737 48.0525C83.5172 47.2723 83.5182 46.0078 82.7393 45.2263L80.1458 42.6243C79.5031 41.9796 79.3854 40.9861 79.7935 40.1724C80.3707 39.0216 80.8544 37.8159 81.2345 36.5652C81.506 35.6718 82.3076 35.0241 83.2412 35.0256L86.99 35.0317C88.0958 35.0335 88.9932 34.1375 88.9932 33.0317V26.1654C88.9932 25.0621 88.0998 24.1672 86.9965 24.1654L83.0681 24.159C82.1548 24.1575 81.3672 23.5343 81.0824 22.6665C80.6906 21.4727 80.2038 20.3218 79.631 19.2227C79.2036 18.4027 79.3164 17.39 79.9708 16.7367L82.784 13.9281C83.5665 13.1468 83.5665 11.8787 82.784 11.0974L77.9248 6.2461C77.144 5.46658 75.8794 5.46658 75.0987 6.2461L72.2838 9.05642C71.6303 9.7088 70.6193 9.82064 69.8005 9.39377C68.7101 8.82529 67.5687 8.34113 66.3848 7.94996C65.5174 7.66337 64.8959 6.87421 64.8966 5.96072L64.8999 2.00163C64.9008 0.895787 64.0041 -0.00089841 62.8982 6.75529e-07L56.0319 0.00558324C54.9286 0.00648026 54.0344 0.900659 54.0335 2.00396L54.0305 5.74848C54.0297 6.68369 53.3779 7.48454 52.4819 7.75235C51.2343 8.12522 50.031 8.60051 48.8818 9.16843C48.0677 9.57073 47.0777 9.44857 46.4367 8.80543L43.842 6.20233C43.0613 5.41911 41.7932 5.41808 41.0113 6.20003L36.1561 11.0553C35.3759 11.8354 35.3749 13.1 36.1538 13.8814L38.5276 16.2629C39.1912 16.9287 39.2931 17.9624 38.8408 18.7864C38.1779 19.9944 37.62 21.2681 37.1796 22.5951C36.8919 23.462 36.1024 24.0826 35.1891 24.0811L31.8978 24.0758C30.7919 24.074 29.8945 24.9699 29.8945 26.0758V32.9421C29.8945 34.0454 30.788 34.9403 31.8913 34.9421L34.9805 34.9471C35.9142 34.9486 36.7136 35.5991 36.9822 36.4933C37.4031 37.8945 37.9538 39.2396 38.6203 40.5148C39.0491 41.3352 38.9369 42.3491 38.2818 43.0031L36.1063 45.1751C35.3237 45.9564 35.3237 47.2245 36.1063 48.0059L40.9654 52.8571C41.7462 53.6367 43.0108 53.6367 43.7916 52.8571L45.9817 50.6706C46.6344 50.0189 47.6441 49.9066 48.4626 50.332C49.7264 50.989 51.0587 51.5327 52.446 51.9498Z" fill="#1B4ED1"/>
<path d="M68.633 29.7914C68.633 34.9962 64.4068 39.2156 59.1935 39.2156C53.9801 39.2156 49.7539 34.9962 49.7539 29.7914C49.7539 24.5866 53.9801 20.3672 59.1935 20.3672C64.4068 20.3672 68.633 24.5866 68.633 29.7914Z" fill="white"/>
<g filter="url(#filter0_b_1_353)">
<mask id="path-3-inside-1_1_353" fill="white">
<path fill-rule="evenodd" clip-rule="evenodd" d="M31.2561 89.0004C30.1515 89.0013 29.2568 88.1066 29.2577 87.0021L29.2628 80.8041C26.2599 80.1247 23.4398 78.9645 20.888 77.4089L16.576 81.7138C15.7943 82.4943 14.527 82.4943 13.7453 81.7138L7.23755 75.2167C6.45587 74.4363 6.45587 73.171 7.23755 72.3906L11.5434 68.0917C9.9694 65.5258 8.79756 62.6874 8.11537 59.6639L2 59.654C0.895429 59.6522 0 58.7553 0 57.6507V48.4549C0 47.3503 0.89543 46.4563 2 46.4581L8.31595 46.4684C9.06828 43.5539 10.2786 40.8232 11.8657 38.3571L7.30254 33.7791C6.52276 32.9968 6.52379 31.7295 7.30484 30.9484L13.8073 24.446C14.5883 23.6649 15.8536 23.6659 16.6334 24.4483L21.4112 29.2416C23.8362 27.8346 26.4916 26.7798 29.3072 26.1476L29.3128 19.2337C29.3137 18.1291 30.2099 17.233 31.3145 17.2321L40.5103 17.2246C41.6149 17.2237 42.5096 18.1184 42.5087 19.223L42.5029 26.3469C45.2256 27.0462 47.7885 28.1432 50.1256 29.5722L55.196 24.5101C55.9776 23.7296 57.245 23.7296 58.0267 24.5101L64.5344 31.0072C65.3161 31.7876 65.3161 33.0529 64.5344 33.8333L59.4579 38.9016C60.8932 41.2483 61.9924 43.8223 62.6887 46.5568L69.7683 46.5683C70.8728 46.5701 71.7683 47.467 71.7683 48.5715V57.7674C71.7683 58.872 70.8728 59.7659 69.7683 59.7641L62.8464 59.7529C62.2003 62.5731 61.128 65.2311 59.7006 67.6557L64.4749 72.4456C65.2547 73.2279 65.2537 74.4953 64.4726 75.2763L57.9702 81.7788C57.1891 82.5598 55.9238 82.5588 55.144 81.7765L50.524 77.1414C48.0683 78.6998 45.3536 79.8877 42.4588 80.6261L42.4536 86.9913C42.4527 88.0959 41.5565 88.9921 40.452 88.993L31.2561 89.0004ZM35.5804 64.8494C41.9113 64.8494 47.0436 59.7255 47.0436 53.4048C47.0436 47.0842 41.9113 41.9603 35.5804 41.9603C29.2494 41.9603 24.1172 47.0842 24.1172 53.4048C24.1172 59.7255 29.2494 64.8494 35.5804 64.8494Z"/>
</mask>
<path fill-rule="evenodd" clip-rule="evenodd" d="M31.2561 89.0004C30.1515 89.0013 29.2568 88.1066 29.2577 87.0021L29.2628 80.8041C26.2599 80.1247 23.4398 78.9645 20.888 77.4089L16.576 81.7138C15.7943 82.4943 14.527 82.4943 13.7453 81.7138L7.23755 75.2167C6.45587 74.4363 6.45587 73.171 7.23755 72.3906L11.5434 68.0917C9.9694 65.5258 8.79756 62.6874 8.11537 59.6639L2 59.654C0.895429 59.6522 0 58.7553 0 57.6507V48.4549C0 47.3503 0.89543 46.4563 2 46.4581L8.31595 46.4684C9.06828 43.5539 10.2786 40.8232 11.8657 38.3571L7.30254 33.7791C6.52276 32.9968 6.52379 31.7295 7.30484 30.9484L13.8073 24.446C14.5883 23.6649 15.8536 23.6659 16.6334 24.4483L21.4112 29.2416C23.8362 27.8346 26.4916 26.7798 29.3072 26.1476L29.3128 19.2337C29.3137 18.1291 30.2099 17.233 31.3145 17.2321L40.5103 17.2246C41.6149 17.2237 42.5096 18.1184 42.5087 19.223L42.5029 26.3469C45.2256 27.0462 47.7885 28.1432 50.1256 29.5722L55.196 24.5101C55.9776 23.7296 57.245 23.7296 58.0267 24.5101L64.5344 31.0072C65.3161 31.7876 65.3161 33.0529 64.5344 33.8333L59.4579 38.9016C60.8932 41.2483 61.9924 43.8223 62.6887 46.5568L69.7683 46.5683C70.8728 46.5701 71.7683 47.467 71.7683 48.5715V57.7674C71.7683 58.872 70.8728 59.7659 69.7683 59.7641L62.8464 59.7529C62.2003 62.5731 61.128 65.2311 59.7006 67.6557L64.4749 72.4456C65.2547 73.2279 65.2537 74.4953 64.4726 75.2763L57.9702 81.7788C57.1891 82.5598 55.9238 82.5588 55.144 81.7765L50.524 77.1414C48.0683 78.6998 45.3536 79.8877 42.4588 80.6261L42.4536 86.9913C42.4527 88.0959 41.5565 88.9921 40.452 88.993L31.2561 89.0004ZM35.5804 64.8494C41.9113 64.8494 47.0436 59.7255 47.0436 53.4048C47.0436 47.0842 41.9113 41.9603 35.5804 41.9603C29.2494 41.9603 24.1172 47.0842 24.1172 53.4048C24.1172 59.7255 29.2494 64.8494 35.5804 64.8494Z" fill="#A3C8FF" fill-opacity="0.46"/>
<path d="M29.2577 87.0021L30.2577 87.0029L29.2577 87.0021ZM31.2561 89.0004L31.2569 90.0004H31.2569L31.2561 89.0004ZM29.2628 80.8041L30.2628 80.8049L30.2634 80.0052L29.4834 79.8287L29.2628 80.8041ZM20.888 77.4089L21.4085 76.555L20.7375 76.146L20.1814 76.7012L20.888 77.4089ZM16.576 81.7138L17.2825 82.4215H17.2825L16.576 81.7138ZM13.7453 81.7138L13.0388 82.4215H13.0388L13.7453 81.7138ZM7.23755 75.2167L6.53102 75.9244L6.53102 75.9244L7.23755 75.2167ZM7.23755 72.3906L7.94408 73.0982H7.94408L7.23755 72.3906ZM11.5434 68.0917L12.2499 68.7994L12.8085 68.2417L12.3958 67.5689L11.5434 68.0917ZM8.11537 59.6639L9.09085 59.4438L8.91518 58.6652L8.117 58.6639L8.11537 59.6639ZM2 59.654L2.00162 58.654H2.00162L2 59.654ZM2 46.4581L2.00162 45.4581H2.00162L2 46.4581ZM8.31595 46.4684L8.31432 47.4684L9.09026 47.4696L9.28421 46.7183L8.31595 46.4684ZM11.8657 38.3571L12.7066 38.8983L13.1422 38.2213L12.5739 37.6512L11.8657 38.3571ZM7.30254 33.7791L8.01079 33.0732L8.01079 33.0732L7.30254 33.7791ZM7.30484 30.9484L8.01194 31.6555L7.30484 30.9484ZM13.8073 24.446L13.1002 23.7389L13.8073 24.446ZM16.6334 24.4483L17.3417 23.7423L16.6334 24.4483ZM21.4112 29.2416L20.7029 29.9476L21.2468 30.4932L21.9131 30.1065L21.4112 29.2416ZM29.3072 26.1476L29.5263 27.1233L30.3066 26.9481L30.3072 26.1484L29.3072 26.1476ZM29.3128 19.2337L30.3128 19.2345V19.2345L29.3128 19.2337ZM31.3145 17.2321L31.3153 18.2321L31.3145 17.2321ZM40.5103 17.2246L40.5095 16.2246L40.5103 17.2246ZM42.5087 19.223L43.5087 19.2238V19.2238L42.5087 19.223ZM42.5029 26.3469L41.5029 26.3461L41.5023 27.1224L42.2541 27.3155L42.5029 26.3469ZM50.1256 29.5722L49.604 30.4253L50.2753 30.8358L50.8322 30.2798L50.1256 29.5722ZM55.196 24.5101L54.4894 23.8024V23.8024L55.196 24.5101ZM58.0267 24.5101L58.7332 23.8024V23.8024L58.0267 24.5101ZM64.5344 31.0072L63.8279 31.7149V31.7149L64.5344 31.0072ZM64.5344 33.8333L63.8279 33.1257V33.1257L64.5344 33.8333ZM59.4579 38.9016L58.7514 38.1939L58.1936 38.7508L58.6048 39.4233L59.4579 38.9016ZM62.6887 46.5568L61.7196 46.8035L61.9111 47.5555L62.687 47.5568L62.6887 46.5568ZM69.7683 46.5683L69.7667 47.5683L69.7683 46.5683ZM69.7683 59.7641L69.7699 58.7641L69.7683 59.7641ZM62.8464 59.7529L62.848 58.7529L62.0498 58.7516L61.8716 59.5296L62.8464 59.7529ZM59.7006 67.6557L58.8388 67.1484L58.4468 67.8144L58.9924 68.3617L59.7006 67.6557ZM64.4749 72.4456L65.1832 71.7396H65.1832L64.4749 72.4456ZM64.4726 75.2763L65.1797 75.9834V75.9834L64.4726 75.2763ZM57.9702 81.7788L57.2631 81.0716V81.0717L57.9702 81.7788ZM55.144 81.7765L55.8523 81.0705L55.144 81.7765ZM50.524 77.1414L51.2323 76.4354L50.6657 75.8671L49.9882 76.2971L50.524 77.1414ZM42.4588 80.6261L42.2116 79.6571L41.4594 79.849L41.4588 80.6253L42.4588 80.6261ZM42.4536 86.9913L41.4536 86.9905V86.9905L42.4536 86.9913ZM40.452 88.993L40.4528 89.993H40.4528L40.452 88.993ZM28.2577 87.0012C28.2564 88.6587 29.5994 90.0018 31.2569 90.0004L31.2553 88.0004C30.7036 88.0009 30.2573 87.5545 30.2577 87.0029L28.2577 87.0012ZM28.2628 80.8033L28.2577 87.0013L30.2577 87.0029L30.2628 80.8049L28.2628 80.8033ZM20.3675 78.2627C23.0103 79.8738 25.9314 81.0756 29.0421 81.7794L29.4834 79.8287C26.5884 79.1737 23.8693 78.0552 21.4085 76.555L20.3675 78.2627ZM17.2825 82.4215L21.5945 78.1166L20.1814 76.7012L15.8695 81.0062L17.2825 82.4215ZM13.0388 82.4215C14.2108 83.5917 16.1105 83.5917 17.2825 82.4215L15.8695 81.0062C15.4782 81.3968 14.8431 81.3968 14.4518 81.0062L13.0388 82.4215ZM6.53102 75.9244L13.0388 82.4215L14.4518 81.0062L7.94408 74.509L6.53102 75.9244ZM6.53102 71.6829C5.35804 72.8539 5.35804 74.7533 6.53102 75.9244L7.94408 74.509C7.55369 74.1192 7.55369 73.488 7.94408 73.0982L6.53102 71.6829ZM10.8368 67.3841L6.53102 71.6829L7.94408 73.0982L12.2499 68.7994L10.8368 67.3841ZM7.13989 59.884C7.84668 63.0166 9.06075 65.957 10.691 68.6146L12.3958 67.5689C10.8781 65.0946 9.74843 62.3583 9.09085 59.4438L7.13989 59.884ZM1.99837 60.654L8.11375 60.6639L8.117 58.6639L2.00162 58.654L1.99837 60.654ZM-1 57.6507C-1 59.3069 0.342154 60.6513 1.99837 60.654L2.00162 58.654C1.4487 58.6531 1 58.2036 1 57.6507H-1ZM-1 48.4549V57.6507H1V48.4549H-1ZM2.00162 45.4581C0.344137 45.4554 -1 46.7974 -1 48.4549H1C1 47.9032 1.44672 47.4572 1.99837 47.4581L2.00162 45.4581ZM8.31758 45.4684L2.00162 45.4581L1.99837 47.4581L8.31432 47.4684L8.31758 45.4684ZM11.0247 37.8159C9.38103 40.37 8.12717 43.1988 7.34769 46.2184L9.28421 46.7183C10.0094 43.909 11.1761 41.2764 12.7066 38.8983L11.0247 37.8159ZM6.59428 34.4851L11.1574 39.0631L12.5739 37.6512L8.01079 33.0732L6.59428 34.4851ZM6.59773 30.2413C5.42661 31.4124 5.42506 33.3121 6.59428 34.4851L8.01079 33.0732C7.62046 32.6816 7.62097 32.0465 8.01194 31.6555L6.59773 30.2413ZM13.1002 23.7389L6.59773 30.2413L8.01194 31.6555L14.5144 25.1531L13.1002 23.7389ZM17.3417 23.7423C16.1716 22.5684 14.2722 22.5668 13.1002 23.7389L14.5144 25.1531C14.9045 24.763 15.5357 24.7635 15.9252 25.1542L17.3417 23.7423ZM22.1195 28.5356L17.3417 23.7423L15.9252 25.1542L20.7029 29.9476L22.1195 28.5356ZM29.0881 25.1719C26.1715 25.8268 23.4209 26.9194 20.9093 28.3767L21.9131 30.1065C24.2515 28.7497 26.8118 27.7328 29.5263 27.1233L29.0881 25.1719ZM28.3128 19.2329L28.3072 26.1468L30.3072 26.1484L30.3128 19.2345L28.3128 19.2329ZM31.3136 16.2321C29.6574 16.2334 28.3142 17.5767 28.3128 19.2329L30.3128 19.2345C30.3133 18.6816 30.7623 18.2325 31.3153 18.2321L31.3136 16.2321ZM40.5095 16.2246L31.3136 16.2321L31.3153 18.2321L40.5111 18.2246L40.5095 16.2246ZM43.5087 19.2238C43.51 17.5663 42.167 16.2233 40.5095 16.2246L40.5111 18.2246C41.0628 18.2242 41.5091 18.6705 41.5087 19.2222L43.5087 19.2238ZM43.5029 26.3477L43.5087 19.2238L41.5087 19.2222L41.5029 26.3461L43.5029 26.3477ZM50.6473 28.719C48.2268 27.2391 45.5722 26.1027 42.7516 25.3783L42.2541 27.3155C44.8791 27.9896 47.3501 29.0473 49.604 30.4253L50.6473 28.719ZM54.4894 23.8024L49.4191 28.8645L50.8322 30.2798L55.9025 25.2177L54.4894 23.8024ZM58.7332 23.8024C57.5611 22.6322 55.6615 22.6322 54.4894 23.8024L55.9025 25.2177C56.2938 24.8271 56.9289 24.8271 57.3202 25.2177L58.7332 23.8024ZM65.241 30.2995L58.7332 23.8024L57.3202 25.2177L63.8279 31.7149L65.241 30.2995ZM65.241 34.541C66.4139 33.37 66.4139 31.4706 65.241 30.2995L63.8279 31.7149C64.2183 32.1047 64.2183 32.7359 63.8279 33.1257L65.241 34.541ZM60.1645 39.6093L65.241 34.541L63.8279 33.1257L58.7514 38.1939L60.1645 39.6093ZM63.6577 46.31C62.9363 43.4769 61.7976 40.8104 60.311 38.3798L58.6048 39.4233C59.9888 41.6862 61.0484 44.1677 61.7196 46.8035L63.6577 46.31ZM69.7699 45.5683L62.6903 45.5568L62.687 47.5568L69.7667 47.5683L69.7699 45.5683ZM72.7683 48.5715C72.7683 46.9153 71.4261 45.571 69.7699 45.5683L69.7667 47.5683C70.3196 47.5692 70.7683 48.0186 70.7683 48.5715H72.7683ZM72.7683 57.7674V48.5715H70.7683V57.7674H72.7683ZM69.7667 60.7641C71.4241 60.7668 72.7683 59.4249 72.7683 57.7674H70.7683C70.7683 58.319 70.3216 58.765 69.7699 58.7641L69.7667 60.7641ZM62.8447 60.7529L69.7667 60.7641L69.7699 58.7641L62.848 58.7529L62.8447 60.7529ZM60.5624 68.163C62.0408 65.6517 63.1518 62.8981 63.8211 59.9762L61.8716 59.5296C61.2488 62.2481 60.2151 64.8105 58.8388 67.1484L60.5624 68.163ZM65.1832 71.7396L60.4089 66.9498L58.9924 68.3617L63.7667 73.1515L65.1832 71.7396ZM65.1797 75.9834C66.3508 74.8123 66.3524 72.9127 65.1832 71.7396L63.7667 73.1515C64.157 73.5431 64.1565 74.1782 63.7655 74.5692L65.1797 75.9834ZM58.6773 82.4859L65.1797 75.9834L63.7655 74.5692L57.2631 81.0716L58.6773 82.4859ZM54.4358 82.4824C55.6059 83.6563 57.5052 83.6579 58.6773 82.4859L57.2631 81.0717C56.873 81.4617 56.2417 81.4612 55.8523 81.0705L54.4358 82.4824ZM49.8158 77.8473L54.4358 82.4824L55.8523 81.0705L51.2323 76.4354L49.8158 77.8473ZM42.7059 81.5951C45.7048 80.8301 48.5167 79.5997 51.0598 77.9857L49.9882 76.2971C47.62 77.8 45.0024 78.9452 42.2116 79.6571L42.7059 81.5951ZM43.4536 86.9921L43.4588 80.6269L41.4588 80.6253L41.4536 86.9905L43.4536 86.9921ZM40.4528 89.993C42.109 89.9916 43.4522 88.6484 43.4536 86.9921L41.4536 86.9905C41.4531 87.5434 41.0041 87.9925 40.4511 87.993L40.4528 89.993ZM31.2569 90.0004L40.4528 89.993L40.4511 87.993L31.2553 88.0004L31.2569 90.0004ZM46.0436 53.4048C46.0436 59.1717 41.3606 63.8494 35.5804 63.8494V65.8494C42.4621 65.8494 48.0436 60.2793 48.0436 53.4048H46.0436ZM35.5804 42.9603C41.3606 42.9603 46.0436 47.638 46.0436 53.4048H48.0436C48.0436 46.5304 42.4621 40.9603 35.5804 40.9603V42.9603ZM25.1172 53.4048C25.1172 47.638 29.8002 42.9603 35.5804 42.9603V40.9603C28.6987 40.9603 23.1172 46.5304 23.1172 53.4048H25.1172ZM35.5804 63.8494C29.8002 63.8494 25.1172 59.1717 25.1172 53.4048H23.1172C23.1172 60.2793 28.6987 65.8494 35.5804 65.8494V63.8494Z" fill="white" fill-opacity="0.11" mask="url(#path-3-inside-1_1_353)"/>
</g>
<defs>
<filter id="filter0_b_1_353" x="-16" y="1.22461" width="103.768" height="103.775" filterUnits="userSpaceOnUse" color-interpolation-filters="sRGB">
<feFlood flood-opacity="0" result="BackgroundImageFix"/>
<feGaussianBlur in="BackgroundImage" stdDeviation="8"/>
<feComposite in2="SourceAlpha" operator="in" result="effect1_backgroundBlur_1_353"/>
<feBlend mode="normal" in="SourceGraphic" in2="effect1_backgroundBlur_1_353" result="shape"/>
</filter>
</defs>
</svg>
