<svg width="68" height="91" viewBox="0 0 68 91" fill="none" xmlns="http://www.w3.org/2000/svg">
<ellipse cx="34" cy="57.0277" rx="34" ry="33.973" fill="#1B4ED1"/>
<g filter="url(#filter0_b_1_346)">
<path d="M20.1807 46.0243C20.3794 7.16965 34.0061 0 34.0061 0C34.0061 0 47.6328 7.16965 47.8316 46.0243C47.8342 46.532 48.1491 47.0052 48.6002 47.2389C50.2471 48.0921 54.0254 50.5895 54.649 55.7779V69.1161C54.649 69.1161 54.0478 71.5413 52.0438 70.5308L45.0329 65.9448C44.7693 65.7724 44.4612 65.6805 44.1461 65.6805H23.8661C23.5511 65.6805 23.2429 65.7724 22.9794 65.9448L15.9685 70.5308C13.9645 71.5413 13.3633 69.1161 13.3633 69.1161V55.7779C13.9869 50.5895 17.7652 48.0921 19.4121 47.2389C19.8632 47.0052 20.1781 46.532 20.1807 46.0243Z" fill="#A3C8FF" fill-opacity="0.46"/>
<path d="M13.8697 69.0676C13.8674 69.0601 13.8652 69.0532 13.8633 69.0468V55.8082C14.4682 50.8842 18.0549 48.505 19.6421 47.6828C20.2429 47.3715 20.677 46.7371 20.6807 46.0268C20.7798 26.6557 24.2261 15.2323 27.6123 8.67095C29.3051 5.39071 30.9844 3.32262 32.2272 2.0811C32.8489 1.46009 33.3622 1.045 33.7148 0.787984C33.8295 0.704364 33.9272 0.637443 34.0061 0.585579C34.0851 0.637443 34.1828 0.704364 34.2975 0.787984C34.65 1.045 35.1634 1.46009 35.785 2.0811C37.0279 3.32262 38.7072 5.39071 40.4 8.67095C43.7862 15.2323 47.2325 26.6557 47.3316 46.0268C47.3352 46.7371 47.7693 47.3715 48.3702 47.6828C49.9573 48.505 53.544 50.8842 54.149 55.8082V69.0468C54.147 69.0532 54.1449 69.0601 54.1425 69.0676C54.1258 69.1205 54.0993 69.1975 54.0618 69.2879C53.9854 69.4723 53.8708 69.6943 53.7141 69.8819C53.5584 70.0684 53.3799 70.1993 53.1741 70.2512C52.9793 70.3003 52.6969 70.2948 52.293 70.0963L45.3066 65.5264C44.9617 65.3007 44.5584 65.1805 44.1461 65.1805H23.8661C23.4539 65.1805 23.0506 65.3007 22.7057 65.5264L15.7193 70.0963C15.3154 70.2948 15.033 70.3003 14.8382 70.2512C14.6324 70.1993 14.4539 70.0684 14.2982 69.8819C14.1415 69.6943 14.0269 69.4723 13.9504 69.2879C13.913 69.1975 13.8865 69.1205 13.8697 69.0676Z" stroke="white" stroke-opacity="0.11"/>
</g>
<ellipse cx="34.0113" cy="24.6722" rx="6.47619" ry="6.47105" fill="white"/>
<defs>
<filter id="filter0_b_1_346" x="-2.63672" y="-16" width="73.2858" height="102.777" filterUnits="userSpaceOnUse" color-interpolation-filters="sRGB">
<feFlood flood-opacity="0" result="BackgroundImageFix"/>
<feGaussianBlur in="BackgroundImage" stdDeviation="8"/>
<feComposite in2="SourceAlpha" operator="in" result="effect1_backgroundBlur_1_346"/>
<feBlend mode="normal" in="SourceGraphic" in2="effect1_backgroundBlur_1_346" result="shape"/>
</filter>
</defs>
</svg>
