<svg width="92" height="102" viewBox="0 0 92 102" fill="none" xmlns="http://www.w3.org/2000/svg">
<path d="M0.724609 44.2223V34.7461C0.724609 28.3495 20.9949 23.1641 45.9997 23.1641C71.0045 23.1641 91.2749 28.3495 91.2749 34.7461V44.2223C91.2749 50.6188 71.0045 55.8043 45.9997 55.8043C20.9949 55.8043 0.724609 50.6188 0.724609 44.2223Z" fill="#1B4ED1"/>
<g filter="url(#filter0_b_1_381)">
<path d="M45.9989 79.6001C82.2402 69.8246 73.5028 11.1719 73.5028 11.1719C73.5028 11.1719 68.8244 10.0547 59.9548 6.59372C51.0853 3.1327 45.9989 0 45.9989 0C45.9989 0 40.9125 3.1327 32.043 6.59372C23.1735 10.0547 18.495 11.1719 18.495 11.1719C18.495 11.1719 9.75757 69.8246 45.9989 79.6001Z" fill="#A3C8FF" fill-opacity="0.46"/>
<path d="M45.3116 0.97887C45.6103 0.810028 45.8402 0.676359 45.9989 0.582744C46.1576 0.676359 46.3875 0.810028 46.6863 0.97887C47.3075 1.32989 48.2266 1.83298 49.4234 2.44425C51.8167 3.66675 55.321 5.32225 59.7731 7.05951C64.2186 8.79423 67.6165 9.9426 69.9058 10.658C71.0504 11.0156 71.9179 11.2651 72.5006 11.4254C72.7289 11.4882 72.9135 11.5374 73.054 11.574C73.066 11.6638 73.0802 11.7714 73.0961 11.8963C73.1508 12.3246 73.2265 12.9555 73.3101 13.7628C73.4774 15.3774 73.6763 17.6969 73.8023 20.5115C74.0542 26.1429 74.0135 33.7461 72.8467 41.6472C70.5134 57.4478 63.717 74.2299 45.9989 79.0819C28.2809 74.2299 21.4844 57.4478 19.1511 41.6472C17.9843 33.7461 17.9436 26.1429 18.1956 20.5115C18.3215 17.6969 18.5204 15.3774 18.6877 13.7628C18.7713 12.9555 18.847 12.3246 18.9017 11.8963C18.9177 11.7714 18.9318 11.6638 18.9439 11.574C19.0843 11.5374 19.2689 11.4882 19.4973 11.4254C20.0799 11.2651 20.9474 11.0156 22.0921 10.658C24.3813 9.9426 27.7792 8.79423 32.2247 7.05951C36.6768 5.32225 40.1811 3.66675 42.5745 2.44425C43.7712 1.83298 44.6904 1.32989 45.3116 0.97887Z" stroke="white" stroke-opacity="0.11"/>
</g>
<g filter="url(#filter1_bd_1_381)">
<path d="M46.0002 54.2331C61.0543 50.6882 57.4249 29.4186 57.4249 29.4186C57.4249 29.4186 55.4816 29.0134 51.7973 27.7583C48.113 26.5032 46.0002 25.3672 46.0002 25.3672C46.0002 25.3672 43.8874 26.5032 40.2031 27.7583C36.5189 29.0134 34.5755 29.4186 34.5755 29.4186C34.5755 29.4186 30.9461 50.6882 46.0002 54.2331Z" fill="white"/>
<path d="M56.9469 29.8218C56.9587 29.8246 56.9703 29.8274 56.9815 29.8301C57.002 29.9753 57.0274 30.1663 57.0549 30.3983C57.1237 30.9774 57.2056 31.8109 57.2574 32.8229C57.3613 34.8493 57.3441 37.58 56.8648 40.4131C55.9094 46.0616 53.1526 51.9791 46.0002 53.719C38.8478 51.9791 36.091 46.0616 35.1356 40.4131C34.6563 37.58 34.6391 34.8493 34.743 32.8229C34.7949 31.8109 34.8768 30.9774 34.9455 30.3983C34.973 30.1663 34.9984 29.9753 35.0189 29.8301C35.0302 29.8274 35.0417 29.8246 35.0535 29.8218C35.2982 29.763 35.6612 29.6719 36.1393 29.5415C37.0956 29.2806 38.5124 28.8625 40.3644 28.2316C42.2224 27.5987 43.6858 26.9952 44.6869 26.5487C45.1875 26.3255 45.5726 26.1415 45.8337 26.0127C45.8964 25.9818 45.9519 25.9541 46.0002 25.9297C46.0485 25.9541 46.104 25.9818 46.1667 26.0127C46.4278 26.1415 46.8129 26.3255 47.3135 26.5487C48.3146 26.9952 49.778 27.5987 51.636 28.2316C53.488 28.8625 54.9048 29.2806 55.8611 29.5415C56.3392 29.6719 56.7022 29.763 56.9469 29.8218Z" stroke="white" stroke-opacity="0.11"/>
</g>
<defs>
<filter id="filter0_b_1_381" x="1.57031" y="-16" width="88.8572" height="111.6" filterUnits="userSpaceOnUse" color-interpolation-filters="sRGB">
<feFlood flood-opacity="0" result="BackgroundImageFix"/>
<feGaussianBlur in="BackgroundImage" stdDeviation="8"/>
<feComposite in2="SourceAlpha" operator="in" result="effect1_backgroundBlur_1_381"/>
<feBlend mode="normal" in="SourceGraphic" in2="effect1_backgroundBlur_1_381" result="shape"/>
</filter>
<filter id="filter1_bd_1_381" x="7.19141" y="9.36719" width="77.6176" height="91.8652" filterUnits="userSpaceOnUse" color-interpolation-filters="sRGB">
<feFlood flood-opacity="0" result="BackgroundImageFix"/>
<feGaussianBlur in="BackgroundImage" stdDeviation="8"/>
<feComposite in2="SourceAlpha" operator="in" result="effect1_backgroundBlur_1_381"/>
<feColorMatrix in="SourceAlpha" type="matrix" values="0 0 0 0 0 0 0 0 0 0 0 0 0 0 0 0 0 0 127 0" result="hardAlpha"/>
<feOffset dy="20"/>
<feGaussianBlur stdDeviation="13.5"/>
<feComposite in2="hardAlpha" operator="out"/>
<feColorMatrix type="matrix" values="0 0 0 0 0 0 0 0 0 0 0 0 0 0 0 0 0 0 0.19 0"/>
<feBlend mode="normal" in2="effect1_backgroundBlur_1_381" result="effect2_dropShadow_1_381"/>
<feBlend mode="normal" in="SourceGraphic" in2="effect2_dropShadow_1_381" result="shape"/>
</filter>
</defs>
</svg>
