<svg width="137" height="142" viewBox="0 0 137 142" fill="none" xmlns="http://www.w3.org/2000/svg">
<path opacity="0.1" d="M58.5118 92.6254L58.1593 92.2758L58.1652 92.2699L58.1712 92.2642L58.5118 92.6254ZM59.4284 92.5481L59.2592 93.0148L59.1943 92.9913L59.1382 92.9509L59.4284 92.5481ZM58.5118 93.6302L58.8643 93.2806L58.5118 93.6302ZM59.5178 93.6302L59.9113 93.9328L59.8923 93.9576L59.8703 93.9797L59.5178 93.6302ZM132.163 140.349L132.538 140.674L132.527 140.687L132.515 140.698L132.163 140.349ZM131.157 140.349L131.501 139.991L131.509 139.999L131.157 140.349ZM132.163 139.305L132.515 138.956L132.527 138.968L132.538 138.98L132.163 139.305ZM131.157 139.305L130.727 139.057L130.759 139.001L130.804 138.956L131.157 139.305ZM131.134 139.344L131.564 139.593L131.241 140.151L130.784 139.696L131.134 139.344ZM115.619 123.886L115.268 124.238L115.122 124.092V123.886H115.619ZM115.619 104.641H115.122V103.444L115.97 104.29L115.619 104.641ZM135.874 124.852H136.37V126.049L135.523 125.204L135.874 124.852ZM135.874 124.543L136.225 124.192L136.37 124.337V124.543H135.874ZM111.818 100.545L111.468 100.896L111.322 100.751V100.545H111.818ZM111.818 79.2513L112.169 78.9L112.315 79.0454V79.2513H111.818ZM98.8514 66.3052L98.5006 66.6566L98.1473 66.3038L98.5021 65.9525L98.8514 66.3052ZM101.154 64.0252L100.805 63.6724L101.155 63.3253L101.505 63.6737L101.154 64.0252ZM113.786 76.6235L114.136 76.272L114.365 76.5003L114.249 76.8021L113.786 76.6235ZM113.741 76.7394L113.39 77.0908L113.161 76.8624L113.278 76.5607L113.741 76.7394ZM125.746 88.7193L126.097 88.3679L126.243 88.5134V88.7193H125.746ZM125.746 91.3472L125.396 91.6984L125.25 91.5529V91.3472H125.746ZM128.183 93.7818L128.534 93.4306L128.68 93.576V93.7818H128.183ZM128.183 101.279L127.833 101.631L127.687 101.485V101.279H128.183ZM135.874 108.931H136.37V110.125L135.524 109.283L135.874 108.931ZM135.874 108.621L136.224 108.27L136.37 108.415V108.621H135.874ZM128.34 101.124L127.99 101.476L127.843 101.331V101.124H128.34ZM128.34 93.9364H127.843V92.7422L128.69 93.5844L128.34 93.9364ZM131.447 97.028L131.798 96.676L132.084 96.9606L131.863 97.2987L131.447 97.028ZM131.514 97.9554L131.855 97.5942L131.861 97.5999L131.867 97.6058L131.514 97.9554ZM132.521 97.9554L132.873 98.305L132.873 98.305L132.521 97.9554ZM132.521 96.9506L132.168 97.3002L132.16 97.2926L132.153 97.2846L132.521 96.9506ZM131.604 96.8734L131.894 97.2762L131.552 97.5225L131.253 97.225L131.604 96.8734ZM125.903 91.1926L125.553 91.5442L125.406 91.3987V91.1926H125.903ZM125.903 88.5647L126.254 88.2135L126.399 88.3589V88.5647H125.903ZM113.987 76.6621L113.636 77.0133L112.787 76.1656H113.987V76.6621ZM119.531 76.6621V76.1656H119.737L119.882 76.3107L119.531 76.6621ZM135.874 92.9702H136.37V94.167L135.523 93.3217L135.874 92.9702ZM135.874 92.6611L136.225 92.3097L136.37 92.4552V92.6611H135.874ZM119.844 76.6621L119.494 77.0135L118.644 76.1656H119.844V76.6621ZM135.874 76.6621H136.37V77.1585H135.874V76.6621ZM135.874 76.3916V75.8951H136.37V76.3916H135.874ZM113.875 76.3916V76.888H113.669L113.524 76.7427L113.875 76.3916ZM101.311 63.832L100.96 64.1831L100.608 63.8311L100.96 63.48L101.311 63.832ZM103.68 61.4747L103.33 61.1227L103.681 60.7735L104.031 61.1236L103.68 61.4747ZM112.802 70.5948V71.0913H112.596L112.451 70.9459L112.802 70.5948ZM135.874 70.5948H136.37V71.0913H135.874V70.5948ZM135.874 70.2471V69.7506H136.37V70.2471H135.874ZM119.531 70.2471V70.7435H118.33L119.181 69.8954L119.531 70.2471ZM124.494 65.3005L124.144 64.9489L124.289 64.8041H124.494V65.3005ZM135.874 65.3005H136.37V65.797H135.874V65.3005ZM135.874 65.03V64.5335H136.37V65.03H135.874ZM124.45 65.03L124.1 64.6777L124.245 64.5335H124.45V65.03ZM119.196 70.2471L119.546 70.5993L119.401 70.7435H119.196V70.2471ZM112.847 70.2471V70.7435H112.641L112.496 70.5982L112.847 70.2471ZM103.837 61.2428L103.486 61.5939L103.133 61.2417L103.487 60.8905L103.837 61.2428ZM105.938 59.1559L105.589 58.8037L105.939 58.4555L106.289 58.8045L105.938 59.1559ZM113.92 67.1168V67.6133H113.715L113.569 67.4683L113.92 67.1168ZM117.161 67.1168L117.512 67.4688L117.366 67.6133H117.161V67.1168ZM123.69 60.6245L123.34 60.2725L123.485 60.128H123.69V60.6245ZM135.896 60.6245H136.393V61.1209H135.896V60.6245ZM135.896 60.354V59.8575H136.393V60.354H135.896ZM123.645 60.354L123.295 60.002L123.44 59.8575H123.645V60.354ZM117.117 66.8463L117.467 67.1983L117.322 67.3427H117.117V66.8463ZM113.987 66.8463V67.3427H113.781L113.636 67.1971L113.987 66.8463ZM108.196 61.0496L107.845 61.4004L106.999 60.5531H108.196V61.0496ZM111.103 61.0496V60.5531H111.309L111.454 60.6988L111.103 61.0496ZM113.92 63.8706V64.3671H113.714L113.568 64.2214L113.92 63.8706ZM116.111 63.8706L116.462 64.2218L116.316 64.3671H116.111V63.8706ZM120.984 59.0014L120.634 58.6502L120.932 58.3519L121.275 58.5985L120.984 59.0014ZM121.879 58.9241L122.231 59.2737L122.225 59.2796L122.219 59.2853L121.879 58.9241ZM121.879 57.9193L121.526 58.2689L121.879 57.9193ZM120.873 57.9193L120.52 57.5698L120.52 57.5697L120.873 57.9193ZM120.806 58.8468L121.188 58.5306L121.476 58.8789L121.156 59.1982L120.806 58.8468ZM116.044 63.6001L116.394 63.9515L116.249 64.0966H116.044V63.6001ZM113.942 63.6001V64.0966H113.736L113.591 63.9509L113.942 63.6001ZM111.125 60.779V60.2826H111.331L111.476 60.4283L111.125 60.779ZM107.906 60.779V61.2755H107.7L107.554 61.1295L107.906 60.779ZM106.095 58.9627L105.743 59.3132L105.393 58.9614L105.745 58.6109L106.095 58.9627ZM109.046 56.0257L108.696 55.6738L108.841 55.5293H109.046V56.0257ZM113.383 56.0257L113.734 56.3773L113.588 56.5222H113.383V56.0257ZM118.771 50.6541L118.421 50.3025L118.719 50.0048L119.061 50.2513L118.771 50.6541ZM119.688 50.5768L120.04 50.9264L120.034 50.9323L120.028 50.938L119.688 50.5768ZM119.688 49.572L120.04 49.2224L120.04 49.2225L119.688 49.572ZM118.682 49.572L118.314 49.2381L118.322 49.2301L118.329 49.2224L118.682 49.572ZM118.615 50.4995L119.013 50.2032L119.269 50.5472L118.966 50.8505L118.615 50.4995ZM113.361 55.7552L113.712 56.1062L113.567 56.2517H113.361V55.7552ZM109.337 55.7552V56.2517H108.141L108.985 55.4048L109.337 55.7552ZM110.723 54.364L111.075 54.0144L111.423 54.3648L111.074 54.7144L110.723 54.364ZM108.577 52.1999L108.224 52.5495L107.875 52.1973L108.227 51.8477L108.577 52.1999ZM114.412 46.4031L114.062 46.0509L114.207 45.9067H114.412V46.4031ZM120.537 46.4031V45.9067H120.743L120.888 46.0519L120.537 46.4031ZM126.998 52.8569L127.349 52.5056L127.653 52.8089L127.397 53.1531L126.998 52.8569ZM127.065 53.7843L127.406 53.4231L127.412 53.4288L127.418 53.4348L127.065 53.7843ZM128.072 53.7843L127.719 53.4348L127.719 53.4347L128.072 53.7843ZM128.072 52.7795L127.719 53.1291L127.711 53.1215L127.704 53.1135L128.072 52.7795ZM127.155 52.7023L127.445 53.1051L127.103 53.3516L126.804 53.0537L127.155 52.7023ZM123.824 49.3788L123.473 49.7302L122.623 48.8824H123.824V49.3788ZM135.896 49.3788H136.393V49.8752H135.896V49.3788ZM135.896 49.0696L135.572 48.6942L136.393 47.9839V49.0696H135.896ZM135.852 49.1083L136.176 49.4838L136.037 49.6047H135.852V49.1083ZM123.533 49.1083V49.6047H123.328L123.183 49.4602L123.533 49.1083ZM120.582 46.1713V45.6748H120.787L120.932 45.8194L120.582 46.1713ZM114.658 46.1713V46.6677H113.452L114.308 45.8189L114.658 46.1713ZM117.072 43.7753L116.722 43.4229L116.868 43.2788H117.072V43.7753ZM130.933 43.7753L131.283 44.1274L131.138 44.2717H130.933V43.7753ZM134.51 40.22L134.16 39.8679L134.306 39.7235H134.51V40.22ZM135.874 40.22H136.37V40.7164H135.874V40.22ZM135.874 39.9495V39.453H136.37V39.9495H135.874ZM134.779 39.9495V40.4459H133.569L134.43 39.5963L134.779 39.9495ZM135.874 38.8674H136.37V39.0748L136.223 39.2206L135.874 38.8674ZM135.874 38.5582L135.523 38.2072L136.37 37.3598V38.5582H135.874ZM130.888 43.5434L131.24 43.8945L131.094 44.0399H130.888V43.5434ZM117.027 43.5434L116.677 43.1921L116.822 43.047H117.027V43.5434ZM108.398 52.1612L108.748 52.5125L108.398 52.8628L108.047 52.5125L108.398 52.1612ZM104.373 48.1422L104.023 48.4934L103.671 48.1419L104.023 47.7906L104.373 48.1422ZM114.412 38.1331L114.061 37.7816L114.206 37.6367H114.412V38.1331ZM125.21 38.1331L125.561 38.4845L125.415 38.6296H125.21V38.1331ZM135.896 27.4672H136.393V27.6731L136.247 27.8185L135.896 27.4672ZM135.896 27.158L135.546 26.8066L136.393 25.9611V27.158H135.896ZM125.21 37.824L125.561 38.1754L125.415 38.3204H125.21V37.824ZM114.725 37.824V38.3204H113.526L114.374 37.4729L114.725 37.824ZM127.982 24.5688H128.479V24.7745L128.333 24.9199L127.982 24.5688ZM127.982 13.9801H127.486V13.7746L127.631 13.6292L127.982 13.9801ZM135.896 6.05789H136.393V6.26338L136.248 6.40875L135.896 6.05789ZM135.896 5.74873L135.546 5.39734L136.393 4.55193V5.74873H135.896ZM127.803 13.8255H127.307V13.6196L127.453 13.4741L127.803 13.8255ZM127.803 24.4142H128.3V24.6202L128.154 24.7656L127.803 24.4142ZM104.217 47.9489L104.568 48.3004L104.218 48.6493L103.867 48.3013L104.217 47.9489ZM100.752 44.5095L100.402 44.8619L100.048 44.5105L100.401 44.1581L100.752 44.5095ZM114.926 30.3655H115.422V30.5715L115.276 30.7169L114.926 30.3655ZM114.926 9.07219H114.429V8.86578L114.576 8.72021L114.926 9.07219ZM122.929 1.11133V0.614883H124.133L123.28 1.4633L122.929 1.11133ZM122.617 1.11133L122.266 0.759369L122.412 0.614883H122.617V1.11133ZM114.769 8.91759H114.273V8.7112L114.419 8.56564L114.769 8.91759ZM114.769 30.2109H115.266V30.4169L115.12 30.5624L114.769 30.2109ZM100.595 44.355L100.946 44.7064L100.597 45.055L100.246 44.7077L100.595 44.355ZM98.449 42.2295L98.0996 42.5822L97.7446 42.2306L98.0985 41.8779L98.449 42.2295ZM108.957 31.7567H109.453V31.9628L109.307 32.1083L108.957 31.7567ZM108.957 6.79213H108.46V6.58566L108.607 6.44009L108.957 6.79213ZM114.009 1.7683H114.506V1.97476L114.359 2.12035L114.009 1.7683ZM114.009 1.11133V0.614883H114.506V1.11133H114.009ZM113.853 1.11133H113.356V0.614883H113.853V1.11133ZM113.853 1.61369H114.349V1.82016L114.203 1.96574L113.853 1.61369ZM108.8 6.63756H108.304V6.43109L108.45 6.28552L108.8 6.63756ZM108.8 31.6022H109.297V31.8083L109.151 31.9538L108.8 31.6022ZM98.2924 42.0749L98.6429 42.4265L98.2934 42.7749L97.9429 42.4274L98.2924 42.0749ZM95.4084 39.2152L95.0589 39.5677L94.7051 39.217L95.0571 38.8644L95.4084 39.2152ZM103.435 31.1771H103.931V31.3825L103.786 31.5278L103.435 31.1771ZM103.435 1.11133V0.614883H103.931V1.11133H103.435ZM103.278 1.11133H102.782V0.614883H103.278V1.11133ZM103.278 13.9028H103.774V15.1002L102.927 14.2541L103.278 13.9028ZM99.2538 9.88371L98.903 10.235L98.7573 10.0895V9.88371H99.2538ZM99.2538 1.11133V0.614883H99.7502V1.11133H99.2538ZM99.0973 1.11133H98.6008V0.614883H99.0973V1.11133ZM99.0973 10.0383L98.7465 10.3896L98.6008 10.2442V10.0383H99.0973ZM103.278 14.212L103.629 13.8606L103.774 14.0061V14.212H103.278ZM103.278 21.5931H103.774V22.791L102.927 21.9443L103.278 21.5931ZM97.9795 16.2988L97.6286 16.6499L97.3417 16.3633L97.5653 16.025L97.9795 16.2988ZM97.89 15.4099L97.5495 15.7711L97.5434 15.7654L97.5375 15.7595L97.89 15.4099ZM96.884 15.4099L96.5315 15.0604L96.5315 15.0604L96.884 15.4099ZM96.884 16.4147L96.5594 16.7903L96.5449 16.7778L96.5315 16.7643L96.884 16.4147ZM97.823 16.4534L97.4984 16.0777L97.8474 15.7761L98.1738 16.1021L97.823 16.4534ZM103.278 21.9023L103.629 21.5511L103.774 21.6965V21.9023H103.278ZM103.278 31.0225H103.774V31.2279L103.629 31.3733L103.278 31.0225ZM95.252 39.0606L95.6033 39.4114L95.2536 39.7616L94.9023 39.413L95.252 39.0606ZM92.6809 36.51L92.3313 36.8625L91.977 36.511L92.3303 36.1586L92.6809 36.51ZM96.5933 32.6069H97.0898V32.8129L96.944 32.9584L96.5933 32.6069ZM96.5933 26.8488L96.9412 26.4947L97.0898 26.6406V26.8488H96.5933ZM95.6096 25.8827L95.2618 26.2369L95.1132 26.091V25.8827H95.6096ZM95.6096 22.9457L95.9605 22.5945L96.1061 22.7399V22.9457H95.6096ZM88.5673 15.9123L88.2165 16.2636L88.0709 16.1181V15.9123H88.5673ZM88.5673 10.9658L88.9182 10.6146L89.0637 10.7601V10.9658H88.5673ZM82.844 5.24632L82.4931 5.59749L82.1896 5.29424L82.4457 4.95003L82.844 5.24632ZM82.7769 4.31886L82.4363 4.68007L82.4303 4.67436L82.4244 4.66847L82.7769 4.31886ZM81.7709 5.32364L82.1234 4.97404L82.131 4.9817L82.1382 4.98969L81.7709 5.32364ZM82.6875 5.40091L82.3974 4.99808L82.7399 4.7514L83.0384 5.04976L82.6875 5.40091ZM88.4108 11.1203L88.7617 10.7692L88.9072 10.9146V11.1203H88.4108ZM88.4108 16.0669L88.06 16.4182L87.9144 16.2727V16.0669H88.4108ZM95.4532 23.1003L95.804 22.749L95.9496 22.8945V23.1003H95.4532ZM95.4532 25.7281H95.9496V26.9266L95.1021 26.0792L95.4532 25.7281ZM83.6265 13.9028L83.2755 14.2539L82.9888 13.9672L83.2123 13.629L83.6265 13.9028ZM83.537 13.014L83.1965 13.3752L83.1904 13.3695L83.1845 13.3635L83.537 13.014ZM82.531 13.014L82.8835 13.3635L82.8835 13.3635L82.531 13.014ZM82.531 14.0187L82.2064 14.3943L82.1919 14.3819L82.1785 14.3683L82.531 14.0187ZM83.47 14.0574L83.1454 13.6818L83.4944 13.3801L83.8208 13.7061L83.47 14.0574ZM92.9492 23.5254L93.3 23.1741L94.1487 24.0218H92.9492V23.5254ZM88.2096 23.5254V24.0218H88.0041L87.8587 23.8766L88.2096 23.5254ZM82.7546 18.0765L82.4037 18.4277L82.1002 18.1245L82.3562 17.7802L82.7546 18.0765ZM82.6875 17.149L82.3469 17.5102L82.3409 17.5045L82.335 17.4986L82.6875 17.149ZM81.6814 17.149L81.3289 16.7994L81.329 16.7994L81.6814 17.149ZM81.6814 18.1537L82.0339 17.8042L82.0415 17.8118L82.0488 17.8198L81.6814 18.1537ZM82.5981 18.231L82.3079 17.8282L82.65 17.5818L82.9485 17.8794L82.5981 18.231ZM88.1425 23.7572V24.2537H87.9374L87.7921 24.1088L88.1425 23.7572ZM93.2175 23.7572V23.2608H93.4226L93.5679 23.4055L93.2175 23.7572ZM96.4369 26.9648L96.7872 26.6131L96.9333 26.7586V26.9648H96.4369ZM96.4369 32.375H96.9333V32.581L96.7875 32.7265L96.4369 32.375ZM92.5244 36.2782L92.875 36.6297L92.5262 36.9777L92.1756 36.6314L92.5244 36.2782ZM91.742 35.5053L91.3911 35.154L91.74 34.8056L92.0908 35.1521L91.742 35.5053ZM90.7359 36.51L91.0867 36.8613L90.7361 37.2115L90.3853 36.8615L90.7359 36.51ZM74.3485 20.1633V19.6668H74.5537L74.6991 19.8118L74.3485 20.1633ZM69.8548 20.1633V20.6597H69.445L69.3673 20.2573L69.8548 20.1633ZM69.6535 19.8155L70.0061 19.4659L70.0109 19.4709L69.6535 19.8155ZM68.6475 19.8155L69 20.165L69 20.1651L68.6475 19.8155ZM68.6475 20.8202L68.295 21.1698L68.295 21.1698L68.6475 20.8202ZM69.6535 20.8202L69.3011 20.4707L69.3334 20.438L69.3712 20.4119L69.6535 20.8202ZM69.8548 20.4724L69.3673 20.3784L69.445 19.976H69.8548V20.4724ZM74.2814 20.4724V19.976H74.4868L74.6321 20.1211L74.2814 20.4724ZM90.5794 36.7419L90.9301 36.3906L91.284 36.7438L90.9283 37.0951L90.5794 36.7419ZM88.0755 39.2152L88.4243 39.5684L88.0735 39.915L87.7246 39.5664L88.0755 39.2152ZM74.4602 25.6122L74.1094 25.9634L73.8245 25.6788L74.0442 25.3414L74.4602 25.6122ZM74.3932 24.6847L74.0526 25.046L74.0465 25.0402L74.0407 25.0343L74.3932 24.6847ZM73.3871 24.6847L73.7396 25.0343L73.7396 25.0343L73.3871 24.6847ZM73.3871 25.6895L73.7396 25.3399L73.7472 25.3475L73.7545 25.3555L73.3871 25.6895ZM74.3037 25.7668L74.0136 25.3639L74.3553 25.1179L74.6538 25.4148L74.3037 25.7668ZM87.9413 39.3311L88.2914 38.9792L88.6446 39.3305L88.2921 39.6825L87.9413 39.3311ZM85.3479 41.9203L85.6987 42.2717L85.348 42.6218L84.9973 42.2718L85.3479 41.9203ZM66.0988 22.7138L65.7482 23.0653L65.6024 22.9198V22.7138H66.0988ZM66.0988 6.63756H65.6024V6.43144L65.7484 6.28595L66.0988 6.63756ZM71.6433 1.11133V0.614883H72.8446L71.9938 1.46294L71.6433 1.11133ZM71.3303 1.11133L70.9805 0.759018L71.1257 0.614883H71.3303V1.11133ZM68.0215 4.39615L68.3713 4.74846L68.0215 5.09569L67.6718 4.74846L68.0215 4.39615ZM64.7127 1.11133V0.614883H64.9173L65.0625 0.759003L64.7127 1.11133ZM64.3997 1.11133L64.05 1.46367L63.1948 0.614883H64.3997V1.11133ZM67.865 4.55075L68.2147 4.19839L68.5675 4.54857L68.2169 4.90092L67.865 4.55075ZM65.9423 6.48296H65.4459V6.27805L65.5904 6.1328L65.9423 6.48296ZM65.9423 19.1198H66.4388V20.3137L65.5923 19.4718L65.9423 19.1198ZM62.6783 15.8737L62.3282 16.2257L62.1818 16.0801V15.8737H62.6783ZM62.6783 7.99011L63.0291 7.63882L63.1747 7.78427V7.99011H62.6783ZM56.0607 1.38182L55.7099 1.73311L55.4399 1.46347L55.631 1.13319L56.0607 1.38182ZM56.1725 1.11133V0.614883H56.8329L56.6494 1.24928L56.1725 1.11133ZM54.7864 1.11133L54.3232 1.28996L54.0628 0.614883H54.7864V1.11133ZM54.9876 1.45914L55.345 1.11458L55.35 1.11981L55.3549 1.12518L54.9876 1.45914ZM55.9042 1.53642L55.6141 1.13359L55.9564 0.886993L56.255 1.18513L55.9042 1.53642ZM62.5218 8.1447L62.8726 7.79343L63.0182 7.93887V8.1447H62.5218ZM62.5218 16.0283L62.1718 16.3803L62.0253 16.2347V16.0283H62.5218ZM65.9423 19.429L66.2924 19.077L66.4388 19.2226V19.429H65.9423ZM65.9423 22.8684L65.5917 23.2198L65.4459 23.0744V22.8684H65.9423ZM85.1914 42.0749L85.5421 41.7235L85.895 42.0756L85.5413 42.4271L85.1914 42.0749ZM82.3522 44.896L82.7021 45.2482L82.3514 45.5966L82.0015 45.2474L82.3522 44.896ZM45.0165 7.64233L44.6659 7.99376L44.5201 7.84828V7.64233H45.0165ZM45.0165 1.07269V0.576248H45.513V1.07269H45.0165ZM44.86 1.07269H44.3636V0.576248H44.86V1.07269ZM44.86 7.79692L44.5094 8.14835L44.3636 8.00288V7.79692H44.86ZM82.1956 45.0506L82.5463 44.6992L82.8998 45.0519L82.5449 45.4033L82.1956 45.0506ZM79.8929 47.3307L80.2422 47.6834L79.8914 48.0308L79.5421 47.6819L79.8929 47.3307ZM60.6662 28.1241V27.6277H60.8717L61.017 27.7729L60.6662 28.1241ZM46.6485 28.1241V28.6205H46.4435L46.2982 28.4759L46.6485 28.1241ZM40.4781 21.9796L40.1278 22.3314L39.276 21.4831H40.4781V21.9796ZM40.5228 21.9796H41.0193V22.476H40.5228V21.9796ZM40.5228 15.4486L40.8738 15.0975L41.0193 15.2429V15.4486H40.5228ZM33.5252 8.45387L33.1742 8.80499L32.8708 8.50174L33.1268 8.15758L33.5252 8.45387ZM33.4581 7.52638L33.1175 7.88759L33.1114 7.88188L33.1056 7.87598L33.4581 7.52638ZM32.452 7.52638L32.8045 7.87598H32.8045L32.452 7.52638ZM32.452 8.53116L32.8045 8.18156L32.8121 8.18922L32.8194 8.1972L32.452 8.53116ZM33.3687 8.60843L33.0785 8.20561L33.421 7.95888L33.7196 8.25732L33.3687 8.60843ZM40.3663 15.6032L40.7173 15.2521L40.8628 15.3975V15.6032H40.3663ZM40.3663 21.8636H40.8628V23.0597L40.0158 22.2152L40.3663 21.8636ZM29.7469 11.2749V10.7785H29.9521L30.0974 10.9234L29.7469 11.2749ZM6.22765 11.2749L5.87703 10.9235L6.02236 10.7785H6.22765V11.2749ZM1.93003 15.5622L2.28065 15.9136L1.92887 16.2645L1.57826 15.9125L1.93003 15.5622ZM1.91625 15.5487L1.57559 15.9098L1.56959 15.9042L1.56377 15.8983L1.91625 15.5487ZM0.910191 15.5487L0.557683 15.1992L0.557703 15.1991L0.910191 15.5487ZM0.910191 16.5535L1.26268 16.2039L1.27028 16.2116L1.27754 16.2196L0.910191 16.5535ZM1.82682 16.6308L2.1757 16.984L2.14825 17.0111L2.11695 17.0336L1.82682 16.6308ZM1.98331 16.4762L2.38164 16.7725L2.35909 16.8028L2.33219 16.8294L1.98331 16.4762ZM2.05517 15.7453L1.60295 15.9502L1.4613 15.6374L1.70392 15.3945L2.05517 15.7453ZM6.25 11.5455L5.89875 11.1947L6.04419 11.049H6.25V11.5455ZM29.6798 11.5455V11.049H29.8853L30.0307 11.1943L29.6798 11.5455ZM46.5815 28.4333V28.9297H46.3759L46.2306 28.7844L46.5815 28.4333ZM60.5991 28.4333V27.9368H60.8044L60.9497 28.0818L60.5991 28.4333ZM79.7364 47.5238L80.087 47.1724L80.4391 47.5236L80.0872 47.8751L79.7364 47.5238ZM77.7243 49.5334L78.0751 49.8846L77.7244 50.2349L77.3736 49.8847L77.7243 49.5334ZM59.526 31.3703V30.8738H59.7313L59.8767 31.0189L59.526 31.3703ZM43.4292 31.3703V31.8667H43.2239L43.0786 31.7217L43.4292 31.3703ZM35.6043 23.564L35.2537 23.9155L34.9497 23.6122L35.206 23.2677L35.6043 23.564ZM35.5372 22.6365L35.1967 22.9977L35.1906 22.992L35.1848 22.9861L35.5372 22.6365ZM34.5312 22.6365L34.1787 22.287L34.1787 22.2869L34.5312 22.6365ZM34.5312 23.6413L34.8837 23.2918L34.8913 23.2994L34.8985 23.3074L34.5312 23.6413ZM35.4478 23.7186L35.1577 23.3158L35.5005 23.0689L35.799 23.3677L35.4478 23.7186ZM43.3621 31.6408V32.1373H43.1563L43.0109 31.9917L43.3621 31.6408ZM59.4589 31.6408V31.1444H59.6657L59.8114 31.2912L59.4589 31.6408ZM62.1417 34.3459L62.4942 33.9964L63.3333 34.8424H62.1417V34.3459ZM40.6793 34.3459L40.3287 33.9945L40.474 33.8495H40.6793V34.3459ZM23.7106 51.2724L24.0612 51.6239L23.7626 51.9217L23.4204 51.6752L23.7106 51.2724ZM22.7939 51.3497L22.4415 51.0001L22.4473 50.9942L22.4534 50.9885L22.7939 51.3497ZM22.7939 52.3545L22.4415 52.704L22.4414 52.704L22.7939 52.3545ZM23.8 52.3545L24.1674 52.6884L24.1601 52.6964L24.1525 52.7041L23.8 52.3545ZM23.8671 51.427L23.4687 51.7233L23.2134 51.38L23.5152 51.0767L23.8671 51.427ZM40.6793 34.5392L40.3275 34.1889L40.473 34.0427H40.6793V34.5392ZM62.3876 34.5392V34.0427H62.5925L62.7378 34.1873L62.3876 34.5392ZM69.1841 41.302L69.5342 40.9501L69.8866 41.3008L69.5355 41.6527L69.1841 41.302ZM66.5236 43.9685L66.8751 44.3192L66.7296 44.465H66.5236V43.9685ZM61.784 43.9685L61.4338 43.6167L61.5791 43.4721H61.784V43.9685ZM57.3574 48.374L57.7076 48.7259L57.409 49.023L57.0672 48.7769L57.3574 48.374ZM56.4408 48.4513L56.0883 48.1018L56.0941 48.0958L56.1002 48.0901L56.4408 48.4513ZM56.4408 49.4561L56.7933 49.1065L56.7933 49.1065L56.4408 49.4561ZM57.4468 49.4561L57.8141 49.79L57.8069 49.798L57.7993 49.8056L57.4468 49.4561ZM57.5139 48.5286L57.1155 48.8249L56.8589 48.4798L57.1639 48.1765L57.5139 48.5286ZM61.8287 44.239L61.4787 43.887L61.6239 43.7426H61.8287V44.239ZM66.233 44.239V43.7426H67.4337L66.5836 44.5905L66.233 44.239ZM55.9266 54.5186L56.2771 54.8701L56.1318 55.015H55.9266V54.5186ZM46.3802 54.5186V55.015H46.1753L46.0301 54.8705L46.3802 54.5186ZM41.0594 49.2242L40.7092 49.5762L40.4045 49.2729L40.661 48.928L41.0594 49.2242ZM40.9923 48.2968L40.6518 48.658L40.6457 48.6522L40.6398 48.6463L40.9923 48.2968ZM39.9863 48.2968L40.3388 48.6463L40.3387 48.6463L39.9863 48.2968ZM39.9863 49.3015L40.3388 48.9519L40.3463 48.9596L40.3536 48.9676L39.9863 49.3015ZM40.9029 49.3788L40.6127 48.976L40.9553 48.7292L41.2539 49.0278L40.9029 49.3788ZM46.3132 54.7891V55.2855H46.1076L45.9621 55.1401L46.3132 54.7891ZM55.9489 54.7891L56.2995 55.1406L56.1542 55.2855H55.9489V54.7891ZM69.3182 41.4566L68.9677 41.1051L69.3188 40.755L69.6693 41.1057L69.3182 41.4566ZM74.9968 47.1374L75.3479 46.7864L76.195 47.6338H74.9968V47.1374ZM71.8669 47.1374L71.5168 46.7854L71.6621 46.641H71.8669V47.1374ZM69.3406 49.6493L69.6906 50.0014L69.392 50.2982L69.0504 50.0521L69.3406 49.6493ZM68.4239 49.7266L68.7913 50.0605L68.784 50.0685L68.7764 50.0762L68.4239 49.7266ZM68.4239 50.7314L68.0714 51.081L68.0714 51.0809L68.4239 50.7314ZM69.43 50.7314L69.0775 50.3818L69.0834 50.3759L69.0894 50.3702L69.43 50.7314ZM69.5194 49.8426L69.1211 50.1388L68.8641 49.7934L69.1697 49.4902L69.5194 49.8426ZM71.9339 47.4466L71.5843 47.0942L71.7294 46.9501H71.9339V47.4466ZM75.3098 47.4466V46.9501H75.5158L75.6613 47.096L75.3098 47.4466ZM77.5455 49.688L77.897 49.3374L78.2474 49.6887L77.8962 50.0393L77.5455 49.688ZM72.7835 54.4413L72.4314 54.7912L72.0822 54.4399L72.4328 54.0899L72.7835 54.4413ZM74.2814 55.9484L74.6335 55.5985L74.9827 55.9498L74.6322 56.2997L74.2814 55.9484ZM66.0765 64.1411L66.4273 64.4924L66.2819 64.6376H66.0765V64.1411ZM63.3266 64.1411V64.6376H63.1218L62.9765 64.4931L63.3266 64.1411ZM60.0625 60.895L59.7125 61.247L59.4076 60.9437L59.6642 60.5987L60.0625 60.895ZM59.9955 59.9675L59.6549 60.3287L59.6489 60.323L59.643 60.3171L59.9955 59.9675ZM58.9894 59.9675L58.6369 59.6179L58.6369 59.6179L58.9894 59.9675ZM58.9894 60.9723L59.3419 60.6227L59.3495 60.6304L59.3568 60.6383L58.9894 60.9723ZM59.9061 61.0496L59.6159 60.6467L59.9578 60.4005L60.2564 60.6978L59.9061 61.0496ZM63.2819 64.4117V64.9081H63.0769L62.9316 64.7634L63.2819 64.4117ZM66.1212 64.4117L66.4706 64.7644L66.3254 64.9081H66.1212V64.4117ZM72.0904 58.499L71.7411 58.1463L72.5869 57.3085V58.499H72.0904ZM72.0904 63.9479H72.5869V64.1542L72.4407 64.2997L72.0904 63.9479ZM66.5013 69.5128L66.8515 69.8646L66.553 70.1618L66.2111 69.9156L66.5013 69.5128ZM65.5846 69.5901L65.2322 69.2405L65.238 69.2346L65.2441 69.2289L65.5846 69.5901ZM65.5846 70.5948L65.9371 70.2453L65.9371 70.2453L65.5846 70.5948ZM66.5907 70.5948L66.958 70.9288L66.9508 70.9368L66.9432 70.9444L66.5907 70.5948ZM66.6578 69.6674L66.2594 69.9636L66.0029 69.6188L66.3075 69.3156L66.6578 69.6674ZM72.2469 64.1025H72.7434V64.3088L72.5972 64.4543L72.2469 64.1025ZM72.2469 58.3444H71.7505V58.1381L71.8967 57.9926L72.2469 58.3444ZM74.4602 56.1417L74.11 55.7898L74.4609 55.4406L74.8111 55.7905L74.4602 56.1417ZM82.1956 63.8706L82.5465 63.5195L82.8981 63.8708L82.5464 64.2219L82.1956 63.8706ZM78.5962 67.4646L78.947 67.8159L78.8016 67.9611H78.5962V67.4646ZM73.946 67.4646L73.5953 67.1133L73.7407 66.9682H73.946V67.4646ZM66.5907 74.8071L66.9414 75.1585L66.7961 75.3036H66.5907V74.8071ZM61.0015 74.8071V75.3036H60.7961L60.6508 75.1584L61.0015 74.8071ZM53.2214 67.0395L52.8706 67.3908L52.5669 67.0876L52.8231 66.7432L53.2214 67.0395ZM53.1543 66.1121L52.8138 66.4733L52.8077 66.4676L52.8018 66.4616L53.1543 66.1121ZM52.1483 66.1121L52.5008 66.4616L52.5008 66.4616L52.1483 66.1121ZM52.1483 67.1168L52.5008 66.7673L52.5084 66.7749L52.5156 66.7829L52.1483 67.1168ZM53.0649 67.1941L52.7748 66.7913L53.1168 66.5449L53.4154 66.8425L53.0649 67.1941ZM60.9345 75.039V75.5354H60.7293L60.584 75.3906L60.9345 75.039ZM66.6354 75.039L66.9861 75.3904L66.8408 75.5354H66.6354V75.039ZM73.9907 67.6965L73.64 67.3451L73.7854 67.2H73.9907V67.6965ZM78.3279 67.6965V67.2H79.5284L78.6786 68.0479L78.3279 67.6965ZM56.7537 89.2217L57.1044 89.5731L56.9591 89.7181H56.7537V89.2217ZM56.7985 89.4922L57.149 89.8437L57.0037 89.9886H56.7985V89.4922ZM82.3745 63.9866L82.024 63.6351L82.3745 63.2855L82.7251 63.6351L82.3745 63.9866ZM85.2809 66.8849L85.6314 66.5334L85.9837 66.8848L85.6316 67.2363L85.2809 66.8849ZM59.4589 92.6611L59.8096 93.0124L59.1082 92.3097L59.4589 92.6611ZM85.415 67.0395L85.0646 66.6879L85.4163 66.3373L85.7668 66.6892L85.415 67.0395ZM88.4555 70.0925L88.8073 69.7421L89.1572 70.0935L88.8063 70.4438L88.4555 70.0925ZM73.32 85.2026L73.6708 85.554L73.6581 85.5666L73.6446 85.5783L73.32 85.2026ZM73.2753 85.2413H72.7789V85.0141L72.9508 84.8656L73.2753 85.2413ZM73.2753 98.4578L72.9245 98.8091L72.7789 98.6636V98.4578H73.2753ZM99.3209 124.466L99.6716 124.115L99.9753 124.418L99.7192 124.762L99.3209 124.466ZM99.3879 125.393L99.7285 125.032L99.7346 125.038L99.7404 125.044L99.3879 125.393ZM100.394 125.393L100.041 125.044L100.041 125.044L100.394 125.393ZM100.394 124.389L100.041 124.738L100.034 124.73L100.027 124.722L100.394 124.389ZM99.4773 124.311L99.7675 124.714L99.4251 124.961L99.1265 124.663L99.4773 124.311ZM80.3624 105.221L80.0116 105.572L79.1628 104.724H80.3624V105.221ZM86.1081 105.221V104.724H86.3133L86.4586 104.869L86.1081 105.221ZM96.4145 115.5L96.7651 115.149L97.0691 115.452L96.8128 115.796L96.4145 115.5ZM96.4816 116.428L96.8221 116.066L96.8282 116.072L96.8341 116.078L96.4816 116.428ZM97.4876 116.428L97.8401 116.777L97.8401 116.777L97.4876 116.428ZM97.4876 115.423L97.1351 115.773L97.1275 115.765L97.1203 115.757L97.4876 115.423ZM96.571 115.346L96.8611 115.748L96.5189 115.995L96.2203 115.697L96.571 115.346ZM86.1528 104.95V104.454H86.3581L86.5034 104.599L86.1528 104.95ZM80.0718 104.95V105.447H79.8663L79.721 105.301L80.0718 104.95ZM73.4542 98.3419L73.1034 98.6932L72.9577 98.5477V98.3419H73.4542ZM73.4542 85.4345H72.9577V85.2287L73.1033 85.0833L73.4542 85.4345ZM85.6386 73.2614L85.2877 72.9101L86.135 72.0636V73.2614H85.6386ZM85.6386 79.831H86.135V80.0372L85.9889 80.1827L85.6386 79.831ZM78.1491 87.2894L78.4994 87.6412L78.487 87.6536L78.4737 87.665L78.1491 87.2894ZM78.1044 87.3281H77.6079V87.101L77.7797 86.9525L78.1044 87.3281ZM78.1044 93.975H78.6008V94.4715H78.1044V93.975ZM77.6796 94.1682L78.037 94.5128L78.0321 94.5178L77.6796 94.1682ZM78.6857 94.1682L78.3331 94.5178L78.3283 94.5128L78.6857 94.1682ZM78.2609 93.975V94.4715H77.7644V93.975H78.2609ZM78.2609 87.4827H77.7644V87.2764L77.9106 87.1309L78.2609 87.4827ZM85.7504 80.0242L85.4 79.6724L85.4124 79.6601L85.4256 79.6487L85.7504 80.0242ZM85.7951 79.9855H86.2915V80.2125L86.1198 80.361L85.7951 79.9855ZM85.7951 73.1068H85.2986V72.9002L85.4452 72.7546L85.7951 73.1068ZM88.6344 70.2857L88.2845 69.9335L88.6355 69.5847L88.9854 69.9347L88.6344 70.2857ZM91.7643 73.4159L92.1147 73.7676L91.7637 74.1174L91.4133 73.7669L91.7643 73.4159ZM93.6646 71.5223L93.3142 71.1707L94.1611 70.3268V71.5223H93.6646ZM93.6646 85.8209H94.1611V86.0263L94.016 86.1716L93.6646 85.8209ZM87.0694 92.4292L87.4208 92.7799L87.1222 93.079L86.7793 92.8321L87.0694 92.4292ZM86.1528 92.5065L85.8003 92.1569L85.8062 92.151L85.8122 92.1453L86.1528 92.5065ZM86.1528 93.5113L85.8003 93.8609L85.8003 93.8609L86.1528 93.5113ZM87.1588 93.5113L87.5262 93.8452L87.5189 93.8532L87.5113 93.8609L87.1588 93.5113ZM87.2259 92.5838L86.8276 92.8801L86.5715 92.5359L86.8749 92.2327L87.2259 92.5838ZM93.7988 86.0142L93.4478 85.663L93.4605 85.6504L93.4741 85.6386L93.7988 86.0142ZM93.8435 85.9755H94.3399V86.2025L94.1682 86.351L93.8435 85.9755ZM93.8435 80.1401H93.347V78.9406L94.1947 79.7893L93.8435 80.1401ZM98.7843 85.0867L99.1355 84.7358L99.2807 84.8812V85.0867H98.7843ZM98.7843 90.6129H99.2807V90.819L99.1348 90.9645L98.7843 90.6129ZM88.0084 101.356L88.3589 101.708L88.0603 102.005L87.7182 101.759L88.0084 101.356ZM87.0918 101.433L86.7393 101.084L86.7451 101.078L86.7512 101.072L87.0918 101.433ZM87.0918 102.438L87.4442 102.089L87.4443 102.089L87.0918 102.438ZM88.0978 102.438L88.4652 102.772L88.4579 102.78L88.4503 102.788L88.0978 102.438ZM88.1649 101.511L87.7665 101.807L87.5103 101.462L87.8143 101.159L88.1649 101.511ZM98.8961 90.8061L98.5455 90.4546L98.5581 90.4421L98.5716 90.4304L98.8961 90.8061ZM98.9408 90.7675H99.4372V90.9947L99.2653 91.1432L98.9408 90.7675ZM98.9408 84.8935L99.292 84.5426L99.4372 84.6879V84.8935H98.9408ZM93.8435 79.7923L93.4923 80.1432L93.347 79.9978V79.7923H93.8435ZM93.8435 71.3291H93.347V71.1235L93.4924 70.9781L93.8435 71.3291ZM96.5486 68.624L96.1976 68.2729L96.5486 67.9219L96.8997 68.2729L96.5486 68.624ZM98.829 70.904L99.18 70.5529L99.3255 70.6983V70.904H98.829ZM98.829 76.0824L98.4793 76.4348L98.3326 76.2891V76.0824H98.829ZM102.294 79.5218L102.644 79.1695L102.931 79.454L102.71 79.7926L102.294 79.5218ZM102.361 80.4493L102.702 80.0881L102.708 80.0938L102.714 80.0997L102.361 80.4493ZM103.367 80.4493L103.72 80.7989L103.72 80.7989L103.367 80.4493ZM103.367 79.4445L103.015 79.7941L103.007 79.7865L103 79.7785L103.367 79.4445ZM102.451 79.3673L102.741 79.7701L102.4 80.0159L102.101 79.7196L102.451 79.3673ZM98.9855 75.9278L98.6358 76.2802L98.4891 76.1346V75.9278H98.9855ZM98.9855 71.0586H98.4891V69.8624L99.3361 70.7071L98.9855 71.0586ZM106.542 78.5943L106.893 78.2428L107.039 78.3883V78.5943H106.542ZM106.542 89.9559H107.039V90.1618L106.893 90.3073L106.542 89.9559ZM95.1625 101.318L95.5133 101.669L95.5007 101.681L95.4872 101.693L95.1625 101.318ZM95.1178 101.356H94.6214V101.129L94.7931 100.981L95.1178 101.356ZM95.1178 105.646L94.7674 105.997L94.6214 105.852V105.646H95.1178ZM101.557 112.061L101.907 111.709L102.193 111.994L101.973 112.332L101.557 112.061ZM101.624 112.988L101.964 112.627L101.97 112.633L101.976 112.639L101.624 112.988ZM102.63 112.988L102.982 113.338L102.982 113.338L102.63 112.988ZM102.63 111.984L102.277 112.333L102.27 112.325L102.262 112.317L102.63 111.984ZM101.713 111.906L102.003 112.309L101.661 112.555L101.363 112.258L101.713 111.906ZM95.2743 105.491L94.9239 105.843L94.7779 105.697V105.491H95.2743ZM95.2743 101.511H94.7779V101.305L94.9235 101.159L95.2743 101.511ZM106.654 90.1492L106.303 89.7979L106.316 89.7852L106.329 89.7735L106.654 90.1492ZM106.699 90.1105H107.195V90.3376L107.023 90.4862L106.699 90.1105ZM106.699 78.4398L107.049 78.0883L107.195 78.2338V78.4398H106.699ZM96.7051 68.4694L96.3545 68.8208L96.0024 68.4696L96.3543 68.1181L96.7051 68.4694ZM98.7172 66.4598L98.3664 66.1086L98.7172 65.7583L99.068 66.1085L98.7172 66.4598ZM111.684 79.4059L112.035 79.0546L112.181 79.2V79.4059H111.684ZM111.684 100.699L111.333 101.05L111.188 100.904V100.699H111.684ZM115.462 104.486L115.814 104.136L115.959 104.281V104.486H115.462ZM115.462 124.079L115.112 124.431L114.966 124.285V124.079H115.462ZM131 139.576L131.351 139.224L131.586 139.459L131.459 139.766L131 139.576ZM110.387 54.4799L110.738 54.1286L111.09 54.4799L110.738 54.8313L110.387 54.4799ZM91.7643 35.8918L91.4136 35.5404L91.7643 35.1903L92.115 35.5404L91.7643 35.8918ZM91.7643 73.0681L92.115 73.4195L91.7643 73.7695L91.4136 73.4195L91.7643 73.0681ZM73.1412 54.4799L72.7905 54.8313L72.4385 54.4799L72.7905 54.1286L73.1412 54.4799ZM40.8786 88.5629L40.5261 88.2133L40.532 88.2074L40.5381 88.2017L40.8786 88.5629ZM41.7952 88.4856L41.6261 88.9523L41.5611 88.9288L41.5051 88.8884L41.7952 88.4856ZM40.8786 89.5677L41.2311 89.2181L40.8786 89.5677ZM41.8847 89.5677L42.2782 89.8703L42.2592 89.8951L42.2372 89.9172L41.8847 89.5677ZM58.1712 92.2642C58.5765 91.8821 59.2422 91.8022 59.7185 92.1452L59.1382 92.9509C59.078 92.9075 58.9389 92.9049 58.8523 92.9866L58.1712 92.2642ZM58.1593 93.9797C57.6991 93.5157 57.6991 92.7399 58.1593 92.2758L58.8643 92.975C58.7879 93.0519 58.7879 93.2036 58.8643 93.2806L58.1593 93.9797ZM59.8703 93.9797C59.4078 94.4461 58.6218 94.4461 58.1593 93.9797L58.8643 93.2806C58.9384 93.3553 59.0912 93.3553 59.1653 93.2806L59.8703 93.9797ZM59.1243 93.3275C59.1572 93.2847 59.195 93.2257 59.2253 93.162C59.2564 93.0965 59.271 93.0439 59.2748 93.0099C59.2784 92.9781 59.27 92.9887 59.2852 93.0149C59.3031 93.0461 59.3167 93.0357 59.2592 93.0148L59.5976 92.0814C59.8283 92.165 60.0235 92.3079 60.1452 92.5188C60.264 92.7247 60.2815 92.9415 60.2616 93.1198C60.2241 93.4568 60.0439 93.7604 59.9113 93.9328L59.1243 93.3275ZM132.515 140.698C132.053 141.165 131.267 141.165 130.804 140.698L131.509 139.999C131.583 140.074 131.736 140.074 131.81 139.999L132.515 140.698ZM132.538 138.98C132.968 139.476 132.968 140.178 132.538 140.674L131.788 140.024C131.894 139.901 131.894 139.753 131.788 139.631L132.538 138.98ZM130.804 138.956C131.267 138.49 132.053 138.49 132.515 138.956L131.81 139.655C131.736 139.58 131.583 139.58 131.509 139.655L130.804 138.956ZM130.705 139.096L130.727 139.057L131.587 139.554L131.564 139.593L130.705 139.096ZM115.969 123.534L131.485 138.992L130.784 139.696L115.268 124.238L115.969 123.534ZM116.115 104.641V123.886H115.122V104.641H116.115ZM135.523 125.204L115.268 104.992L115.97 104.29L136.225 124.501L135.523 125.204ZM136.37 124.543V124.852H135.378V124.543H136.37ZM112.169 100.193L136.225 124.192L135.523 124.895L111.468 100.896L112.169 100.193ZM112.315 79.2513V100.545H111.322V79.2513H112.315ZM99.2021 65.9539L112.169 78.9L111.467 79.6026L98.5006 66.6566L99.2021 65.9539ZM101.503 64.378L99.2007 66.658L98.5021 65.9525L100.805 63.6724L101.503 64.378ZM113.435 76.975L100.804 64.3767L101.505 63.6737L114.136 76.272L113.435 76.975ZM113.278 76.5607L113.322 76.4448L114.249 76.8021L114.204 76.918L113.278 76.5607ZM125.396 89.0707L113.39 77.0908L114.092 76.388L126.097 88.3679L125.396 89.0707ZM125.25 91.3472V88.7193H126.243V91.3472H125.25ZM127.832 94.133L125.396 91.6984L126.097 90.996L128.534 93.4306L127.832 94.133ZM127.687 101.279V93.7818H128.68V101.279H127.687ZM135.524 109.283L127.833 101.631L128.533 100.927L136.224 108.579L135.524 109.283ZM136.37 108.621V108.931H135.378V108.621H136.37ZM128.69 100.772L136.224 108.27L135.524 108.973L127.99 101.476L128.69 100.772ZM128.836 93.9364V101.124H127.843V93.9364H128.836ZM131.097 97.3799L127.99 94.2883L128.69 93.5844L131.798 96.676L131.097 97.3799ZM131.174 98.3166C130.722 97.8908 130.724 97.2296 131.031 96.7572L131.863 97.2987C131.769 97.4446 131.815 97.5563 131.855 97.5942L131.174 98.3166ZM132.873 98.305C132.411 98.7713 131.624 98.7713 131.162 98.305L131.867 97.6058C131.941 97.6805 132.094 97.6805 132.168 97.6058L132.873 98.305ZM132.873 96.6011C133.333 97.0651 133.333 97.8409 132.873 98.305L132.168 97.6059C132.244 97.5289 132.244 97.3772 132.168 97.3002L132.873 96.6011ZM131.314 96.4705C131.753 96.1542 132.445 96.1301 132.888 96.6167L132.153 97.2846C132.125 97.2539 132.089 97.2365 132.042 97.2337C131.99 97.2307 131.935 97.2467 131.894 97.2762L131.314 96.4705ZM126.253 90.8409L131.954 96.5217L131.253 97.225L125.553 91.5442L126.253 90.8409ZM126.399 88.5647V91.1926H125.406V88.5647H126.399ZM114.338 76.3109L126.254 88.2135L125.552 88.9159L113.636 77.0133L114.338 76.3109ZM119.531 77.1585H113.987V76.1656H119.531V77.1585ZM135.523 93.3217L119.181 77.0135L119.882 76.3107L136.225 92.6188L135.523 93.3217ZM136.37 92.6611V92.9702H135.378V92.6611H136.37ZM120.195 76.3107L136.225 92.3097L135.523 93.0125L119.494 77.0135L120.195 76.3107ZM135.874 77.1585H119.844V76.1656H135.874V77.1585ZM136.37 76.3916V76.6621H135.378V76.3916H136.37ZM113.875 75.8951H135.874V76.888H113.875V75.8951ZM101.662 63.4809L114.226 76.0405L113.524 76.7427L100.96 64.1831L101.662 63.4809ZM104.031 61.8266L101.661 64.184L100.96 63.48L103.33 61.1227L104.031 61.8266ZM112.451 70.9459L103.329 61.8257L104.031 61.1236L113.153 70.2438L112.451 70.9459ZM136.37 70.2471V70.5948H135.378V70.2471H136.37ZM119.531 69.7506H135.874V70.7435H119.531V69.7506ZM124.845 65.6521L119.882 70.5987L119.181 69.8954L124.144 64.9489L124.845 65.6521ZM135.874 65.797H124.494V64.8041H135.874V65.797ZM136.37 65.03V65.3005H135.378V65.03H136.37ZM124.45 64.5335H135.874V65.5264H124.45V64.5335ZM118.846 69.8948L124.1 64.6777L124.8 65.3822L119.546 70.5993L118.846 69.8948ZM112.847 69.7506H119.196V70.7435H112.847V69.7506ZM104.188 60.8916L113.198 69.8959L112.496 70.5982L103.486 61.5939L104.188 60.8916ZM106.288 59.5082L104.187 61.5951L103.487 60.8905L105.589 58.8037L106.288 59.5082ZM113.569 67.4683L105.588 59.5074L106.289 58.8045L114.27 66.7653L113.569 67.4683ZM124.04 60.9765L117.512 67.4688L116.811 66.7648L123.34 60.2725L124.04 60.9765ZM135.896 61.1209H123.69V60.128H135.896V61.1209ZM136.393 60.354V60.6245H135.4V60.354H136.393ZM123.645 59.8575H135.896V60.8504H123.645V59.8575ZM116.767 66.4943L123.295 60.002L123.995 60.706L117.467 67.1983L116.767 66.4943ZM113.987 66.3498H117.117V67.3427H113.987V66.3498ZM108.548 60.6987L114.338 66.4954L113.636 67.1971L107.845 61.4004L108.548 60.6987ZM111.103 61.546H108.196V60.5531H111.103V61.546ZM113.568 64.2214L110.752 61.4004L111.454 60.6988L114.271 63.5199L113.568 64.2214ZM116.111 64.3671H113.92V63.3742H116.111V64.3671ZM121.335 59.3526L116.462 64.2218L115.76 63.5194L120.634 58.6502L121.335 59.3526ZM122.219 59.2853C121.816 59.6655 121.173 59.7487 120.694 59.4042L121.275 58.5985C121.333 58.6405 121.45 58.6464 121.538 58.5629L122.219 59.2853ZM122.231 57.5697C122.691 58.0338 122.691 58.8096 122.231 59.2737L121.526 58.5745C121.603 58.4975 121.603 58.3459 121.526 58.2689L122.231 57.5697ZM120.52 57.5697C120.983 57.1034 121.769 57.1034 122.231 57.5697L121.526 58.2689C121.452 58.1942 121.299 58.1942 121.225 58.2689L120.52 57.5697ZM120.423 59.1631C120.024 58.6804 120.087 58.0069 120.52 57.5698L121.225 58.2689C121.171 58.3239 121.153 58.3777 121.15 58.4168C121.147 58.4552 121.158 58.494 121.188 58.5306L120.423 59.1631ZM115.693 63.2487L120.455 58.4955L121.156 59.1982L116.394 63.9515L115.693 63.2487ZM113.942 63.1037H116.044V64.0966H113.942V63.1037ZM111.476 60.4283L114.293 63.2493L113.591 63.9509L110.774 61.1298L111.476 60.4283ZM107.906 60.2826H111.125V61.2755H107.906V60.2826ZM106.447 58.6122L108.257 60.4285L107.554 61.1295L105.743 59.3132L106.447 58.6122ZM109.396 56.3776L106.445 59.3146L105.745 58.6109L108.696 55.6738L109.396 56.3776ZM113.383 56.5222H109.046V55.5293H113.383V56.5222ZM119.122 51.0056L113.734 56.3773L113.033 55.6741L118.421 50.3025L119.122 51.0056ZM120.028 50.938C119.623 51.3201 118.957 51.4 118.481 51.0569L119.061 50.2513C119.122 50.2946 119.261 50.2973 119.347 50.2156L120.028 50.938ZM120.04 49.2225C120.5 49.6865 120.5 50.4623 120.04 50.9264L119.335 50.2272C119.412 50.1503 119.412 49.9986 119.335 49.9216L120.04 49.2225ZM118.329 49.2224C118.792 48.7561 119.578 48.7561 120.04 49.2224L119.335 49.9216C119.261 49.8469 119.108 49.8469 119.034 49.9216L118.329 49.2224ZM118.216 50.7958C117.864 50.322 117.92 49.6722 118.314 49.2381L119.049 49.9059C118.952 50.0129 118.963 50.136 119.013 50.2032L118.216 50.7958ZM113.01 55.4042L118.264 50.1485L118.966 50.8505L113.712 56.1062L113.01 55.4042ZM109.337 55.2588H113.361V56.2517H109.337V55.2588ZM111.074 54.7144L109.688 56.1056L108.985 55.4048L110.371 54.0136L111.074 54.7144ZM108.929 51.8503L111.075 54.0144L110.37 54.7136L108.224 52.5495L108.929 51.8503ZM114.761 46.7553L108.926 52.5521L108.227 51.8477L114.062 46.0509L114.761 46.7553ZM120.537 46.8996H114.412V45.9067H120.537V46.8996ZM126.648 53.2081L120.187 46.7544L120.888 46.0519L127.349 52.5056L126.648 53.2081ZM126.725 54.1455C126.282 53.7279 126.26 53.0176 126.6 52.5606L127.397 53.1531C127.334 53.2371 127.357 53.377 127.406 53.4231L126.725 54.1455ZM128.424 54.1339C127.962 54.6003 127.175 54.6003 126.713 54.1339L127.418 53.4348C127.492 53.5094 127.645 53.5094 127.719 53.4348L128.424 54.1339ZM128.424 52.43C128.884 52.894 128.884 53.6699 128.424 54.1339L127.719 53.4347C127.795 53.3578 127.795 53.2061 127.719 53.1291L128.424 52.43ZM126.865 52.2994C127.304 51.9831 127.997 51.959 128.439 52.4456L127.704 53.1135C127.676 53.0828 127.64 53.0654 127.593 53.0626C127.541 53.0596 127.486 53.0756 127.445 53.1051L126.865 52.2994ZM124.174 49.0274L127.506 52.3508L126.804 53.0537L123.473 49.7302L124.174 49.0274ZM135.896 49.8752H123.824V48.8824H135.896V49.8752ZM136.393 49.0696V49.3788H135.4V49.0696H136.393ZM135.527 48.7328L135.572 48.6942L136.221 49.4451L136.176 49.4838L135.527 48.7328ZM123.533 48.6119H135.852V49.6047H123.533V48.6119ZM120.932 45.8194L123.883 48.7564L123.183 49.4602L120.232 46.5232L120.932 45.8194ZM117.422 44.1277L115.007 46.5237L114.308 45.8189L116.722 43.4229L117.422 44.1277ZM130.933 44.2717H117.072V43.2788H130.933V44.2717ZM134.86 40.5721L131.283 44.1274L130.583 43.4232L134.16 39.8679L134.86 40.5721ZM135.874 40.7164H134.51V39.7235H135.874V40.7164ZM136.37 39.9495V40.22H135.378V39.9495H136.37ZM134.779 39.453H135.874V40.4459H134.779V39.453ZM136.223 39.2206L135.127 40.3027L134.43 39.5963L135.525 38.5142L136.223 39.2206ZM136.37 38.5582V38.8674H135.378V38.5582H136.37ZM130.537 43.1924L135.523 38.2072L136.225 38.9093L131.24 43.8945L130.537 43.1924ZM117.027 43.047H130.888V44.0399H117.027V43.047ZM108.047 51.8099L116.677 43.1921L117.378 43.8947L108.748 52.5125L108.047 51.8099ZM104.724 47.7909L108.748 51.81L108.047 52.5125L104.023 48.4934L104.724 47.7909ZM114.762 38.4847L104.724 48.4937L104.023 47.7906L114.061 37.7816L114.762 38.4847ZM125.21 38.6296H114.412V37.6367H125.21V38.6296ZM136.247 27.8185L125.561 38.4845L124.859 37.7818L135.546 27.1158L136.247 27.8185ZM136.393 27.158V27.4672H135.4V27.158H136.393ZM124.859 37.4726L135.546 26.8066L136.247 27.5094L125.561 38.1754L124.859 37.4726ZM114.725 37.3276H125.21V38.3204H114.725V37.3276ZM128.333 24.9199L115.076 38.1751L114.374 37.4729L127.631 24.2177L128.333 24.9199ZM128.479 13.9801V24.5688H127.486V13.9801H128.479ZM136.248 6.40875L128.333 14.3309L127.631 13.6292L135.545 5.70703L136.248 6.40875ZM136.393 5.74873V6.05789H135.4V5.74873H136.393ZM127.453 13.4741L135.546 5.39734L136.247 6.10013L128.154 14.1769L127.453 13.4741ZM127.307 24.4142V13.8255H128.3V24.4142H127.307ZM103.866 47.5975L127.453 24.0628L128.154 24.7656L104.568 48.3004L103.866 47.5975ZM101.101 44.1572L104.567 47.5966L103.867 48.3013L100.402 44.8619L101.101 44.1572ZM115.276 30.7169L101.102 44.8609L100.401 44.1581L114.575 30.0141L115.276 30.7169ZM115.422 9.07219V30.3655H114.429V9.07219H115.422ZM123.28 1.4633L115.276 9.42416L114.576 8.72021L122.579 0.759338L123.28 1.4633ZM122.617 0.614883H122.929V1.60777H122.617V0.614883ZM114.419 8.56564L122.266 0.759369L122.967 1.46327L115.119 9.26955L114.419 8.56564ZM114.273 30.2109V8.91759H115.266V30.2109H114.273ZM100.245 44.0036L114.419 29.8595L115.12 30.5624L100.946 44.7064L100.245 44.0036ZM98.7983 41.8768L100.945 44.0022L100.246 44.7077L98.0996 42.5822L98.7983 41.8768ZM109.307 32.1083L98.7994 42.5811L98.0985 41.8779L108.606 31.4051L109.307 32.1083ZM109.453 6.79213V31.7567H108.46V6.79213H109.453ZM114.359 2.12035L109.307 7.14417L108.607 6.44009L113.659 1.41626L114.359 2.12035ZM114.506 1.11133V1.7683H113.513V1.11133H114.506ZM113.853 0.614883H114.009V1.60777H113.853V0.614883ZM113.356 1.61369V1.11133H114.349V1.61369H113.356ZM108.45 6.28552L113.503 1.26166L114.203 1.96574L109.15 6.98959L108.45 6.28552ZM108.304 31.6022V6.63756H109.297V31.6022H108.304ZM97.942 41.7233L108.45 31.2505L109.151 31.9538L98.6429 42.4265L97.942 41.7233ZM95.758 38.8627L98.642 41.7224L97.9429 42.4274L95.0589 39.5677L95.758 38.8627ZM103.786 31.5278L95.7597 39.566L95.0571 38.8644L103.083 30.8263L103.786 31.5278ZM103.931 1.11133V31.1771H102.938V1.11133H103.931ZM103.278 0.614883H103.435V1.60777H103.278V0.614883ZM102.782 13.9028V1.11133H103.774V13.9028H102.782ZM99.6046 9.53244L103.629 13.5515L102.927 14.2541L98.903 10.235L99.6046 9.53244ZM99.7502 1.11133V9.88371H98.7573V1.11133H99.7502ZM99.0973 0.614883H99.2538V1.60777H99.0973V0.614883ZM98.6008 10.0383V1.11133H99.5937V10.0383H98.6008ZM102.927 14.5633L98.7465 10.3896L99.448 9.68697L103.629 13.8606L102.927 14.5633ZM102.782 21.5931V14.212H103.774V21.5931H102.782ZM98.3304 15.9476L103.629 21.242L102.927 21.9443L97.6286 16.6499L98.3304 15.9476ZM98.2306 15.0487C98.6694 15.4625 98.6921 16.1211 98.3936 16.5726L97.5653 16.025C97.5904 15.9871 97.6041 15.9355 97.5995 15.8832C97.5951 15.8329 97.5754 15.7956 97.5495 15.7711L98.2306 15.0487ZM96.5315 15.0604C96.994 14.594 97.78 14.594 98.2425 15.0604L97.5375 15.7595C97.4635 15.6848 97.3106 15.6848 97.2365 15.7595L96.5315 15.0604ZM96.5315 16.7643C96.0713 16.3003 96.0713 15.5244 96.5315 15.0604L97.2365 15.7595C97.1601 15.8365 97.1601 15.9882 97.2365 16.0651L96.5315 16.7643ZM98.1476 16.829C97.6561 17.2537 96.9748 17.1493 96.5594 16.7903L97.2086 16.0391C97.2618 16.0851 97.326 16.1091 97.382 16.1123C97.4349 16.1154 97.472 16.1005 97.4984 16.0777L98.1476 16.829ZM102.927 22.2535L97.4721 16.8046L98.1738 16.1021L103.629 21.5511L102.927 22.2535ZM102.782 31.0225V21.9023H103.774V31.0225H102.782ZM94.9007 38.7098L102.927 30.6717L103.629 31.3733L95.6033 39.4114L94.9007 38.7098ZM93.0306 36.1576L95.6016 38.7082L94.9023 39.413L92.3313 36.8625L93.0306 36.1576ZM96.944 32.9584L93.0315 36.8615L92.3303 36.1586L96.2427 32.2555L96.944 32.9584ZM97.0898 26.8488V32.6069H96.0969V26.8488H97.0898ZM95.9575 25.5285L96.9412 26.4947L96.2455 27.203L95.2618 26.2369L95.9575 25.5285ZM96.1061 22.9457V25.8827H95.1132V22.9457H96.1061ZM88.9181 15.5611L95.9605 22.5945L95.2588 23.297L88.2165 16.2636L88.9181 15.5611ZM89.0637 10.9658V15.9123H88.0709V10.9658H89.0637ZM83.1949 4.89517L88.9182 10.6146L88.2164 11.3169L82.4931 5.59749L83.1949 4.89517ZM83.1175 3.95767C83.5604 4.37529 83.5823 5.08556 83.2423 5.54262L82.4457 4.95003C82.5081 4.86609 82.4853 4.7262 82.4363 4.68007L83.1175 3.95767ZM81.4184 3.96928C81.8809 3.50296 82.6669 3.50298 83.1294 3.96927L82.4244 4.66847C82.3503 4.59375 82.1974 4.59377 82.1234 4.66846L81.4184 3.96928ZM81.4184 5.67322C80.9582 5.20918 80.9582 4.43332 81.4184 3.96928L82.1234 4.66846C82.047 4.74542 82.047 4.89708 82.1234 4.97404L81.4184 5.67322ZM82.9776 5.80376C82.5384 6.1201 81.8459 6.14417 81.4035 5.65759L82.1382 4.98969C82.1661 5.02039 82.2025 5.03781 82.2498 5.04057C82.3016 5.04361 82.3565 5.02754 82.3974 4.99808L82.9776 5.80376ZM88.0599 11.4715L82.3366 5.75208L83.0384 5.04976L88.7617 10.7692L88.0599 11.4715ZM87.9144 16.0669V11.1203H88.9072V16.0669H87.9144ZM95.1023 23.4515L88.06 16.4182L88.7616 15.7157L95.804 22.749L95.1023 23.4515ZM94.9567 25.7281V23.1003H95.9496V25.7281H94.9567ZM83.9775 13.5517L95.8042 25.3771L95.1021 26.0792L83.2755 14.2539L83.9775 13.5517ZM83.8776 12.6527C84.3165 13.0665 84.339 13.7251 84.0406 14.1766L83.2123 13.629C83.2374 13.5911 83.2511 13.5395 83.2465 13.4872C83.2421 13.4369 83.2224 13.3996 83.1965 13.3752L83.8776 12.6527ZM82.1785 12.6644C82.641 12.198 83.4271 12.198 83.8895 12.6644L83.1845 13.3635C83.1105 13.2888 82.9576 13.2888 82.8835 13.3635L82.1785 12.6644ZM82.1785 14.3683C81.7183 13.9043 81.7183 13.1284 82.1785 12.6644L82.8835 13.3635C82.8072 13.4405 82.8072 13.5922 82.8835 13.6691L82.1785 14.3683ZM83.7946 14.433C83.3031 14.8577 82.6217 14.7533 82.2064 14.3943L82.8556 13.6431C82.9088 13.6891 82.973 13.7131 83.029 13.7163C83.082 13.7194 83.1191 13.7045 83.1454 13.6818L83.7946 14.433ZM92.5984 23.8766L83.1192 14.4086L83.8208 13.7061L93.3 23.1741L92.5984 23.8766ZM88.2096 23.0289H92.9492V24.0218H88.2096V23.0289ZM83.1054 17.7252L88.5604 23.1741L87.8587 23.8766L82.4037 18.4277L83.1054 17.7252ZM83.0281 16.7878C83.471 17.2054 83.4928 17.9157 83.1529 18.3727L82.3562 17.7802C82.4187 17.6962 82.3958 17.5563 82.3469 17.5102L83.0281 16.7878ZM81.329 16.7994C81.7914 16.3331 82.5775 16.3331 83.04 16.7994L82.335 17.4986C82.2609 17.4239 82.108 17.4239 82.0339 17.4986L81.329 16.7994ZM81.3289 18.5033C80.8688 18.0392 80.8687 17.2634 81.3289 16.7994L82.0339 17.4986C81.9576 17.5755 81.9576 17.7272 82.0339 17.8042L81.3289 18.5033ZM82.8882 18.6339C82.449 18.9502 81.7565 18.9743 81.3141 18.4877L82.0488 17.8198C82.0767 17.8505 82.1131 17.8679 82.1604 17.8707C82.2122 17.8737 82.267 17.8576 82.3079 17.8282L82.8882 18.6339ZM87.7921 24.1088L82.2476 18.5826L82.9485 17.8794L88.493 23.4056L87.7921 24.1088ZM96.0865 27.3165L92.8671 24.1089L93.5679 23.4055L96.7872 26.6131L96.0865 27.3165ZM95.9404 32.375V26.9648H96.9333V32.375H95.9404ZM92.1738 35.9267L96.0862 32.0236L96.7875 32.7265L92.875 36.6297L92.1738 35.9267ZM92.0908 35.1521L92.8733 35.925L92.1756 36.6314L91.3931 35.8585L92.0908 35.1521ZM90.3851 36.1588L91.3911 35.154L92.0928 35.8565L91.0867 36.8613L90.3851 36.1588ZM74.6991 19.8118L91.0865 36.1586L90.3853 36.8615L73.9979 20.5147L74.6991 19.8118ZM70.0109 19.4709C70.1659 19.6315 70.2962 19.8304 70.3422 20.0692L69.3673 20.2573C69.3687 20.2643 69.3648 20.2312 69.2962 20.1601L70.0109 19.4709ZM68.295 19.4659C68.7575 18.9995 69.5436 18.9995 70.0061 19.4659L69.301 20.165C69.227 20.0903 69.0741 20.0903 69 20.165L68.295 19.4659ZM68.295 21.1698C67.8348 20.7058 67.8348 19.9299 68.295 19.4659L69 20.1651C68.9237 20.242 68.9236 20.3937 69 20.4707L68.295 21.1698ZM70.006 21.1698C69.5436 21.6361 68.7575 21.6361 68.295 21.1698L69 20.4707C69.0741 20.5453 69.227 20.5453 69.3011 20.4707L70.006 21.1698ZM70.3422 20.5665C70.3084 20.7419 70.2005 21.0456 69.9359 21.2286L69.3712 20.4119C69.355 20.4231 69.3471 20.4323 69.3456 20.4342C69.3441 20.4361 69.346 20.4341 69.3498 20.427C69.3535 20.42 69.3575 20.4111 69.3609 20.4011C69.3645 20.391 69.3665 20.3829 69.3673 20.3784L70.3422 20.5665ZM74.2814 20.9689H69.8548V19.976H74.2814V20.9689ZM90.2287 37.0933L73.9307 20.8238L74.6321 20.1211L90.9301 36.3906L90.2287 37.0933ZM87.7266 38.862L90.2305 36.3887L90.9283 37.0951L88.4243 39.5684L87.7266 38.862ZM74.8111 25.261L88.4263 38.864L87.7246 39.5664L74.1094 25.9634L74.8111 25.261ZM74.7337 24.3235C75.1853 24.7493 75.1838 25.4106 74.8763 25.883L74.0442 25.3414C74.1391 25.1955 74.0928 25.0839 74.0526 25.046L74.7337 24.3235ZM73.0346 24.3352C73.4971 23.8688 74.2832 23.8688 74.7457 24.3352L74.0407 25.0343C73.9666 24.9596 73.8137 24.9596 73.7396 25.0343L73.0346 24.3352ZM73.0346 26.0391C72.5744 25.575 72.5744 24.7992 73.0346 24.3352L73.7396 25.0343C73.6633 25.1113 73.6633 25.2629 73.7396 25.3399L73.0346 26.0391ZM74.5939 26.1696C74.1546 26.486 73.4621 26.51 73.0198 26.0234L73.7545 25.3555C73.7824 25.3863 73.8188 25.4037 73.8661 25.4064C73.9179 25.4095 73.9727 25.3934 74.0136 25.3639L74.5939 26.1696ZM87.5912 39.6831L73.9536 26.1188L74.6538 25.4148L88.2914 38.9792L87.5912 39.6831ZM84.9972 41.569L87.5905 38.9798L88.2921 39.6825L85.6987 42.2717L84.9972 41.569ZM66.4495 22.3624L85.6986 41.5689L84.9973 42.2718L65.7482 23.0653L66.4495 22.3624ZM66.5953 6.63756V22.7138H65.6024V6.63756H66.5953ZM71.9938 1.46294L66.4493 6.98918L65.7484 6.28595L71.2928 0.759705L71.9938 1.46294ZM71.3303 0.614883H71.6433V1.60777H71.3303V0.614883ZM67.6718 4.04384L70.9805 0.759018L71.6801 1.46364L68.3713 4.74846L67.6718 4.04384ZM65.0625 0.759003L68.3713 4.04384L67.6718 4.74846L64.363 1.46364L65.0625 0.759003ZM64.3997 0.614883H64.7127V1.60777H64.3997V0.614883ZM67.5153 4.90311L64.05 1.46367L64.7494 0.758972L68.2147 4.19839L67.5153 4.90311ZM65.5904 6.1328L67.5131 4.20058L68.2169 4.90092L66.2943 6.83313L65.5904 6.1328ZM65.4459 19.1198V6.48296H66.4388V19.1198H65.4459ZM63.0283 15.5217L66.2924 18.7678L65.5923 19.4718L62.3282 16.2257L63.0283 15.5217ZM63.1747 7.99011V15.8737H62.1818V7.99011H63.1747ZM56.4115 1.03053L63.0291 7.63882L62.3275 8.3414L55.7099 1.73311L56.4115 1.03053ZM56.6494 1.24928C56.6195 1.35266 56.5609 1.50856 56.4904 1.63045L55.631 1.13319C55.6377 1.12167 55.6502 1.09633 55.6648 1.06024C55.6789 1.02547 55.6898 0.993393 55.6956 0.973358L56.6494 1.24928ZM54.7864 0.614883H56.1725V1.60777H54.7864V0.614883ZM54.6302 1.80371C54.4424 1.6089 54.3685 1.40738 54.3232 1.28996L55.2496 0.932678C55.2937 1.04713 55.3092 1.0775 55.345 1.11458L54.6302 1.80371ZM56.1943 1.93925C55.7551 2.2556 55.0626 2.27968 54.6203 1.79309L55.3549 1.12518C55.3828 1.1559 55.4193 1.17331 55.4665 1.17609C55.5184 1.17912 55.5732 1.16304 55.6141 1.13359L56.1943 1.93925ZM62.171 8.49599L55.5534 1.88771L56.255 1.18513L62.8726 7.79343L62.171 8.49599ZM62.0253 16.0283V8.1447H63.0182V16.0283H62.0253ZM65.5923 19.7811L62.1718 16.3803L62.8718 15.6762L66.2924 19.077L65.5923 19.7811ZM65.4459 22.8684V19.429H66.4388V22.8684H65.4459ZM84.8408 42.4263L65.5917 23.2198L66.293 22.517L85.5421 41.7235L84.8408 42.4263ZM82.0023 44.5438L84.8415 41.7227L85.5413 42.4271L82.7021 45.2482L82.0023 44.5438ZM45.3672 7.29091L82.7028 44.5446L82.0015 45.2474L44.6659 7.99376L45.3672 7.29091ZM45.513 1.07269V7.64233H44.5201V1.07269H45.513ZM44.86 0.576248H45.0165V1.56914H44.86V0.576248ZM44.3636 7.79692V1.07269H45.3565V7.79692H44.3636ZM81.845 45.402L44.5094 8.14835L45.2107 7.4455L82.5463 44.6992L81.845 45.402ZM79.5436 46.9779L81.8463 44.6978L82.5449 45.4033L80.2422 47.6834L79.5436 46.9779ZM61.017 27.7729L80.2438 46.9794L79.5421 47.6819L60.3153 28.4753L61.017 27.7729ZM40.8284 21.6278L46.9988 27.7723L46.2982 28.4759L40.1278 22.3314L40.8284 21.6278ZM40.5228 22.476H40.4781V21.4831H40.5228V22.476ZM41.0193 15.4486V21.9796H40.0264V15.4486H41.0193ZM33.8761 8.10277L40.8738 15.0975L40.1718 15.7997L33.1742 8.80499L33.8761 8.10277ZM33.7986 7.16518C34.2416 7.58281 34.2635 8.29311 33.9235 8.75017L33.1268 8.15758C33.1893 8.07362 33.1664 7.93373 33.1175 7.88759L33.7986 7.16518ZM32.0995 7.1768C32.562 6.71048 33.3481 6.71048 33.8106 7.1768L33.1056 7.87598C33.0315 7.80128 32.8786 7.80128 32.8045 7.87598L32.0995 7.1768ZM32.0996 8.88075C31.6393 8.4167 31.6393 7.64084 32.0996 7.17679L32.8045 7.87598C32.7282 7.95294 32.7282 8.1046 32.8045 8.18156L32.0996 8.88075ZM33.6588 9.01126C33.2195 9.32767 32.527 9.35168 32.0847 8.8651L32.8194 8.1972C32.8473 8.22792 32.8837 8.24533 32.931 8.24811C32.9828 8.25114 33.0376 8.23508 33.0785 8.20561L33.6588 9.01126ZM40.0153 15.9543L33.0177 8.95955L33.7196 8.25732L40.7173 15.2521L40.0153 15.9543ZM39.8699 21.8636V15.6032H40.8628V21.8636H39.8699ZM30.0974 10.9234L40.7168 21.5121L40.0158 22.2152L29.3963 11.6265L30.0974 10.9234ZM1.57942 15.2107L5.87703 10.9235L6.57826 11.6264L2.28065 15.9136L1.57942 15.2107ZM1.57826 15.9125C1.57671 15.9109 1.57587 15.9101 1.57559 15.9098L2.2569 15.1876C2.26599 15.1962 2.27431 15.2043 2.28181 15.2119L1.57826 15.9125ZM1.56377 15.8983C1.48967 15.8236 1.33675 15.8236 1.26268 15.8983L0.557703 15.1991C1.02019 14.7328 1.80624 14.7328 2.26872 15.1991L1.56377 15.8983ZM1.2627 15.8983C1.18633 15.9753 1.18636 16.1269 1.26268 16.2039L0.557703 16.9031C0.0974746 16.439 0.0975032 15.6632 0.557683 15.1992L1.2627 15.8983ZM1.27754 16.2196C1.30546 16.2503 1.34189 16.2677 1.38917 16.2705C1.44097 16.2735 1.49577 16.2574 1.53668 16.228L2.11695 17.0336C1.67773 17.35 0.985211 17.3741 0.542842 16.8874L1.27754 16.2196ZM1.47793 16.2776L1.63443 16.123L2.33219 16.8294L2.1757 16.984L1.47793 16.2776ZM1.58498 16.1799C1.62362 16.128 1.63772 16.0269 1.60295 15.9502L2.50739 15.5405C2.68215 15.9264 2.64838 16.4139 2.38164 16.7725L1.58498 16.1799ZM6.60124 11.8963L2.40642 16.0962L1.70392 15.3945L5.89875 11.1947L6.60124 11.8963ZM29.6798 12.0419H6.25V11.049H29.6798V12.0419ZM46.2306 28.7844L29.3289 11.8967L30.0307 11.1943L46.9324 28.0821L46.2306 28.7844ZM79.3858 47.8753L60.2485 28.7847L60.9497 28.0818L80.087 47.1724L79.3858 47.8753ZM77.3735 49.1821L79.3856 47.1726L80.0872 47.8751L78.0751 49.8846L77.3735 49.1821ZM59.8767 31.0189L78.075 49.182L77.3736 49.8847L59.1753 31.7217L59.8767 31.0189ZM35.9549 23.2125L43.7798 31.0188L43.0786 31.7217L35.2537 23.9155L35.9549 23.2125ZM35.8778 22.2753C36.3208 22.693 36.3426 23.4033 36.0026 23.8603L35.206 23.2677C35.2684 23.1837 35.2456 23.0438 35.1967 22.9977L35.8778 22.2753ZM34.1787 22.2869C34.6412 21.8206 35.4273 21.8206 35.8897 22.2869L35.1848 22.9861C35.1107 22.9114 34.9578 22.9114 34.8837 22.9861L34.1787 22.2869ZM34.1787 23.9909C33.7185 23.5268 33.7185 22.751 34.1787 22.287L34.8837 22.9861C34.8073 23.0631 34.8073 23.2148 34.8837 23.2918L34.1787 23.9909ZM35.7379 24.1214C35.2987 24.4378 34.6062 24.4619 34.1639 23.9753L34.8985 23.3074C34.9264 23.3381 34.9629 23.3555 35.0102 23.3583C35.062 23.3613 35.1168 23.3452 35.1577 23.3158L35.7379 24.1214ZM43.0109 31.9917L35.0966 24.0695L35.799 23.3677L43.7133 31.2899L43.0109 31.9917ZM61.7892 34.6955L59.1064 31.9904L59.8114 31.2912L62.4942 33.9964L61.7892 34.6955ZM40.6793 33.8495H62.1417V34.8424H40.6793V33.8495ZM23.36 50.9209L40.3287 33.9945L41.0299 34.6974L24.0612 51.6239L23.36 50.9209ZM22.4534 50.9885C22.8586 50.6064 23.5244 50.5265 24.0007 50.8696L23.4204 51.6752C23.3602 51.6318 23.2211 51.6292 23.1345 51.7109L22.4534 50.9885ZM22.4414 52.704C21.9813 52.24 21.9812 51.4642 22.4415 51.0001L23.1464 51.6993C23.0701 51.7763 23.0701 51.9279 23.1465 52.0049L22.4414 52.704ZM24.1525 52.7041C23.69 53.1704 22.9039 53.1704 22.4415 52.704L23.1464 52.0049C23.2205 52.0796 23.3734 52.0796 23.4475 52.0049L24.1525 52.7041ZM24.2654 51.1307C24.6178 51.6045 24.5619 52.2543 24.1674 52.6884L23.4326 52.0205C23.5299 51.9136 23.5187 51.7905 23.4687 51.7233L24.2654 51.1307ZM41.0311 34.8894L24.2189 51.7772L23.5152 51.0767L40.3275 34.1889L41.0311 34.8894ZM62.3876 35.0356H40.6793V34.0427H62.3876V35.0356ZM68.8339 41.6539L62.0375 34.8911L62.7378 34.1873L69.5342 40.9501L68.8339 41.6539ZM66.1722 43.6179L68.8326 40.9514L69.5355 41.6527L66.8751 44.3192L66.1722 43.6179ZM61.784 43.4721H66.5236V44.465H61.784V43.4721ZM57.0072 48.0222L61.4338 43.6167L62.1342 44.3204L57.7076 48.7259L57.0072 48.0222ZM56.1002 48.0901C56.5055 47.7081 57.1712 47.6281 57.6475 47.9712L57.0672 48.7769C57.007 48.7335 56.8679 48.7309 56.7813 48.8125L56.1002 48.0901ZM56.0883 49.8057C55.628 49.3416 55.6281 48.5658 56.0883 48.1018L56.7933 48.8009C56.7169 48.8779 56.7169 49.0295 56.7933 49.1065L56.0883 49.8057ZM57.7993 49.8056C57.3368 50.272 56.5507 50.272 56.0883 49.8056L56.7933 49.1065C56.8673 49.1812 57.0202 49.1812 57.0943 49.1065L57.7993 49.8056ZM57.9122 48.2323C58.2646 48.7061 58.2088 49.3559 57.8141 49.79L57.0795 49.1221C57.1767 49.0152 57.1656 48.8922 57.1155 48.8249L57.9122 48.2323ZM62.1787 44.5911L57.8639 48.8807L57.1639 48.1765L61.4787 43.887L62.1787 44.5911ZM66.233 44.7355H61.8287V43.7426H66.233V44.7355ZM55.576 54.1671L65.8824 43.8875L66.5836 44.5905L56.2771 54.8701L55.576 54.1671ZM46.3802 54.0221H55.9266V55.015H46.3802V54.0221ZM41.4095 48.8723L46.7304 54.1666L46.0301 54.8705L40.7092 49.5762L41.4095 48.8723ZM41.3328 47.9355C41.7758 48.3532 41.7976 49.0635 41.4577 49.5205L40.661 48.928C40.7235 48.8439 40.7006 48.704 40.6518 48.658L41.3328 47.9355ZM39.6338 47.9472C40.0962 47.4808 40.8823 47.4808 41.3448 47.9472L40.6398 48.6463C40.5657 48.5716 40.4128 48.5716 40.3388 48.6463L39.6338 47.9472ZM39.6338 49.6511C39.1735 49.187 39.1735 48.4112 39.6338 47.9472L40.3387 48.6463C40.2624 48.7233 40.2624 48.8749 40.3388 48.9519L39.6338 49.6511ZM41.193 49.7816C40.7538 50.098 40.0613 50.1221 39.6189 49.6355L40.3536 48.9676C40.3815 48.9983 40.4179 49.0157 40.4652 49.0185C40.517 49.0215 40.5718 49.0054 40.6127 48.976L41.193 49.7816ZM45.9621 55.1401L40.5518 49.7298L41.2539 49.0278L46.6642 54.4381L45.9621 55.1401ZM69.6688 41.8081L56.2995 55.1406L55.5984 54.4376L68.9677 41.1051L69.6688 41.8081ZM74.6457 47.4884L68.9671 41.8076L69.6693 41.1057L75.3479 46.7864L74.6457 47.4884ZM71.8669 46.641H74.9968V47.6338H71.8669V46.641ZM68.9905 49.2973L71.5168 46.7854L72.2169 47.4894L69.6906 50.0014L68.9905 49.2973ZM68.0566 49.3927C68.499 48.9061 69.1915 48.9301 69.6307 49.2465L69.0504 50.0521C69.0095 50.0227 68.9547 50.0066 68.9029 50.0096C68.8556 50.0124 68.8192 50.0298 68.7913 50.0605L68.0566 49.3927ZM68.0714 51.0809C67.6112 50.6169 67.6112 49.8411 68.0714 49.377L68.7764 50.0762C68.7001 50.1532 68.7001 50.3048 68.7764 50.3818L68.0714 51.0809ZM69.7825 51.081C69.32 51.5473 68.5339 51.5473 68.0714 51.081L68.7764 50.3818C68.8505 50.4565 69.0034 50.4565 69.0775 50.3818L69.7825 51.081ZM69.9177 49.5463C70.2783 50.031 70.1885 50.6985 69.7706 51.0926L69.0894 50.3702C69.1633 50.3005 69.163 50.1952 69.1211 50.1388L69.9177 49.5463ZM72.2836 47.7989L69.8691 50.1949L69.1697 49.4902L71.5843 47.0942L72.2836 47.7989ZM75.3098 47.943H71.9339V46.9501H75.3098V47.943ZM77.194 50.0386L74.9583 47.7971L75.6613 47.096L77.897 49.3374L77.194 50.0386ZM72.4328 54.0899L77.1948 49.3366L77.8962 50.0393L73.1342 54.7926L72.4328 54.0899ZM73.9293 56.2984L72.4314 54.7912L73.1356 54.0913L74.6335 55.5985L73.9293 56.2984ZM65.7257 63.7898L73.9306 55.5971L74.6322 56.2997L66.4273 64.4924L65.7257 63.7898ZM63.3266 63.6447H66.0765V64.6376H63.3266V63.6447ZM60.4126 60.543L63.6767 63.7891L62.9765 64.4931L59.7125 61.247L60.4126 60.543ZM60.3361 59.6063C60.779 60.0239 60.8008 60.7342 60.4609 61.1913L59.6642 60.5987C59.7267 60.5147 59.7038 60.3748 59.6549 60.3287L60.3361 59.6063ZM58.6369 59.6179C59.0994 59.1516 59.8855 59.1516 60.348 59.6179L59.643 60.3171C59.5689 60.2424 59.416 60.2424 59.3419 60.3171L58.6369 59.6179ZM58.6369 61.3219C58.1767 60.8578 58.1767 60.082 58.6369 59.6179L59.3419 60.3171C59.2656 60.3941 59.2656 60.5457 59.3419 60.6227L58.6369 61.3219ZM60.1962 61.4524C59.757 61.7688 59.0645 61.7928 58.6221 61.3062L59.3568 60.6383C59.3847 60.669 59.4211 60.6865 59.4684 60.6892C59.5202 60.6923 59.575 60.6762 59.6159 60.6467L60.1962 61.4524ZM62.9316 64.7634L59.5557 61.4013L60.2564 60.6978L63.6322 64.0599L62.9316 64.7634ZM72.4398 58.8517L66.4706 64.7644L65.7718 64.0589L71.7411 58.1463L72.4398 58.8517ZM71.594 63.9479V58.499H72.5869V63.9479H71.594ZM66.151 69.161L71.7402 63.5961L72.4407 64.2997L66.8515 69.8646L66.151 69.161ZM65.2441 69.2289C65.6493 68.8467 66.3151 68.7669 66.7914 69.11L66.2111 69.9156C66.1508 69.8722 66.0118 69.8696 65.9252 69.9513L65.2441 69.2289ZM65.2322 70.9444C64.7719 70.4804 64.7719 69.7045 65.2322 69.2405L65.9371 69.9397C65.8608 70.0166 65.8608 70.1683 65.9371 70.2453L65.2322 70.9444ZM66.9432 70.9444C66.4807 71.4108 65.6946 71.4108 65.2321 70.9444L65.9371 70.2453C66.0112 70.32 66.1641 70.32 66.2382 70.2453L66.9432 70.9444ZM67.0561 69.3711C67.4085 69.8449 67.3527 70.4947 66.958 70.9288L66.2234 70.2609C66.3206 70.154 66.3095 70.0309 66.2594 69.9636L67.0561 69.3711ZM72.5972 64.4543L67.008 70.0192L66.3075 69.3156L71.8967 63.7507L72.5972 64.4543ZM72.7434 58.3444V64.1025H71.7505V58.3444H72.7434ZM74.8104 56.4935L72.5971 58.6963L71.8967 57.9926L74.11 55.7898L74.8104 56.4935ZM81.8447 64.2218L74.1093 56.4928L74.8111 55.7905L82.5465 63.5195L81.8447 64.2218ZM78.2455 67.1133L81.8449 63.5193L82.5464 64.2219L78.947 67.8159L78.2455 67.1133ZM73.946 66.9682H78.5962V67.9611H73.946V66.9682ZM66.24 74.4558L73.5953 67.1133L74.2968 67.8159L66.9414 75.1585L66.24 74.4558ZM61.0015 74.3107H66.5907V75.3036H61.0015V74.3107ZM53.5722 66.6882L61.3523 74.4558L60.6508 75.1584L52.8706 67.3908L53.5722 66.6882ZM53.4949 65.7508C53.9379 66.1684 53.9597 66.8788 53.6197 67.3358L52.8231 66.7432C52.8855 66.6592 52.8627 66.5194 52.8138 66.4733L53.4949 65.7508ZM51.7958 65.7625C52.2582 65.2961 53.0444 65.2961 53.5068 65.7625L52.8018 66.4616C52.7278 66.3869 52.5749 66.3869 52.5008 66.4616L51.7958 65.7625ZM51.7958 67.4664C51.3356 67.0023 51.3356 66.2265 51.7958 65.7625L52.5008 66.4616C52.4244 66.5386 52.4244 66.6902 52.5008 66.7673L51.7958 67.4664ZM53.355 67.5969C52.9158 67.9133 52.2233 67.9374 51.7809 67.4508L52.5156 66.7829C52.5435 66.8136 52.5799 66.831 52.6272 66.8338C52.6791 66.8368 52.7339 66.8207 52.7748 66.7913L53.355 67.5969ZM60.584 75.3906L52.7144 67.5457L53.4154 66.8425L61.2849 74.6874L60.584 75.3906ZM74.3415 68.0478L66.9861 75.3904L66.2847 74.6877L73.64 67.3451L74.3415 68.0478ZM78.3279 68.1929H73.9907V67.2H78.3279V68.1929ZM56.4031 88.8702L77.9773 67.345L78.6786 68.0479L57.1044 89.5731L56.4031 88.8702ZM42.0795 88.7252H56.7537V89.7181H42.0795V88.7252ZM56.7985 89.9886H41.9386V88.9957H56.7985V89.9886ZM82.7251 64.3381L57.149 89.8437L56.4479 89.1407L82.024 63.6351L82.7251 64.3381ZM84.9303 67.2365L82.024 64.3381L82.7251 63.6351L85.6314 66.5334L84.9303 67.2365ZM59.1082 92.3097L84.9301 66.5336L85.6316 67.2363L59.8096 93.0124L59.1082 92.3097ZM59.8786 92.9436L59.8096 93.0124L59.1082 92.3097L59.1771 92.2409L59.8786 92.9436ZM85.7654 67.3911L60.0171 93.0513L59.3162 92.3481L85.0646 66.6879L85.7654 67.3911ZM88.1038 70.4428L85.0632 67.3898L85.7668 66.6892L88.8073 69.7421L88.1038 70.4428ZM72.9693 84.8513L88.1048 69.7411L88.8063 70.4438L73.6708 85.554L72.9693 84.8513ZM72.9508 84.8656L72.9955 84.8269L73.6446 85.5783L73.5999 85.6169L72.9508 84.8656ZM72.7789 98.4578V85.2413H73.7718V98.4578H72.7789ZM98.9701 124.817L72.9245 98.8091L73.6261 98.1065L99.6716 124.115L98.9701 124.817ZM99.0474 125.755C98.6044 125.337 98.5826 124.627 98.9225 124.17L99.7192 124.762C99.6567 124.846 99.6796 124.986 99.7285 125.032L99.0474 125.755ZM100.746 125.743C100.284 126.209 99.4979 126.209 99.0354 125.743L99.7404 125.044C99.8145 125.118 99.9674 125.118 100.041 125.044L100.746 125.743ZM100.746 124.039C101.207 124.503 101.207 125.279 100.746 125.743L100.041 125.044C100.118 124.967 100.118 124.815 100.041 124.738L100.746 124.039ZM99.1872 123.908C99.6265 123.592 100.319 123.568 100.761 124.055L100.027 124.722C99.9987 124.692 99.9623 124.674 99.915 124.672C99.8632 124.669 99.8084 124.685 99.7675 124.714L99.1872 123.908ZM80.7132 104.869L99.8282 123.96L99.1265 124.663L80.0116 105.572L80.7132 104.869ZM86.1081 105.717H80.3624V104.724H86.1081V105.717ZM96.0639 115.852L85.7575 105.572L86.4586 104.869L96.7651 115.149L96.0639 115.852ZM96.141 116.789C95.6981 116.371 95.6762 115.661 96.0162 115.204L96.8128 115.796C96.7504 115.88 96.7732 116.02 96.8221 116.066L96.141 116.789ZM97.8401 116.777C97.3776 117.244 96.5916 117.244 96.1291 116.777L96.8341 116.078C96.9081 116.153 97.061 116.153 97.1351 116.078L97.8401 116.777ZM97.8401 115.073C98.3003 115.537 98.3003 116.313 97.8401 116.777L97.1351 116.078C97.2115 116.001 97.2114 115.849 97.1351 115.773L97.8401 115.073ZM96.2809 114.943C96.7201 114.626 97.4126 114.602 97.8549 115.089L97.1203 115.757C97.0923 115.726 97.0559 115.709 97.0086 115.706C96.9568 115.703 96.902 115.719 96.8611 115.748L96.2809 114.943ZM86.5034 104.599L96.9217 114.994L96.2203 115.697L85.8021 105.302L86.5034 104.599ZM73.805 97.9906L80.4225 104.599L79.721 105.301L73.1034 98.6932L73.805 97.9906ZM73.9506 85.4345V98.3419H72.9577V85.4345H73.9506ZM85.9895 73.6125L73.8051 85.7857L73.1033 85.0833L85.2877 72.9101L85.9895 73.6125ZM85.1421 79.831V73.2614H86.135V79.831H85.1421ZM77.7988 86.9377L85.2883 79.4792L85.9889 80.1827L78.4994 87.6412L77.7988 86.9377ZM77.7797 86.9525L77.8244 86.9139L78.4737 87.665L78.429 87.7037L77.7797 86.9525ZM77.6079 93.975V87.3281H78.6008V93.975H77.6079ZM77.3222 93.8237C77.5101 93.6288 77.7898 93.4786 78.1044 93.4786V94.4715C78.1075 94.4715 78.1004 94.4709 78.0847 94.4782C78.0689 94.4855 78.0517 94.4976 78.037 94.5128L77.3222 93.8237ZM77.3271 95.5226C76.8669 95.0585 76.8669 94.2827 77.3271 93.8186L78.0321 94.5178C77.9558 94.5948 77.9558 94.7464 78.0321 94.8234L77.3271 95.5226ZM79.0381 95.5226C78.5757 95.9889 77.7896 95.9889 77.3271 95.5226L78.0321 94.8234C78.1062 94.8981 78.2591 94.8981 78.3332 94.8234L79.0381 95.5226ZM79.0381 93.8186C79.4984 94.2827 79.4984 95.0585 79.0381 95.5226L78.3332 94.8234C78.4095 94.7464 78.4095 94.5948 78.3332 94.5178L79.0381 93.8186ZM78.2609 93.4786C78.5754 93.4786 78.8552 93.6288 79.043 93.8237L78.3283 94.5128C78.3136 94.4976 78.2963 94.4856 78.2806 94.4782C78.2648 94.4709 78.2578 94.4715 78.2609 94.4715V93.4786ZM78.7573 87.4827V93.975H77.7644V87.4827H78.7573ZM86.1007 80.376L78.6112 87.8344L77.9106 87.1309L85.4 79.6724L86.1007 80.376ZM86.1198 80.361L86.0751 80.3997L85.4256 79.6487L85.4703 79.6101L86.1198 80.361ZM86.2915 73.1068V79.9855H85.2986V73.1068H86.2915ZM88.9843 70.6378L86.145 73.459L85.4452 72.7546L88.2845 69.9335L88.9843 70.6378ZM91.4133 73.7669L88.2833 70.6367L88.9854 69.9347L92.1154 73.0649L91.4133 73.7669ZM94.015 71.874L92.1147 73.7676L91.4139 73.0643L93.3142 71.1707L94.015 71.874ZM93.1682 85.8209V71.5223H94.1611V85.8209H93.1682ZM86.718 92.0785L93.3132 85.4703L94.016 86.1716L87.4208 92.7799L86.718 92.0785ZM85.8122 92.1453C86.2175 91.7632 86.8832 91.6833 87.3595 92.0264L86.7793 92.8321C86.719 92.7886 86.5799 92.7861 86.4933 92.8677L85.8122 92.1453ZM85.8003 93.8609C85.3401 93.3968 85.3401 92.621 85.8003 92.1569L86.5053 92.8561C86.4289 92.9331 86.4289 93.0847 86.5053 93.1617L85.8003 93.8609ZM87.5113 93.8609C87.0488 94.3272 86.2628 94.3272 85.8003 93.8609L86.5053 93.1617C86.5793 93.2364 86.7323 93.2364 86.8064 93.1617L87.5113 93.8609ZM87.6242 92.2875C87.9766 92.7613 87.9208 93.4111 87.5262 93.8452L86.7915 93.1774C86.8887 93.0704 86.8776 92.9473 86.8276 92.8801L87.6242 92.2875ZM94.1497 86.3653L87.5768 92.9349L86.8749 92.2327L93.4478 85.663L94.1497 86.3653ZM94.1682 86.351L94.1235 86.3897L93.4741 85.6386L93.5188 85.6L94.1682 86.351ZM94.3399 80.1401V85.9755H93.347V80.1401H94.3399ZM98.433 85.4375L93.4922 80.491L94.1947 79.7893L99.1355 84.7358L98.433 85.4375ZM98.2878 90.6129V85.0867H99.2807V90.6129H98.2878ZM87.6579 101.005L98.4338 90.2613L99.1348 90.9645L88.3589 101.708L87.6579 101.005ZM86.7512 101.072C87.1565 100.69 87.8223 100.61 88.2985 100.953L87.7182 101.759C87.658 101.716 87.5189 101.713 87.4323 101.795L86.7512 101.072ZM86.7393 102.788C86.2791 102.324 86.2791 101.548 86.7393 101.084L87.4442 101.783C87.3679 101.86 87.3679 102.012 87.4442 102.089L86.7393 102.788ZM88.4503 102.788C87.9878 103.254 87.2017 103.254 86.7393 102.788L87.4443 102.089C87.5183 102.163 87.6712 102.163 87.7453 102.089L88.4503 102.788ZM88.5632 101.214C88.9156 101.688 88.8598 102.338 88.4652 102.772L87.7305 102.104C87.8277 101.997 87.8166 101.874 87.7665 101.807L88.5632 101.214ZM99.2467 91.1576L88.5155 101.862L87.8143 101.159L98.5455 90.4546L99.2467 91.1576ZM99.2653 91.1432L99.2206 91.1818L98.5716 90.4304L98.6163 90.3918L99.2653 91.1432ZM99.4372 84.8935V90.7675H98.4444V84.8935H99.4372ZM94.1946 79.4414L99.292 84.5426L98.5896 85.2444L93.4923 80.1432L94.1946 79.4414ZM94.3399 71.3291V79.7923H93.347V71.3291H94.3399ZM96.8997 68.975L94.1945 71.6801L93.4924 70.9781L96.1976 68.2729L96.8997 68.975ZM98.478 71.2551L96.1976 68.975L96.8997 68.2729L99.18 70.5529L98.478 71.2551ZM98.3326 76.0824V70.904H99.3255V76.0824H98.3326ZM101.945 79.8742L98.4793 76.4348L99.1787 75.7301L102.644 79.1695L101.945 79.8742ZM102.021 80.8105C101.569 80.3847 101.571 79.7235 101.878 79.251L102.71 79.7926C102.615 79.9385 102.662 80.0501 102.702 80.0881L102.021 80.8105ZM103.72 80.7989C103.257 81.2652 102.471 81.2652 102.009 80.7989L102.714 80.0997C102.788 80.1744 102.941 80.1744 103.015 80.0997L103.72 80.7989ZM103.72 79.095C104.18 79.559 104.18 80.3348 103.72 80.7989L103.015 80.0997C103.091 80.0227 103.091 79.8711 103.015 79.7941L103.72 79.095ZM102.161 78.9644C102.6 78.648 103.292 78.624 103.735 79.1106L103 79.7785C102.972 79.7478 102.936 79.7303 102.888 79.7276C102.837 79.7245 102.782 79.7406 102.741 79.7701L102.161 78.9644ZM99.3352 75.5755L102.801 79.0149L102.101 79.7196L98.6358 76.2802L99.3352 75.5755ZM99.4819 71.0586V75.9278H98.4891V71.0586H99.4819ZM106.192 78.9459L98.6349 71.4101L99.3361 70.7071L106.893 78.2428L106.192 78.9459ZM106.046 89.9559V78.5943H107.039V89.9559H106.046ZM94.8118 100.966L106.191 89.6046L106.893 90.3073L95.5133 101.669L94.8118 100.966ZM94.7931 100.981L94.8378 100.942L95.4872 101.693L95.4425 101.732L94.7931 100.981ZM94.6214 105.646V101.356H95.6143V105.646H94.6214ZM101.206 112.412L94.7674 105.997L95.4682 105.294L101.907 111.709L101.206 112.412ZM101.283 113.349C100.831 112.924 100.833 112.262 101.14 111.79L101.973 112.332C101.878 112.478 101.924 112.589 101.964 112.627L101.283 113.349ZM102.982 113.338C102.52 113.804 101.734 113.804 101.271 113.338L101.976 112.639C102.05 112.713 102.203 112.713 102.277 112.639L102.982 113.338ZM102.982 111.634C103.442 112.098 103.442 112.874 102.982 113.338L102.277 112.639C102.354 112.562 102.353 112.41 102.277 112.333L102.982 111.634ZM101.423 111.503C101.862 111.187 102.555 111.163 102.997 111.65L102.262 112.317C102.234 112.287 102.198 112.269 102.151 112.267C102.099 112.264 102.044 112.28 102.003 112.309L101.423 111.503ZM95.6247 105.139L102.063 111.555L101.363 112.258L94.9239 105.843L95.6247 105.139ZM95.7707 101.511V105.491H94.7779V101.511H95.7707ZM107.005 90.5005L95.6251 101.862L94.9235 101.159L106.303 89.7979L107.005 90.5005ZM107.023 90.4862L106.978 90.5248L106.329 89.7735L106.374 89.7349L107.023 90.4862ZM107.195 78.4398V90.1105H106.202V78.4398H107.195ZM97.0558 68.1179L107.049 78.0883L106.348 78.7912L96.3545 68.8208L97.0558 68.1179ZM99.068 66.8111L97.0559 68.8206L96.3543 68.1181L98.3664 66.1086L99.068 66.8111ZM111.333 79.7572L98.3665 66.8112L99.068 66.1085L112.035 79.0546L111.333 79.7572ZM111.188 100.699V79.4059H112.181V100.699H111.188ZM115.111 104.837L111.333 101.05L112.036 100.349L115.814 104.136L115.111 104.837ZM114.966 124.079V104.486H115.959V124.079H114.966ZM130.65 139.927L115.112 124.431L115.813 123.728L131.351 139.224L130.65 139.927ZM130.813 140.707C130.463 140.37 130.353 139.843 130.541 139.386L131.459 139.766C131.424 139.85 131.449 139.941 131.501 139.991L130.813 140.707ZM110.037 54.8313L91.4136 36.2431L92.115 35.5404L110.738 54.1286L110.037 54.8313ZM91.4136 72.7168L110.037 54.1286L110.738 54.8313L92.115 73.4195L91.4136 72.7168ZM73.4919 54.1286L92.115 72.7168L91.4136 73.4195L72.7905 54.8313L73.4919 54.1286ZM92.115 36.2431L73.4919 54.8313L72.7905 54.1286L91.4136 35.5404L92.115 36.2431ZM135.874 71.0913H112.802V70.0984H135.874V71.0913ZM117.161 67.6133H113.92V66.6204H117.161V67.6133ZM114.658 45.6748H120.582V46.6677H114.658V45.6748ZM93.2175 24.2537H88.1425V23.2608H93.2175V24.2537ZM69.8548 19.6668H74.3485V20.6597H69.8548V19.6668ZM46.6485 27.6277H60.6662V28.6205H46.6485V27.6277ZM6.22765 10.7785H29.7469V11.7714H6.22765V10.7785ZM60.5991 28.9297H46.5815V27.9368H60.5991V28.9297ZM43.4292 30.8738H59.526V31.8667H43.4292V30.8738ZM59.4589 32.1373H43.3621V31.1444H59.4589V32.1373ZM55.9489 55.2855H46.3132V54.2927H55.9489V55.2855ZM66.1212 64.9081H63.2819V63.9152H66.1212V64.9081ZM66.6354 75.5354H60.9345V74.5426H66.6354V75.5354ZM80.0718 104.454H86.1528V105.447H80.0718V104.454ZM40.5381 88.2017C40.9433 87.8196 41.6091 87.7397 42.0854 88.0828L41.5051 88.8884C41.4449 88.845 41.3058 88.8424 41.2192 88.9241L40.5381 88.2017ZM40.5261 89.9172C40.0659 89.4532 40.0659 88.6774 40.5261 88.2133L41.2311 88.9125C41.1548 88.9894 41.1548 89.1411 41.2311 89.2181L40.5261 89.9172ZM42.2372 89.9172C41.7747 90.3836 40.9886 90.3836 40.5261 89.9172L41.2311 89.2181C41.3052 89.2928 41.4581 89.2928 41.5322 89.2181L42.2372 89.9172ZM41.4911 89.265C41.5241 89.2222 41.5619 89.1632 41.5921 89.0995C41.6233 89.034 41.6379 88.9814 41.6417 88.9474C41.6452 88.9156 41.6369 88.9262 41.652 88.9525C41.67 88.9836 41.6836 88.9732 41.6261 88.9523L41.9644 88.0189C42.1952 88.1025 42.3904 88.2454 42.512 88.4563C42.6309 88.6622 42.6483 88.879 42.6285 89.0573C42.5909 89.3943 42.4108 89.6979 42.2782 89.8703L41.4911 89.265Z" fill="#1B4ED1"/>
</svg>
