<svg width="251" height="259" viewBox="0 0 251 259" fill="none" xmlns="http://www.w3.org/2000/svg">
<path opacity="0.1" d="M107.466 169.692L107.114 169.343L107.12 169.337L107.126 169.331L107.466 169.692ZM109.155 169.55L108.985 170.017L108.92 169.993L108.864 169.953L109.155 169.55ZM107.466 171.544L107.819 171.194L107.466 171.544ZM109.319 171.544L109.713 171.846L109.694 171.871L109.672 171.893L109.319 171.544ZM243.123 257.626L243.498 257.951L243.487 257.964L243.476 257.976L243.123 257.626ZM241.27 257.626L241.614 257.268L241.623 257.277L241.27 257.626ZM243.123 255.704L243.476 255.354L243.487 255.366L243.498 255.378L243.123 255.704ZM241.27 255.704L240.84 255.455L240.872 255.4L240.918 255.354L241.27 255.704ZM241.229 255.775L241.659 256.023L241.336 256.582L240.879 256.126L241.229 255.775ZM212.651 227.292L212.301 227.644L212.155 227.499V227.292H212.651ZM212.651 191.832H212.155V190.635L213.002 191.481L212.651 191.832ZM249.959 229.073H250.455V230.27L249.608 229.424L249.959 229.073ZM249.959 228.503L250.31 228.152L250.455 228.297V228.503H249.959ZM205.651 184.284L205.3 184.635L205.154 184.49V184.284H205.651ZM205.651 145.05L206.002 144.698L206.147 144.844V145.05H205.651ZM181.767 121.196L181.416 121.547L181.063 121.194L181.418 120.843L181.767 121.196ZM186.009 116.994L185.659 116.642L186.01 116.294L186.359 116.643L186.009 116.994ZM209.274 140.208L209.625 139.856L209.854 140.085L209.738 140.386L209.274 140.208ZM209.192 140.421L208.841 140.773L208.613 140.544L208.729 140.243L209.192 140.421ZM231.305 162.495L231.656 162.144L231.801 162.289V162.495H231.305ZM231.305 167.337L230.954 167.688L230.809 167.543V167.337H231.305ZM235.793 171.823L236.144 171.472L236.29 171.617V171.823H235.793ZM235.793 185.637L235.443 185.989L235.297 185.843V185.637H235.793ZM249.959 199.736H250.455V200.93L249.609 200.088L249.959 199.736ZM249.959 199.166L250.309 198.814L250.455 198.96V199.166H249.959ZM236.082 185.352L235.731 185.704L235.585 185.558V185.352H236.082ZM236.082 172.108H235.585V170.913L236.432 171.756L236.082 172.108ZM241.805 177.804L242.156 177.452L242.441 177.737L242.222 178.075L241.805 177.804ZM241.929 179.513L242.27 179.152L242.276 179.158L242.282 179.164L241.929 179.513ZM243.782 179.513L244.135 179.863L244.135 179.863L243.782 179.513ZM243.782 177.662L243.429 178.011L243.422 178.004L243.415 177.996L243.782 177.662ZM242.094 177.519L242.384 177.922L242.042 178.169L241.743 177.871L242.094 177.519ZM231.593 167.052L231.243 167.404L231.097 167.258V167.052H231.593ZM231.593 162.21L231.944 161.859L232.09 162.004V162.21H231.593ZM209.645 140.279L209.294 140.63L208.446 139.782H209.645V140.279ZM219.857 140.279V139.782H220.063L220.208 139.927L219.857 140.279ZM249.959 170.328H250.455V171.525L249.608 170.679L249.959 170.328ZM249.959 169.758L250.31 169.407L250.455 169.552V169.758H249.959ZM220.434 140.279L220.083 140.63L219.234 139.782H220.434V140.279ZM249.959 140.279H250.455V140.775H249.959V140.279ZM249.959 139.78V139.284H250.455V139.78H249.959ZM209.439 139.78V140.277H209.234L209.088 140.131L209.439 139.78ZM186.297 116.638L185.946 116.989L185.594 116.638L185.947 116.287L186.297 116.638ZM190.662 112.295L190.312 111.943L190.663 111.594L191.013 111.944L190.662 112.295ZM207.463 129.099V129.596H207.257L207.112 129.45L207.463 129.099ZM249.959 129.099H250.455V129.596H249.959V129.099ZM249.959 128.459V127.962H250.455V128.459H249.959ZM219.857 128.459V128.955H218.656L219.507 128.107L219.857 128.459ZM228.999 119.344L228.648 118.993L228.794 118.848H228.999V119.344ZM249.959 119.344H250.455V119.841H249.959V119.344ZM249.959 118.846V118.349H250.455V118.846H249.959ZM228.917 118.846L228.567 118.494L228.712 118.349H228.917V118.846ZM219.24 128.459L219.59 128.811L219.444 128.955H219.24V128.459ZM207.545 128.459V128.955H207.339L207.194 128.81L207.545 128.459ZM190.95 111.868L190.599 112.219L190.247 111.867L190.6 111.515L190.95 111.868ZM194.821 108.022L194.471 107.67L194.822 107.322L195.171 107.671L194.821 108.022ZM209.522 122.691V123.187H209.316L209.171 123.042L209.522 122.691ZM215.492 122.691L215.843 123.043L215.697 123.187H215.492V122.691ZM227.517 110.728L227.166 110.376L227.312 110.232H227.517V110.728ZM250 110.728H250.496V111.225H250V110.728ZM250 110.23V109.733H250.496V110.23H250ZM227.434 110.23L227.084 109.878L227.229 109.733H227.434V110.23ZM215.41 122.192L215.76 122.544L215.615 122.689H215.41V122.192ZM209.645 122.192V122.689H209.439L209.294 122.543L209.645 122.192ZM198.98 111.512L198.629 111.862L197.783 111.015H198.98V111.512ZM204.333 111.512V111.015H204.539L204.684 111.161L204.333 111.512ZM209.522 116.71V117.206H209.316L209.17 117.06L209.522 116.71ZM213.557 116.71L213.908 117.061L213.763 117.206H213.557V116.71ZM222.534 107.738L222.183 107.387L222.482 107.088L222.824 107.335L222.534 107.738ZM224.181 107.595L224.534 107.945L224.528 107.951L224.522 107.956L224.181 107.595ZM224.181 105.744L223.829 106.093L224.181 105.744ZM222.328 105.744L221.975 105.394L221.975 105.394L222.328 105.744ZM222.204 107.453L222.587 107.137L222.875 107.485L222.555 107.804L222.204 107.453ZM213.433 116.211L213.784 116.562L213.639 116.708H213.433V116.211ZM209.563 116.211V116.708H209.357L209.211 116.562L209.563 116.211ZM204.374 111.013V110.517H204.58L204.726 110.662L204.374 111.013ZM198.445 111.013V111.51H198.238L198.093 111.364L198.445 111.013ZM195.109 107.666L194.757 108.017L194.407 107.665L194.759 107.315L195.109 107.666ZM200.545 102.255L200.194 101.903L200.34 101.758H200.545V102.255ZM208.533 102.255L208.884 102.606L208.738 102.751H208.533V102.255ZM218.457 92.3572L218.107 92.0057L218.405 91.7078L218.748 91.9544L218.457 92.3572ZM220.146 92.2148L220.498 92.5643L220.492 92.5702L220.486 92.5759L220.146 92.2148ZM220.146 90.3634L220.498 90.0139L220.498 90.014L220.146 90.3634ZM218.292 90.3634L217.925 90.0296L217.932 90.0216L217.94 90.0139L218.292 90.3634ZM218.169 92.0724L218.567 91.7762L218.823 92.1201L218.52 92.4233L218.169 92.0724ZM208.492 101.756L208.843 102.107L208.698 102.253H208.492V101.756ZM201.08 101.756V102.253H199.885L200.728 101.406L201.08 101.756ZM203.633 99.193L203.986 98.8435L204.333 99.1938L203.985 99.5433L203.633 99.193ZM199.68 95.2054L199.327 95.5549L198.978 95.2028L199.33 94.8533L199.68 95.2054ZM210.427 84.5245L210.078 84.1724L210.223 84.0281H210.427V84.5245ZM221.71 84.5245V84.0281H221.916L222.061 84.1734L221.71 84.5245ZM233.611 96.416L233.962 96.0648L234.265 96.368L234.009 96.7122L233.611 96.416ZM233.734 98.1249L234.075 97.7637L234.081 97.7694L234.087 97.7754L233.734 98.1249ZM235.587 98.1249L235.235 97.7754L235.235 97.7753L235.587 98.1249ZM235.587 96.2735L235.235 96.623L235.227 96.6154L235.22 96.6074L235.587 96.2735ZM233.899 96.1311L234.189 96.5339L233.847 96.7805L233.548 96.4825L233.899 96.1311ZM227.764 90.0074L227.413 90.3588L226.563 89.511H227.764V90.0074ZM250 90.0074H250.496V90.5038H250V90.0074ZM250 89.4378L249.675 89.0623L250.496 88.3518V89.4378H250ZM249.918 89.509L250.242 89.8844L250.103 90.0054H249.918V89.509ZM227.228 89.509V90.0054H227.023L226.878 89.8608L227.228 89.509ZM221.793 84.0973V83.6009H221.998L222.143 83.7455L221.793 84.0973ZM210.88 84.0973V84.5938H209.676L210.531 83.745L210.88 84.0973ZM215.328 79.6825L214.978 79.3302L215.123 79.1861H215.328V79.6825ZM240.858 79.6825L241.208 80.0346L241.063 80.179H240.858V79.6825ZM247.447 73.1316L247.097 72.7796L247.242 72.6352H247.447V73.1316ZM249.959 73.1316H250.455V73.6281H249.959V73.1316ZM249.959 72.6332V72.1367H250.455V72.6332H249.959ZM247.941 72.6332V73.1296H246.732L247.592 72.2801L247.941 72.6332ZM249.959 70.6394H250.455V70.8468L250.308 70.9925L249.959 70.6394ZM249.959 70.0697L249.608 69.7188L250.455 68.871V70.0697H249.959ZM240.776 79.2553L241.127 79.6063L240.982 79.7518H240.776V79.2553ZM215.245 79.2553L214.895 78.9041L215.04 78.7589H215.245V79.2553ZM199.35 95.1342L199.701 95.4854L199.35 95.836L199 95.4854L199.35 95.1342ZM191.938 87.7288L191.587 88.08L191.236 87.7285L191.588 87.3773L191.938 87.7288ZM210.427 69.2865L210.077 68.935L210.222 68.79H210.427V69.2865ZM230.317 69.2865L230.667 69.6378L230.522 69.7829H230.317V69.2865ZM250 49.6337H250.496V49.8395L250.351 49.985L250 49.6337ZM250 49.064L249.649 48.7127L250.496 47.8668V49.064H250ZM230.317 68.7169L230.667 69.0682L230.522 69.2133H230.317V68.7169ZM211.004 68.7169V69.2133H209.806L210.653 68.3659L211.004 68.7169ZM235.423 44.2932H235.919V44.4988L235.774 44.6442L235.423 44.2932ZM235.423 24.7828H234.926V24.5773L235.072 24.432L235.423 24.7828ZM250 10.1856H250.496V10.391L250.351 10.5364L250 10.1856ZM250 9.61594L249.649 9.26462L250.496 8.41882V9.61594H250ZM235.093 24.498H234.597V24.2921L234.743 24.1466L235.093 24.498ZM235.093 44.0084H235.59V44.2143L235.444 44.3598L235.093 44.0084ZM191.65 87.3728L192.001 87.7241L191.651 88.0733L191.3 87.7251L191.65 87.3728ZM185.267 81.0354L184.918 81.3877L184.564 81.0364L184.917 80.6841L185.267 81.0354ZM211.375 54.9741H211.871V55.18L211.725 55.3254L211.375 54.9741ZM211.375 15.7396H210.878V15.5333L211.024 15.3877L211.375 15.7396ZM226.116 1.0712V0.574738H227.319L226.467 1.4231L226.116 1.0712ZM225.54 1.0712L225.19 0.719299L225.335 0.574738H225.54V1.0712ZM211.086 15.4548H210.59V15.2484L210.736 15.1029L211.086 15.4548ZM211.086 54.6893H211.583V54.8952L211.437 55.0406L211.086 54.6893ZM184.979 80.7507L185.33 81.102L184.98 81.4508L184.63 81.1033L184.979 80.7507ZM181.026 76.8343L180.677 77.187L180.322 76.8355L180.676 76.4828L181.026 76.8343ZM200.38 57.5375H200.876V57.7435L200.73 57.889L200.38 57.5375ZM200.38 11.5385H199.883V11.3321L200.03 11.1865L200.38 11.5385ZM209.686 2.28171H210.183V2.48813L210.036 2.63368L209.686 2.28171ZM209.686 1.0712V0.574738H210.183V1.0712H209.686ZM209.398 1.0712H208.902V0.574738H209.398V1.0712ZM209.398 1.99686H209.894V2.20326L209.748 2.34883L209.398 1.99686ZM200.092 11.2537H199.595V11.0473L199.742 10.9017L200.092 11.2537ZM200.092 57.2527H200.588V57.4588L200.442 57.6042L200.092 57.2527ZM180.738 76.5495L181.088 76.901L180.739 77.2496L180.388 76.9019L180.738 76.5495ZM175.426 71.2803L175.076 71.6327L174.723 71.282L175.074 70.9296L175.426 71.2803ZM190.209 56.4694H190.705V56.6748L190.56 56.8201L190.209 56.4694ZM190.209 1.0712V0.574738H190.705V1.0712H190.209ZM189.921 1.0712H189.424V0.574738H189.921V1.0712ZM189.921 24.6404H190.417V25.8381L189.57 24.9916L189.921 24.6404ZM182.508 17.2349L182.158 17.5861L182.012 17.4407V17.2349H182.508ZM182.508 1.0712V0.574738H183.005V1.0712H182.508ZM182.22 1.0712H181.724V0.574738H182.22V1.0712ZM182.22 17.5198L181.869 17.871L181.724 17.7256V17.5198H182.22ZM189.921 25.21L190.271 24.8588L190.417 25.0042V25.21H189.921ZM189.921 38.8104H190.417V40.0085L189.57 39.1615L189.921 38.8104ZM180.161 29.0551L179.81 29.4062L179.524 29.1196L179.747 28.7814L180.161 29.0551ZM179.997 27.4174L179.656 27.7785L179.65 27.7728L179.644 27.7669L179.997 27.4174ZM178.144 27.4174L177.791 27.0679H177.791L178.144 27.4174ZM178.144 29.2688L177.819 29.6443L177.804 29.6318L177.791 29.6183L178.144 29.2688ZM179.873 29.34L179.548 28.9644L179.898 28.6626L180.224 28.9888L179.873 29.34ZM189.921 39.38L190.271 39.0288L190.417 39.1743V39.38H189.921ZM189.921 56.1846H190.417V56.39L190.272 56.5353L189.921 56.1846ZM175.138 70.9954L175.489 71.3461L175.139 71.6965L174.788 71.3478L175.138 70.9954ZM170.402 66.2958L170.052 66.6482L169.698 66.2968L170.051 65.9444L170.402 66.2958ZM177.608 59.104H178.105V59.31L177.959 59.4554L177.608 59.104ZM177.608 48.4944L177.956 48.1402L178.105 48.2862V48.4944H177.608ZM175.796 46.7142L175.448 47.0683L175.3 46.9224V46.7142H175.796ZM175.796 41.3026L176.147 40.9514L176.293 41.0968V41.3026H175.796ZM162.825 28.3431L162.474 28.6943L162.329 28.5488V28.3431H162.825ZM162.825 19.2287L163.176 18.8776L163.322 19.023V19.2287H162.825ZM152.283 8.69022L151.932 9.04131L151.629 8.73813L151.885 8.394L152.283 8.69022ZM152.16 6.98132L151.819 7.34245L151.813 7.33675L151.807 7.33084L152.16 6.98132ZM150.307 8.83267L150.659 8.48315L150.667 8.4908L150.674 8.49878L150.307 8.83267ZM151.995 8.97507L151.705 8.57228L152.048 8.32544L152.346 8.62396L151.995 8.97507ZM162.537 19.5135L162.888 19.1624L163.033 19.3078V19.5135H162.537ZM162.537 28.6279L162.186 28.9791L162.04 28.8337V28.6279H162.537ZM175.508 41.5874L175.859 41.2362L176.005 41.3816V41.5874H175.508ZM175.508 46.4294H176.005V47.6281L175.157 46.7804L175.508 46.4294ZM153.725 24.6404L153.374 24.9914L153.087 24.7048L153.311 24.3667L153.725 24.6404ZM153.56 23.0026L153.219 23.3638L153.213 23.3581L153.207 23.3521L153.56 23.0026ZM151.707 23.0026L152.06 23.3521L152.06 23.3522L151.707 23.0026ZM151.707 24.854L151.382 25.2295L151.368 25.2171L151.354 25.2035L151.707 24.854ZM153.436 24.9252L153.112 24.5497L153.461 24.2479L153.787 24.5741L153.436 24.9252ZM170.896 42.3707L171.247 42.0195L172.095 42.8671H170.896V42.3707ZM162.166 42.3707V42.8671H161.961L161.815 42.7218L162.166 42.3707ZM152.119 32.3306L151.768 32.6818L151.464 32.3786L151.72 32.0344L152.119 32.3306ZM151.995 30.6217L151.655 30.9828L151.649 30.9771L151.643 30.9712L151.995 30.6217ZM150.142 30.6217L149.79 30.2722L149.79 30.2721L150.142 30.6217ZM150.142 32.473L150.495 32.1235L150.502 32.1312L150.51 32.1391L150.142 32.473ZM151.83 32.6154L151.54 32.2126L151.882 31.9661L152.181 32.2639L151.83 32.6154ZM162.043 42.7979V43.2943H161.838L161.692 43.1494L162.043 42.7979ZM171.39 42.7979V42.3014H171.595L171.741 42.4462L171.39 42.7979ZM177.32 48.708L177.67 48.3564L177.816 48.5019V48.708H177.32ZM177.32 58.6768H177.816V58.8827L177.671 59.0282L177.32 58.6768ZM170.114 65.8686L170.464 66.22L170.115 66.5683L169.765 66.2218L170.114 65.8686ZM168.673 64.4445L168.322 64.0933L168.671 63.7446L169.021 64.0914L168.673 64.4445ZM166.819 66.2958L167.17 66.647L166.82 66.9974L166.469 66.6472L166.819 66.2958ZM136.636 36.1757V35.6793H136.841L136.986 35.8243L136.636 36.1757ZM128.359 36.1757V36.6722H127.949L127.871 36.2697L128.359 36.1757ZM127.988 35.5349L128.341 35.1854L128.346 35.1904L127.988 35.5349ZM126.135 35.5349L126.488 35.8844L126.488 35.8844L126.135 35.5349ZM126.135 37.3863L125.783 37.7358L125.783 37.7358L126.135 37.3863ZM127.988 37.3863L127.636 37.0367L127.668 37.0041L127.706 36.978L127.988 37.3863ZM128.359 36.7454L127.871 36.6514L127.949 36.2489H128.359V36.7454ZM136.512 36.7454V36.2489H136.718L136.863 36.3941L136.512 36.7454ZM166.531 66.7231L166.882 66.3718L167.236 66.7249L166.88 67.0762L166.531 66.7231ZM161.919 71.2803L162.268 71.6334L161.917 71.9802L161.568 71.6314L161.919 71.2803ZM136.842 46.2158L136.491 46.5669L136.206 46.2824L136.425 45.945L136.842 46.2158ZM136.718 44.5069L136.377 44.868L136.371 44.8623L136.365 44.8564L136.718 44.5069ZM134.865 44.5069L135.218 44.8564L135.217 44.8564L134.865 44.5069ZM134.865 46.3582L135.217 46.0086L135.225 46.0163L135.232 46.0243L134.865 46.3582ZM136.553 46.5006L136.263 46.0978L136.605 45.8516L136.903 46.1487L136.553 46.5006ZM161.672 71.4939L162.022 71.142L162.375 71.4932L162.023 71.8452L161.672 71.4939ZM156.895 76.2647L157.246 76.6159L156.896 76.9662L156.545 76.616L156.895 76.2647ZM121.441 40.8753L121.09 41.2267L120.944 41.0812V40.8753H121.441ZM121.441 11.2537H120.944V11.0476L121.09 10.9021L121.441 11.2537ZM131.653 1.0712V0.574738H132.854L132.004 1.42273L131.653 1.0712ZM131.077 1.0712L130.727 0.718933L130.872 0.574738H131.077V1.0712ZM124.982 7.1237L125.332 7.47595L124.982 7.82338L124.632 7.47595L124.982 7.1237ZM118.888 1.0712V0.574738H119.092L119.238 0.718933L118.888 1.0712ZM118.311 1.0712L117.961 1.42346L117.107 0.574738H118.311V1.0712ZM124.694 7.40857L125.044 7.05629L125.396 7.40639L125.046 7.75868L124.694 7.40857ZM121.153 10.9688H120.656V10.7639L120.801 10.6187L121.153 10.9688ZM121.153 34.2531H121.649V35.4473L120.802 34.6051L121.153 34.2531ZM115.14 28.2719L114.79 28.6238L114.644 28.4782V28.2719H115.14ZM115.14 13.7458L115.491 13.3946L115.637 13.5401V13.7458H115.14ZM102.952 1.56961L102.601 1.92081L102.331 1.65125L102.522 1.32104L102.952 1.56961ZM103.158 1.0712V0.574738H103.818L103.634 1.20911L103.158 1.0712ZM100.604 1.0712L100.141 1.24976L99.881 0.574738H100.604V1.0712ZM100.975 1.71207L101.333 1.36755L101.338 1.3728L101.342 1.37817L100.975 1.71207ZM102.663 1.85446L102.373 1.45166L102.716 1.20493L103.014 1.50323L102.663 1.85446ZM114.852 14.0307L115.203 13.6795L115.349 13.8249V14.0307H114.852ZM114.852 28.5567L114.502 28.9087L114.356 28.7631V28.5567H114.852ZM121.153 34.8229L121.503 34.4709L121.649 34.6164V34.8229H121.153ZM121.153 41.1601L120.802 41.5115L120.656 41.366V41.1601H121.153ZM156.607 76.5495L156.958 76.1981L157.311 76.5502L156.957 76.9016L156.607 76.5495ZM151.378 81.7475L151.728 82.0996L151.377 82.4482L151.027 82.0989L151.378 81.7475ZM82.6095 13.105L82.2588 13.4564L82.113 13.3109V13.105H82.6095ZM82.6095 1V0.503571H83.1059V1H82.6095ZM82.3212 1H81.8248V0.503571H82.3212V1ZM82.3212 13.3899L81.9705 13.7412L81.8248 13.5958V13.3899H82.3212ZM151.089 82.0323L151.44 81.681L151.793 82.0337L151.439 82.3851L151.089 82.0323ZM146.848 86.2335L147.197 86.5862L146.846 86.9338L146.497 86.5847L146.848 86.2335ZM111.434 50.8441V50.3477H111.64L111.785 50.493L111.434 50.8441ZM85.6155 50.8441V51.3406H85.4104L85.2651 51.1958L85.6155 50.8441ZM74.2502 39.5224L73.8999 39.8741L73.0485 39.026H74.2502V39.5224ZM74.3326 39.5224H74.829V40.0189H74.3326V39.5224ZM74.3326 27.4886L74.6836 27.1376L74.829 27.283V27.4886H74.3326ZM61.4437 14.6004L61.0927 14.9514L60.7895 14.6482L61.0453 14.3041L61.4437 14.6004ZM61.3201 12.8914L60.9795 13.2525L60.9734 13.2468L60.9676 13.2409L61.3201 12.8914ZM59.4671 12.8914L59.8197 13.2409L59.8197 13.2409L59.4671 12.8914ZM59.4671 14.7427L59.8197 14.3932L59.8273 14.4009L59.8345 14.4089L59.4671 14.7427ZM61.1554 14.8851L60.8652 14.4824L61.2078 14.2355L61.5065 14.5341L61.1554 14.8851ZM74.0443 27.7734L74.3954 27.4224L74.5408 27.5678V27.7734H74.0443ZM74.0443 39.3088H74.5408V40.5052L73.6937 39.6603L74.0443 39.3088ZM54.4845 19.7984V19.3019H54.6898L54.8351 19.4469L54.4845 19.7984ZM11.1648 19.7984L10.8141 19.447L10.9594 19.3019H11.1648V19.7984ZM3.24903 27.6979L3.59971 28.0493L3.24787 28.4004L2.89719 28.0481L3.24903 27.6979ZM3.22364 27.6731L2.88292 28.0342L2.87692 28.0285L2.8711 28.0226L3.22364 27.6731ZM1.3706 27.6731L1.01803 27.3236L1.01805 27.3236L1.3706 27.6731ZM1.3706 29.5245L1.72315 29.1749L1.73075 29.1826L1.73801 29.1906L1.3706 29.5245ZM3.05892 29.6669L3.40787 30.02L3.38043 30.0471L3.34913 30.0697L3.05892 29.6669ZM3.34717 29.3821L3.74555 29.6783L3.723 29.7086L3.69612 29.7352L3.34717 29.3821ZM3.47952 28.0354L3.02727 28.2401L2.88571 27.9275L3.1282 27.6846L3.47952 28.0354ZM11.2059 20.2969L10.8546 19.9461L11.0001 19.8004H11.2059V20.2969ZM54.361 20.2969V19.8004H54.5665L54.7119 19.9457L54.361 20.2969ZM85.492 51.4138V51.9102H85.2864L85.141 51.7649L85.492 51.4138ZM111.311 51.4138V50.9173H111.516L111.662 51.0624L111.311 51.4138ZM146.56 86.5895L146.91 86.2381L147.262 86.5893L146.911 86.9407L146.56 86.5895ZM142.854 90.2922L143.204 90.6434L142.854 90.9939L142.503 90.6435L142.854 90.2922ZM109.334 56.8254V56.329H109.54L109.685 56.4741L109.334 56.8254ZM79.6858 56.8254V57.3219H79.4805L79.3351 57.1768L79.6858 56.8254ZM65.2733 42.4418L64.9226 42.7932L64.6188 42.49L64.8749 42.1456L65.2733 42.4418ZM65.1497 40.7329L64.8091 41.094L64.8031 41.0883L64.7972 41.0824L65.1497 40.7329ZM63.2967 40.7329L62.9441 40.3834L62.9442 40.3834L63.2967 40.7329ZM63.2967 42.5843L63.6493 42.2348L63.6569 42.2424L63.6641 42.2504L63.2967 42.5843ZM64.985 42.7267L64.6948 42.3239L65.0377 42.0769L65.3363 42.3759L64.985 42.7267ZM79.5623 57.3239V57.8204H79.3564L79.211 57.6747L79.5623 57.3239ZM109.211 57.3239V56.8275H109.418L109.563 56.9744L109.211 57.3239ZM114.152 62.3083L114.505 61.9588L115.343 62.8048H114.152V62.3083ZM74.6208 62.3083L74.2702 61.9569L74.4155 61.8119H74.6208V62.3083ZM43.3663 93.4965L43.717 93.8479L43.4184 94.1459L43.0761 93.8993L43.3663 93.4965ZM41.678 93.6389L41.3255 93.2894L41.3313 93.2835L41.3374 93.2778L41.678 93.6389ZM41.678 95.4903L41.3255 95.8398L41.3254 95.8398L41.678 95.4903ZM43.5311 95.4903L43.8985 95.8241L43.8912 95.8321L43.8836 95.8398L43.5311 95.4903ZM43.6546 93.7813L43.2562 94.0776L43.001 93.7343L43.3027 93.4312L43.6546 93.7813ZM74.6208 62.6643L74.269 62.3142L74.4145 62.1679H74.6208V62.6643ZM114.605 62.6643V62.1679H114.81L114.955 62.3125L114.605 62.6643ZM127.123 75.1254L127.474 74.7735L127.826 75.1241L127.475 75.476L127.123 75.1254ZM122.223 80.0386L122.575 80.3892L122.429 80.535H122.223V80.0386ZM113.493 80.0386L113.143 79.6868L113.288 79.5422H113.493V80.0386ZM105.34 88.1561L105.69 88.5079L105.392 88.8052L105.05 88.5588L105.34 88.1561ZM103.652 88.2985L103.299 87.949L103.305 87.943L103.311 87.9373L103.652 88.2985ZM103.652 90.1498L104.004 89.8003L104.004 89.8003L103.652 90.1498ZM105.505 90.1498L105.872 90.4837L105.865 90.4917L105.857 90.4993L105.505 90.1498ZM105.628 88.4409L105.23 88.7371L104.973 88.392L105.278 88.0889L105.628 88.4409ZM113.576 80.537L113.226 80.185L113.371 80.0406H113.576V80.537ZM121.688 80.537V80.0406H122.888L122.038 80.8885L121.688 80.537ZM102.705 99.4778L103.055 99.8292L102.91 99.9742H102.705V99.4778ZM85.1213 99.4778V99.9742H84.9164L84.7711 99.8296L85.1213 99.4778ZM75.3209 89.7226L74.9706 90.0745L74.6661 89.7713L74.9225 89.4264L75.3209 89.7226ZM75.1973 88.0137L74.8567 88.3748L74.8506 88.3691L74.8448 88.3632L75.1973 88.0137ZM73.3443 88.0137L73.6969 88.3632L73.6969 88.3632L73.3443 88.0137ZM73.3443 89.865L73.6969 89.5155L73.7045 89.5232L73.7117 89.5311L73.3443 89.865ZM75.0326 90.0074L74.7424 89.6046L75.0851 89.3577L75.3837 89.6564L75.0326 90.0074ZM84.9978 99.9763V100.473H84.7921L84.6467 100.327L84.9978 99.9763ZM102.746 99.9763L103.096 100.328L102.951 100.473H102.746V99.9763ZM127.37 75.4102L127.02 75.0588L127.371 74.7084L127.722 75.0593L127.37 75.4102ZM137.83 85.8775L138.181 85.5266L139.028 86.3739H137.83V85.8775ZM132.065 85.8775L131.715 85.5255L131.86 85.381H132.065V85.8775ZM127.412 90.5058L127.762 90.8578L127.463 91.1548L127.121 90.9086L127.412 90.5058ZM125.723 90.6483L126.091 90.9821L126.083 90.9901L126.076 90.9978L125.723 90.6483ZM125.723 92.4996L125.371 92.8492L125.371 92.8491L125.723 92.4996ZM127.576 92.4996L127.224 92.1501L127.23 92.1442L127.236 92.1385L127.576 92.4996ZM127.741 90.8619L127.343 91.1581L127.086 90.8128L127.391 90.5096L127.741 90.8619ZM132.188 86.4471L131.839 86.0948L131.984 85.9507H132.188V86.4471ZM138.406 86.4471V85.9507H138.612L138.758 86.0966L138.406 86.4471ZM142.524 90.5771L142.876 90.2265L143.226 90.5778L142.875 90.9284L142.524 90.5771ZM133.753 99.3354L133.401 99.6853L133.052 99.334L133.402 98.9841L133.753 99.3354ZM136.512 102.112L136.864 101.763L137.213 102.114L136.863 102.464L136.512 102.112ZM121.4 117.208L121.75 117.559L121.605 117.705H121.4V117.208ZM116.335 117.208V117.705H116.13L115.985 117.56L116.335 117.208ZM110.323 111.227L109.972 111.579L109.668 111.276L109.924 110.931L110.323 111.227ZM110.199 109.518L109.858 109.879L109.852 109.873L109.847 109.867L110.199 109.518ZM108.346 109.518L107.993 109.168L107.993 109.168L108.346 109.518ZM108.346 111.369L108.699 111.02L108.706 111.027L108.713 111.035L108.346 111.369ZM110.034 111.512L109.744 111.109L110.086 110.862L110.385 111.16L110.034 111.512ZM116.252 117.706V118.203H116.047L115.902 118.058L116.252 117.706ZM121.482 117.706L121.831 118.059L121.686 118.203H121.482V117.706ZM132.477 106.812L132.127 106.459L132.973 105.621V106.812H132.477ZM132.477 116.852H132.973V117.058L132.827 117.204L132.477 116.852ZM122.182 127.106L122.532 127.457L122.234 127.755L121.892 127.508L122.182 127.106ZM120.494 127.248L120.141 126.899L120.147 126.893L120.153 126.887L120.494 127.248ZM120.494 129.099L120.846 128.75L120.846 128.75L120.494 129.099ZM122.347 129.099L122.714 129.433L122.707 129.441L122.699 129.449L122.347 129.099ZM122.47 127.391L122.072 127.687L121.816 127.342L122.12 127.039L122.47 127.391ZM132.765 117.137H133.261V117.343L133.115 117.489L132.765 117.137ZM132.765 106.527H132.268V106.321L132.415 106.175L132.765 106.527ZM136.842 102.468L136.491 102.117L136.842 101.767L137.192 102.117L136.842 102.468ZM151.089 116.71L151.44 116.359L151.792 116.71L151.44 117.061L151.089 116.71ZM144.46 123.332L144.81 123.683L144.665 123.828H144.46V123.332ZM135.894 123.332L135.544 122.98L135.689 122.835H135.894V123.332ZM122.347 136.861L122.698 137.212L122.552 137.357H122.347V136.861ZM112.052 136.861V137.357H111.847L111.701 137.212L112.052 136.861ZM97.722 122.549L97.3711 122.9L97.0676 122.597L97.3236 122.252L97.722 122.549ZM97.5984 120.84L97.2578 121.201L97.2517 121.195L97.2459 121.189L97.5984 120.84ZM95.7454 120.84L96.098 121.189L96.0979 121.189L95.7454 120.84ZM95.7454 122.691L96.098 122.341L96.1055 122.349L96.1128 122.357L95.7454 122.691ZM97.4337 122.833L97.1435 122.431L97.4857 122.184L97.7843 122.482L97.4337 122.833ZM111.929 137.288V137.785H111.723L111.578 137.64L111.929 137.288ZM122.429 137.288L122.78 137.639L122.634 137.785H122.429V137.288ZM135.977 123.759L135.626 123.408L135.771 123.263H135.977V123.759ZM143.965 123.759V123.263H145.166L144.316 124.11L143.965 123.759ZM104.228 163.421L104.579 163.772L104.434 163.917H104.228V163.421ZM104.311 163.919L104.661 164.271L104.516 164.416H104.311V163.919ZM151.419 116.923L151.068 116.572L151.419 116.222L151.769 116.572L151.419 116.923ZM156.772 122.264L157.123 121.912L157.475 122.264L157.123 122.615L156.772 122.264ZM109.211 169.758L109.562 170.109L108.86 169.407L109.211 169.758ZM157.019 122.549L156.668 122.197L157.02 121.846L157.371 122.198L157.019 122.549ZM162.619 128.174L162.971 127.824L163.321 128.175L162.97 128.525L162.619 128.174ZM134.741 156.015L135.092 156.367L135.08 156.379L135.066 156.391L134.741 156.015ZM134.659 156.087H134.163V155.859L134.334 155.711L134.659 156.087ZM134.659 180.439L134.308 180.79L134.163 180.645V180.439H134.659ZM182.632 228.361L182.983 228.009L183.286 228.312L183.03 228.657L182.632 228.361ZM182.756 230.069L183.096 229.708L183.102 229.714L183.108 229.72L182.756 230.069ZM184.609 230.069L184.256 229.72L184.256 229.72L184.609 230.069ZM184.609 228.218L184.256 228.568L184.248 228.56L184.241 228.552L184.609 228.218ZM182.92 228.076L183.21 228.479L182.868 228.725L182.569 228.427L182.92 228.076ZM147.713 192.9L147.362 193.251L146.513 192.404H147.713V192.9ZM158.295 192.9V192.404H158.501L158.646 192.549L158.295 192.9ZM177.279 211.841L177.629 211.489L177.933 211.793L177.677 212.137L177.279 211.841ZM177.402 213.55L177.743 213.189L177.749 213.194L177.755 213.2L177.402 213.55ZM179.255 213.55L179.608 213.899V213.899L179.255 213.55ZM179.255 211.698L178.903 212.048L178.895 212.04L178.888 212.032L179.255 211.698ZM177.567 211.556L177.857 211.959L177.515 212.205L177.216 211.907L177.567 211.556ZM158.378 192.402V191.905H158.583L158.729 192.05L158.378 192.402ZM147.177 192.402V192.898H146.972L146.826 192.753L147.177 192.402ZM134.989 180.225L134.638 180.577L134.492 180.431V180.225H134.989ZM134.989 156.443H134.492V156.237L134.638 156.091L134.989 156.443ZM157.431 134.013L157.08 133.662L157.927 132.815V134.013H157.431ZM157.431 146.118H157.927V146.324L157.781 146.469L157.431 146.118ZM143.636 159.86L143.986 160.212L143.974 160.224L143.961 160.236L143.636 159.86ZM143.554 159.932H143.057V159.705L143.229 159.556L143.554 159.932ZM143.554 172.179H144.05V172.675H143.554V172.179ZM142.771 172.535L143.129 172.88L143.124 172.885L142.771 172.535ZM144.624 172.535L144.272 172.885L144.267 172.88L144.624 172.535ZM143.842 172.179V172.675H143.345V172.179H143.842ZM143.842 160.216H143.345V160.01L143.491 159.865L143.842 160.216ZM157.637 146.474L157.286 146.122L157.299 146.11L157.312 146.098L157.637 146.474ZM157.719 146.402H158.215V146.629L158.044 146.778L157.719 146.402ZM157.719 133.728H157.223V133.521L157.369 133.376L157.719 133.728ZM162.949 128.53L162.599 128.178L162.95 127.829L163.3 128.179L162.949 128.53ZM168.714 134.297L169.064 134.649L168.713 134.999L168.363 134.648L168.714 134.297ZM172.214 130.808L171.863 130.457L172.71 129.613V130.808H172.214ZM172.214 157.155H172.71V157.36L172.565 157.505L172.214 157.155ZM160.066 169.331L160.418 169.681L160.119 169.981L159.776 169.734L160.066 169.331ZM158.378 169.473L158.025 169.124L158.031 169.118L158.037 169.112L158.378 169.473ZM158.378 171.325L158.025 171.674L158.025 171.674L158.378 171.325ZM160.231 171.325L160.598 171.658L160.591 171.666L160.583 171.674L160.231 171.325ZM160.354 169.616L159.956 169.912L159.7 169.568L160.003 169.265L160.354 169.616ZM172.461 157.511L172.11 157.16L172.123 157.147L172.136 157.135L172.461 157.511ZM172.543 157.439H173.04V157.666L172.868 157.815L172.543 157.439ZM172.543 146.687H172.047V145.488L172.895 146.337L172.543 146.687ZM181.644 155.802L181.995 155.451L182.14 155.596V155.802H181.644ZM181.644 165.984H182.14V166.19L181.994 166.336L181.644 165.984ZM161.796 185.779L162.146 186.131L161.848 186.429L161.505 186.182L161.796 185.779ZM160.107 185.922L159.755 185.572L159.761 185.566L159.767 185.561L160.107 185.922ZM160.107 187.773L160.46 187.424L160.46 187.424L160.107 187.773ZM161.96 187.773L162.328 188.107L162.321 188.115L162.313 188.123L161.96 187.773ZM162.084 186.064L161.686 186.36L161.429 186.016L161.733 185.713L162.084 186.064ZM181.85 166.34L181.499 165.989L181.512 165.976L181.525 165.965L181.85 166.34ZM181.932 166.269H182.428V166.496L182.257 166.645L181.932 166.269ZM181.932 155.446L182.283 155.095L182.428 155.24V155.446H181.932ZM172.543 146.046L172.192 146.397L172.047 146.252V146.046H172.543ZM172.543 130.452H172.047V130.247L172.192 130.101L172.543 130.452ZM177.526 125.468L177.175 125.117L177.526 124.766L177.877 125.117L177.526 125.468ZM181.726 129.669L182.077 129.318L182.223 129.464V129.669H181.726ZM181.726 139.211L181.376 139.563L181.23 139.417V139.211H181.726ZM188.109 145.548L188.459 145.196L188.745 145.48L188.525 145.819L188.109 145.548ZM188.232 147.257L188.573 146.896L188.579 146.902L188.585 146.907L188.232 147.257ZM190.085 147.257L190.438 147.606L190.438 147.607L190.085 147.257ZM190.085 145.406L189.733 145.755L189.725 145.747L189.718 145.74L190.085 145.406ZM188.397 145.263L188.687 145.666L188.346 145.912L188.047 145.616L188.397 145.263ZM182.014 138.926L181.665 139.278L181.518 139.133V138.926H182.014ZM182.014 129.954H181.518V128.757L182.365 129.602L182.014 129.954ZM195.933 143.839L196.283 143.488L196.429 143.633V143.839H195.933ZM195.933 164.774H196.429V164.979L196.283 165.125L195.933 164.774ZM174.973 185.708L175.324 186.059L175.311 186.072L175.298 186.084L174.973 185.708ZM174.89 185.779H174.394V185.552L174.566 185.404L174.89 185.779ZM174.89 193.683L174.54 194.035L174.394 193.889V193.683H174.89ZM186.75 205.503L187.1 205.152L187.386 205.436L187.166 205.774L186.75 205.503ZM186.873 207.212L187.214 206.851L187.22 206.857L187.226 206.863L186.873 207.212ZM188.726 207.212L189.079 207.562L189.079 207.562L188.726 207.212ZM188.726 205.361L188.374 205.711L188.366 205.703L188.359 205.695L188.726 205.361ZM187.038 205.219L187.328 205.621L186.986 205.868L186.688 205.57L187.038 205.219ZM175.179 193.398L174.828 193.75L174.682 193.605V193.398H175.179ZM175.179 186.064H174.682V185.858L174.828 185.713L175.179 186.064ZM196.139 165.13L195.788 164.778L195.8 164.766L195.814 164.754L196.139 165.13ZM196.221 165.058H196.717V165.286L196.546 165.434L196.221 165.058ZM196.221 143.554L196.572 143.203L196.717 143.348V143.554H196.221ZM177.814 125.183L177.463 125.535L177.112 125.183L177.463 124.832L177.814 125.183ZM181.52 121.48L181.169 121.129L181.52 120.779L181.871 121.129L181.52 121.48ZM205.404 145.334L205.754 144.983L205.9 145.129V145.334H205.404ZM205.404 184.569L205.052 184.919L204.907 184.774V184.569H205.404ZM212.363 191.547L212.714 191.197L212.859 191.342V191.547H212.363ZM212.363 227.648L212.012 228L211.866 227.854V227.648H212.363ZM240.982 256.202L241.333 255.851L241.567 256.085L241.441 256.392L240.982 256.202ZM203.015 99.4066L203.366 99.0553L203.718 99.4066L203.366 99.7579L203.015 99.4066ZM168.714 65.1566L168.363 64.8053L168.714 64.455L169.064 64.8053L168.714 65.1566ZM168.714 133.657L169.064 134.008L168.714 134.358L168.363 134.008L168.714 133.657ZM134.412 99.4066L134.061 99.7579L133.709 99.4066L134.061 99.0553L134.412 99.4066ZM74.988 162.207L74.6354 161.857L74.6413 161.851L74.6474 161.846L74.988 162.207ZM76.6763 162.064L76.507 162.531L76.4421 162.508L76.3861 162.467L76.6763 162.064ZM74.988 164.058L75.3406 163.709L74.988 164.058ZM76.841 164.058L77.2346 164.361L77.2155 164.386L77.1936 164.408L76.841 164.058ZM107.126 169.331C107.738 168.754 108.743 168.641 109.445 169.147L108.864 169.953C108.578 169.747 108.101 169.776 107.807 170.053L107.126 169.331ZM107.114 171.893C106.428 171.201 106.428 170.035 107.114 169.343L107.819 170.042C107.517 170.347 107.517 170.889 107.819 171.194L107.114 171.893ZM109.672 171.893C108.983 172.588 107.802 172.588 107.114 171.893L107.819 171.194C108.119 171.497 108.667 171.497 108.967 171.194L109.672 171.893ZM108.926 171.241C109.092 171.025 109.258 170.708 109.287 170.447C109.3 170.327 109.281 170.251 109.253 170.201C109.227 170.156 109.164 170.081 108.985 170.017L109.324 169.083C109.676 169.211 109.948 169.418 110.113 169.705C110.275 169.987 110.304 170.29 110.274 170.557C110.217 171.071 109.934 171.559 109.713 171.846L108.926 171.241ZM243.476 257.976C242.787 258.67 241.606 258.67 240.918 257.976L241.623 257.277C241.923 257.579 242.471 257.579 242.771 257.277L243.476 257.976ZM243.498 255.378C244.154 256.135 244.154 257.195 243.498 257.951L242.748 257.301C243.08 256.918 243.08 256.412 242.748 256.029L243.498 255.378ZM240.918 255.354C241.606 254.66 242.787 254.66 243.476 255.354L242.771 256.053C242.471 255.751 241.923 255.751 241.623 256.053L240.918 255.354ZM240.799 255.526L240.84 255.455L241.7 255.952L241.659 256.023L240.799 255.526ZM213.002 226.941L241.579 255.423L240.879 256.126L212.301 227.644L213.002 226.941ZM213.148 191.832V227.292H212.155V191.832H213.148ZM249.608 229.424L212.3 192.183L213.002 191.481L250.31 228.721L249.608 229.424ZM250.455 228.503V229.073H249.462V228.503H250.455ZM206.001 183.933L250.31 228.152L249.608 228.854L205.3 184.635L206.001 183.933ZM206.147 145.05V184.284H205.154V145.05H206.147ZM182.118 120.844L206.002 144.698L205.3 145.401L181.416 121.547L182.118 120.844ZM186.358 117.347L182.117 121.548L181.418 120.843L185.659 116.642L186.358 117.347ZM208.924 140.559L185.658 117.346L186.359 116.643L209.625 139.856L208.924 140.559ZM208.729 140.243L208.811 140.029L209.738 140.386L209.655 140.6L208.729 140.243ZM230.954 162.846L208.841 140.773L209.543 140.07L231.656 162.144L230.954 162.846ZM230.809 167.337V162.495H231.801V167.337H230.809ZM235.442 172.174L230.954 167.688L231.656 166.986L236.144 171.472L235.442 172.174ZM235.297 185.637V171.823H236.29V185.637H235.297ZM249.609 200.088L235.443 185.989L236.144 185.285L250.309 199.384L249.609 200.088ZM250.455 199.166V199.736H249.462V199.166H250.455ZM236.432 185L250.309 198.814L249.609 199.518L235.731 185.704L236.432 185ZM236.578 172.108V185.352H235.585V172.108H236.578ZM241.455 178.156L235.731 172.46L236.432 171.756L242.156 177.452L241.455 178.156ZM241.588 179.874C240.93 179.253 240.913 178.267 241.389 177.534L242.222 178.075C241.957 178.481 242.022 178.919 242.27 179.152L241.588 179.874ZM244.135 179.863C243.446 180.557 242.265 180.557 241.576 179.863L242.282 179.164C242.581 179.466 243.13 179.466 243.43 179.164L244.135 179.863ZM244.135 177.312C244.821 178.004 244.821 179.171 244.135 179.863L243.429 179.164C243.732 178.859 243.732 178.316 243.429 178.011L244.135 177.312ZM241.804 177.117C242.469 176.637 243.5 176.613 244.149 177.328L243.415 177.996C243.158 177.714 242.707 177.689 242.384 177.922L241.804 177.117ZM231.944 166.701L242.444 177.168L241.743 177.871L231.243 167.404L231.944 166.701ZM232.09 162.21V167.052H231.097V162.21H232.09ZM209.996 139.928L231.944 161.859L231.242 162.561L209.294 140.63L209.996 139.928ZM219.857 140.775H209.645V139.782H219.857V140.775ZM249.608 170.679L219.507 140.63L220.208 139.927L250.31 169.976L249.608 170.679ZM250.455 169.758V170.328H249.462V169.758H250.455ZM220.785 139.927L250.31 169.407L249.608 170.109L220.083 140.63L220.785 139.927ZM249.959 140.775H220.434V139.782H249.959V140.775ZM250.455 139.78V140.279H249.462V139.78H250.455ZM209.439 139.284H249.959V140.277H209.439V139.284ZM186.648 116.287L209.79 139.429L209.088 140.131L185.946 116.989L186.648 116.287ZM191.012 112.647L186.647 116.99L185.947 116.287L190.312 111.943L191.012 112.647ZM207.112 129.45L190.311 112.646L191.013 111.944L207.814 128.748L207.112 129.45ZM250.455 128.459V129.099H249.462V128.459H250.455ZM219.857 127.962H249.959V128.955H219.857V127.962ZM229.35 119.696L220.208 128.81L219.507 128.107L228.648 118.993L229.35 119.696ZM249.959 119.841H228.999V118.848H249.959V119.841ZM250.455 118.846V119.344H249.462V118.846H250.455ZM228.917 118.349H249.959V119.342H228.917V118.349ZM218.89 128.106L228.567 118.494L229.266 119.198L219.59 128.811L218.89 128.106ZM207.545 127.962H219.24V128.955H207.545V127.962ZM191.301 111.517L207.896 128.108L207.194 128.81L190.599 112.219L191.301 111.517ZM195.171 108.375L191.3 112.22L190.6 111.515L194.471 107.67L195.171 108.375ZM209.171 123.042L194.47 108.374L195.171 107.671L209.872 122.34L209.171 123.042ZM227.867 111.08L215.843 123.043L215.142 122.339L227.166 110.376L227.867 111.08ZM250 111.225H227.517V110.232H250V111.225ZM250.496 110.23V110.728H249.504V110.23H250.496ZM227.434 109.733H250V110.726H227.434V109.733ZM215.06 121.841L227.084 109.878L227.784 110.582L215.76 122.544L215.06 121.841ZM209.645 121.696H215.41V122.689H209.645V121.696ZM199.331 111.161L209.996 121.842L209.294 122.543L198.629 111.862L199.331 111.161ZM204.333 112.008H198.98V111.015H204.333V112.008ZM209.17 117.06L203.982 111.862L204.684 111.161L209.873 116.359L209.17 117.06ZM213.557 117.206H209.522V116.213H213.557V117.206ZM222.885 108.089L213.908 117.061L213.206 116.359L222.183 107.387L222.885 108.089ZM224.522 107.956C223.911 108.532 222.948 108.648 222.244 108.14L222.824 107.335C223.108 107.54 223.545 107.513 223.84 107.234L224.522 107.956ZM224.534 105.394C225.22 106.086 225.22 107.253 224.534 107.945L223.829 107.246C224.131 106.941 224.131 106.398 223.829 106.093L224.534 105.394ZM221.975 105.394C222.664 104.7 223.845 104.7 224.534 105.394L223.829 106.093C223.529 105.791 222.981 105.791 222.681 106.093L221.975 105.394ZM221.822 107.769C221.235 107.058 221.316 106.06 221.975 105.394L222.681 106.093C222.352 106.425 222.351 106.85 222.587 107.137L221.822 107.769ZM213.083 115.86L221.854 107.102L222.555 107.804L213.784 116.562L213.083 115.86ZM209.563 115.715H213.433V116.708H209.563V115.715ZM204.726 110.662L209.914 115.86L209.211 116.562L204.023 111.364L204.726 110.662ZM198.445 110.517H204.374V111.51H198.445V110.517ZM195.461 107.316L198.796 110.663L198.093 111.364L194.757 108.017L195.461 107.316ZM200.895 102.607L195.459 108.018L194.759 107.315L200.194 101.903L200.895 102.607ZM208.533 102.751H200.545V101.758H208.533V102.751ZM218.808 92.7087L208.884 102.606L208.183 101.903L218.107 92.0057L218.808 92.7087ZM220.486 92.5759C219.874 93.1535 218.869 93.266 218.167 92.7599L218.748 91.9544C219.034 92.1606 219.511 92.1306 219.805 91.8536L220.486 92.5759ZM220.498 90.014C221.184 90.7059 221.184 91.8723 220.498 92.5643L219.793 91.8653C220.095 91.5604 220.095 91.0179 219.793 90.7129L220.498 90.014ZM217.94 90.0139C218.628 89.3196 219.81 89.3196 220.498 90.0139L219.793 90.713C219.493 90.4104 218.945 90.4104 218.645 90.713L217.94 90.0139ZM217.771 92.3686C217.249 91.667 217.324 90.6916 217.925 90.0296L218.66 90.6973C218.356 91.0322 218.348 91.4809 218.567 91.7762L217.771 92.3686ZM208.141 101.405L217.818 91.7215L218.52 92.4233L208.843 102.107L208.141 101.405ZM201.08 101.26H208.492V102.253H201.08V101.26ZM203.985 99.5433L201.432 102.107L200.728 101.406L203.281 98.8427L203.985 99.5433ZM200.032 94.8559L203.986 98.8435L203.28 99.5425L199.327 95.5549L200.032 94.8559ZM210.777 84.8766L200.03 95.5576L199.33 94.8533L210.078 84.1724L210.777 84.8766ZM221.71 85.021H210.427V84.0281H221.71V85.021ZM233.26 96.7671L221.359 84.8757L222.061 84.1734L233.962 96.0648L233.26 96.7671ZM233.394 98.4861C232.744 97.8731 232.703 96.8046 233.213 96.1198L234.009 96.7122C233.777 97.0241 233.819 97.5223 234.075 97.7637L233.394 98.4861ZM235.94 98.4743C235.252 99.1688 234.07 99.1688 233.382 98.4743L234.087 97.7754C234.387 98.0779 234.935 98.0779 235.235 97.7754L235.94 98.4743ZM235.94 95.924C236.626 96.616 236.626 97.7824 235.94 98.4744L235.235 97.7753C235.537 97.4704 235.537 96.928 235.235 96.623L235.94 95.924ZM233.609 95.7283C234.274 95.2491 235.305 95.2251 235.955 95.9396L235.22 96.6074C234.964 96.3251 234.513 96.3011 234.189 96.5339L233.609 95.7283ZM228.114 89.656L234.25 95.7797L233.548 96.4825L227.413 90.3588L228.114 89.656ZM250 90.5038H227.764V89.511H250V90.5038ZM250.496 89.4378V90.0074H249.504V89.4378H250.496ZM249.593 89.1336L249.675 89.0623L250.325 89.8132L250.242 89.8844L249.593 89.1336ZM227.228 89.0125H249.918V90.0054H227.228V89.0125ZM222.143 83.7455L227.579 89.1572L226.878 89.8608L221.442 84.4491L222.143 83.7455ZM215.677 80.0349L211.23 84.4496L210.531 83.745L214.978 79.3302L215.677 80.0349ZM240.858 80.179H215.328V79.1861H240.858V80.179ZM247.797 73.4837L241.208 80.0346L240.508 79.3305L247.097 72.7796L247.797 73.4837ZM249.959 73.6281H247.447V72.6352H249.959V73.6281ZM250.455 72.6332V73.1316H249.462V72.6332H250.455ZM247.941 72.1367H249.959V73.1296H247.941V72.1367ZM250.308 70.9925L248.29 72.9863L247.592 72.2801L249.61 70.2863L250.308 70.9925ZM250.455 70.0697V70.6394H249.462V70.0697H250.455ZM240.425 78.9043L249.608 69.7188L250.31 70.4207L241.127 79.6063L240.425 78.9043ZM215.245 78.7589H240.776V79.7518H215.245V78.7589ZM199 94.783L214.895 78.9041L215.596 79.6066L199.701 95.4854L199 94.783ZM192.289 87.3776L199.701 94.783L199 95.4854L191.587 88.08L192.289 87.3776ZM210.778 69.638L192.289 88.0803L191.588 87.3773L210.077 68.935L210.778 69.638ZM230.317 69.7829H210.427V68.79H230.317V69.7829ZM250.351 49.985L230.667 69.6378L229.966 68.9352L249.649 49.2823L250.351 49.985ZM250.496 49.064V49.6337H249.504V49.064H250.496ZM229.966 68.3656L249.649 48.7127L250.351 49.4153L230.667 69.0682L229.966 68.3656ZM211.004 68.2204H230.317V69.2133H211.004V68.2204ZM235.774 44.6442L211.355 69.0679L210.653 68.3659L235.072 43.9422L235.774 44.6442ZM235.919 24.7828V44.2932H234.926V24.7828H235.919ZM250.351 10.5364L235.774 25.1336L235.072 24.432L249.649 9.83479L250.351 10.5364ZM250.496 9.61594V10.1856H249.504V9.61594H250.496ZM234.743 24.1466L249.649 9.26462L250.351 9.96727L235.444 24.8493L234.743 24.1466ZM234.597 44.0084V24.498H235.59V44.0084H234.597ZM191.299 87.0214L234.743 43.657L235.444 44.3598L192.001 87.7241L191.299 87.0214ZM185.617 80.6832L192 87.0205L191.3 87.7251L184.918 81.3877L185.617 80.6832ZM211.725 55.3254L185.618 81.3868L184.917 80.6841L211.024 54.6227L211.725 55.3254ZM211.871 15.7396V54.9741H210.878V15.7396H211.871ZM226.467 1.4231L211.725 16.0916L211.024 15.3877L225.766 0.719269L226.467 1.4231ZM225.54 0.574738H226.116V1.56763H225.54V0.574738ZM210.736 15.1029L225.19 0.719299L225.89 1.42307L211.437 15.8067L210.736 15.1029ZM210.59 54.6893V15.4548H211.583V54.6893H210.59ZM184.628 80.3993L210.736 54.3379L211.437 55.0406L185.33 81.102L184.628 80.3993ZM181.375 76.4817L185.329 80.398L184.63 81.1033L180.677 77.187L181.375 76.4817ZM200.73 57.889L181.377 77.1859L180.676 76.4828L200.029 57.1859L200.73 57.889ZM200.876 11.5385V57.5375H199.883V11.5385H200.876ZM210.036 2.63368L200.73 11.8904L200.03 11.1865L209.336 1.92975L210.036 2.63368ZM210.183 1.0712V2.28171H209.19V1.0712H210.183ZM209.398 0.574738H209.686V1.56763H209.398V0.574738ZM208.902 1.99686V1.0712H209.894V1.99686H208.902ZM199.742 10.9017L209.048 1.64487L209.748 2.34883L200.442 11.6056L199.742 10.9017ZM199.595 57.2527V11.2537H200.588V57.2527H199.595ZM180.387 76.1979L199.741 56.9011L200.442 57.6042L181.088 76.901L180.387 76.1979ZM175.775 70.9278L181.087 76.197L180.388 76.9019L175.076 71.6327L175.775 70.9278ZM190.56 56.8201L175.777 71.631L175.074 70.9296L189.857 56.1187L190.56 56.8201ZM190.705 1.0712V56.4694H189.712V1.0712H190.705ZM189.921 0.574738H190.209V1.56763H189.921V0.574738ZM189.424 24.6404V1.0712H190.417V24.6404H189.424ZM182.859 16.8837L190.271 24.2892L189.57 24.9916L182.158 17.5861L182.859 16.8837ZM183.005 1.0712V17.2349H182.012V1.0712H183.005ZM182.22 0.574738H182.508V1.56763H182.22V0.574738ZM181.724 17.5198V1.0712H182.717V17.5198H181.724ZM189.57 25.5613L181.869 17.871L182.571 17.1685L190.271 24.8588L189.57 25.5613ZM189.424 38.8104V25.21H190.417V38.8104H189.424ZM180.512 28.704L190.272 38.4592L189.57 39.1615L179.81 29.4062L180.512 28.704ZM180.337 27.0563C180.983 27.6654 181.024 28.6495 180.575 29.3289L179.747 28.7814C179.957 28.4639 179.916 28.0239 179.656 27.7785L180.337 27.0563ZM177.791 27.0679C178.479 26.3736 179.661 26.3736 180.349 27.0679L179.644 27.7669C179.344 27.4644 178.796 27.4644 178.496 27.7669L177.791 27.0679ZM177.791 29.6183C177.105 28.9263 177.105 27.7599 177.791 27.0679L178.496 27.7669C178.194 28.0719 178.194 28.6143 178.496 28.9192L177.791 29.6183ZM180.198 29.7155C179.48 30.3357 178.46 30.1987 177.819 29.6443L178.468 28.8932C178.815 29.1933 179.277 29.1986 179.548 28.9644L180.198 29.7155ZM189.57 39.7312L179.522 29.6911L180.224 28.9888L190.271 39.0288L189.57 39.7312ZM189.424 56.1846V39.38H190.417V56.1846H189.424ZM174.786 70.6447L189.569 55.8339L190.272 56.5353L175.489 71.3461L174.786 70.6447ZM170.752 65.9434L175.487 70.643L174.788 71.3478L170.052 66.6482L170.752 65.9434ZM177.959 59.4554L170.753 66.6472L170.051 65.9444L177.258 58.7527L177.959 59.4554ZM178.105 48.4944V59.104H177.112V48.4944H178.105ZM176.144 46.3601L177.956 48.1402L177.26 48.8485L175.448 47.0683L176.144 46.3601ZM176.293 41.3026V46.7142H175.3V41.3026H176.293ZM163.176 27.9919L176.147 40.9514L175.445 41.6538L162.474 28.6943L163.176 27.9919ZM163.322 19.2287V28.3431H162.329V19.2287H163.322ZM152.634 8.33913L163.176 18.8776L162.474 19.5798L151.932 9.04131L152.634 8.33913ZM152.501 6.62019C153.15 7.23318 153.191 8.3015 152.682 8.98643L151.885 8.394C152.117 8.08209 152.075 7.58395 151.819 7.34245L152.501 6.62019ZM149.954 6.63181C150.643 5.93747 151.824 5.93748 152.512 6.63179L151.807 7.33084C151.507 7.02831 150.959 7.02832 150.659 7.33084L149.954 6.63181ZM149.954 9.18219C149.268 8.49025 149.268 7.32375 149.954 6.63181L150.659 7.33084C150.357 7.63574 150.357 8.17825 150.659 8.48315L149.954 9.18219ZM152.285 9.37785C151.62 9.85707 150.589 9.88113 149.939 9.16655L150.674 8.49878C150.931 8.78105 151.382 8.8051 151.705 8.57228L152.285 9.37785ZM162.186 19.8646L151.644 9.32616L152.346 8.62396L162.888 19.1624L162.186 19.8646ZM162.04 28.6279V19.5135H163.033V28.6279H162.04ZM175.157 41.9386L162.186 28.9791L162.888 28.2767L175.859 41.2362L175.157 41.9386ZM175.012 46.4294V41.5874H176.005V46.4294H175.012ZM154.076 24.2894L175.859 46.0784L175.157 46.7804L153.374 24.9914L154.076 24.2894ZM153.901 22.6415C154.546 23.2506 154.588 24.2347 154.139 24.9141L153.311 24.3667C153.52 24.049 153.479 23.6091 153.219 23.3638L153.901 22.6415ZM151.354 22.6531C152.043 21.9587 153.224 21.9587 153.913 22.6531L153.207 23.3521C152.907 23.0496 152.359 23.0496 152.06 23.3521L151.354 22.6531ZM151.354 25.2035C150.668 24.5116 150.668 23.3451 151.354 22.6531L152.06 23.3522C151.757 23.6571 151.757 24.1996 152.06 24.5045L151.354 25.2035ZM153.761 25.3008C153.044 25.921 152.023 25.784 151.382 25.2295L152.032 24.4785C152.379 24.7785 152.841 24.7839 153.112 24.5497L153.761 25.3008ZM170.545 42.7218L153.086 25.2764L153.787 24.5741L171.247 42.0195L170.545 42.7218ZM162.166 41.8742H170.896V42.8671H162.166V41.8742ZM152.47 31.9795L162.517 42.0195L161.815 42.7218L151.768 32.6818L152.47 31.9795ZM152.336 30.2605C152.986 30.8736 153.026 31.9419 152.517 32.6268L151.72 32.0344C151.952 31.7224 151.911 31.2243 151.655 30.9828L152.336 30.2605ZM149.79 30.2721C150.478 29.5779 151.659 29.5778 152.348 30.2722L151.643 30.9712C151.343 30.6687 150.795 30.6687 150.495 30.9712L149.79 30.2721ZM149.79 32.8225C149.104 32.1305 149.104 30.9641 149.79 30.2722L150.495 30.9712C150.192 31.2761 150.192 31.8186 150.495 32.1235L149.79 32.8225ZM152.121 33.0182C151.456 33.4974 150.424 33.5215 149.775 32.8069L150.51 32.1391C150.766 32.4214 151.217 32.4455 151.54 32.2126L152.121 33.0182ZM161.692 43.1494L151.48 32.967L152.181 32.2639L162.393 42.4463L161.692 43.1494ZM176.97 49.0596L171.04 43.1495L171.741 42.4462L177.67 48.3564L176.97 49.0596ZM176.824 58.6768V48.708H177.816V58.6768H176.824ZM169.763 65.5172L176.969 58.3254L177.671 59.0282L170.464 66.22L169.763 65.5172ZM169.021 64.0914L170.463 65.5155L169.765 66.2218L168.324 64.7976L169.021 64.0914ZM166.469 65.9446L168.322 64.0933L169.023 64.7957L167.17 66.647L166.469 65.9446ZM136.986 35.8243L167.17 65.9444L166.469 66.6472L136.285 36.5271L136.986 35.8243ZM128.346 35.1904C128.595 35.4487 128.781 35.7453 128.846 36.0817L127.871 36.2697C127.854 36.179 127.793 36.0482 127.631 35.8795L128.346 35.1904ZM125.783 35.1854C126.471 34.491 127.652 34.491 128.341 35.1854L127.636 35.8844C127.336 35.5818 126.788 35.5818 126.488 35.8844L125.783 35.1854ZM125.783 37.7358C125.097 37.0438 125.097 35.8773 125.783 35.1854L126.488 35.8844C126.185 36.1893 126.185 36.7318 126.488 37.0367L125.783 37.7358ZM128.341 37.7358C127.652 38.4301 126.471 38.4301 125.783 37.7358L126.488 37.0367C126.788 37.3393 127.336 37.3393 127.636 37.0367L128.341 37.7358ZM128.846 36.8394C128.794 37.1124 128.629 37.5464 128.271 37.7946L127.706 36.978C127.723 36.9658 127.759 36.9306 127.797 36.8587C127.834 36.7895 127.86 36.7123 127.871 36.6514L128.846 36.8394ZM136.512 37.2418H128.359V36.2489H136.512V37.2418ZM166.18 67.0743L136.161 37.0967L136.863 36.3941L166.882 66.3718L166.18 67.0743ZM161.57 70.9272L166.182 66.3699L166.88 67.0762L162.268 71.6334L161.57 70.9272ZM137.192 45.8646L162.27 70.9291L161.568 71.6314L136.491 46.5669L137.192 45.8646ZM137.059 44.1457C137.717 44.7668 137.734 45.7536 137.258 46.4865L136.425 45.945C136.69 45.5386 136.625 45.1013 136.377 44.868L137.059 44.1457ZM134.512 44.1574C135.201 43.463 136.382 43.463 137.071 44.1574L136.365 44.8564C136.066 44.5538 135.517 44.5538 135.218 44.8564L134.512 44.1574ZM134.512 46.7077C133.826 46.0157 133.826 44.8493 134.512 44.1573L135.217 44.8564C134.915 45.1613 134.915 45.7037 135.217 46.0086L134.512 46.7077ZM136.843 46.9034C136.178 47.3826 135.147 47.4067 134.498 46.692L135.232 46.0243C135.489 46.3066 135.94 46.3306 136.263 46.0978L136.843 46.9034ZM161.322 71.8458L136.203 46.8525L136.903 46.1487L162.022 71.142L161.322 71.8458ZM156.545 75.9134L161.321 71.1427L162.023 71.8452L157.246 76.6159L156.545 75.9134ZM121.791 40.524L157.246 75.9133L156.545 76.616L121.09 41.2267L121.791 40.524ZM121.937 11.2537V40.8753H120.944V11.2537H121.937ZM132.004 1.42273L121.791 11.6052L121.09 10.9021L131.303 0.719635L132.004 1.42273ZM131.077 0.574738H131.653V1.56763H131.077V0.574738ZM124.632 6.77147L130.727 0.718933L131.426 1.42343L125.332 7.47595L124.632 6.77147ZM119.238 0.718933L125.332 6.77147L124.632 7.47595L118.538 1.42343L119.238 0.718933ZM118.311 0.574738H118.888V1.56763H118.311V0.574738ZM124.344 7.76086L117.961 1.42346L118.661 0.718903L125.044 7.05629L124.344 7.76086ZM120.801 10.6187L124.342 7.05847L125.046 7.75868L121.505 11.3189L120.801 10.6187ZM120.656 34.2531V10.9688H121.649V34.2531H120.656ZM115.491 27.9199L121.503 33.9012L120.802 34.6051L114.79 28.6238L115.491 27.9199ZM115.637 13.7458V28.2719H114.644V13.7458H115.637ZM103.303 1.21838L115.491 13.3946L114.79 14.0971L102.601 1.92081L103.303 1.21838ZM103.634 1.20911C103.586 1.37762 103.49 1.63116 103.381 1.81815L102.522 1.32104C102.578 1.22324 102.647 1.04968 102.681 0.933258L103.634 1.20911ZM100.604 0.574738H103.158V1.56763H100.604V0.574738ZM100.618 2.05656C100.336 1.76407 100.224 1.46487 100.141 1.24976L101.068 0.892609C101.149 1.10477 101.203 1.23282 101.333 1.36755L100.618 2.05656ZM102.954 2.25725C102.288 2.73647 101.257 2.76053 100.608 2.04596L101.342 1.37817C101.599 1.66043 102.05 1.68451 102.373 1.45166L102.954 2.25725ZM114.501 14.3819L102.313 2.20567L103.014 1.50323L115.203 13.6795L114.501 14.3819ZM114.356 28.5567V14.0307H115.349V28.5567H114.356ZM120.802 35.1749L114.502 28.9087L115.202 28.2047L121.503 34.4709L120.802 35.1749ZM120.656 41.1601V34.8229H121.649V41.1601H120.656ZM156.256 76.9008L120.802 41.5115L121.503 40.8088L156.958 76.1981L156.256 76.9008ZM151.028 81.3954L156.257 76.1974L156.957 76.9016L151.728 82.0996L151.028 81.3954ZM82.9602 12.7537L151.728 81.3961L151.027 82.0989L82.2588 13.4564L82.9602 12.7537ZM83.1059 1V13.105H82.113V1H83.1059ZM82.3212 0.503571H82.6095V1.49646H82.3212V0.503571ZM81.8248 13.3899V1H82.8177V13.3899H81.8248ZM150.739 82.3837L81.9705 13.7412L82.672 13.0385L151.44 81.681L150.739 82.3837ZM146.499 85.8808L150.74 81.6796L151.439 82.3851L147.197 86.5862L146.499 85.8808ZM111.785 50.493L147.199 85.8824L146.497 86.5847L111.083 51.1953L111.785 50.493ZM74.6006 39.1707L85.9659 50.4924L85.2651 51.1958L73.8999 39.8741L74.6006 39.1707ZM74.3326 40.0189H74.2502V39.026H74.3326V40.0189ZM74.829 27.4886V39.5224H73.8362V27.4886H74.829ZM61.7947 14.2493L74.6836 27.1376L73.9816 27.8397L61.0927 14.9514L61.7947 14.2493ZM61.6608 12.5303C62.3107 13.1432 62.3514 14.2116 61.8421 14.8966L61.0453 14.3041C61.2772 13.9922 61.2355 13.494 60.9795 13.2525L61.6608 12.5303ZM59.1146 12.5419C59.8029 11.8475 60.9843 11.8475 61.6727 12.5419L60.9676 13.2409C60.6677 12.9384 60.1196 12.9384 59.8197 13.2409L59.1146 12.5419ZM59.1146 15.0923C58.4285 14.4003 58.4285 13.2338 59.1146 12.5419L59.8197 13.2409C59.5174 13.5458 59.5174 14.0883 59.8197 14.3932L59.1146 15.0923ZM61.4457 15.2879C60.7805 15.7672 59.7491 15.7912 59.0997 15.0766L59.8345 14.4089C60.091 14.6911 60.5421 14.7152 60.8652 14.4824L61.4457 15.2879ZM73.6933 28.1245L60.8044 15.2362L61.5065 14.5341L74.3954 27.4224L73.6933 28.1245ZM73.5479 39.3088V27.7734H74.5408V39.3088H73.5479ZM54.8351 19.4469L74.3949 38.9573L73.6937 39.6603L54.1339 20.1499L54.8351 19.4469ZM2.89835 27.3465L10.8141 19.447L11.5154 20.1498L3.59971 28.0493L2.89835 27.3465ZM2.89719 28.0481C2.89183 28.0427 2.88715 28.0381 2.88292 28.0342L3.56436 27.312C3.57739 27.3243 3.58957 27.3363 3.60087 27.3476L2.89719 28.0481ZM2.8711 28.0226C2.57114 27.7201 2.02307 27.7201 1.72315 28.0226L1.01805 27.3236C1.7064 26.6293 2.88781 26.6293 3.57618 27.3236L2.8711 28.0226ZM1.72317 28.0226C1.42086 28.3276 1.42089 28.87 1.72315 29.1749L1.01805 29.874C0.332047 29.182 0.332076 28.0156 1.01803 27.3236L1.72317 28.0226ZM1.73801 29.1906C1.99454 29.4729 2.44557 29.4969 2.76871 29.2641L3.34913 30.0697C2.684 30.5489 1.6526 30.573 1.00319 29.8583L1.73801 29.1906ZM2.70997 29.3138L2.99822 29.0289L3.69612 29.7352L3.40787 30.02L2.70997 29.3138ZM2.94878 29.0858C3.11603 28.8609 3.1503 28.5119 3.02727 28.2401L3.93177 27.8306C4.19469 28.4113 4.14078 29.1467 3.74555 29.6783L2.94878 29.0858ZM11.5572 20.6476L3.83083 28.3862L3.1282 27.6846L10.8546 19.9461L11.5572 20.6476ZM54.361 20.7933H11.2059V19.8004H54.361V20.7933ZM85.141 51.7649L54.01 20.648L54.7119 19.9457L85.8429 51.0627L85.141 51.7649ZM146.209 86.9409L110.96 51.7652L111.662 51.0624L146.91 86.2381L146.209 86.9409ZM142.503 89.941L146.209 86.2383L146.911 86.9407L143.204 90.6434L142.503 89.941ZM109.685 56.4741L143.204 89.9409L142.503 90.6435L108.984 57.1768L109.685 56.4741ZM65.624 42.0904L80.0365 56.474L79.3351 57.1768L64.9226 42.7932L65.624 42.0904ZM65.4904 40.3717C66.1403 40.9848 66.1809 42.0531 65.6717 42.7381L64.8749 42.1456C65.1068 41.8337 65.0651 41.3355 64.8091 41.094L65.4904 40.3717ZM62.9442 40.3834C63.6325 39.689 64.8139 39.689 65.5023 40.3834L64.7972 41.0824C64.4973 40.7799 63.9492 40.7799 63.6493 41.0824L62.9442 40.3834ZM62.9441 42.9338C62.2582 42.2418 62.2582 41.0754 62.9441 40.3834L63.6493 41.0824C63.347 41.3873 63.347 41.9298 63.6493 42.2348L62.9441 42.9338ZM65.2752 43.1295C64.6101 43.6087 63.5787 43.6328 62.9293 42.9182L63.6641 42.2504C63.9206 42.5327 64.3717 42.5567 64.6948 42.3239L65.2752 43.1295ZM79.211 57.6747L64.6337 43.0775L65.3363 42.3759L79.9136 56.9731L79.211 57.6747ZM113.8 62.6578L108.858 57.6734L109.563 56.9744L114.505 61.9588L113.8 62.6578ZM74.6208 61.8119H114.152V62.8048H74.6208V61.8119ZM43.0157 93.1451L74.2702 61.9569L74.9715 62.6597L43.717 93.8479L43.0157 93.1451ZM41.3374 93.2778C41.9497 92.7003 42.9543 92.5878 43.6565 93.0937L43.0761 93.8993C42.7901 93.6932 42.3123 93.7231 42.0187 94.0001L41.3374 93.2778ZM41.3254 95.8398C40.6395 95.1478 40.6395 93.9814 41.3255 93.2894L42.0306 93.9885C41.7283 94.2934 41.7283 94.8358 42.0306 95.1408L41.3254 95.8398ZM43.8836 95.8398C43.1952 96.5341 42.0138 96.5341 41.3255 95.8398L42.0306 95.1408C42.3305 95.4433 42.8786 95.4433 43.1785 95.1407L43.8836 95.8398ZM44.053 93.4851C44.5747 94.1868 44.5 95.1621 43.8985 95.8241L43.1636 95.1564C43.468 94.8215 43.4757 94.3727 43.2562 94.0776L44.053 93.4851ZM74.9727 63.0145L44.0065 94.1315L43.3027 93.4312L74.269 62.3142L74.9727 63.0145ZM114.605 63.1608H74.6208V62.1679H114.605V63.1608ZM126.773 75.4772L114.255 63.0162L114.955 62.3125L127.474 74.7735L126.773 75.4772ZM121.872 79.688L126.772 74.7748L127.475 75.476L122.575 80.3892L121.872 79.688ZM113.493 79.5422H122.223V80.535H113.493V79.5422ZM104.99 87.8042L113.143 79.6868L113.844 80.3904L105.69 88.5079L104.99 87.8042ZM103.311 87.9373C103.923 87.3599 104.928 87.2473 105.63 87.7533L105.05 88.5588C104.764 88.3527 104.286 88.3827 103.992 88.6596L103.311 87.9373ZM103.299 90.4993C102.613 89.8074 102.613 88.6409 103.299 87.949L104.004 88.648C103.702 88.9529 103.702 89.4954 104.004 89.8003L103.299 90.4993ZM105.857 90.4993C105.169 91.1937 103.987 91.1937 103.299 90.4993L104.004 89.8003C104.304 90.1029 104.852 90.1029 105.152 89.8003L105.857 90.4993ZM106.027 88.1447C106.548 88.8463 106.474 89.8217 105.872 90.4837L105.137 89.8159C105.442 89.4811 105.449 89.0323 105.23 88.7371L106.027 88.1447ZM113.926 80.889L105.978 88.7929L105.278 88.0889L113.226 80.185L113.926 80.889ZM121.688 81.0335H113.576V80.0406H121.688V81.0335ZM102.354 99.1264L121.337 80.1856L122.038 80.8885L103.055 99.8292L102.354 99.1264ZM85.1213 98.9813H102.705V99.9742H85.1213V98.9813ZM75.6711 89.3708L85.4716 99.1259L84.7711 99.8296L74.9706 90.0745L75.6711 89.3708ZM75.5379 87.6525C76.1879 88.2655 76.2285 89.3339 75.7193 90.0188L74.9225 89.4264C75.1544 89.1144 75.1127 88.6162 74.8567 88.3748L75.5379 87.6525ZM72.9918 87.6642C73.6801 86.9698 74.8616 86.9698 75.5499 87.6642L74.8448 88.3632C74.5449 88.0606 73.9968 88.0606 73.6969 88.3632L72.9918 87.6642ZM72.9918 90.2145C72.3058 89.5225 72.3057 88.3561 72.9918 87.6641L73.6969 88.3632C73.3946 88.6681 73.3946 89.2105 73.6969 89.5155L72.9918 90.2145ZM75.3228 90.4102C74.6577 90.8894 73.6263 90.9135 72.9769 90.1989L73.7117 89.5311C73.9682 89.8134 74.4193 89.8374 74.7424 89.6046L75.3228 90.4102ZM84.6467 100.327L74.6815 90.3584L75.3837 89.6564L85.3489 99.6253L84.6467 100.327ZM127.721 75.7617L103.096 100.328L102.395 99.6248L127.02 75.0588L127.721 75.7617ZM137.479 86.2284L127.019 75.7611L127.722 75.0593L138.181 85.5266L137.479 86.2284ZM132.065 85.381H137.83V86.3739H132.065V85.381ZM127.062 90.1539L131.715 85.5255L132.415 86.2294L127.762 90.8578L127.062 90.1539ZM125.356 90.3144C126.005 89.5998 127.037 89.6238 127.702 90.103L127.121 90.9086C126.798 90.6758 126.347 90.6998 126.091 90.9821L125.356 90.3144ZM125.371 92.8491C124.685 92.1572 124.685 90.9907 125.371 90.2988L126.076 90.9978C125.774 91.3027 125.774 91.8452 126.076 92.1501L125.371 92.8491ZM127.929 92.8492C127.241 93.5435 126.059 93.5435 125.371 92.8492L126.076 92.1501C126.376 92.4526 126.924 92.4526 127.224 92.1501L127.929 92.8492ZM128.139 90.5657C128.669 91.2782 128.542 92.2713 127.917 92.8608L127.236 92.1385C127.517 91.8735 127.554 91.4424 127.343 91.1581L128.139 90.5657ZM132.538 86.7994L128.091 91.2142L127.391 90.5096L131.839 86.0948L132.538 86.7994ZM138.406 86.9436H132.188V85.9507H138.406V86.9436ZM142.173 90.9276L138.055 86.7976L138.758 86.0966L142.876 90.2265L142.173 90.9276ZM133.402 98.9841L142.173 90.2258L142.875 90.9284L134.104 99.6867L133.402 98.9841ZM136.16 102.462L133.401 99.6853L134.105 98.9855L136.864 101.763L136.16 102.462ZM121.049 116.857L136.161 101.761L136.863 102.464L121.75 117.559L121.049 116.857ZM116.335 116.712H121.4V117.705H116.335V116.712ZM110.673 110.875L116.685 116.856L115.985 117.56L109.972 111.579L110.673 110.875ZM110.54 109.157C111.19 109.77 111.23 110.838 110.721 111.523L109.924 110.931C110.156 110.619 110.114 110.12 109.858 109.879L110.54 109.157ZM107.993 109.168C108.682 108.474 109.863 108.474 110.552 109.168L109.847 109.867C109.547 109.565 108.998 109.565 108.699 109.867L107.993 109.168ZM107.993 111.719C107.307 111.027 107.307 109.86 107.993 109.168L108.699 109.867C108.396 110.172 108.396 110.715 108.699 111.02L107.993 111.719ZM110.325 111.914C109.659 112.394 108.628 112.418 107.979 111.703L108.713 111.035C108.97 111.318 109.421 111.342 109.744 111.109L110.325 111.914ZM115.902 118.058L109.684 111.863L110.385 111.16L116.603 117.355L115.902 118.058ZM132.826 107.165L121.831 118.059L121.133 117.354L132.127 106.459L132.826 107.165ZM131.98 116.852V106.812H132.973V116.852H131.98ZM121.832 126.754L132.126 116.5L132.827 117.204L122.532 127.457L121.832 126.754ZM120.153 126.887C120.765 126.309 121.77 126.197 122.472 126.703L121.892 127.508C121.606 127.302 121.128 127.332 120.834 127.609L120.153 126.887ZM120.141 129.449C119.455 128.757 119.455 127.591 120.141 126.899L120.846 127.598C120.544 127.903 120.544 128.445 120.846 128.75L120.141 129.449ZM122.699 129.449C122.011 130.143 120.829 130.143 120.141 129.449L120.846 128.75C121.146 129.053 121.694 129.053 121.994 128.75L122.699 129.449ZM122.869 127.094C123.39 127.796 123.316 128.771 122.714 129.433L121.979 128.766C122.284 128.431 122.291 127.982 122.072 127.687L122.869 127.094ZM133.115 117.489L122.821 127.742L122.12 127.039L132.415 116.785L133.115 117.489ZM133.261 106.527V117.137H132.268V106.527H133.261ZM137.192 102.82L133.115 106.879L132.415 106.175L136.491 102.117L137.192 102.82ZM150.738 117.061L136.491 102.82L137.192 102.117L151.44 116.359L150.738 117.061ZM144.109 122.981L150.738 116.358L151.44 117.061L144.81 123.683L144.109 122.981ZM135.894 122.835H144.46V123.828H135.894V122.835ZM121.996 136.51L135.544 122.98L136.245 123.683L122.698 137.212L121.996 136.51ZM112.052 136.364H122.347V137.357H112.052V136.364ZM98.0728 122.197L112.403 136.51L111.701 137.212L97.3711 122.9L98.0728 122.197ZM97.9391 120.478C98.589 121.091 98.6296 122.16 98.1203 122.845L97.3236 122.252C97.5555 121.94 97.5138 121.442 97.2578 121.201L97.9391 120.478ZM95.3928 120.49C96.0812 119.796 97.2627 119.796 97.951 120.49L97.2459 121.189C96.946 120.887 96.3979 120.887 96.098 121.189L95.3928 120.49ZM95.3928 123.04C94.7069 122.348 94.7068 121.182 95.3928 120.49L96.0979 121.189C95.7957 121.494 95.7957 122.036 96.098 122.341L95.3928 123.04ZM97.7239 123.236C97.0588 123.715 96.0274 123.739 95.378 123.025L96.1128 122.357C96.3693 122.639 96.8204 122.663 97.1435 122.431L97.7239 123.236ZM111.578 137.64L97.0832 123.185L97.7843 122.482L112.279 136.937L111.578 137.64ZM136.328 124.11L122.78 137.639L122.078 136.937L135.626 123.408L136.328 124.11ZM143.965 124.255H135.977V123.263H143.965V124.255ZM103.877 163.069L143.615 123.408L144.316 124.11L104.579 163.772L103.877 163.069ZM77.1998 162.924H104.228V163.917H77.1998V162.924ZM104.311 164.416H76.9403V163.423H104.311V164.416ZM151.769 117.275L104.661 164.271L103.96 163.568L151.068 116.572L151.769 117.275ZM156.421 122.615L151.068 117.275L151.769 116.572L157.123 121.912L156.421 122.615ZM108.86 169.407L156.421 121.912L157.123 122.615L109.562 170.109L108.86 169.407ZM109.688 169.983L109.562 170.109L108.86 169.407L108.987 169.28L109.688 169.983ZM157.369 122.9L109.944 170.181L109.243 169.478L156.668 122.197L157.369 122.9ZM162.267 128.524L156.667 122.899L157.371 122.198L162.971 127.824L162.267 128.524ZM134.391 155.664L162.268 127.823L162.97 128.525L135.092 156.367L134.391 155.664ZM134.334 155.711L134.417 155.64L135.066 156.391L134.984 156.462L134.334 155.711ZM134.163 180.439V156.087H135.156V180.439H134.163ZM182.281 228.712L134.308 180.79L135.01 180.088L182.983 228.009L182.281 228.712ZM182.415 230.431C181.765 229.818 181.724 228.749 182.234 228.064L183.03 228.657C182.798 228.969 182.84 229.467 183.096 229.708L182.415 230.431ZM184.961 230.419C184.273 231.113 183.091 231.113 182.403 230.419L183.108 229.72C183.408 230.022 183.956 230.022 184.256 229.72L184.961 230.419ZM184.961 227.869C185.647 228.561 185.647 229.727 184.961 230.419L184.256 229.72C184.558 229.415 184.558 228.873 184.256 228.568L184.961 227.869ZM182.63 227.673C183.295 227.194 184.327 227.17 184.976 227.884L184.241 228.552C183.985 228.27 183.534 228.246 183.21 228.479L182.63 227.673ZM148.064 192.549L183.271 227.725L182.569 228.427L147.362 193.251L148.064 192.549ZM158.295 193.396H147.713V192.404H158.295V193.396ZM176.928 212.192L157.945 193.251L158.646 192.549L177.629 211.489L176.928 212.192ZM177.062 213.911C176.412 213.298 176.371 212.229 176.88 211.545L177.677 212.137C177.445 212.449 177.487 212.947 177.743 213.189L177.062 213.911ZM179.608 213.899C178.92 214.594 177.738 214.594 177.05 213.899L177.755 213.2C178.055 213.503 178.603 213.503 178.903 213.2L179.608 213.899ZM179.608 211.349C180.294 212.041 180.294 213.207 179.608 213.899L178.903 213.2C179.205 212.895 179.205 212.353 178.903 212.048L179.608 211.349ZM177.277 211.153C177.942 210.674 178.973 210.65 179.623 211.364L178.888 212.032C178.631 211.75 178.18 211.726 177.857 211.959L177.277 211.153ZM158.729 192.05L177.918 211.205L177.216 211.907L158.027 192.753L158.729 192.05ZM135.339 179.874L147.528 192.05L146.826 192.753L134.638 180.577L135.339 179.874ZM135.485 156.443V180.225H134.492V156.443H135.485ZM157.782 134.364L135.339 156.794L134.638 156.091L157.08 133.662L157.782 134.364ZM156.934 146.118V134.013H157.927V146.118H156.934ZM143.286 159.509L157.08 145.766L157.781 146.469L143.986 160.212L143.286 159.509ZM143.229 159.556L143.311 159.485L143.961 160.236L143.878 160.307L143.229 159.556ZM143.057 172.179V159.932H144.05V172.179H143.057ZM142.414 172.191C142.696 171.898 143.107 171.683 143.554 171.683V172.675C143.424 172.675 143.259 172.745 143.129 172.88L142.414 172.191ZM142.419 174.736C141.733 174.044 141.733 172.878 142.419 172.186L143.124 172.885C142.822 173.189 142.822 173.732 143.124 174.037L142.419 174.736ZM144.977 174.736C144.288 175.43 143.107 175.43 142.419 174.736L143.124 174.037C143.424 174.339 143.972 174.339 144.272 174.037L144.977 174.736ZM144.977 172.186C145.663 172.878 145.663 174.044 144.977 174.736L144.272 174.037C144.574 173.732 144.574 173.189 144.272 172.885L144.977 172.186ZM143.842 171.683C144.288 171.683 144.7 171.898 144.982 172.191L144.267 172.88C144.137 172.745 143.972 172.675 143.842 172.675V171.683ZM144.338 160.216V172.179H143.345V160.216H144.338ZM157.987 146.825L144.192 160.568L143.491 159.865L157.286 146.122L157.987 146.825ZM158.044 146.778L157.961 146.849L157.312 146.098L157.394 146.027L158.044 146.778ZM158.215 133.728V146.402H157.223V133.728H158.215ZM163.299 128.882L158.069 134.08L157.369 133.376L162.599 128.178L163.299 128.882ZM168.363 134.648L162.598 128.881L163.3 128.179L169.065 133.947L168.363 134.648ZM172.564 131.16L169.064 134.649L168.363 133.946L171.863 130.457L172.564 131.16ZM171.717 157.155V130.808H172.71V157.155H171.717ZM159.715 168.98L171.862 156.804L172.565 157.505L160.418 169.681L159.715 168.98ZM158.037 169.112C158.65 168.535 159.654 168.422 160.356 168.928L159.776 169.734C159.49 169.527 159.012 169.557 158.719 169.834L158.037 169.112ZM158.025 171.674C157.339 170.982 157.339 169.816 158.025 169.124L158.73 169.823C158.428 170.128 158.428 170.67 158.73 170.975L158.025 171.674ZM160.583 171.674C159.895 172.368 158.714 172.368 158.025 171.674L158.73 170.975C159.03 171.278 159.578 171.278 159.878 170.975L160.583 171.674ZM160.753 169.319C161.275 170.021 161.2 170.996 160.598 171.658L159.864 170.991C160.168 170.656 160.176 170.207 159.956 169.912L160.753 169.319ZM172.812 157.862L160.705 169.967L160.003 169.265L172.11 157.16L172.812 157.862ZM172.868 157.815L172.786 157.886L172.136 157.135L172.218 157.064L172.868 157.815ZM173.04 146.687V157.439H172.047V146.687H173.04ZM181.292 156.152L172.192 147.038L172.895 146.337L181.995 155.451L181.292 156.152ZM181.147 165.984V155.802H182.14V165.984H181.147ZM161.445 185.428L181.293 165.633L181.994 166.336L162.146 186.131L161.445 185.428ZM159.767 185.561C160.379 184.983 161.384 184.871 162.086 185.377L161.505 186.182C161.219 185.976 160.742 186.006 160.448 186.283L159.767 185.561ZM159.755 188.123C159.069 187.431 159.069 186.264 159.755 185.572L160.46 186.271C160.158 186.576 160.158 187.119 160.46 187.424L159.755 188.123ZM162.313 188.123C161.625 188.817 160.443 188.817 159.755 188.123L160.46 187.424C160.76 187.726 161.308 187.726 161.608 187.424L162.313 188.123ZM162.482 185.768C163.004 186.47 162.929 187.445 162.328 188.107L161.593 187.439C161.897 187.104 161.905 186.656 161.686 186.36L162.482 185.768ZM182.2 166.692L162.435 186.416L161.733 185.713L181.499 165.989L182.2 166.692ZM182.257 166.645L182.174 166.716L181.525 165.965L181.607 165.893L182.257 166.645ZM182.428 155.446V166.269H181.436V155.446H182.428ZM172.895 145.696L182.283 155.095L181.581 155.797L172.192 146.397L172.895 145.696ZM173.04 130.452V146.046H172.047V130.452H173.04ZM177.877 125.819L172.894 130.803L172.192 130.101L177.175 125.117L177.877 125.819ZM181.375 130.02L177.175 125.819L177.877 125.117L182.077 129.318L181.375 130.02ZM181.23 139.211V129.669H182.223V139.211H181.23ZM187.759 145.9L181.376 139.563L182.076 138.858L188.459 145.196L187.759 145.9ZM187.892 147.618C187.233 146.997 187.216 146.01 187.693 145.277L188.525 145.819C188.26 146.225 188.326 146.663 188.573 146.896L187.892 147.618ZM190.438 147.607C189.749 148.301 188.568 148.301 187.88 147.607L188.585 146.907C188.885 147.21 189.433 147.21 189.733 146.907L190.438 147.607ZM190.438 145.056C191.124 145.748 191.124 146.915 190.438 147.606L189.733 146.907C190.035 146.603 190.035 146.06 189.733 145.755L190.438 145.056ZM188.107 144.86C188.772 144.381 189.803 144.357 190.453 145.072L189.718 145.74C189.461 145.457 189.01 145.433 188.687 145.666L188.107 144.86ZM182.364 138.574L188.747 144.911L188.047 145.616L181.665 139.278L182.364 138.574ZM182.511 129.954V138.926H181.518V129.954H182.511ZM195.582 144.191L181.664 130.305L182.365 129.602L196.283 143.488L195.582 144.191ZM195.436 164.774V143.839H196.429V164.774H195.436ZM174.622 185.357L195.582 164.422L196.283 165.125L175.324 186.059L174.622 185.357ZM174.566 185.404L174.648 185.333L175.298 186.084L175.215 186.155L174.566 185.404ZM174.394 193.683V185.779H175.387V193.683H174.394ZM186.399 205.855L174.54 194.035L175.241 193.332L187.1 205.152L186.399 205.855ZM186.533 207.574C185.874 206.952 185.857 205.966 186.334 205.233L187.166 205.774C186.902 206.181 186.967 206.618 187.214 206.851L186.533 207.574ZM189.079 207.562C188.391 208.256 187.209 208.256 186.521 207.562L187.226 206.863C187.526 207.165 188.074 207.165 188.374 206.863L189.079 207.562ZM189.079 205.012C189.765 205.703 189.765 206.87 189.079 207.562L188.374 206.863C188.676 206.558 188.676 206.015 188.374 205.711L189.079 205.012ZM186.748 204.816C187.413 204.337 188.444 204.313 189.094 205.027L188.359 205.695C188.102 205.413 187.651 205.389 187.328 205.621L186.748 204.816ZM175.529 193.047L187.389 204.867L186.688 205.57L174.828 193.75L175.529 193.047ZM175.675 186.064V193.398H174.682V186.064H175.675ZM196.489 165.481L175.53 186.415L174.828 185.713L195.788 164.778L196.489 165.481ZM196.546 165.434L196.463 165.505L195.814 164.754L195.896 164.683L196.546 165.434ZM196.717 143.554V165.058H195.724V143.554H196.717ZM178.165 124.832L196.572 143.203L195.87 143.906L177.463 125.535L178.165 124.832ZM181.871 121.832L178.165 125.534L177.463 124.832L181.169 121.129L181.871 121.832ZM205.053 145.686L181.169 121.832L181.871 121.129L205.754 144.983L205.053 145.686ZM204.907 184.569V145.334H205.9V184.569H204.907ZM212.011 191.898L205.052 184.919L205.755 184.218L212.714 191.197L212.011 191.898ZM211.866 227.648V191.547H212.859V227.648H211.866ZM240.631 256.553L212.012 228L212.713 227.297L241.333 255.851L240.631 256.553ZM240.926 257.984C240.407 257.485 240.24 256.697 240.523 256.013L241.441 256.392C241.312 256.704 241.393 257.055 241.614 257.268L240.926 257.984ZM202.665 99.7579L168.363 65.5079L169.064 64.8053L203.366 99.0553L202.665 99.7579ZM168.363 133.305L202.665 99.0553L203.366 99.7579L169.064 134.008L168.363 133.305ZM134.763 99.0553L169.064 133.305L168.363 134.008L134.061 99.7579L134.763 99.0553ZM169.064 65.5079L134.763 99.7579L134.061 99.0553L168.363 64.8053L169.064 65.5079ZM249.959 129.596H207.463V128.603H249.959V129.596ZM215.492 123.187H209.522V122.195H215.492V123.187ZM210.88 83.6009H221.793V84.5938H210.88V83.6009ZM171.39 43.2943H162.043V42.3014H171.39V43.2943ZM128.359 35.6793H136.636V36.6722H128.359V35.6793ZM85.6155 50.3477H111.434V51.3406H85.6155V50.3477ZM11.1648 19.3019H54.4845V20.2948H11.1648V19.3019ZM111.311 51.9102H85.492V50.9173H111.311V51.9102ZM79.6858 56.329H109.334V57.3219H79.6858V56.329ZM109.211 57.8204H79.5623V56.8275H109.211V57.8204ZM102.746 100.473H84.9978V99.4798H102.746V100.473ZM121.482 118.203H116.252V117.21H121.482V118.203ZM122.429 137.785H111.929V136.792H122.429V137.785ZM147.177 191.905H158.378V192.898H147.177V191.905ZM74.6474 161.846C75.2597 161.268 76.2643 161.156 76.9665 161.662L76.3861 162.467C76.1 162.261 75.6223 162.291 75.3286 162.568L74.6474 161.846ZM74.6354 164.408C73.9494 163.716 73.9494 162.549 74.6354 161.857L75.3406 162.556C75.0383 162.861 75.0383 163.404 75.3406 163.709L74.6354 164.408ZM77.1936 164.408C76.5052 165.102 75.3238 165.102 74.6354 164.408L75.3406 163.709C75.6405 164.011 76.1885 164.011 76.4884 163.709L77.1936 164.408ZM76.4474 163.756C76.6138 163.539 76.7798 163.222 76.8088 162.962C76.8222 162.841 76.803 162.765 76.7745 162.716C76.7487 162.671 76.6859 162.596 76.507 162.531L76.8455 161.598C77.1976 161.725 77.4693 161.933 77.6346 162.219C77.797 162.501 77.8253 162.805 77.7956 163.072C77.7384 163.586 77.4557 164.073 77.2346 164.361L76.4474 163.756Z" fill="#1B4ED1"/>
</svg>
