<svg width="492" height="509" viewBox="0 0 492 509" fill="none" xmlns="http://www.w3.org/2000/svg">
<path opacity="0.1" d="M281.488 175.21L281.817 175.536L281.812 175.541L281.806 175.546L281.488 175.21ZM278.166 175.491L278.324 175.056L278.384 175.078L278.437 175.116L278.166 175.491ZM281.488 171.558L281.159 171.883L281.488 171.558ZM277.842 171.558L277.474 171.276L277.492 171.253L277.513 171.233L277.842 171.558ZM14.5327 1.73741L14.1827 1.43466L14.1928 1.423L14.2037 1.41204L14.5327 1.73741ZM18.1792 1.73741L17.8582 2.07078L17.8502 2.06276L18.1792 1.73741ZM14.5327 5.5302L14.2036 5.85556L14.1928 5.84461L14.1827 5.83295L14.5327 5.5302ZM18.1792 5.5302L18.5801 5.76134L18.5502 5.81307L18.5082 5.85554L18.1792 5.5302ZM18.2602 5.38974L17.8594 5.15861L18.1606 4.63617L18.5872 5.06242L18.2602 5.38974ZM74.4978 61.5787L74.8249 61.2514L74.9605 61.3869L74.9605 61.5787L74.4978 61.5787ZM74.4978 131.534L74.9605 131.534L74.9605 132.652L74.1705 131.861L74.4978 131.534ZM1.08105 58.0669L0.618342 58.0669L0.618342 56.9493L1.40835 57.7398L1.08105 58.0669ZM1.08105 59.1907L0.753779 59.5178L0.618342 59.3823L0.618342 59.1907L1.08105 59.1907ZM88.2735 146.424L88.6008 146.097L88.7363 146.232L88.7363 146.424L88.2735 146.424ZM88.2735 223.824L87.9461 224.151L87.8108 224.016L87.8108 223.824L88.2735 223.824ZM135.273 270.883L135.601 270.556L135.929 270.884L135.599 271.211L135.273 270.883ZM126.927 279.17L127.253 279.499L126.926 279.824L126.6 279.498L126.927 279.17ZM81.1426 233.376L80.8154 233.704L80.6028 233.491L80.7107 233.21L81.1426 233.376ZM81.3046 232.955L81.6319 232.628L81.8444 232.841L81.7365 233.121L81.3046 232.955ZM37.7894 189.409L37.4621 189.736L37.3267 189.6L37.3267 189.409L37.7894 189.409ZM37.7894 179.856L38.1169 179.53L38.2521 179.665L38.2521 179.856L37.7894 179.856ZM28.9568 171.007L28.6293 171.334L28.4941 171.198L28.4941 171.007L28.9568 171.007ZM28.9568 143.755L29.2836 143.427L29.4195 143.563L29.4195 143.755L28.9568 143.755ZM1.08104 115.942L0.618337 115.942L0.618337 114.826L1.40786 115.614L1.08104 115.942ZM1.08104 117.065L0.754201 117.393L0.618337 117.257L0.618337 117.065L1.08104 117.065ZM28.3895 144.317L28.7164 143.989L28.8523 144.125L28.8523 144.317L28.3895 144.317ZM28.3895 170.445L28.8522 170.445L28.8522 171.56L28.0627 170.772L28.3895 170.445ZM17.1259 159.207L16.7991 159.535L16.5336 159.27L16.7377 158.955L17.1259 159.207ZM16.8827 155.836L16.5648 156.172L16.5592 156.166L16.5537 156.161L16.8827 155.836ZM13.2362 155.836L12.9072 155.51L12.9072 155.51L13.2362 155.836ZM13.2362 159.488L13.5652 159.163L13.5722 159.17L13.579 159.177L13.2362 159.488ZM16.5585 159.769L16.2876 159.394L16.607 159.163L16.8856 159.442L16.5585 159.769ZM37.2223 180.418L37.5493 180.091L37.685 180.227L37.685 180.418L37.2223 180.418ZM37.2223 189.971L36.8948 190.297L36.7596 190.162L36.7596 189.971L37.2223 189.971ZM80.4133 233.236L80.7407 232.909L81.529 233.699L80.4133 233.699L80.4133 233.236ZM60.3169 233.236L60.3169 233.699L60.1251 233.699L59.9896 233.563L60.3169 233.236ZM1.08104 173.957L0.618332 173.957L0.618332 172.839L1.40834 173.63L1.08104 173.957ZM1.08104 175.08L0.753708 175.407L0.618332 175.272L0.618332 175.08L1.08104 175.08ZM59.1824 233.236L59.5098 232.909L60.2988 233.699L59.1824 233.699L59.1824 233.236ZM1.08103 233.236L0.618327 233.236L0.618327 232.773L1.08103 232.773L1.08103 233.236ZM1.08103 234.219L1.08103 234.682L0.618327 234.682L0.618327 234.219L1.08103 234.219ZM80.8185 234.219L80.8185 233.757L81.0104 233.757L81.146 233.892L80.8185 234.219ZM126.36 279.873L126.687 279.546L127.014 279.874L126.686 280.2L126.36 279.873ZM117.77 288.442L118.097 288.769L117.769 289.096L117.442 288.768L117.77 288.442ZM84.7081 255.29L84.7081 254.827L84.9002 254.827L85.0358 254.963L84.7081 255.29ZM1.08103 255.29L0.618325 255.29L0.618325 254.827L1.08103 254.827L1.08103 255.29ZM1.08103 256.554L1.08103 257.017L0.618325 257.017L0.618325 256.554L1.08103 256.554ZM60.3169 256.554L60.3169 256.092L61.4343 256.092L60.644 256.882L60.3169 256.554ZM42.3273 274.535L42.6544 274.862L42.5189 274.998L42.3273 274.998L42.3273 274.535ZM1.08103 274.535L0.618323 274.535L0.618323 274.072L1.08103 274.072L1.08103 274.535ZM1.08103 275.518L1.08103 275.981L0.618323 275.981L0.618323 275.518L1.08103 275.518ZM42.4894 275.518L42.816 275.846L42.6805 275.981L42.4894 275.981L42.4894 275.518ZM61.5324 256.554L61.2058 256.226L61.3413 256.092L61.5324 256.092L61.5324 256.554ZM84.546 256.554L84.546 256.092L84.7379 256.092L84.8735 256.228L84.546 256.554ZM117.203 289.284L117.53 288.958L117.857 289.285L117.529 289.612L117.203 289.284ZM109.586 296.87L109.912 297.198L109.585 297.524L109.258 297.197L109.586 296.87ZM80.6564 267.933L80.6564 267.47L80.8482 267.47L80.9837 267.605L80.6564 267.933ZM68.9064 267.933L68.5797 267.605L68.7151 267.47L68.9064 267.47L68.9064 267.933ZM45.2445 291.532L45.5713 291.86L45.4359 291.995L45.2445 291.995L45.2445 291.532ZM1.00001 291.532L0.537298 291.532L0.537298 291.069L1.00001 291.069L1.00001 291.532ZM1.00001 292.515L1 292.978L0.537297 292.978L0.537298 292.515L1.00001 292.515ZM45.4067 292.515L45.7334 292.843L45.598 292.978L45.4067 292.978L45.4067 292.515ZM69.0686 268.916L68.7418 268.588L68.8773 268.453L69.0686 268.453L69.0686 268.916ZM80.4133 268.916L80.4133 268.453L80.6055 268.453L80.7411 268.589L80.4133 268.916ZM101.401 289.987L101.729 289.66L102.515 290.449L101.401 290.449L101.401 289.987ZM90.8666 289.987L90.8666 290.449L90.6744 290.449L90.5387 290.313L90.8666 289.987ZM80.6564 279.732L80.6564 279.27L80.8487 279.27L80.9843 279.406L80.6564 279.732ZM72.715 279.732L72.3875 279.405L72.5231 279.27L72.715 279.27L72.715 279.732ZM55.0497 297.432L55.3772 297.759L55.0985 298.038L54.7788 297.807L55.0497 297.432ZM51.8083 297.713L51.4793 297.387L51.4848 297.382L51.4904 297.377L51.8083 297.713ZM51.8083 301.365L52.1373 301.04L51.8083 301.365ZM55.4549 301.365L55.7839 301.69L55.7838 301.691L55.4549 301.365ZM55.698 297.994L55.3409 298.288L55.0739 297.964L55.3707 297.667L55.698 297.994ZM72.9582 280.716L72.6308 280.389L72.7664 280.253L72.9582 280.253L72.9582 280.716ZM80.5754 280.716L80.5754 280.253L80.7677 280.253L80.9033 280.389L80.5754 280.716ZM90.7856 290.97L90.7856 291.433L90.5934 291.433L90.4577 291.297L90.7856 290.97ZM102.455 290.97L102.455 290.507L102.647 290.507L102.783 290.644L102.455 290.97ZM109.018 297.572L109.346 297.246L109.672 297.574L109.345 297.9L109.018 297.572ZM98.3218 308.248L98.6487 308.576L98.5132 308.711L98.3218 308.711L98.3218 308.248ZM82.6012 308.248L82.2741 307.921L82.4096 307.786L82.6012 307.786L82.6012 308.248ZM63.072 327.774L63.3991 328.101L63.1204 328.38L62.801 328.149L63.072 327.774ZM59.7496 328.055L59.4206 327.73L59.426 327.724L59.4317 327.719L59.7496 328.055ZM59.7496 331.707L59.4206 332.032L59.4205 332.032L59.7496 331.707ZM63.3963 331.707L63.7391 332.018L63.7323 332.025L63.7253 332.032L63.3963 331.707ZM63.6393 328.336L63.2676 328.611L63.0302 328.291L63.3116 328.009L63.6393 328.336ZM82.6822 309.232L82.3545 308.905L82.4901 308.769L82.6822 308.769L82.6822 309.232ZM97.2684 309.232L97.2684 308.769L98.3803 308.769L97.5967 309.558L97.2684 309.232ZM92.2443 314.289L91.9153 314.614L91.5928 314.288L91.916 313.962L92.2443 314.289ZM100.024 322.155L100.353 321.83L100.677 322.157L100.35 322.483L100.024 322.155ZM78.8737 343.226L79.2002 343.554L79.0648 343.689L78.8737 343.689L78.8737 343.226ZM56.6703 343.226L56.6703 343.689L56.4784 343.689L56.3429 343.553L56.6703 343.226ZM33.2515 319.767L32.9241 320.094L32.6423 319.812L32.8799 319.491L33.2515 319.767ZM33.0084 316.396L32.6905 316.732L32.6848 316.727L32.6794 316.721L33.0084 316.396ZM29.362 316.396L29.691 316.721L29.691 316.721L29.362 316.396ZM29.362 320.048L29.691 319.723L29.698 319.73L29.7048 319.737L29.362 320.048ZM32.6844 320.329L32.4135 319.954L32.733 319.723L33.0116 320.002L32.6844 320.329ZM44.7584 332.41L45.0856 332.082L45.875 332.872L44.7584 332.872L44.7584 332.41ZM1 332.41L0.537294 332.41L0.537294 331.947L1 331.947L1 332.41ZM1 333.533L1.30319 333.883L0.537294 334.547L0.537294 333.533L1 333.533ZM1.16202 333.393L0.858827 333.043L0.98929 332.93L1.16202 332.93L1.16202 333.393ZM45.8118 333.393L45.8118 332.93L46.0032 332.93L46.1387 333.065L45.8118 333.393ZM56.5083 344.069L56.5083 344.531L56.3169 344.531L56.1815 344.396L56.5083 344.069ZM77.9822 344.069L77.9822 343.606L79.1031 343.606L78.3086 344.397L77.9822 344.069ZM69.2306 352.778L69.557 353.106L69.4216 353.241L69.2306 353.241L69.2306 352.778ZM18.9895 352.778L18.6628 352.45L18.7983 352.315L18.9895 352.315L18.9895 352.778ZM6.02408 365.701L6.35074 366.029L6.2153 366.164L6.02408 366.164L6.02408 365.701ZM1.08102 365.701L0.618315 365.701L0.618315 365.239L1.08102 365.239L1.08102 365.701ZM1.08102 366.685L1.08102 367.147L0.618315 367.147L0.618315 366.685L1.08102 366.685ZM5.05173 366.685L5.05173 366.222L6.1763 366.222L5.37735 367.013L5.05173 366.685ZM1.08102 370.618L0.618315 370.618L0.618315 370.425L0.7554 370.289L1.08102 370.618ZM1.08102 371.742L1.40866 372.068L0.618315 372.861L0.618315 371.742L1.08102 371.742ZM19.1516 353.621L18.824 353.294L18.9596 353.158L19.1516 353.158L19.1516 353.621ZM69.3926 353.621L69.7201 353.948L69.5845 354.084L69.3926 354.084L69.3926 353.621ZM100.672 322.296L100.344 321.969L100.672 321.641L100.999 321.969L100.672 322.296ZM115.258 336.905L115.585 336.578L115.912 336.905L115.585 337.232L115.258 336.905ZM78.8737 373.287L79.2008 373.614L79.0653 373.75L78.8737 373.75L78.8737 373.287ZM39.7343 373.287L39.407 372.96L39.5425 372.824L39.7343 372.824L39.7343 373.287ZM0.999995 412.057L0.537287 412.057L0.537287 411.866L0.672663 411.73L0.999995 412.057ZM0.999994 413.181L1.32733 413.508L0.537287 414.299L0.537287 413.181L0.999994 413.181ZM39.7343 374.411L39.407 374.084L39.5425 373.948L39.7343 373.948L39.7343 374.411ZM77.7392 374.411L77.7392 373.948L78.8541 373.948L78.0668 374.737L77.7392 374.411ZM29.686 422.593L29.2233 422.593L29.2233 422.401L29.3584 422.266L29.686 422.593ZM29.686 461.082L30.1487 461.082L30.1487 461.273L30.0138 461.409L29.686 461.082ZM0.999988 489.879L0.53728 489.879L0.53728 489.688L0.672168 489.552L0.999988 489.879ZM0.999988 491.003L1.32732 491.33L0.53728 492.121L0.53728 491.003L0.999988 491.003ZM30.3343 461.644L30.797 461.644L30.797 461.836L30.6616 461.971L30.3343 461.644ZM30.3343 423.155L29.8716 423.155L29.8716 422.963L30.007 422.828L30.3343 423.155ZM115.825 337.607L115.498 337.28L115.824 336.953L116.152 337.279L115.825 337.607ZM128.385 350.109L128.712 349.781L129.04 350.108L128.713 350.436L128.385 350.109ZM77.0099 401.522L76.5471 401.522L76.5471 401.33L76.6826 401.195L77.0099 401.522ZM77.0098 478.922L77.4726 478.922L77.4726 479.114L77.3366 479.25L77.0098 478.922ZM47.9997 507.86L47.9997 508.322L46.8807 508.322L47.6729 507.532L47.9997 507.86ZM49.1342 507.86L49.461 508.187L49.3255 508.322L49.1342 508.322L49.1342 507.86ZM77.577 479.484L78.0397 479.484L78.0397 479.676L77.9038 479.812L77.577 479.484ZM77.577 402.084L77.1143 402.084L77.1143 401.892L77.2497 401.757L77.577 402.084ZM128.953 350.671L128.625 350.344L128.951 350.018L129.279 350.343L128.953 350.671ZM136.732 358.397L137.058 358.069L137.387 358.396L137.059 358.724L136.732 358.397ZM98.6459 396.465L98.1832 396.465L98.1832 396.273L98.3188 396.138L98.6459 396.465ZM98.6459 487.21L99.1086 487.21L99.1086 487.402L98.9726 487.538L98.6459 487.21ZM80.3322 505.471L79.8695 505.471L79.8695 505.279L80.0055 505.144L80.3322 505.471ZM80.3322 507.86L80.3322 508.322L79.8695 508.322L79.8695 507.86L80.3322 507.86ZM80.8994 507.86L81.3621 507.86L81.3621 508.322L80.8994 508.322L80.8994 507.86ZM80.8994 506.033L80.4367 506.033L80.4367 505.841L80.5727 505.706L80.8994 506.033ZM99.2132 487.772L99.6759 487.772L99.6759 487.964L99.5399 488.1L99.2132 487.772ZM99.2132 397.027L98.7505 397.027L98.7505 396.835L98.8861 396.7L99.2132 397.027ZM137.299 358.959L136.972 358.632L137.298 358.305L137.625 358.631L137.299 358.959ZM147.753 369.354L148.079 369.026L148.407 369.352L148.08 369.68L147.753 369.354ZM118.661 398.572L118.199 398.572L118.199 398.381L118.333 398.246L118.661 398.572ZM118.661 507.86L118.661 508.322L118.199 508.322L118.199 507.86L118.661 507.86ZM119.229 507.86L119.691 507.86L119.691 508.322L119.229 508.322L119.229 507.86ZM119.229 461.363L118.766 461.363L118.766 460.245L119.556 461.036L119.229 461.363ZM133.815 475.972L134.142 475.645L134.277 475.781L134.277 475.972L133.815 475.972ZM133.815 507.86L133.815 508.322L133.352 508.322L133.352 507.86L133.815 507.86ZM134.382 507.86L134.845 507.86L134.845 508.322L134.382 508.322L134.382 507.86ZM134.382 475.41L134.709 475.083L134.845 475.219L134.845 475.41L134.382 475.41ZM119.229 460.239L118.901 460.566L118.766 460.431L118.766 460.239L119.229 460.239ZM119.229 433.409L118.766 433.409L118.766 432.29L119.556 433.082L119.229 433.409ZM138.434 452.654L138.761 452.327L139.027 452.594L138.82 452.909L138.434 452.654ZM138.758 455.885L139.076 455.549L139.081 455.554L139.087 455.559L138.758 455.885ZM142.404 455.885L142.733 456.21L142.404 455.885ZM142.404 452.232L142.707 451.883L142.721 451.894L142.733 451.907L142.404 452.232ZM139.001 452.092L139.304 452.442L138.978 452.724L138.673 452.419L139.001 452.092ZM119.229 432.285L118.901 432.612L118.766 432.477L118.766 432.285L119.229 432.285ZM119.229 399.134L118.766 399.134L118.766 398.943L118.901 398.807L119.229 399.134ZM148.32 369.916L147.992 369.589L148.318 369.261L148.646 369.588L148.32 369.916ZM157.639 379.187L157.965 378.859L158.294 379.186L157.966 379.514L157.639 379.187ZM143.458 393.375L142.995 393.375L142.995 393.183L143.13 393.047L143.458 393.375ZM143.458 414.305L143.133 414.635L142.995 414.499L142.995 414.305L143.458 414.305ZM147.023 417.817L147.348 417.487L147.486 417.623L147.486 417.817L147.023 417.817ZM147.023 428.493L146.696 428.819L146.561 428.684L146.561 428.493L147.023 428.493ZM172.549 454.059L172.876 453.732L173.012 453.867L173.012 454.059L172.549 454.059ZM172.549 472.039L172.221 472.366L172.086 472.23L172.086 472.039L172.549 472.039ZM193.294 492.829L193.621 492.502L193.903 492.784L193.665 493.105L193.294 492.829ZM193.537 496.2L193.855 495.864L193.86 495.869L193.866 495.875L193.537 496.2ZM197.183 492.548L196.854 492.873L196.847 492.866L196.84 492.859L197.183 492.548ZM193.861 492.267L194.132 492.642L193.812 492.873L193.533 492.594L193.861 492.267ZM173.116 471.477L172.789 471.804L172.653 471.669L172.653 471.477L173.116 471.477ZM173.116 453.497L173.444 453.17L173.579 453.305L173.579 453.497L173.116 453.497ZM147.59 427.931L147.263 428.258L147.128 428.122L147.128 427.931L147.59 427.931ZM147.59 418.379L147.128 418.379L147.128 417.259L147.918 418.052L147.59 418.379ZM190.457 461.363L190.785 461.036L191.051 461.303L190.844 461.618L190.457 461.363ZM190.782 464.594L191.099 464.258L191.105 464.263L191.111 464.269L190.782 464.594ZM194.428 464.594L194.099 464.269L194.428 464.594ZM194.428 460.942L194.731 460.592L194.745 460.604L194.757 460.616L194.428 460.942ZM191.025 460.801L191.328 461.151L191.002 461.433L190.697 461.128L191.025 460.801ZM156.666 426.385L156.339 426.712L155.55 425.923L156.666 425.923L156.666 426.385ZM173.845 426.386L173.845 425.923L174.037 425.923L174.173 426.059L173.845 426.386ZM193.618 446.192L193.945 445.865L194.227 446.147L193.989 446.468L193.618 446.192ZM193.861 449.563L194.179 449.227L194.184 449.233L194.19 449.238L193.861 449.563ZM197.507 449.563L197.836 449.889L197.836 449.889L197.507 449.563ZM197.507 445.911L197.178 446.237L197.171 446.229L197.165 446.222L197.507 445.911ZM194.185 445.63L194.456 446.005L194.136 446.236L193.858 445.958L194.185 445.63ZM174.089 425.543L174.089 425.08L174.28 425.08L174.416 425.216L174.089 425.543ZM155.694 425.543L155.694 426.005L155.502 426.005L155.367 425.87L155.694 425.543ZM144.025 413.883L143.698 414.211L143.562 414.075L143.562 413.883L144.025 413.883ZM144.025 394.217L143.562 394.217L143.562 394.026L143.698 393.89L144.025 394.217ZM158.206 380.03L157.879 379.702L158.204 379.377L158.532 379.701L158.206 380.03ZM161.042 382.839L161.37 383.166L161.044 383.492L160.716 383.168L161.042 382.839ZM164.689 379.187L164.361 378.86L164.688 378.532L165.016 378.86L164.689 379.187ZM224.086 438.607L224.086 439.069L223.895 439.069L223.759 438.934L224.086 438.607ZM240.374 438.607L240.374 438.144L240.756 438.144L240.829 438.519L240.374 438.607ZM241.104 439.871L240.775 440.196L240.77 440.192L241.104 439.871ZM244.75 439.871L244.421 439.545L244.421 439.545L244.75 439.871ZM244.75 436.219L245.079 435.893L245.079 435.893L244.75 436.219ZM241.104 436.219L241.433 436.544L241.402 436.574L241.367 436.599L241.104 436.219ZM240.374 437.483L240.829 437.57L240.756 437.946L240.374 437.946L240.374 437.483ZM224.33 437.483L224.33 437.946L224.138 437.946L224.002 437.81L224.33 437.483ZM165.256 378.344L164.928 378.671L164.6 378.342L164.93 378.015L165.256 378.344ZM174.332 369.354L174.006 369.025L174.333 368.701L174.659 369.027L174.332 369.354ZM223.681 418.8L224.009 418.473L224.273 418.738L224.069 419.052L223.681 418.8ZM223.924 422.171L224.242 421.835L224.248 421.84L224.253 421.846L223.924 422.171ZM227.571 422.171L227.242 421.846L227.571 422.171ZM227.571 418.519L227.242 418.844L227.235 418.837L227.228 418.83L227.571 418.519ZM224.249 418.238L224.519 418.613L224.2 418.844L223.922 418.566L224.249 418.238ZM174.818 368.932L174.491 369.26L174.163 368.933L174.491 368.605L174.818 368.932ZM184.218 359.521L183.89 359.194L184.218 358.866L184.545 359.194L184.218 359.521ZM253.988 429.335L254.315 429.008L254.451 429.144L254.451 429.335L253.988 429.335ZM253.988 487.772L254.451 487.772L254.451 487.964L254.315 488.099L253.988 487.772ZM233.892 507.86L233.892 508.322L232.774 508.322L233.564 507.532L233.892 507.86ZM235.026 507.86L235.353 508.188L235.217 508.322L235.026 508.322L235.026 507.86ZM247.019 495.919L246.693 495.591L247.019 495.266L247.346 495.591L247.019 495.919ZM259.012 507.86L259.012 508.322L258.821 508.322L258.686 508.188L259.012 507.86ZM260.147 507.86L260.473 507.532L261.267 508.322L260.147 508.322L260.147 507.86ZM247.586 495.357L247.26 495.685L246.933 495.359L247.258 495.032L247.586 495.357ZM254.555 488.334L255.018 488.334L255.018 488.525L254.884 488.66L254.555 488.334ZM254.555 442.399L254.093 442.399L254.093 441.284L254.882 442.072L254.555 442.399ZM266.386 454.199L266.713 453.872L266.849 454.007L266.849 454.199L266.386 454.199ZM266.386 482.856L266.059 483.182L265.923 483.047L265.923 482.856L266.386 482.856ZM290.372 506.876L290.7 506.549L290.95 506.8L290.773 507.108L290.372 506.876ZM289.967 507.86L289.967 508.322L289.352 508.322L289.522 507.731L289.967 507.86ZM294.991 507.86L295.423 507.694L295.665 508.322L294.991 508.322L294.991 507.86ZM294.262 506.595L293.928 506.916L293.919 506.906L294.262 506.595ZM290.939 506.314L291.21 506.689L290.891 506.92L290.612 506.641L290.939 506.314ZM266.953 482.294L266.626 482.62L266.491 482.485L266.491 482.294L266.953 482.294ZM266.953 453.637L267.28 453.31L267.416 453.445L267.416 453.637L266.953 453.637ZM254.555 441.276L254.229 441.603L254.093 441.468L254.093 441.276L254.555 441.276ZM254.555 428.774L254.883 428.447L255.018 428.582L255.018 428.774L254.555 428.774ZM184.785 358.959L184.458 359.286L184.13 358.958L184.458 358.631L184.785 358.959ZM195.076 348.704L194.75 348.377L195.077 348.05L195.404 348.377L195.076 348.704ZM330.403 484.12L330.73 483.793L330.866 483.928L330.866 484.12L330.403 484.12ZM330.403 508L330.403 508.463L329.94 508.463L329.94 508L330.403 508ZM330.97 508L331.433 508L331.433 508.463L330.97 508.463L330.97 508ZM330.97 483.558L331.298 483.231L331.433 483.366L331.433 483.558L330.97 483.558ZM195.644 348.142L195.316 348.469L194.988 348.141L195.318 347.814L195.644 348.142ZM203.99 339.854L203.664 339.526L203.991 339.201L204.318 339.528L203.99 339.854ZM273.679 409.669L273.679 410.132L273.487 410.132L273.352 409.996L273.679 409.669ZM324.488 409.669L324.488 409.207L324.679 409.207L324.814 409.342L324.488 409.669ZM346.853 432.004L347.18 431.677L347.971 432.467L346.853 432.467L346.853 432.004ZM346.691 432.004L346.228 432.004L346.228 431.542L346.691 431.542L346.691 432.004ZM346.691 455.744L346.363 456.071L346.228 455.936L346.228 455.744L346.691 455.744ZM372.055 481.17L372.382 480.843L372.664 481.125L372.426 481.445L372.055 481.17ZM372.298 484.541L372.616 484.205L372.621 484.21L372.627 484.216L372.298 484.541ZM375.944 484.541L375.615 484.216L375.615 484.216L375.944 484.541ZM375.944 480.889L375.615 481.214L375.608 481.207L375.601 481.2L375.944 480.889ZM372.622 480.608L372.893 480.983L372.573 481.214L372.294 480.935L372.622 480.608ZM347.258 455.182L346.931 455.509L346.795 455.374L346.795 455.182L347.258 455.182ZM347.258 432.426L346.795 432.426L346.795 431.309L347.585 432.099L347.258 432.426ZM385.749 470.915L385.749 471.378L385.558 471.378L385.422 471.242L385.749 470.915ZM470.997 470.915L471.324 471.242L471.189 471.378L470.997 471.378L470.997 470.915ZM486.574 455.331L486.247 455.004L486.575 454.676L486.902 455.005L486.574 455.331ZM486.624 455.38L486.942 455.044L486.948 455.049L486.953 455.055L486.624 455.38ZM490.271 455.38L490.6 455.706L490.6 455.706L490.271 455.38ZM490.271 451.728L489.942 452.053L489.935 452.046L489.928 452.039L490.271 451.728ZM486.948 451.447L486.623 451.118L486.648 451.093L486.677 451.072L486.948 451.447ZM486.381 452.009L486.009 451.733L486.03 451.705L486.055 451.68L486.381 452.009ZM486.121 454.666L486.542 454.475L486.674 454.766L486.448 454.992L486.121 454.666ZM470.916 469.932L471.244 470.258L471.108 470.395L470.916 470.395L470.916 469.932ZM385.992 469.932L385.992 470.395L385.801 470.395L385.665 470.259L385.992 469.932ZM324.731 408.546L324.731 408.083L324.923 408.083L325.058 408.219L324.731 408.546ZM273.922 408.546L273.922 409.008L273.731 409.008L273.595 408.873L273.922 408.546ZM204.557 339.152L204.23 339.479L203.903 339.152L204.23 338.825L204.557 339.152ZM211.85 331.848L211.523 331.521L211.85 331.193L212.178 331.521L211.85 331.848ZM277.812 397.87L277.812 398.332L277.62 398.332L277.485 398.197L277.812 397.87ZM336.156 397.87L336.156 397.407L336.348 397.407L336.484 397.543L336.156 397.87ZM364.518 426.245L364.846 425.918L365.128 426.2L364.89 426.521L364.518 426.245ZM364.762 429.616L365.079 429.28L365.085 429.286L365.091 429.291L364.762 429.616ZM368.408 429.616L368.737 429.942L368.737 429.942L368.408 429.616ZM368.408 425.964L368.079 426.289L368.072 426.282L368.065 426.275L368.408 425.964ZM365.086 425.683L365.357 426.058L365.037 426.289L364.758 426.01L365.086 425.683ZM336.4 396.886L336.4 396.424L336.592 396.424L336.727 396.56L336.4 396.886ZM278.055 396.886L278.055 397.349L277.862 397.349L277.726 397.212L278.055 396.886ZM268.331 387.053L268.002 387.379L267.223 386.591L268.331 386.591L268.331 387.053ZM346.124 387.053L346.451 387.38L346.315 387.516L346.124 387.516L346.124 387.053ZM407.628 325.526L407.301 325.199L407.58 324.921L407.899 325.151L407.628 325.526ZM410.951 325.245L411.28 325.571L411.274 325.576L411.269 325.582L410.951 325.245ZM410.951 321.593L411.28 321.268L411.28 321.268L410.951 321.593ZM407.304 321.593L406.961 321.282L406.968 321.275L406.975 321.268L407.304 321.593ZM407.061 324.964L407.433 324.689L407.67 325.008L407.39 325.29L407.061 324.964ZM346.124 386.351L346.452 386.677L346.316 386.814L346.124 386.814L346.124 386.351ZM267.44 386.351L267.44 386.814L267.248 386.814L267.113 386.678L267.44 386.351ZM242.805 361.768L242.478 362.096L242.151 361.769L242.477 361.442L242.805 361.768ZM252.448 352.076L252.12 351.749L252.256 351.613L252.448 351.613L252.448 352.076ZM269.628 352.076L269.954 352.403L269.819 352.538L269.628 352.538L269.628 352.076ZM285.672 336.062L285.345 335.734L285.624 335.456L285.943 335.687L285.672 336.062ZM288.995 335.781L289.324 336.106L289.318 336.112L289.313 336.117L288.995 335.781ZM288.995 332.129L288.666 332.454L288.666 332.454L288.995 332.129ZM285.348 332.129L285.005 331.818L285.012 331.81L285.019 331.803L285.348 332.129ZM285.105 335.5L285.477 335.224L285.715 335.545L285.432 335.828L285.105 335.5ZM269.466 351.092L269.792 351.42L269.657 351.555L269.466 351.555L269.466 351.092ZM253.502 351.092L253.502 351.555L252.385 351.555L253.175 350.765L253.502 351.092ZM290.858 313.727L290.531 313.4L290.667 313.264L290.858 313.264L290.858 313.727ZM325.46 313.727L325.46 313.264L325.651 313.264L325.787 313.399L325.46 313.727ZM344.746 332.971L345.073 332.644L345.356 332.926L345.118 333.247L344.746 332.971ZM344.989 336.343L345.307 336.007L345.313 336.012L345.318 336.017L344.989 336.343ZM348.636 336.343L348.307 336.017L348.307 336.017L348.636 336.343ZM348.636 332.69L348.307 333.016L348.3 333.009L348.293 333.001L348.636 332.69ZM345.313 332.41L345.584 332.785L345.264 333.016L344.986 332.736L345.313 332.41ZM325.703 312.743L325.703 312.281L325.895 312.281L326.031 312.417L325.703 312.743ZM290.777 312.743L290.45 312.416L290.586 312.281L290.777 312.281L290.777 312.743ZM242.319 361.206L242.646 361.533L242.319 361.861L241.991 361.533L242.319 361.206ZM221.736 340.557L221.409 340.884L220.622 340.094L221.736 340.094L221.736 340.557ZM233.081 340.557L233.408 340.885L233.273 341.02L233.081 341.02L233.081 340.557ZM242.238 331.426L241.911 331.099L242.19 330.821L242.509 331.051L242.238 331.426ZM245.561 331.145L245.218 330.834L245.224 330.827L245.232 330.82L245.561 331.145ZM245.561 327.493L245.889 327.168L245.89 327.168L245.561 327.493ZM241.914 327.493L242.243 327.818L242.238 327.824L242.232 327.829L241.914 327.493ZM241.59 330.724L241.961 330.448L242.2 330.77L241.916 331.052L241.59 330.724ZM232.838 339.433L233.165 339.761L233.029 339.896L232.838 339.896L232.838 339.433ZM220.602 339.433L220.602 339.896L220.41 339.896L220.274 339.759L220.602 339.433ZM212.499 331.286L212.171 331.612L211.845 331.285L212.171 330.959L212.499 331.286ZM229.759 314.008L230.088 313.682L230.412 314.009L230.086 314.335L229.759 314.008ZM224.33 308.529L224.001 308.855L223.677 308.528L224.002 308.202L224.33 308.529ZM254.069 278.749L253.742 278.422L253.877 278.286L254.069 278.286L254.069 278.749ZM264.036 278.749L264.036 278.286L264.228 278.286L264.363 278.421L264.036 278.749ZM275.867 290.549L276.194 290.221L276.477 290.503L276.239 290.824L275.867 290.549ZM276.11 293.92L276.428 293.584L276.434 293.589L276.439 293.595L276.11 293.92ZM279.757 293.92L280.086 294.245L280.086 294.245L279.757 293.92ZM279.757 290.268L279.428 290.593L279.421 290.586L279.414 290.578L279.757 290.268ZM276.434 289.987L276.705 290.362L276.386 290.592L276.107 290.314L276.434 289.987ZM264.198 277.766L264.198 277.303L264.39 277.303L264.525 277.438L264.198 277.766ZM253.907 277.766L253.581 277.438L253.716 277.303L253.907 277.303L253.907 277.766ZM232.271 299.258L232.597 299.586L231.808 300.37L231.808 299.258L232.271 299.258ZM232.271 279.451L231.808 279.451L231.808 279.26L231.944 279.124L232.271 279.451ZM252.529 259.223L252.202 258.896L252.481 258.618L252.8 258.848L252.529 259.223ZM255.852 258.942L256.181 259.268L256.175 259.273L256.17 259.279L255.852 258.942ZM255.852 255.29L255.523 255.616L255.523 255.616L255.852 255.29ZM252.205 255.29L251.862 254.979L251.869 254.972L251.876 254.965L252.205 255.29ZM251.962 258.662L252.334 258.386L252.572 258.707L252.289 258.989L251.962 258.662ZM231.704 278.889L231.241 278.889L231.241 278.698L231.377 278.562L231.704 278.889ZM231.704 299.82L232.166 299.82L232.166 300.012L232.031 300.147L231.704 299.82ZM223.681 307.827L224.008 308.154L223.681 308.481L223.354 308.154L223.681 307.827ZM195.644 279.732L195.316 280.059L194.99 279.732L195.316 279.405L195.644 279.732ZM208.69 266.668L208.363 266.341L208.498 266.206L208.69 266.206L208.69 266.668ZM225.545 266.668L225.872 266.995L225.737 267.131L225.545 267.131L225.545 266.668ZM252.205 239.979L251.878 239.652L252.013 239.516L252.205 239.516L252.205 239.979ZM272.464 239.979L272.464 239.516L272.656 239.516L272.791 239.652L272.464 239.979ZM300.664 268.214L300.991 267.887L301.273 268.169L301.035 268.489L300.664 268.214ZM300.907 271.585L301.225 271.249L301.23 271.254L301.236 271.26L300.907 271.585ZM304.553 271.585L304.224 271.26L304.224 271.26L304.553 271.585ZM304.553 267.933L304.224 268.258L304.217 268.251L304.21 268.243L304.553 267.933ZM301.231 267.652L301.502 268.027L301.182 268.258L300.904 267.979L301.231 267.652ZM272.707 239.136L272.707 238.673L272.898 238.673L273.034 238.809L272.707 239.136ZM252.043 239.136L251.716 238.809L251.851 238.673L252.043 238.673L252.043 239.136ZM225.383 265.826L225.71 266.153L225.575 266.288L225.383 266.288L225.383 265.826ZM209.662 265.826L209.662 266.288L208.546 266.288L209.335 265.498L209.662 265.826ZM287.86 187.582L287.533 187.255L287.668 187.12L287.86 187.12L287.86 187.582ZM287.698 186.599L287.371 186.272L287.506 186.136L287.698 186.136L287.698 186.599ZM194.995 279.311L195.322 279.638L194.995 279.965L194.668 279.638L194.995 279.311ZM184.461 268.775L184.134 269.103L183.807 268.776L184.134 268.448L184.461 268.775ZM278.055 175.08L277.728 174.753L278.382 175.407L278.055 175.08ZM183.975 268.214L184.302 268.541L183.973 268.869L183.646 268.54L183.975 268.214ZM172.954 257.116L172.626 257.442L172.301 257.115L172.627 256.789L172.954 257.116ZM227.814 202.192L227.487 201.865L227.498 201.853L227.511 201.842L227.814 202.192ZM227.976 202.051L228.439 202.051L228.439 202.262L228.279 202.401L227.976 202.051ZM227.976 154.01L228.304 153.683L228.439 153.818L228.439 154.01L227.976 154.01ZM133.572 59.4716L133.244 59.7985L132.962 59.5163L133.2 59.1959L133.572 59.4716ZM133.329 56.1003L133.011 56.4365L133.005 56.4312L133 56.4256L133.329 56.1003ZM129.682 56.1003L130.011 56.4256L130.011 56.4256L129.682 56.1003ZM129.682 59.7526L130.011 59.4272L130.018 59.4344L130.025 59.4418L129.682 59.7526ZM133.004 60.0335L132.733 59.6584L133.053 59.4275L133.332 59.7066L133.004 60.0335ZM202.288 129.427L202.616 129.1L203.404 129.89L202.288 129.89L202.288 129.427ZM181.463 129.427L181.463 129.89L181.271 129.89L181.135 129.754L181.463 129.427ZM144.106 92.0612L143.779 92.3884L143.497 92.1061L143.734 91.7856L144.106 92.0612ZM143.863 88.6899L143.545 89.0261L143.539 89.0207L143.534 89.0152L143.863 88.6899ZM140.216 88.6898L139.887 88.3645L139.887 88.3645L140.216 88.6898ZM140.216 92.3421L140.545 92.0168L140.552 92.0239L140.559 92.0314L140.216 92.3421ZM143.539 92.6231L143.268 92.248L143.587 92.0172L143.866 92.296L143.539 92.6231ZM181.301 130.41L181.301 130.873L181.109 130.873L180.973 130.737L181.301 130.41ZM203.342 130.41L203.342 129.947L203.534 129.947L203.669 130.083L203.342 130.41ZM227.328 154.431L227.655 154.104L227.791 154.239L227.791 154.431L227.328 154.431ZM227.328 201.349L227.791 201.349L227.791 201.54L227.655 201.676L227.328 201.349ZM183.164 245.598L183.492 245.924L182.702 246.716L182.702 245.598L183.164 245.598ZM183.164 221.717L182.702 221.717L182.702 221.525L182.837 221.39L183.164 221.717ZM210.311 194.606L209.984 194.279L209.995 194.267L210.008 194.256L210.311 194.606ZM210.473 194.466L210.936 194.466L210.936 194.677L210.776 194.815L210.473 194.466ZM210.473 170.304L210.01 170.304L210.01 169.842L210.473 169.842L210.473 170.304ZM212.012 169.602L211.679 169.281L211.683 169.277L212.012 169.602ZM208.366 169.602L208.695 169.277L208.699 169.281L208.366 169.602ZM209.906 170.304L209.906 169.842L210.368 169.842L210.368 170.304L209.906 170.304ZM209.906 193.904L210.368 193.904L210.368 194.096L210.233 194.231L209.906 193.904ZM182.759 221.015L183.086 221.342L183.075 221.354L183.062 221.364L182.759 221.015ZM182.597 221.155L182.134 221.155L182.134 220.944L182.294 220.806L182.597 221.155ZM182.597 246.159L183.06 246.159L183.06 246.352L182.924 246.487L182.597 246.159ZM172.306 256.414L172.632 256.742L172.305 257.068L171.978 256.741L172.306 256.414ZM160.961 245.036L160.634 244.708L160.962 244.381L161.289 244.709L160.961 245.036ZM154.073 251.919L154.4 252.246L153.61 253.035L153.61 251.919L154.073 251.919ZM154.073 199.944L153.61 199.944L153.61 199.753L153.745 199.618L154.073 199.944ZM177.978 175.923L177.65 175.597L177.929 175.317L178.249 175.548L177.978 175.923ZM181.301 175.642L181.63 175.968L181.624 175.973L181.618 175.979L181.301 175.642ZM181.301 171.99L181.63 171.665L181.63 171.665L181.301 171.99ZM177.654 171.99L177.311 171.679L177.318 171.672L177.325 171.665L177.654 171.99ZM177.411 175.361L177.783 175.086L178.02 175.406L177.739 175.688L177.411 175.361ZM153.587 199.242L153.915 199.568L153.903 199.58L153.89 199.591L153.587 199.242ZM153.425 199.382L152.962 199.382L152.962 199.171L153.122 199.033L153.425 199.382ZM153.425 220.593L153.888 220.593L153.888 221.714L153.097 220.92L153.425 220.593ZM135.516 202.613L135.189 202.94L135.054 202.804L135.054 202.613L135.516 202.613ZM135.516 182.525L135.054 182.525L135.054 182.334L135.189 182.198L135.516 182.525ZM174.575 143.474L174.248 143.147L174.526 142.868L174.846 143.099L174.575 143.474ZM177.897 143.193L178.226 143.519L178.221 143.524L178.215 143.529L177.897 143.193ZM177.897 139.541L177.568 139.866L177.568 139.866L177.897 139.541ZM174.251 139.541L173.908 139.23L173.915 139.223L173.922 139.216L174.251 139.541ZM174.008 142.912L174.379 142.637L174.617 142.957L174.335 143.239L174.008 142.912ZM135.111 181.823L135.438 182.15L135.427 182.162L135.414 182.173L135.111 181.823ZM134.949 181.964L134.486 181.964L134.486 181.752L134.646 181.614L134.949 181.964ZM134.949 203.315L134.621 203.642L134.486 203.506L134.486 203.315L134.949 203.315ZM153.425 221.858L153.753 221.531L153.888 221.667L153.888 221.858L153.425 221.858ZM153.425 252.621L153.888 252.621L153.888 252.812L153.753 252.948L153.425 252.621ZM143.62 262.454L143.947 262.781L143.62 263.109L143.292 262.781L143.62 262.454ZM135.354 254.166L135.027 254.493L134.892 254.358L134.892 254.166L135.354 254.166ZM135.354 235.343L135.681 235.015L135.817 235.151L135.817 235.343L135.354 235.343ZM122.794 222.841L122.468 223.169L122.202 222.904L122.406 222.589L122.794 222.841ZM122.551 219.47L122.233 219.806L122.227 219.801L122.222 219.795L122.551 219.47ZM118.904 219.47L118.575 219.144L118.575 219.144L118.904 219.47ZM118.904 223.122L119.233 222.797L119.24 222.804L119.247 222.811L118.904 223.122ZM122.227 223.403L121.956 223.028L122.275 222.798L122.553 223.075L122.227 223.403ZM134.787 235.905L135.114 235.577L135.25 235.713L135.25 235.905L134.787 235.905ZM134.787 253.604L135.25 253.604L135.25 254.722L134.46 253.932L134.787 253.604ZM107.398 226.212L107.07 226.54L106.935 226.404L106.935 226.212L107.398 226.212ZM107.398 184.913L106.935 184.913L106.935 184.722L107.07 184.586L107.398 184.913ZM148.644 143.615L148.316 143.288L148.328 143.276L148.341 143.265L148.644 143.615ZM148.806 143.474L149.269 143.474L149.269 143.685L149.109 143.824L148.806 143.474ZM148.806 127.882L149.133 127.554L149.269 127.69L149.269 127.882L148.806 127.882ZM125.468 104.563L125.141 104.891L124.876 104.626L125.08 104.311L125.468 104.563ZM125.225 101.192L124.907 101.528L124.902 101.523L124.896 101.517L125.225 101.192ZM121.579 101.192L121.25 100.867L121.25 100.867L121.579 101.192ZM121.579 104.844L121.908 104.519L121.915 104.526L121.921 104.533L121.579 104.844ZM124.901 105.125L124.63 104.75L124.949 104.519L125.228 104.798L124.901 105.125ZM148.239 128.444L148.566 128.116L148.701 128.252L148.701 128.444L148.239 128.444ZM148.239 142.912L148.701 142.912L148.701 143.104L148.566 143.239L148.239 142.912ZM106.992 184.211L107.32 184.538L107.308 184.55L107.295 184.561L106.992 184.211ZM106.83 184.352L106.368 184.352L106.368 184.14L106.527 184.002L106.83 184.352ZM106.83 226.774L106.503 227.101L106.368 226.966L106.368 226.774L106.83 226.774ZM143.053 263.016L143.38 262.689L143.707 263.016L143.38 263.343L143.053 263.016ZM135.759 270.321L136.087 270.648L135.76 270.976L135.432 270.648L135.759 270.321ZM88.7599 223.262L88.4325 223.589L88.2972 223.454L88.2972 223.262L88.7599 223.262ZM88.7599 145.862L89.0879 145.536L89.2226 145.671L89.2226 145.862L88.7599 145.862ZM75.0651 132.096L74.737 132.422L74.6024 132.287L74.6024 132.096L75.0651 132.096ZM75.0651 60.8763L75.3923 60.5492L75.5278 60.6847L75.5278 60.8763L75.0651 60.8763ZM18.7465 4.54688L18.4193 4.87403L18.2011 4.65585L18.3187 4.3706L18.7465 4.54688ZM93.4597 313.867L93.1324 314.194L92.8057 313.867L93.1324 313.54L93.4597 313.867ZM160.961 381.434L161.288 381.761L160.961 382.089L160.634 381.761L160.961 381.434ZM160.961 246.3L160.634 245.973L160.961 245.645L161.288 245.973L160.961 246.3ZM228.462 313.867L228.79 313.54L229.116 313.867L228.79 314.194L228.462 313.867ZM345.401 189.977L345.73 190.302L345.725 190.308L345.719 190.313L345.401 189.977ZM342.079 190.258L342.237 189.823L342.297 189.845L342.35 189.883L342.079 190.258ZM345.401 186.325L345.072 186.65L345.401 186.325ZM341.755 186.325L341.387 186.043L341.405 186.02L341.426 186L341.755 186.325ZM281.806 175.546C280.766 176.53 279.061 176.709 277.895 175.866L278.437 175.116C279.215 175.678 280.427 175.576 281.17 174.874L281.806 175.546ZM281.817 171.233C282.968 172.396 282.968 174.372 281.817 175.536L281.159 174.885C281.953 174.082 281.953 172.686 281.159 171.883L281.817 171.233ZM277.513 171.233C278.666 170.066 280.664 170.066 281.817 171.233L281.159 171.883C280.368 171.083 278.962 171.083 278.171 171.883L277.513 171.233ZM278.209 171.839C277.853 172.303 277.466 173.017 277.394 173.664C277.359 173.978 277.402 174.247 277.527 174.465C277.65 174.679 277.882 174.896 278.324 175.056L278.008 175.926C277.404 175.707 276.978 175.366 276.725 174.927C276.475 174.492 276.424 174.012 276.474 173.562C276.572 172.68 277.068 171.807 277.474 171.276L278.209 171.839ZM14.2037 1.41204C15.3572 0.245668 17.3548 0.245636 18.5082 1.41207L17.8502 2.06276C17.059 1.26265 15.653 1.26261 14.8616 2.06278L14.2037 1.41204ZM14.1827 5.83295C13.06 4.53535 13.06 2.73226 14.1827 1.43466L14.8826 2.04016C14.0606 2.99013 14.0606 4.27748 14.8826 5.22745L14.1827 5.83295ZM18.5082 5.85554C17.3548 7.02204 15.3572 7.022 14.2036 5.85556L14.8617 5.20484C15.653 6.00505 17.059 6.00502 17.8502 5.20487L18.5082 5.85554ZM18.6611 5.62088L18.5801 5.76134L17.7784 5.29906L17.8594 5.15861L18.6611 5.62088ZM74.1708 61.906L17.9332 5.71707L18.5872 5.06242L74.8249 61.2514L74.1708 61.906ZM74.0351 131.534L74.0351 61.5787L74.9605 61.5787L74.9605 131.534L74.0351 131.534ZM1.40835 57.7398L74.8251 131.207L74.1705 131.861L0.753749 58.394L1.40835 57.7398ZM0.618342 59.1907L0.618342 58.0669L1.54376 58.0669L1.54376 59.1907L0.618342 59.1907ZM87.9463 146.751L0.753779 59.5178L1.40832 58.8636L88.6008 146.097L87.9463 146.751ZM87.8108 223.824L87.8108 146.424L88.7363 146.424L88.7362 223.824L87.8108 223.824ZM134.946 271.21L87.9461 224.151L88.6009 223.497L135.601 270.556L134.946 271.21ZM126.601 278.842L134.947 270.554L135.599 271.211L127.253 279.499L126.601 278.842ZM81.4698 233.049L127.254 278.843L126.6 279.498L80.8154 233.704L81.4698 233.049ZM81.7365 233.121L81.5745 233.542L80.7107 233.21L80.8727 232.789L81.7365 233.121ZM38.1167 189.081L81.6319 232.628L80.9773 233.282L37.4621 189.736L38.1167 189.081ZM38.2521 179.856L38.2521 189.409L37.3267 189.409L37.3267 179.856L38.2521 179.856ZM29.2843 170.68L38.1169 179.53L37.4619 180.183L28.6293 171.334L29.2843 170.68ZM29.4195 143.755L29.4195 171.007L28.4941 171.007L28.4941 143.755L29.4195 143.755ZM1.40786 115.614L29.2836 143.427L28.63 144.083L0.754232 116.269L1.40786 115.614ZM0.618337 117.065L0.618337 115.942L1.54375 115.942L1.54375 117.065L0.618337 117.065ZM28.0627 144.644L0.754201 117.393L1.40789 116.738L28.7164 143.989L28.0627 144.644ZM27.9268 170.445L27.9268 144.317L28.8523 144.317L28.8522 170.445L27.9268 170.445ZM17.4527 158.879L28.7164 170.117L28.0627 170.772L16.7991 159.535L17.4527 158.879ZM17.2006 155.499C18.283 156.523 18.3417 158.183 17.514 159.459L16.7377 158.955C17.3684 157.983 17.265 156.834 16.5648 156.172L17.2006 155.499ZM12.9072 155.51C14.0607 154.344 16.0581 154.344 17.2117 155.51L16.5537 156.161C15.7624 155.361 14.3565 155.361 13.5651 156.161L12.9072 155.51ZM12.9072 159.813C11.7564 158.65 11.7564 156.674 12.9072 155.51L13.5652 156.161C12.771 156.964 12.771 158.36 13.5652 159.163L12.9072 159.813ZM16.8295 160.144C15.6974 160.962 13.9678 160.984 12.8934 159.799L13.579 159.177C14.2872 159.959 15.4748 159.981 16.2876 159.394L16.8295 160.144ZM36.8952 180.746L16.2315 160.096L16.8856 159.442L37.5493 180.091L36.8952 180.746ZM36.7596 189.971L36.7596 180.418L37.685 180.418L37.685 189.971L36.7596 189.971ZM80.0858 233.563L36.8948 190.297L37.5497 189.644L80.7407 232.909L80.0858 233.563ZM60.3169 232.773L80.4133 232.773L80.4133 233.699L60.3169 233.699L60.3169 232.773ZM1.40834 173.63L60.6442 232.909L59.9896 233.563L0.753739 174.284L1.40834 173.63ZM0.618332 175.08L0.618332 173.957L1.54375 173.957L1.54375 175.08L0.618332 175.08ZM58.8551 233.563L0.753708 175.407L1.40837 174.753L59.5098 232.909L58.8551 233.563ZM1.08103 232.773L59.1824 232.773L59.1824 233.699L1.08103 233.699L1.08103 232.773ZM0.618327 234.219L0.618327 233.236L1.54374 233.236L1.54374 234.219L0.618327 234.219ZM80.8185 234.682L1.08103 234.682L1.08103 233.757L80.8185 233.757L80.8185 234.682ZM126.032 280.2L80.4909 234.546L81.146 233.892L126.687 279.546L126.032 280.2ZM117.443 288.114L126.033 279.545L126.686 280.2L118.097 288.769L117.443 288.114ZM85.0358 254.963L118.098 288.115L117.442 288.768L84.3805 255.617L85.0358 254.963ZM0.618325 256.554L0.618325 255.29L1.54374 255.29L1.54374 256.554L0.618325 256.554ZM60.3169 257.017L1.08103 257.017L1.08103 256.092L60.3169 256.092L60.3169 257.017ZM42.0002 274.208L59.9898 256.227L60.644 256.882L42.6544 274.862L42.0002 274.208ZM1.08103 274.072L42.3273 274.072L42.3273 274.998L1.08103 274.998L1.08103 274.072ZM0.618323 275.518L0.618323 274.535L1.54374 274.535L1.54374 275.518L0.618323 275.518ZM42.4894 275.981L1.08103 275.981L1.08103 275.055L42.4894 275.056L42.4894 275.981ZM61.8589 256.882L42.816 275.846L42.1629 275.19L61.2058 256.226L61.8589 256.882ZM84.546 257.017L61.5324 257.017L61.5324 256.092L84.546 256.092L84.546 257.017ZM116.875 289.611L84.2184 256.881L84.8735 256.228L117.53 288.958L116.875 289.611ZM109.259 296.542L116.876 288.957L117.529 289.612L109.912 297.198L109.259 296.542ZM80.9837 267.605L109.913 296.543L109.258 297.197L80.3292 268.26L80.9837 267.605ZM44.9178 291.204L68.5797 267.605L69.2332 268.26L45.5713 291.86L44.9178 291.204ZM1.00001 291.069L45.2445 291.069L45.2445 291.995L1.00001 291.995L1.00001 291.069ZM0.537298 292.515L0.537298 291.532L1.46271 291.532L1.46271 292.515L0.537298 292.515ZM45.4067 292.978L1 292.978L1.00001 292.053L45.4067 292.053L45.4067 292.978ZM69.3953 269.244L45.7334 292.843L45.0799 292.188L68.7418 268.588L69.3953 269.244ZM80.4133 269.379L69.0686 269.379L69.0686 268.453L80.4133 268.453L80.4133 269.379ZM101.073 290.313L80.0855 269.243L80.7411 268.589L101.729 289.66L101.073 290.313ZM90.8666 289.524L101.401 289.524L101.401 290.449L90.8666 290.449L90.8666 289.524ZM80.9843 279.406L91.1945 289.66L90.5387 290.313L80.3286 280.059L80.9843 279.406ZM72.715 279.27L80.6564 279.27L80.6564 280.195L72.715 280.195L72.715 279.27ZM54.7222 297.105L72.3875 279.405L73.0425 280.059L55.3772 297.759L54.7222 297.105ZM51.4904 297.377C52.5284 296.395 54.152 296.213 55.3206 297.057L54.7788 297.807C54.0025 297.246 52.8709 297.345 52.1262 298.049L51.4904 297.377ZM51.4793 301.69C50.3286 300.527 50.3286 298.551 51.4793 297.387L52.1373 298.038C51.3431 298.841 51.3431 300.237 52.1373 301.04L51.4793 301.69ZM55.7838 301.691C54.6303 302.857 52.6328 302.857 51.4793 301.69L52.1373 301.04C52.9285 301.84 54.3345 301.84 55.1259 301.04L55.7838 301.691ZM56.0551 297.699C57.0281 298.88 56.9098 300.552 55.7839 301.69L55.1258 301.04C55.9446 300.212 55.9886 299.074 55.3409 298.288L56.0551 297.699ZM73.2855 281.043L56.0254 298.321L55.3707 297.667L72.6308 280.389L73.2855 281.043ZM80.5754 281.178L72.9582 281.178L72.9582 280.253L80.5754 280.253L80.5754 281.178ZM90.4577 291.297L80.2475 281.042L80.9033 280.389L91.1135 290.644L90.4577 291.297ZM102.455 291.433L90.7856 291.433L90.7856 290.507L102.455 290.507L102.455 291.433ZM108.69 297.899L102.126 291.296L102.783 290.644L109.346 297.246L108.69 297.899ZM97.9949 307.921L108.691 297.245L109.345 297.9L98.6487 308.576L97.9949 307.921ZM82.6012 307.786L98.3218 307.786L98.3218 308.711L82.6012 308.711L82.6012 307.786ZM62.7448 327.447L82.2741 307.921L82.9284 308.575L63.3991 328.101L62.7448 327.447ZM59.4317 327.719C60.4716 326.735 62.1763 326.556 63.3429 327.399L62.801 328.149C62.0229 327.587 60.8104 327.689 60.0675 328.391L59.4317 327.719ZM59.4205 332.032C58.27 330.869 58.27 328.893 59.4206 327.73L60.0786 328.38C59.2845 329.183 59.2845 330.579 60.0786 331.382L59.4205 332.032ZM63.7253 332.032C62.5717 333.199 60.5742 333.199 59.4206 332.032L60.0786 331.382C60.8699 332.182 62.2759 332.182 63.0673 331.382L63.7253 332.032ZM64.0109 328.06C64.8805 329.233 64.7686 330.882 63.7391 332.018L63.0534 331.396C63.8066 330.565 63.8567 329.406 63.2676 328.611L64.0109 328.06ZM83.0099 309.558L63.967 328.662L63.3116 328.009L82.3545 308.905L83.0099 309.558ZM97.2684 309.694L82.6822 309.694L82.6822 308.769L97.2684 308.769L97.2684 309.694ZM91.916 313.962L96.9402 308.905L97.5967 309.558L92.5725 314.615L91.916 313.962ZM99.6945 322.48L91.9153 314.614L92.5733 313.963L100.353 321.83L99.6945 322.48ZM78.5471 342.898L99.697 321.827L100.35 322.483L79.2002 343.554L78.5471 342.898ZM56.6703 342.763L78.8737 342.763L78.8737 343.689L56.6703 343.689L56.6703 342.763ZM33.579 319.44L56.9978 342.899L56.3429 343.553L32.9241 320.094L33.579 319.44ZM33.3263 316.059C34.4009 317.075 34.4812 318.886 33.6232 320.043L32.8799 319.491C33.4805 318.682 33.3988 317.402 32.6905 316.732L33.3263 316.059ZM29.0329 316.07C30.1864 314.904 32.184 314.904 33.3374 316.07L32.6794 316.721C31.8882 315.921 30.4822 315.921 29.691 316.721L29.0329 316.07ZM29.033 320.373C27.8823 319.21 27.8822 317.234 29.033 316.07L29.691 316.721C28.8968 317.524 28.8968 318.919 29.691 319.723L29.033 320.373ZM32.9553 320.704C31.8232 321.522 30.0936 321.544 29.0192 320.359L29.7048 319.737C30.413 320.518 31.6006 320.541 32.4135 319.954L32.9553 320.704ZM44.4311 332.737L32.3571 320.656L33.0116 320.002L45.0856 332.082L44.4311 332.737ZM1 331.947L44.7584 331.947L44.7584 332.872L1 332.872L1 331.947ZM0.537294 333.533L0.537294 332.41L1.46271 332.41L1.46271 333.533L0.537294 333.533ZM1.46521 333.742L1.30319 333.883L0.696809 333.184L0.858827 333.043L1.46521 333.742ZM45.8118 333.855L1.16202 333.855L1.16202 332.93L45.8118 332.93L45.8118 333.855ZM56.1815 344.396L45.485 333.72L46.1387 333.065L56.8352 343.741L56.1815 344.396ZM68.9042 352.45L77.6558 343.741L78.3086 344.397L69.557 353.106L68.9042 352.45ZM18.9895 352.315L69.2306 352.315L69.2306 353.241L18.9895 353.241L18.9895 352.315ZM5.69742 365.374L18.6628 352.45L19.3162 353.106L6.35074 366.029L5.69742 365.374ZM1.08102 365.239L6.02408 365.239L6.02408 366.164L1.08102 366.164L1.08102 365.239ZM0.618315 366.685L0.618315 365.701L1.54373 365.701L1.54373 366.685L0.618315 366.685ZM5.05173 367.147L1.08102 367.147L1.08102 366.222L5.05173 366.222L5.05173 367.147ZM0.7554 370.289L4.7261 366.356L5.37735 367.013L1.40664 370.947L0.7554 370.289ZM0.618315 371.742L0.618315 370.618L1.54373 370.618L1.54373 371.742L0.618315 371.742ZM19.4792 353.948L1.40866 372.068L0.753386 371.415L18.824 353.294L19.4792 353.948ZM69.3926 354.084L19.1516 354.084L19.1516 353.158L69.3926 353.158L69.3926 354.084ZM100.999 322.622L69.7201 353.948L69.0652 353.294L100.344 321.969L100.999 322.622ZM114.93 337.232L100.344 322.622L100.999 321.969L115.585 336.578L114.93 337.232ZM78.5465 372.96L114.931 336.577L115.585 337.232L79.2008 373.614L78.5465 372.96ZM39.7343 372.824L78.8737 372.824L78.8737 373.75L39.7343 373.75L39.7343 372.824ZM0.672663 411.73L39.407 372.96L40.0616 373.614L1.32733 412.384L0.672663 411.73ZM0.537287 413.181L0.537287 412.057L1.4627 412.057L1.4627 413.181L0.537287 413.181ZM40.0616 374.738L1.32733 413.508L0.672663 412.854L39.407 374.084L40.0616 374.738ZM77.7392 374.873L39.7343 374.873L39.7343 373.948L77.7392 373.948L77.7392 374.873ZM29.3584 422.266L77.4116 374.084L78.0668 374.737L30.0136 422.919L29.3584 422.266ZM29.2233 461.082L29.2233 422.593L30.1487 422.593L30.1487 461.082L29.2233 461.082ZM0.672168 489.552L29.3581 460.756L30.0138 461.409L1.32781 490.206L0.672168 489.552ZM0.53728 491.003L0.53728 489.879L1.4627 489.879L1.4627 491.003L0.53728 491.003ZM30.6616 461.971L1.32732 491.33L0.672656 490.676L30.007 461.317L30.6616 461.971ZM30.797 423.155L30.797 461.644L29.8716 461.644L29.8716 423.155L30.797 423.155ZM116.152 337.934L30.6616 423.482L30.007 422.828L115.498 337.28L116.152 337.934ZM128.059 350.437L115.499 337.935L116.152 337.279L128.712 349.781L128.059 350.437ZM76.6826 401.195L128.058 349.782L128.713 350.436L77.3372 401.849L76.6826 401.195ZM76.5471 478.922L76.5471 401.522L77.4726 401.522L77.4726 478.922L76.5471 478.922ZM47.6729 507.532L76.6831 478.595L77.3366 479.25L48.3265 508.187L47.6729 507.532ZM49.1342 508.322L47.9997 508.322L47.9997 507.397L49.1342 507.397L49.1342 508.322ZM77.9038 479.812L49.461 508.187L48.8074 507.532L77.2502 479.157L77.9038 479.812ZM78.0397 402.084L78.0397 479.484L77.1143 479.484L77.1143 402.084L78.0397 402.084ZM129.28 350.998L77.9043 402.411L77.2497 401.757L128.625 350.344L129.28 350.998ZM136.406 358.725L128.627 350.999L129.279 350.343L137.058 358.069L136.406 358.725ZM98.3188 396.138L136.405 358.07L137.059 358.724L98.973 396.792L98.3188 396.138ZM98.1832 487.21L98.1832 396.465L99.1086 396.465L99.1086 487.21L98.1832 487.21ZM80.0055 505.144L98.3191 486.882L98.9726 487.538L80.659 505.799L80.0055 505.144ZM79.8695 507.86L79.8695 505.471L80.7949 505.471L80.7949 507.86L79.8695 507.86ZM80.8994 508.322L80.3322 508.322L80.3322 507.397L80.8994 507.397L80.8994 508.322ZM81.3621 506.033L81.3621 507.86L80.4367 507.86L80.4367 506.033L81.3621 506.033ZM99.5399 488.1L81.2262 506.361L80.5727 505.706L98.8865 487.444L99.5399 488.1ZM99.6759 397.027L99.6759 487.772L98.7505 487.772L98.7505 397.027L99.6759 397.027ZM137.626 359.286L99.5403 397.354L98.8861 396.7L136.972 358.632L137.626 359.286ZM147.426 369.682L136.973 359.287L137.625 358.631L148.079 369.026L147.426 369.682ZM118.333 398.246L147.425 369.027L148.08 369.68L118.989 398.898L118.333 398.246ZM118.199 507.86L118.199 398.572L119.124 398.572L119.124 507.86L118.199 507.86ZM119.229 508.322L118.661 508.322L118.661 507.397L119.229 507.397L119.229 508.322ZM119.691 461.363L119.691 507.86L118.766 507.86L118.766 461.363L119.691 461.363ZM133.487 476.299L118.901 461.69L119.556 461.036L134.142 475.645L133.487 476.299ZM133.352 507.86L133.352 475.972L134.277 475.972L134.277 507.86L133.352 507.86ZM134.382 508.322L133.815 508.322L133.815 507.397L134.382 507.397L134.382 508.322ZM134.845 475.41L134.845 507.86L133.919 507.86L133.919 475.41L134.845 475.41ZM119.556 459.912L134.709 475.083L134.055 475.737L118.901 460.566L119.556 459.912ZM119.691 433.409L119.691 460.239L118.766 460.239L118.766 433.409L119.691 433.409ZM138.106 452.981L118.901 433.736L119.556 433.082L138.761 452.327L138.106 452.981ZM138.44 456.221C137.369 455.209 137.288 453.551 138.047 452.399L138.82 452.909C138.283 453.724 138.364 454.875 139.076 455.549L138.44 456.221ZM142.733 456.21C141.58 457.376 139.582 457.376 138.429 456.21L139.087 455.559C139.878 456.36 141.284 456.36 142.075 455.559L142.733 456.21ZM142.733 451.907C143.884 453.071 143.884 455.046 142.733 456.21L142.075 455.559C142.869 454.756 142.869 453.361 142.075 452.558L142.733 451.907ZM138.698 451.742C139.879 450.719 141.598 450.921 142.707 451.883L142.101 452.582C141.266 451.858 140.068 451.779 139.304 452.442L138.698 451.742ZM119.556 431.958L139.328 451.765L138.673 452.419L118.901 432.612L119.556 431.958ZM119.691 399.134L119.691 432.285L118.766 432.285L118.766 399.134L119.691 399.134ZM148.648 370.242L119.556 399.46L118.901 398.807L147.992 369.589L148.648 370.242ZM157.312 379.515L147.993 370.244L148.646 369.588L157.965 378.859L157.312 379.515ZM143.13 393.047L157.311 378.86L157.966 379.514L143.785 393.702L143.13 393.047ZM142.995 414.305L142.995 393.375L143.92 393.375L143.92 414.305L142.995 414.305ZM146.699 418.146L143.133 414.635L143.782 413.975L147.348 417.487L146.699 418.146ZM146.561 428.493L146.561 417.817L147.486 417.817L147.486 428.493L146.561 428.493ZM172.221 454.386L146.696 428.819L147.351 428.166L172.876 453.732L172.221 454.386ZM172.086 472.039L172.086 454.059L173.012 454.059L173.012 472.039L172.086 472.039ZM192.966 493.156L172.221 472.366L172.876 471.712L193.621 492.502L192.966 493.156ZM193.219 496.536C192.144 495.521 192.064 493.71 192.922 492.553L193.665 493.105C193.065 493.914 193.146 495.194 193.855 495.864L193.219 496.536ZM197.512 496.526C196.359 497.692 194.361 497.692 193.208 496.526L193.866 495.875C194.657 496.675 196.063 496.675 196.854 495.875L197.512 496.526ZM197.512 492.223C198.663 493.386 198.663 495.362 197.512 496.526L196.854 495.875C197.648 495.072 197.648 493.676 196.854 492.873L197.512 492.223ZM193.59 491.892C194.722 491.074 196.451 491.052 197.526 492.237L196.84 492.859C196.132 492.077 194.945 492.055 194.132 492.642L193.59 491.892ZM173.444 471.15L194.188 491.94L193.533 492.594L172.789 471.804L173.444 471.15ZM173.579 453.497L173.579 471.477L172.653 471.477L172.653 453.497L173.579 453.497ZM147.918 427.604L173.444 453.17L172.789 453.824L147.263 428.258L147.918 427.604ZM148.053 418.379L148.053 427.931L147.128 427.931L147.128 418.379L148.053 418.379ZM190.13 461.69L147.263 418.705L147.918 418.052L190.785 461.036L190.13 461.69ZM190.464 464.93C189.393 463.918 189.312 462.26 190.071 461.109L190.844 461.618C190.306 462.433 190.387 463.585 191.099 464.258L190.464 464.93ZM194.757 464.919C193.604 466.086 191.606 466.086 190.453 464.919L191.111 464.269C191.902 465.069 193.308 465.069 194.099 464.269L194.757 464.919ZM194.757 460.616C195.908 461.78 195.908 463.756 194.757 464.919L194.099 464.269C194.893 463.466 194.893 462.07 194.099 461.267L194.757 460.616ZM190.722 460.452C191.902 459.428 193.622 459.63 194.731 460.592L194.125 461.291C193.29 460.567 192.092 460.489 191.328 461.151L190.722 460.452ZM156.994 426.059L191.352 460.474L190.697 461.128L156.339 426.712L156.994 426.059ZM173.845 426.848L156.666 426.848L156.666 425.923L173.845 425.923L173.845 426.848ZM193.29 446.519L173.518 426.712L174.173 426.059L193.945 445.865L193.29 446.519ZM193.543 449.9C192.468 448.884 192.388 447.073 193.246 445.916L193.989 446.468C193.389 447.278 193.47 448.558 194.179 449.227L193.543 449.9ZM197.836 449.889C196.683 451.055 194.685 451.055 193.532 449.889L194.19 449.238C194.981 450.038 196.387 450.038 197.178 449.238L197.836 449.889ZM197.836 445.586C198.987 446.749 198.987 448.725 197.836 449.889L197.178 449.238C197.972 448.435 197.972 447.04 197.178 446.237L197.836 445.586ZM193.914 445.255C195.046 444.438 196.776 444.415 197.85 445.6L197.165 446.222C196.456 445.441 195.269 445.418 194.456 446.005L193.914 445.255ZM174.416 425.216L194.512 445.303L193.858 445.958L173.761 425.87L174.416 425.216ZM144.352 413.556L156.021 425.215L155.367 425.87L143.698 414.211L144.352 413.556ZM144.488 394.217L144.488 413.883L143.562 413.883L143.562 394.217L144.488 394.217ZM158.533 380.357L144.352 394.544L143.698 393.89L157.879 379.702L158.533 380.357ZM160.716 383.168L157.88 380.358L158.532 379.701L161.368 382.51L160.716 383.168ZM165.016 379.514L161.37 383.166L160.715 382.512L164.361 378.86L165.016 379.514ZM223.759 438.934L164.361 379.514L165.016 378.86L224.414 438.28L223.759 438.934ZM240.77 440.192C240.325 439.728 240.023 439.23 239.92 438.694L240.829 438.519C240.888 438.826 241.072 439.171 241.437 439.55L240.77 440.192ZM245.079 440.196C243.926 441.363 241.928 441.363 240.775 440.196L241.433 439.545C242.224 440.346 243.63 440.346 244.421 439.545L245.079 440.196ZM245.079 435.893C246.23 437.057 246.23 439.033 245.079 440.196L244.421 439.545C245.215 438.742 245.215 437.347 244.421 436.544L245.079 435.893ZM240.775 435.893C241.928 434.727 243.926 434.727 245.079 435.893L244.421 436.544C243.63 435.744 242.224 435.744 241.433 436.544L240.775 435.893ZM239.92 437.395C240.012 436.919 240.293 436.218 240.84 435.838L241.367 436.599C241.104 436.781 240.899 437.204 240.829 437.57L239.92 437.395ZM224.33 437.02L240.374 437.02L240.374 437.946L224.33 437.946L224.33 437.02ZM165.583 378.017L224.657 437.156L224.002 437.81L164.928 378.671L165.583 378.017ZM174.657 369.682L165.581 378.673L164.93 378.015L174.006 369.025L174.657 369.682ZM223.354 419.127L174.004 369.681L174.659 369.027L224.009 418.473L223.354 419.127ZM223.607 422.508C222.524 421.484 222.465 419.824 223.293 418.548L224.069 419.052C223.439 420.024 223.542 421.173 224.242 421.835L223.607 422.508ZM227.9 422.497C226.746 423.663 224.749 423.663 223.595 422.497L224.253 421.846C225.045 422.646 226.451 422.646 227.242 421.846L227.9 422.497ZM227.9 418.194C229.051 419.357 229.051 421.333 227.9 422.497L227.242 421.846C228.036 421.043 228.036 419.647 227.242 418.844L227.9 418.194ZM223.978 417.863C225.11 417.045 226.839 417.023 227.914 418.208L227.228 418.83C226.52 418.048 225.332 418.026 224.519 418.613L223.978 417.863ZM175.145 368.605L224.575 417.91L223.922 418.566L174.491 369.26L175.145 368.605ZM184.545 359.848L175.145 369.259L174.491 368.605L183.89 359.194L184.545 359.848ZM253.661 429.663L183.89 359.848L184.545 359.194L254.315 429.008L253.661 429.663ZM253.525 487.772L253.525 429.335L254.451 429.335L254.451 487.772L253.525 487.772ZM233.564 507.532L253.661 487.445L254.315 488.099L234.219 508.187L233.564 507.532ZM235.026 508.322L233.892 508.322L233.892 507.397L235.026 507.397L235.026 508.322ZM247.346 496.247L235.353 508.188L234.7 507.532L246.693 495.591L247.346 496.247ZM258.686 508.188L246.693 496.247L247.346 495.591L259.339 507.532L258.686 508.188ZM260.147 508.322L259.012 508.322L259.012 507.397L260.147 507.397L260.147 508.322ZM247.913 495.029L260.473 507.532L259.82 508.188L247.26 495.685L247.913 495.029ZM254.884 488.66L247.915 495.683L247.258 495.032L254.227 488.008L254.884 488.66ZM255.018 442.399L255.018 488.334L254.093 488.334L254.093 442.399L255.018 442.399ZM266.059 454.527L254.228 442.727L254.882 442.072L266.713 453.872L266.059 454.527ZM265.923 482.856L265.923 454.199L266.849 454.199L266.849 482.856L265.923 482.856ZM290.045 507.203L266.059 483.182L266.714 482.529L290.7 506.549L290.045 507.203ZM289.522 507.731C289.611 507.426 289.785 506.968 289.971 506.645L290.773 507.108C290.635 507.347 290.486 507.731 290.412 507.988L289.522 507.731ZM294.991 508.322L289.967 508.322L289.967 507.397L294.991 507.397L294.991 508.322ZM294.595 506.275C295.071 506.77 295.26 507.271 295.423 507.694L294.559 508.026C294.398 507.606 294.263 507.264 293.928 506.916L294.595 506.275ZM290.669 505.939C291.801 505.122 293.53 505.099 294.605 506.285L293.919 506.906C293.211 506.125 292.023 506.102 291.21 506.689L290.669 505.939ZM267.281 481.967L291.267 505.987L290.612 506.641L266.626 482.62L267.281 481.967ZM267.416 453.637L267.416 482.294L266.491 482.294L266.491 453.637L267.416 453.637ZM254.882 440.948L267.28 453.31L266.627 453.965L254.229 441.603L254.882 440.948ZM255.018 428.774L255.018 441.276L254.093 441.276L254.093 428.774L255.018 428.774ZM185.112 358.632L254.883 428.447L254.228 429.101L184.458 359.286L185.112 358.632ZM195.403 349.032L185.112 359.287L184.458 358.631L194.75 348.377L195.403 349.032ZM330.076 484.447L194.749 349.031L195.404 348.377L330.73 483.793L330.076 484.447ZM329.94 508L329.94 484.12L330.866 484.12L330.866 508L329.94 508ZM330.97 508.463L330.403 508.463L330.403 507.537L330.97 507.537L330.97 508.463ZM331.433 483.558L331.433 508L330.508 508L330.508 483.558L331.433 483.558ZM195.971 347.815L331.298 483.231L330.643 483.885L195.316 348.469L195.971 347.815ZM204.316 340.183L195.97 348.471L195.318 347.814L203.664 339.526L204.316 340.183ZM273.352 409.996L203.663 340.181L204.318 339.528L274.007 409.343L273.352 409.996ZM346.526 432.332L324.161 409.997L324.814 409.342L347.18 431.677L346.526 432.332ZM346.691 431.542L346.853 431.542L346.853 432.467L346.691 432.467L346.691 431.542ZM346.228 455.744L346.228 432.004L347.154 432.004L347.154 455.744L346.228 455.744ZM371.727 481.497L346.363 456.071L347.018 455.417L372.382 480.843L371.727 481.497ZM371.98 484.877C370.905 483.861 370.825 482.051 371.683 480.894L372.426 481.445C371.826 482.255 371.907 483.535 372.616 484.205L371.98 484.877ZM376.273 484.866C375.12 486.033 373.122 486.033 371.969 484.866L372.627 484.216C373.418 485.016 374.824 485.016 375.615 484.216L376.273 484.866ZM376.273 480.563C377.424 481.727 377.424 483.703 376.273 484.867L375.615 484.216C376.409 483.413 376.409 482.017 375.615 481.214L376.273 480.563ZM372.351 480.233C373.483 479.415 375.213 479.393 376.287 480.578L375.601 481.2C374.893 480.418 373.706 480.396 372.893 480.983L372.351 480.233ZM347.586 454.856L372.949 480.281L372.294 480.935L346.931 455.509L347.586 454.856ZM347.721 432.426L347.721 455.182L346.795 455.182L346.795 432.426L347.721 432.426ZM385.422 471.242L346.931 432.753L347.585 432.099L386.076 470.588L385.422 471.242ZM486.901 455.659L471.324 471.242L470.67 470.588L486.247 455.004L486.901 455.659ZM486.902 455.005C486.916 455.019 486.929 455.032 486.942 455.044L486.306 455.716C486.285 455.697 486.265 455.677 486.246 455.658L486.902 455.005ZM486.953 455.055C487.744 455.855 489.15 455.855 489.942 455.055L490.6 455.706C489.446 456.872 487.449 456.872 486.295 455.706L486.953 455.055ZM489.942 455.055C490.736 454.252 490.736 452.856 489.942 452.053L490.6 451.403C491.75 452.566 491.75 454.542 490.6 455.706L489.942 455.055ZM489.928 452.039C489.22 451.257 488.032 451.235 487.219 451.822L486.677 451.072C487.809 450.254 489.539 450.232 490.613 451.417L489.928 452.039ZM487.274 451.776L486.707 452.338L486.055 451.68L486.623 451.118L487.274 451.776ZM486.753 452.285C486.305 452.888 486.227 453.778 486.542 454.475L485.699 454.856C485.254 453.872 485.35 452.622 486.009 451.733L486.753 452.285ZM470.588 469.605L485.793 454.339L486.448 454.992L471.244 470.258L470.588 469.605ZM385.992 469.469L470.916 469.469L470.916 470.395L385.992 470.395L385.992 469.469ZM325.058 408.219L386.32 469.605L385.665 470.259L324.403 408.872L325.058 408.219ZM204.885 338.825L274.25 408.218L273.595 408.873L204.23 339.479L204.885 338.825ZM212.178 332.175L204.885 339.479L204.23 338.825L211.523 331.521L212.178 332.175ZM277.485 398.197L211.523 332.175L212.178 331.521L278.139 397.543L277.485 398.197ZM364.191 426.572L335.829 398.197L336.484 397.543L364.846 425.918L364.191 426.572ZM364.444 429.953C363.369 428.937 363.289 427.126 364.147 425.97L364.89 426.521C364.289 427.33 364.371 428.611 365.079 429.28L364.444 429.953ZM368.737 429.942C367.584 431.108 365.586 431.108 364.433 429.942L365.091 429.291C365.882 430.091 367.288 430.091 368.079 429.291L368.737 429.942ZM368.737 425.639C369.888 426.802 369.888 428.778 368.737 429.942L368.079 429.291C368.873 428.488 368.873 427.093 368.079 426.289L368.737 425.639ZM364.815 425.308C365.947 424.49 367.676 424.468 368.751 425.653L368.065 426.275C367.357 425.494 366.169 425.471 365.357 426.058L364.815 425.308ZM336.727 396.56L365.413 425.357L364.758 426.01L336.072 397.213L336.727 396.56ZM268.66 386.728L278.384 396.561L277.726 397.212L268.002 387.379L268.66 386.728ZM346.124 387.516L268.331 387.516L268.331 386.591L346.124 386.591L346.124 387.516ZM407.956 325.854L346.451 387.38L345.796 386.726L407.301 325.199L407.956 325.854ZM411.269 325.582C410.229 326.565 408.524 326.744 407.358 325.902L407.899 325.151C408.678 325.713 409.89 325.612 410.633 324.909L411.269 325.582ZM411.28 321.268C412.431 322.431 412.431 324.407 411.28 325.571L410.622 324.92C411.416 324.117 411.416 322.722 410.622 321.918L411.28 321.268ZM406.975 321.268C408.129 320.101 410.126 320.101 411.28 321.268L410.622 321.918C409.831 321.118 408.425 321.118 407.633 321.919L406.975 321.268ZM406.69 325.24C405.82 324.068 405.932 322.418 406.961 321.282L407.647 321.904C406.894 322.735 406.844 323.895 407.433 324.689L406.69 325.24ZM345.795 386.025L406.733 324.638L407.39 325.29L346.452 386.677L345.795 386.025ZM267.44 385.888L346.124 385.888L346.124 386.814L267.44 386.814L267.44 385.888ZM243.132 361.441L267.767 386.023L267.113 386.678L242.478 362.096L243.132 361.441ZM252.776 352.402L243.133 362.095L242.477 361.442L252.12 351.749L252.776 352.402ZM269.628 352.538L252.448 352.538L252.448 351.613L269.628 351.613L269.628 352.538ZM285.999 336.389L269.954 352.403L269.301 351.748L285.345 335.734L285.999 336.389ZM289.313 336.117C288.273 337.1 286.568 337.28 285.401 336.437L285.943 335.687C286.721 336.249 287.934 336.147 288.677 335.445L289.313 336.117ZM289.324 331.803C290.474 332.967 290.474 334.943 289.324 336.106L288.666 335.456C289.46 334.652 289.46 333.257 288.666 332.454L289.324 331.803ZM285.019 331.803C286.173 330.637 288.17 330.637 289.324 331.803L288.666 332.454C287.874 331.654 286.468 331.654 285.677 332.454L285.019 331.803ZM284.733 335.776C283.864 334.603 283.976 332.954 285.005 331.818L285.691 332.439C284.938 333.27 284.888 334.43 285.477 335.224L284.733 335.776ZM269.139 350.765L284.778 335.172L285.432 335.828L269.792 351.42L269.139 350.765ZM253.502 350.63L269.466 350.63L269.466 351.555L253.502 351.555L253.502 350.63ZM291.186 314.054L253.829 351.419L253.175 350.765L290.531 313.4L291.186 314.054ZM325.46 314.189L290.858 314.189L290.858 313.264L325.46 313.264L325.46 314.189ZM344.419 333.299L325.133 314.054L325.787 313.399L345.073 332.644L344.419 333.299ZM344.671 336.679C343.597 335.663 343.516 333.853 344.374 332.696L345.118 333.247C344.517 334.057 344.599 335.337 345.307 336.007L344.671 336.679ZM348.965 336.668C347.811 337.835 345.814 337.835 344.66 336.668L345.318 336.017C346.109 336.818 347.515 336.818 348.307 336.017L348.965 336.668ZM348.965 332.365C350.115 333.529 350.115 335.505 348.965 336.668L348.307 336.017C349.101 335.214 349.101 333.819 348.307 333.016L348.965 332.365ZM345.042 332.034C346.174 331.217 347.904 331.194 348.978 332.38L348.293 333.001C347.585 332.22 346.397 332.198 345.584 332.785L345.042 332.034ZM326.031 312.417L345.641 332.083L344.986 332.736L325.375 313.07L326.031 312.417ZM241.992 360.879L290.45 312.416L291.105 313.071L242.646 361.533L241.992 360.879ZM222.064 340.23L242.647 360.88L241.991 361.533L221.409 340.884L222.064 340.23ZM233.081 341.02L221.736 341.02L221.736 340.094L233.081 340.094L233.081 341.02ZM242.565 331.754L233.408 340.885L232.755 340.229L241.911 331.099L242.565 331.754ZM245.903 331.456C244.829 332.641 243.099 332.619 241.967 331.801L242.509 331.051C243.322 331.638 244.509 331.616 245.218 330.834L245.903 331.456ZM245.89 327.168C247.04 328.331 247.04 330.307 245.889 331.471L245.232 330.82C246.026 330.017 246.026 328.621 245.231 327.818L245.89 327.168ZM241.585 327.168C242.738 326.001 244.736 326.001 245.889 327.168L245.232 327.818C244.44 327.018 243.034 327.018 242.243 327.818L241.585 327.168ZM241.218 330.999C240.341 329.817 240.545 328.151 241.596 327.157L242.232 327.829C241.5 328.521 241.38 329.664 241.961 330.448L241.218 330.999ZM232.512 339.105L241.263 330.396L241.916 331.052L233.165 339.761L232.512 339.105ZM220.602 338.97L232.838 338.97L232.838 339.896L220.602 339.896L220.602 338.97ZM212.827 330.959L220.93 339.107L220.274 339.759L212.171 331.612L212.827 330.959ZM230.086 314.335L212.826 331.613L212.171 330.959L229.432 313.681L230.086 314.335ZM224.658 308.203L230.088 313.682L229.43 314.333L224.001 308.855L224.658 308.203ZM254.397 279.076L224.657 308.856L224.002 308.202L253.742 278.422L254.397 279.076ZM264.036 279.212L254.069 279.212L254.069 278.286L264.036 278.286L264.036 279.212ZM275.54 290.876L263.709 279.077L264.363 278.421L276.194 290.221L275.54 290.876ZM275.792 294.256C274.718 293.24 274.638 291.43 275.496 290.273L276.239 290.824C275.638 291.634 275.72 292.914 276.428 293.584L275.792 294.256ZM280.086 294.245C278.932 295.412 276.935 295.412 275.781 294.245L276.439 293.595C277.231 294.395 278.637 294.395 279.428 293.595L280.086 294.245ZM280.086 289.942C281.236 291.106 281.236 293.082 280.086 294.245L279.428 293.595C280.222 292.792 280.222 291.396 279.428 290.593L280.086 289.942ZM276.163 289.612C277.296 288.794 279.025 288.772 280.1 289.957L279.414 290.578C278.706 289.797 277.518 289.775 276.705 290.362L276.163 289.612ZM264.525 277.438L276.761 289.659L276.107 290.314L263.871 278.093L264.525 277.438ZM231.945 298.93L253.581 277.438L254.233 278.094L232.597 299.586L231.945 298.93ZM232.734 279.451L232.734 299.258L231.808 299.258L231.808 279.451L232.734 279.451ZM252.856 259.551L232.598 279.779L231.944 279.124L252.202 258.896L252.856 259.551ZM256.17 259.279C255.13 260.262 253.425 260.441 252.258 259.598L252.8 258.848C253.579 259.41 254.791 259.309 255.534 258.606L256.17 259.279ZM256.181 254.965C257.331 256.128 257.331 258.104 256.181 259.268L255.523 258.617C256.317 257.814 256.317 256.419 255.523 255.616L256.181 254.965ZM251.876 254.965C253.03 253.798 255.027 253.798 256.181 254.965L255.523 255.616C254.732 254.815 253.326 254.815 252.534 255.616L251.876 254.965ZM251.59 258.937C250.721 257.765 250.833 256.115 251.862 254.979L252.548 255.601C251.795 256.432 251.745 257.592 252.334 258.386L251.59 258.937ZM231.377 278.562L251.635 258.334L252.289 258.989L232.031 279.217L231.377 278.562ZM231.241 299.82L231.241 278.889L232.166 278.889L232.166 299.82L231.241 299.82ZM223.354 307.499L231.377 299.492L232.031 300.147L224.008 308.154L223.354 307.499ZM195.971 279.405L224.009 307.5L223.354 308.154L195.316 280.059L195.971 279.405ZM209.017 266.995L195.971 280.059L195.316 279.405L208.363 266.341L209.017 266.995ZM225.545 267.131L208.69 267.131L208.69 266.206L225.545 266.206L225.545 267.131ZM252.533 240.306L225.872 266.995L225.218 266.341L251.878 239.652L252.533 240.306ZM272.464 240.441L252.205 240.441L252.205 239.516L272.464 239.516L272.464 240.441ZM300.336 268.541L272.136 240.306L272.791 239.652L300.991 267.887L300.336 268.541ZM300.589 271.921C299.514 270.905 299.434 269.095 300.292 267.938L301.035 268.489C300.435 269.299 300.516 270.579 301.225 271.249L300.589 271.921ZM304.882 271.91C303.729 273.077 301.731 273.077 300.578 271.91L301.236 271.26C302.027 272.06 303.433 272.06 304.224 271.26L304.882 271.91ZM304.882 267.607C306.033 268.771 306.033 270.747 304.882 271.91L304.224 271.26C305.018 270.457 305.018 269.061 304.224 268.258L304.882 267.607ZM300.96 267.277C302.092 266.459 303.822 266.437 304.896 267.622L304.21 268.243C303.502 267.462 302.315 267.44 301.502 268.027L300.96 267.277ZM273.034 238.809L301.558 267.324L300.904 267.979L272.38 239.463L273.034 238.809ZM225.056 265.499L251.716 238.809L252.371 239.463L225.71 266.153L225.056 265.499ZM209.662 265.363L225.383 265.363L225.383 266.288L209.662 266.288L209.662 265.363ZM288.187 187.91L209.99 266.153L209.335 265.498L287.533 187.255L288.187 187.91ZM341.049 188.045L287.86 188.045L287.86 187.12L341.049 187.12L341.049 188.045ZM287.698 186.136L341.559 186.136L341.559 187.062L287.698 187.062L287.698 186.136ZM194.668 278.984L287.371 186.272L288.025 186.926L195.322 279.638L194.668 278.984ZM184.788 268.448L195.322 278.984L194.668 279.638L184.134 269.103L184.788 268.448ZM278.382 175.407L184.788 269.102L184.134 268.448L277.728 174.753L278.382 175.407ZM277.478 175.003L277.728 174.753L278.382 175.407L278.133 175.657L277.478 175.003ZM183.648 267.886L276.975 174.613L277.629 175.267L184.302 268.541L183.648 267.886ZM173.282 256.79L184.303 267.888L183.646 268.54L172.626 257.442L173.282 256.79ZM228.141 202.519L173.281 257.443L172.627 256.789L227.487 201.865L228.141 202.519ZM228.279 202.401L228.117 202.541L227.511 201.842L227.673 201.701L228.279 202.401ZM228.439 154.01L228.439 202.051L227.513 202.051L227.513 154.01L228.439 154.01ZM133.899 59.1446L228.304 153.683L227.649 154.337L133.244 59.7985L133.899 59.1446ZM133.646 55.7641C134.721 56.78 134.801 58.5904 133.943 59.7472L133.2 59.1959C133.801 58.3862 133.719 57.1062 133.011 56.4365L133.646 55.7641ZM129.353 55.7749C130.506 54.6085 132.504 54.6085 133.658 55.7749L133 56.4256C132.208 55.6255 130.802 55.6255 130.011 56.4256L129.353 55.7749ZM129.353 60.0779C128.202 58.9143 128.202 56.9385 129.353 55.7749L130.011 56.4256C129.217 57.2286 129.217 58.6242 130.011 59.4272L129.353 60.0779ZM133.275 60.4086C132.143 61.2262 130.414 61.2486 129.339 60.0633L130.025 59.4418C130.733 60.2231 131.921 60.2455 132.733 59.6584L133.275 60.4086ZM201.961 129.754L132.677 60.3604L133.332 59.7066L202.616 129.1L201.961 129.754ZM181.463 128.964L202.288 128.964L202.288 129.89L181.463 129.89L181.463 128.964ZM144.433 91.7341L181.79 129.1L181.135 129.754L143.779 92.3884L144.433 91.7341ZM144.181 88.3536C145.255 89.3696 145.336 91.18 144.478 92.3369L143.734 91.7856C144.335 90.9758 144.253 89.6958 143.545 89.0261L144.181 88.3536ZM139.887 88.3645C141.041 87.1981 143.038 87.1981 144.192 88.3645L143.534 89.0152C142.743 88.2151 141.337 88.2151 140.545 89.0152L139.887 88.3645ZM139.887 92.6675C138.737 91.5039 138.737 89.5281 139.887 88.3645L140.545 89.0152C139.751 89.8183 139.751 91.2138 140.545 92.0168L139.887 92.6675ZM143.81 92.9982C142.678 93.8158 140.948 93.8382 139.874 92.6529L140.559 92.0314C141.268 92.8127 142.455 92.8351 143.268 92.248L143.81 92.9982ZM180.973 130.737L143.211 92.9502L143.866 92.296L181.628 130.083L180.973 130.737ZM227 154.758L203.014 130.737L203.669 130.083L227.655 154.104L227 154.758ZM226.865 201.349L226.865 154.431L227.791 154.431L227.791 201.349L226.865 201.349ZM182.837 245.271L227 201.022L227.655 201.676L183.492 245.924L182.837 245.271ZM183.627 221.717L183.627 245.598L182.702 245.598L182.702 221.717L183.627 221.717ZM210.638 194.933L183.491 222.045L182.837 221.39L209.984 194.279L210.638 194.933ZM210.776 194.815L210.614 194.956L210.008 194.256L210.17 194.116L210.776 194.815ZM210.936 170.304L210.936 194.466L210.01 194.466L210.01 170.304L210.936 170.304ZM212.346 169.923C211.87 170.418 211.188 170.767 210.473 170.767L210.473 169.842C210.892 169.842 211.344 169.629 211.679 169.281L212.346 169.923ZM212.341 165.624C213.492 166.788 213.492 168.764 212.341 169.927L211.683 169.277C212.478 168.474 212.478 167.078 211.683 166.275L212.341 165.624ZM208.037 165.624C209.19 164.458 211.188 164.458 212.341 165.624L211.683 166.275C210.892 165.475 209.486 165.475 208.695 166.275L208.037 165.624ZM208.037 169.927C206.886 168.764 206.886 166.788 208.037 165.624L208.695 166.275C207.901 167.078 207.901 168.474 208.695 169.277L208.037 169.927ZM209.906 170.767C209.191 170.767 208.508 170.418 208.032 169.923L208.699 169.281C209.034 169.629 209.486 169.842 209.906 169.842L209.906 170.767ZM209.443 193.904L209.443 170.304L210.368 170.304L210.368 193.904L209.443 193.904ZM182.432 220.687L209.579 193.576L210.233 194.231L183.086 221.342L182.432 220.687ZM182.294 220.806L182.456 220.665L183.062 221.364L182.9 221.505L182.294 220.806ZM182.134 246.159L182.134 221.155L183.06 221.155L183.06 246.159L182.134 246.159ZM171.979 256.086L182.271 245.832L182.924 246.487L172.632 256.742L171.979 256.086ZM161.289 244.709L172.633 256.087L171.978 256.741L160.633 245.362L161.289 244.709ZM153.746 251.592L160.634 244.708L161.288 245.363L154.4 252.246L153.746 251.592ZM154.536 199.944L154.536 251.919L153.61 251.919L153.61 199.944L154.536 199.944ZM178.306 176.25L154.401 200.27L153.745 199.618L177.65 175.597L178.306 176.25ZM181.618 175.979C180.579 176.962 178.874 177.141 177.707 176.298L178.249 175.548C179.027 176.11 180.24 176.008 180.983 175.306L181.618 175.979ZM181.63 171.665C182.78 172.828 182.78 174.804 181.63 175.968L180.972 175.317C181.766 174.514 181.766 173.118 180.972 172.315L181.63 171.665ZM177.325 171.665C178.479 170.498 180.476 170.498 181.63 171.665L180.972 172.315C180.18 171.515 178.774 171.515 177.983 172.315L177.325 171.665ZM177.039 175.637C176.17 174.465 176.282 172.815 177.311 171.679L177.997 172.301C177.244 173.132 177.194 174.292 177.783 175.086L177.039 175.637ZM153.259 198.915L177.083 175.035L177.739 175.688L153.915 199.568L153.259 198.915ZM153.122 199.033L153.284 198.892L153.89 199.591L153.728 199.732L153.122 199.033ZM152.962 220.593L152.962 199.382L153.888 199.382L153.888 220.593L152.962 220.593ZM135.844 202.286L153.753 220.267L153.097 220.92L135.189 202.94L135.844 202.286ZM135.979 182.525L135.979 202.613L135.054 202.613L135.054 182.525L135.979 182.525ZM174.902 143.801L135.844 182.853L135.189 182.198L174.248 143.147L174.902 143.801ZM178.215 143.529C177.175 144.513 175.47 144.692 174.304 143.849L174.846 143.099C175.624 143.661 176.836 143.559 177.579 142.857L178.215 143.529ZM178.226 139.216C179.377 140.379 179.377 142.355 178.226 143.519L177.568 142.868C178.362 142.065 178.362 140.669 177.568 139.866L178.226 139.216ZM173.922 139.216C175.075 138.049 177.073 138.049 178.226 139.216L177.568 139.866C176.777 139.066 175.371 139.066 174.58 139.866L173.922 139.216ZM173.636 143.188C172.766 142.015 172.878 140.366 173.908 139.23L174.593 139.852C173.84 140.683 173.79 141.842 174.379 142.637L173.636 143.188ZM134.784 181.496L173.68 142.585L174.335 143.239L135.438 182.15L134.784 181.496ZM134.646 181.614L134.808 181.473L135.414 182.173L135.252 182.313L134.646 181.614ZM134.486 203.315L134.486 181.964L135.412 181.964L135.412 203.315L134.486 203.315ZM153.097 222.184L134.621 203.642L135.277 202.989L153.753 221.531L153.097 222.184ZM152.962 252.621L152.962 221.858L153.888 221.858L153.888 252.621L152.962 252.621ZM143.292 262.128L153.097 252.294L153.753 252.948L143.947 262.781L143.292 262.128ZM135.682 253.84L143.947 262.127L143.292 262.781L135.027 254.493L135.682 253.84ZM135.817 235.343L135.817 254.166L134.892 254.166L134.892 235.343L135.817 235.343ZM123.12 222.513L135.681 235.015L135.028 235.671L122.468 223.169L123.12 222.513ZM122.869 219.133C123.951 220.157 124.01 221.817 123.182 223.093L122.406 222.589C123.037 221.617 122.933 220.468 122.233 219.806L122.869 219.133ZM118.575 219.144C119.729 217.978 121.726 217.978 122.88 219.144L122.222 219.795C121.431 218.995 120.025 218.995 119.233 219.795L118.575 219.144ZM118.575 223.447C117.425 222.284 117.425 220.308 118.575 219.144L119.233 219.795C118.439 220.598 118.439 221.994 119.233 222.797L118.575 223.447ZM122.498 223.778C121.366 224.596 119.636 224.618 118.562 223.433L119.247 222.811C119.956 223.593 121.143 223.615 121.956 223.028L122.498 223.778ZM134.461 236.233L121.9 223.731L122.553 223.075L135.114 235.577L134.461 236.233ZM134.324 253.604L134.324 235.905L135.25 235.905L135.25 253.604L134.324 253.604ZM107.725 225.885L135.114 253.277L134.46 253.932L107.07 226.54L107.725 225.885ZM107.86 184.913L107.86 226.212L106.935 226.212L106.935 184.913L107.86 184.913ZM148.971 143.942L107.725 185.24L107.07 184.586L148.316 143.288L148.971 143.942ZM149.109 143.824L148.947 143.964L148.341 143.265L148.503 143.124L149.109 143.824ZM149.269 127.882L149.269 143.474L148.343 143.474L148.343 127.882L149.269 127.882ZM125.795 104.236L149.133 127.554L148.479 128.209L125.141 104.891L125.795 104.236ZM125.543 100.856C126.626 101.879 126.684 103.54 125.856 104.815L125.08 104.311C125.711 103.339 125.607 102.19 124.907 101.528L125.543 100.856ZM121.25 100.867C122.403 99.7001 124.401 99.7001 125.554 100.867L124.896 101.517C124.105 100.717 122.699 100.717 121.908 101.517L121.25 100.867ZM121.25 105.17C120.099 104.006 120.099 102.03 121.25 100.867L121.908 101.517C121.113 102.32 121.113 103.716 121.908 104.519L121.25 105.17ZM125.172 105.5C124.04 106.318 122.31 106.34 121.236 105.155L121.921 104.533C122.63 105.315 123.817 105.337 124.63 104.75L125.172 105.5ZM147.912 128.771L124.574 105.452L125.228 104.798L148.566 128.116L147.912 128.771ZM147.776 142.912L147.776 128.444L148.701 128.444L148.701 142.912L147.776 142.912ZM106.665 183.884L147.911 142.585L148.566 143.239L107.32 184.538L106.665 183.884ZM106.527 184.002L106.689 183.861L107.295 184.561L107.133 184.701L106.527 184.002ZM106.368 226.774L106.368 184.352L107.293 184.352L107.293 226.774L106.368 226.774ZM142.725 263.343L106.503 227.101L107.158 226.447L143.38 262.689L142.725 263.343ZM135.432 269.994L142.725 262.689L143.38 263.343L136.087 270.648L135.432 269.994ZM89.0873 222.935L136.087 269.994L135.432 270.648L88.4325 223.589L89.0873 222.935ZM89.2226 145.862L89.2226 223.262L88.2972 223.262L88.2972 145.862L89.2226 145.862ZM75.3931 131.77L89.0879 145.536L88.4318 146.189L74.737 132.422L75.3931 131.77ZM75.5278 60.8763L75.5278 132.096L74.6024 132.096L74.6024 60.8763L75.5278 60.8763ZM19.0737 4.21972L75.3923 60.5492L74.7379 61.2035L18.4193 4.87403L19.0737 4.21972ZM18.5002 1.40414C19.3682 2.24015 19.6508 3.56662 19.1743 4.72316L18.3187 4.3706C18.6524 3.56059 18.4489 2.63949 17.8582 2.07068L18.5002 1.40414ZM93.7871 313.54L161.288 381.107L160.634 381.761L93.1324 314.194L93.7871 313.54ZM161.288 246.627L93.7871 314.194L93.1324 313.54L160.634 245.973L161.288 246.627ZM228.135 314.194L160.634 246.627L161.288 245.973L228.79 313.54L228.135 314.194ZM160.634 381.107L228.135 313.54L228.79 314.194L161.288 381.761L160.634 381.107ZM1.08103 254.827L84.7081 254.827L84.7081 255.753L1.08103 255.753L1.08103 254.827ZM68.9064 267.47L80.6564 267.47L80.6564 268.395L68.9064 268.395L68.9064 267.47ZM77.9822 344.531L56.5083 344.531L56.5083 343.606L77.9822 343.606L77.9822 344.531ZM155.694 425.08L174.089 425.08L174.089 426.005L155.694 426.005L155.694 425.08ZM240.374 439.069L224.086 439.069L224.086 438.144L240.374 438.144L240.374 439.069ZM324.488 410.132L273.679 410.132L273.679 409.207L324.488 409.207L324.488 410.132ZM470.997 471.378L385.749 471.378L385.749 470.453L470.997 470.453L470.997 471.378ZM273.922 408.083L324.731 408.083L324.731 409.008L273.922 409.008L273.922 408.083ZM336.156 398.332L277.812 398.332L277.812 397.407L336.156 397.407L336.156 398.332ZM278.055 396.424L336.4 396.424L336.4 397.349L278.055 397.349L278.055 396.424ZM290.777 312.281L325.703 312.281L325.703 313.206L290.777 313.206L290.777 312.281ZM253.907 277.303L264.198 277.303L264.198 278.228L253.907 278.228L253.907 277.303ZM252.043 238.673L272.707 238.673L272.707 239.599L252.043 239.599L252.043 238.673ZM203.342 130.873L181.301 130.873L181.301 129.947L203.342 129.947L203.342 130.873ZM345.719 190.313C344.679 191.297 342.975 191.476 341.808 190.633L342.35 189.883C343.128 190.445 344.34 190.343 345.083 189.641L345.719 190.313ZM345.73 186C346.881 187.163 346.881 189.139 345.73 190.302L345.072 189.652C345.866 188.849 345.866 187.453 345.072 186.65L345.73 186ZM341.426 186C342.579 184.833 344.577 184.833 345.73 186L345.072 186.65C344.281 185.85 342.875 185.85 342.084 186.65L341.426 186ZM342.122 186.606C341.766 187.07 341.379 187.785 341.307 188.431C341.272 188.745 341.315 189.014 341.44 189.232C341.563 189.446 341.795 189.663 342.237 189.823L341.921 190.693C341.317 190.474 340.891 190.133 340.638 189.694C340.388 189.259 340.337 188.779 340.387 188.329C340.485 187.447 340.981 186.574 341.387 186.043L342.122 186.606Z" fill="#1B4ED1"/>
</svg>
