<svg width="492" height="509" viewBox="0 0 492 509" fill="none" xmlns="http://www.w3.org/2000/svg">
<path opacity="0.1" d="M210.512 333.79L210.183 333.464L210.188 333.459L210.194 333.454L210.512 333.79ZM213.834 333.509L213.676 333.944L213.616 333.922L213.563 333.884L213.834 333.509ZM210.512 337.442L210.841 337.117L210.512 337.442ZM214.158 337.442L214.526 337.724L214.508 337.747L214.487 337.767L214.158 337.442ZM477.467 507.263L477.817 507.565L477.807 507.577L477.796 507.588L477.467 507.263ZM473.821 507.263L474.142 506.929L474.15 506.937L473.821 507.263ZM477.467 503.47L477.796 503.144L477.807 503.155L477.817 503.167L477.467 503.47ZM473.821 503.47L473.42 503.239L473.45 503.187L473.492 503.144L473.821 503.47ZM473.74 503.61L474.141 503.841L473.839 504.364L473.413 503.938L473.74 503.61ZM417.502 447.421L417.175 447.749L417.039 447.613V447.421H417.502ZM417.502 377.466H417.039V376.348L417.829 377.139L417.502 377.466ZM490.919 450.933H491.382V452.051L490.592 451.26L490.919 450.933ZM490.919 449.809L491.246 449.482L491.382 449.618V449.809H490.919ZM403.726 362.576L403.399 362.903L403.264 362.768V362.576H403.726ZM403.726 285.176L404.054 284.849L404.189 284.984V285.176H403.726ZM356.727 238.117L356.399 238.444L356.071 238.116L356.401 237.789L356.727 238.117ZM365.073 229.829L364.747 229.501L365.074 229.176L365.4 229.502L365.073 229.829ZM410.857 275.624L411.185 275.296L411.397 275.509L411.289 275.79L410.857 275.624ZM410.695 276.045L410.368 276.372L410.156 276.159L410.263 275.879L410.695 276.045ZM454.211 319.591L454.538 319.264L454.673 319.4V319.591H454.211ZM454.211 329.144L453.883 329.47L453.748 329.335V329.144H454.211ZM463.043 337.993L463.371 337.666L463.506 337.802V337.993H463.043ZM463.043 365.245L462.716 365.572L462.58 365.437V365.245H463.043ZM490.919 393.058H491.382V394.174L490.592 393.386L490.919 393.058ZM490.919 391.935L491.246 391.607L491.382 391.743V391.935H490.919ZM463.61 364.683L463.284 365.011L463.148 364.875V364.683H463.61ZM463.61 338.555H463.148V337.44L463.937 338.228L463.61 338.555ZM474.874 349.793L475.201 349.465L475.466 349.73L475.262 350.045L474.874 349.793ZM475.117 353.164L475.435 352.828L475.441 352.833L475.446 352.839L475.117 353.164ZM478.764 353.164L479.093 353.49L479.093 353.49L478.764 353.164ZM478.764 349.512L478.435 349.837L478.428 349.83L478.421 349.823L478.764 349.512ZM475.441 349.231L475.712 349.606L475.393 349.837L475.114 349.558L475.441 349.231ZM454.778 328.582L454.451 328.909L454.315 328.773V328.582H454.778ZM454.778 319.029L455.105 318.703L455.24 318.838V319.029H454.778ZM411.587 275.764L411.259 276.091L410.471 275.301H411.587V275.764ZM431.683 275.764V275.301H431.875L432.01 275.437L431.683 275.764ZM490.919 335.043H491.382V336.161L490.592 335.37L490.919 335.043ZM490.919 333.92L491.246 333.593L491.382 333.728V333.92H490.919ZM432.818 275.764L432.49 276.091L431.701 275.301H432.818V275.764ZM490.919 275.764H491.382L491.382 276.227H490.919L490.919 275.764ZM490.919 274.781V274.318H491.382V274.781H490.919ZM411.182 274.781V275.243H410.99L410.854 275.107L411.182 274.781ZM365.64 229.127L365.313 229.454L364.986 229.126L365.314 228.8L365.64 229.127ZM374.23 220.558L373.903 220.231L374.231 219.904L374.558 220.232L374.23 220.558ZM407.292 253.71V254.173H407.1L406.964 254.037L407.292 253.71ZM490.919 253.71H491.382V254.173H490.919V253.71ZM490.919 252.446V251.983H491.382V252.446H490.919ZM431.683 252.446V252.908H430.566L431.356 252.118L431.683 252.446ZM449.673 234.465L449.346 234.138L449.481 234.002H449.673V234.465ZM490.919 234.465H491.382V234.928H490.919V234.465ZM490.919 233.482V233.019H491.382V233.482H490.919ZM449.511 233.482L449.184 233.154L449.319 233.019H449.511V233.482ZM430.468 252.446L430.794 252.773L430.659 252.908H430.468V252.446ZM407.454 252.446V252.908H407.262L407.126 252.772L407.454 252.446ZM374.797 219.716L374.47 220.042L374.143 219.715L374.471 219.388L374.797 219.716ZM382.414 212.13L382.088 211.802L382.415 211.476L382.742 211.803L382.414 212.13ZM411.344 241.067V241.53H411.152L411.016 241.395L411.344 241.067ZM423.094 241.067L423.42 241.395L423.285 241.53H423.094V241.067ZM446.755 217.468L446.429 217.14L446.564 217.005H446.755V217.468ZM491 217.468H491.463V217.931H491V217.468ZM491 216.485V216.022H491.463V216.485H491ZM446.593 216.485L446.267 216.157L446.402 216.022H446.593V216.485ZM422.931 240.084L423.258 240.412L423.123 240.547H422.931V240.084ZM411.587 240.084V240.547H411.395L411.259 240.41L411.587 240.084ZM390.599 219.013L390.271 219.34L389.485 218.55H390.599V219.013ZM401.133 219.013V218.55H401.326L401.461 218.687L401.133 219.013ZM411.344 229.268V229.73H411.151L411.016 229.594L411.344 229.268ZM419.285 229.268L419.612 229.595L419.477 229.73H419.285V229.268ZM436.95 211.568L436.623 211.241L436.901 210.962L437.221 211.193L436.95 211.568ZM440.192 211.287L440.521 211.613L440.515 211.618L440.51 211.623L440.192 211.287ZM440.192 207.635L439.863 207.96L440.192 207.635ZM436.545 207.635L436.216 207.31L436.216 207.309L436.545 207.635ZM436.302 211.006L436.659 210.712L436.926 211.036L436.629 211.333L436.302 211.006ZM419.042 228.284L419.369 228.611L419.234 228.747H419.042V228.284ZM411.425 228.284V228.747H411.232L411.097 228.611L411.425 228.284ZM401.214 218.03V217.567H401.407L401.542 217.703L401.214 218.03ZM389.545 218.03V218.492H389.353L389.217 218.356L389.545 218.03ZM382.982 211.428L382.654 211.754L382.328 211.426L382.655 211.1L382.982 211.428ZM393.678 200.752L393.351 200.424L393.487 200.289H393.678V200.752ZM409.399 200.752L409.726 201.079L409.59 201.214H409.399V200.752ZM428.928 181.226L428.601 180.899L428.88 180.62L429.199 180.851L428.928 181.226ZM432.25 180.945L432.579 181.27L432.574 181.276L432.568 181.281L432.25 180.945ZM432.25 177.293L432.579 176.967L432.579 176.968L432.25 177.293ZM428.604 177.293L428.261 176.982L428.268 176.975L428.275 176.967L428.604 177.293ZM428.361 180.664L428.732 180.389L428.97 180.709L428.688 180.991L428.361 180.664ZM409.318 199.768L409.645 200.095L409.51 200.231H409.318V199.768ZM394.732 199.768V200.231H393.62L394.403 199.442L394.732 199.768ZM399.756 194.711L400.085 194.386L400.407 194.712L400.084 195.038L399.756 194.711ZM391.976 186.845L391.647 187.17L391.323 186.842L391.65 186.517L391.976 186.845ZM413.126 165.774L412.8 165.446L412.935 165.311H413.126V165.774ZM435.33 165.774V165.311H435.522L435.657 165.447L435.33 165.774ZM458.748 189.233L459.076 188.906L459.358 189.188L459.12 189.509L458.748 189.233ZM458.992 192.604L459.309 192.268L459.315 192.273L459.321 192.279L458.992 192.604ZM462.638 192.604L462.309 192.279L462.309 192.279L462.638 192.604ZM462.638 188.952L462.309 189.277L462.302 189.27L462.295 189.263L462.638 188.952ZM459.316 188.671L459.587 189.046L459.267 189.277L458.988 188.998L459.316 188.671ZM447.242 176.59L446.914 176.918L446.125 176.128H447.242V176.59ZM491 176.59H491.463V177.053H491V176.59ZM491 175.467L490.697 175.117L491.463 174.453V175.467H491ZM490.838 175.607L491.141 175.957L491.011 176.07H490.838V175.607ZM446.188 175.607V176.07H445.997L445.861 175.935L446.188 175.607ZM435.492 164.931V164.469H435.683L435.819 164.604L435.492 164.931ZM414.018 164.931V165.394H412.897L413.691 164.603L414.018 164.931ZM422.769 156.222L422.443 155.894L422.578 155.759H422.769V156.222ZM473.01 156.222L473.337 156.55L473.202 156.685H473.01V156.222ZM485.976 143.299L485.649 142.971L485.785 142.836H485.976V143.299ZM490.919 143.299H491.382V143.761H490.919V143.299ZM490.919 142.315V141.853H491.382V142.315H490.919ZM486.948 142.315V142.778H485.824L486.623 141.987L486.948 142.315ZM490.919 138.382H491.382V138.575L491.245 138.711L490.919 138.382ZM490.919 137.258L490.591 136.931L491.382 136.139V137.258H490.919ZM472.848 155.379L473.176 155.706L473.04 155.842H472.848V155.379ZM422.607 155.379L422.28 155.052L422.415 154.916H422.607V155.379ZM391.328 186.704L391.656 187.031L391.328 187.359L391.001 187.031L391.328 186.704ZM376.742 172.095L376.415 172.422L376.088 172.095L376.415 171.768L376.742 172.095ZM413.126 135.713L412.799 135.386L412.935 135.25H413.126V135.713ZM452.266 135.713L452.593 136.04L452.457 136.176H452.266V135.713ZM491 96.9426H491.463V97.1342L491.327 97.2697L491 96.9426ZM491 95.8188L490.673 95.4918L491.463 94.701V95.8188H491ZM452.266 134.589L452.593 134.916L452.457 135.052H452.266V134.589ZM414.261 134.589V135.052H413.146L413.933 134.263L414.261 134.589ZM462.314 86.4072H462.777V86.5985L462.642 86.734L462.314 86.4072ZM462.314 47.9177H461.851V47.7266L461.986 47.5912L462.314 47.9177ZM491 19.1209H491.463V19.3121L491.328 19.4475L491 19.1209ZM491 17.9972L490.673 17.6701L491.463 16.8794V17.9972H491ZM461.666 47.3559H461.203V47.1643L461.338 47.0288L461.666 47.3559ZM461.666 85.8453H462.128V86.0369L461.993 86.1724L461.666 85.8453ZM376.175 171.393L376.502 171.72L376.176 172.047L375.848 171.721L376.175 171.393ZM363.615 158.891L363.288 159.219L362.96 158.892L363.287 158.564L363.615 158.891ZM414.99 107.478H415.453V107.67L415.317 107.805L414.99 107.478ZM414.99 30.0778H414.527V29.8858L414.663 29.7502L414.99 30.0778ZM444 1.14038V0.677673H445.119L444.327 1.46799L444 1.14038ZM442.866 1.14038L442.539 0.812805L442.674 0.677673H442.866V1.14038ZM414.423 29.5158H413.96V29.3238L414.096 29.1882L414.423 29.5158ZM414.423 106.916H414.886V107.108L414.75 107.243L414.423 106.916ZM363.047 158.329L363.375 158.656L363.049 158.982L362.721 158.657L363.047 158.329ZM355.268 150.603L354.942 150.931L354.613 150.604L354.941 150.276L355.268 150.603ZM393.354 112.535H393.817V112.727L393.681 112.862L393.354 112.535ZM393.354 21.7899H392.891V21.5978L393.027 21.4622L393.354 21.7899ZM411.668 3.52847H412.13V3.72052L411.994 3.85611L411.668 3.52847ZM411.668 1.14038V0.677673H412.13V1.14038H411.668ZM411.101 1.14038H410.638V0.677673H411.101V1.14038ZM411.101 2.96652H411.563V3.15857L411.427 3.29416L411.101 2.96652ZM392.787 21.228H392.324V21.0359L392.46 20.9004L392.787 21.228ZM392.787 111.973H393.249V112.165L393.114 112.3L392.787 111.973ZM354.701 150.041L355.028 150.368L354.702 150.695L354.375 150.369L354.701 150.041ZM344.247 139.646L343.921 139.974L343.593 139.648L343.92 139.32L344.247 139.646ZM373.339 110.428H373.801V110.619L373.667 110.754L373.339 110.428ZM373.339 1.14038V0.677673H373.801V1.14038H373.339ZM372.771 1.14038H372.309V0.677673H372.771V1.14038ZM372.771 47.6368H373.234V48.7551L372.444 47.9637L372.771 47.6368ZM358.185 33.0276L357.858 33.3545L357.723 33.219V33.0276H358.185ZM358.185 1.14038V0.677673H358.648V1.14038H358.185ZM357.618 1.14038H357.155V0.677673H357.618V1.14038ZM357.618 33.5895L357.291 33.9165L357.155 33.781V33.5895H357.618ZM372.771 48.7606L373.099 48.4336L373.234 48.5691V48.7606H372.771ZM372.771 75.5908H373.234V76.7095L372.444 75.9177L372.771 75.5908ZM353.566 56.3461L353.239 56.6729L352.973 56.4061L353.18 56.0914L353.566 56.3461ZM353.242 53.1152L352.924 53.4514L352.919 53.4461L352.913 53.4406L353.242 53.1152ZM349.596 53.1152L349.267 52.7899L349.596 53.1152ZM349.596 56.7675L349.293 57.1172L349.279 57.1055L349.267 57.0929L349.596 56.7675ZM352.999 56.908L352.696 56.5583L353.022 56.2759L353.327 56.5811L352.999 56.908ZM372.771 76.7146L373.099 76.3877L373.234 76.5232V76.7146H372.771ZM372.771 109.866H373.234V110.057L373.099 110.193L372.771 109.866ZM343.68 139.084L344.008 139.411L343.682 139.739L343.354 139.412L343.68 139.084ZM334.361 129.813L334.035 130.141L333.706 129.814L334.034 129.486L334.361 129.813ZM348.542 115.625H349.005V115.817L348.87 115.953L348.542 115.625ZM348.542 94.6951L348.867 94.3654L349.005 94.5013V94.6951H348.542ZM344.977 91.1832L344.652 91.5128L344.514 91.3769V91.1832H344.977ZM344.977 80.5074L345.304 80.1805L345.439 80.316V80.5074H344.977ZM319.451 54.9413L319.124 55.2683L318.988 55.1328V54.9413H319.451ZM319.451 36.9609L319.779 36.6341L319.914 36.7695V36.9609H319.451ZM298.706 16.1709L298.379 16.4977L298.097 16.2155L298.335 15.8953L298.706 16.1709ZM298.463 12.7997L298.145 13.1359L298.14 13.1306L298.134 13.1251L298.463 12.7997ZM294.817 16.452L295.146 16.1266L295.153 16.1338L295.16 16.1412L294.817 16.452ZM298.139 16.7328L297.868 16.3578L298.188 16.1268L298.467 16.406L298.139 16.7328ZM318.884 37.5228L319.211 37.196L319.347 37.3314V37.5228H318.884ZM318.884 55.5033L318.556 55.8302L318.421 55.6947V55.5033H318.884ZM344.41 81.0692L344.737 80.7423L344.872 80.8778V81.0692H344.41ZM344.41 90.6214H344.872V91.7406L344.082 90.9481L344.41 90.6214ZM301.543 47.6368L301.215 47.9635L300.949 47.6967L301.156 47.3821L301.543 47.6368ZM301.218 44.4059L300.901 44.7422L300.895 44.7368L300.889 44.7313L301.218 44.4059ZM297.572 44.4059L297.901 44.7313L297.572 44.4059ZM297.572 48.0582L297.269 48.4079L297.255 48.3962L297.243 48.3836L297.572 48.0582ZM300.975 48.1988L300.672 47.8491L300.998 47.5667L301.303 47.8719L300.975 48.1988ZM335.334 82.6145L335.661 82.2876L336.449 83.0772H335.334V82.6145ZM318.155 82.6145V83.0772H317.963L317.827 82.9414L318.155 82.6145ZM298.382 62.8079L298.055 63.1348L297.773 62.8525L298.011 62.5322L298.382 62.8079ZM298.139 59.4365L297.821 59.7727L297.816 59.7674L297.81 59.7618L298.139 59.4365ZM294.493 59.4365L294.164 59.1111L294.164 59.1111L294.493 59.4365ZM294.493 63.0888L294.822 62.7634L294.829 62.7706L294.835 62.778L294.493 63.0888ZM297.815 63.3697L297.544 62.9946L297.863 62.7639L298.142 63.0424L297.815 63.3697ZM317.911 83.4572V83.9199H317.72L317.584 83.7845L317.911 83.4572ZM336.306 83.4572V82.9945H336.498L336.633 83.1299L336.306 83.4572ZM347.975 95.1165L348.302 94.7892L348.438 94.9247V95.1165H347.975ZM347.975 114.783H348.438V114.974L348.302 115.11L347.975 114.783ZM333.794 128.97L334.121 129.298L333.796 129.623L333.468 129.299L333.794 128.97ZM330.958 126.161L330.63 125.834L330.956 125.508L331.284 125.832L330.958 126.161ZM327.311 129.813L327.639 130.14L327.312 130.468L326.984 130.14L327.311 129.813ZM267.913 70.3933V69.9306H268.105L268.241 70.0662L267.913 70.3933ZM251.626 70.3933V70.856H251.244L251.171 70.4807L251.626 70.3933ZM250.896 69.1292L251.225 68.8038L251.23 68.8084L250.896 69.1292ZM247.25 69.1292L247.579 69.4545L247.579 69.4545L247.25 69.1292ZM247.25 72.7814L246.921 73.1068H246.921L247.25 72.7814ZM250.896 72.7814L250.567 72.4561L250.597 72.4256L250.633 72.4012L250.896 72.7814ZM251.626 71.5171L251.171 71.4297L251.244 71.0544H251.626V71.5171ZM267.67 71.5171V71.0544H267.862L267.998 71.1901L267.67 71.5171ZM326.744 130.656L327.071 130.329L327.4 130.658L327.07 130.985L326.744 130.656ZM317.668 139.646L317.994 139.975L317.667 140.299L317.341 139.973L317.668 139.646ZM268.319 90.1999L267.991 90.5268L267.727 90.2619L267.931 89.948L268.319 90.1999ZM268.076 86.8287L267.758 87.1649L267.752 87.1595L267.747 87.154L268.076 86.8287ZM264.429 86.8287L264.758 87.154L264.429 86.8287ZM264.429 90.4808L264.758 90.1555L264.765 90.1626L264.772 90.1701L264.429 90.4808ZM267.751 90.7619L267.48 90.3868L267.8 90.1563L268.078 90.4343L267.751 90.7619ZM317.182 140.068L317.509 139.74L317.837 140.067L317.509 140.395L317.182 140.068ZM307.782 149.479L308.11 149.806L307.782 150.134L307.455 149.806L307.782 149.479ZM238.012 79.6645L237.685 79.9916L237.549 79.8561V79.6645H238.012ZM238.012 21.228H237.549V21.0363L237.685 20.9008L238.012 21.228ZM258.108 1.14038V0.677673H259.226L258.435 1.46762L258.108 1.14038ZM256.974 1.14038L256.647 0.812469L256.783 0.677673H256.974V1.14038ZM244.981 13.0806L245.307 13.4085L244.981 13.7335L244.654 13.4085L244.981 13.0806ZM232.988 1.14038V0.677673L233.179 0.677673L233.314 0.812469L232.988 1.14038ZM231.853 1.14038L231.527 1.46832L230.733 0.677673H231.853V1.14038ZM244.414 13.6425L244.74 13.3146L245.067 13.6405L244.742 13.9684L244.414 13.6425ZM237.445 20.666H236.982V20.4754L237.116 20.3401L237.445 20.666ZM237.445 66.6005H237.907V67.7155L237.118 66.9281L237.445 66.6005ZM225.614 54.8008L225.287 55.1284L225.151 54.9929V54.8008H225.614ZM225.614 26.1445L225.941 25.8175L226.076 25.953V26.1445H225.614ZM201.628 2.12363L201.3 2.45056L201.05 2.19962L201.227 1.8924L201.628 2.12363ZM202.033 1.14038V0.677673H202.648L202.477 1.26862L202.033 1.14038ZM197.009 1.14038L196.577 1.30646L196.335 0.677673H197.009V1.14038ZM197.738 2.40469L198.072 2.08389L198.081 2.09393L197.738 2.40469ZM201.061 2.68561L200.79 2.31052L201.109 2.07959L201.388 2.35867L201.061 2.68561ZM225.047 26.7064L225.374 26.3795L225.509 26.515V26.7064H225.047ZM225.047 55.3628L224.72 55.6905L224.584 55.5548V55.3628H225.047ZM237.445 67.7245L237.771 67.3968L237.907 67.5324V67.7245H237.445ZM237.445 80.2264L237.117 80.5535L236.982 80.4179V80.2264H237.445ZM307.215 150.041L307.542 149.714L307.87 150.042L307.542 150.369L307.215 150.041ZM296.924 160.296L297.25 160.623L296.923 160.95L296.596 160.623L296.924 160.296ZM161.597 24.8803L161.27 25.2074L161.134 25.0718V24.8803H161.597ZM161.597 0.999969V0.537262H162.06V0.999969H161.597ZM161.03 0.999969H160.567V0.537262H161.03V0.999969ZM161.03 25.4423L160.702 25.7693L160.567 25.6338V25.4423H161.03ZM296.356 160.858L296.684 160.53L297.012 160.859L296.682 161.186L296.356 160.858ZM288.01 169.146L288.336 169.474L288.009 169.799L287.682 169.472L288.01 169.146ZM218.321 99.3306V98.8679H218.513L218.648 99.0037L218.321 99.3306ZM167.512 99.3306V99.7933H167.321L167.185 99.658L167.512 99.3306ZM145.147 76.9955L144.82 77.3229L144.029 76.5328H145.147V76.9955ZM145.309 76.9955H145.772V77.4583H145.309V76.9955ZM145.309 53.2557L145.637 52.9289L145.772 53.0644V53.2557H145.309ZM119.945 27.8302L119.618 28.157L119.336 27.8748L119.574 27.5546L119.945 27.8302ZM119.702 24.4589L119.384 24.7951L119.379 24.7897L119.373 24.7842L119.702 24.4589ZM116.056 24.4589L116.385 24.7842L116.385 24.7842L116.056 24.4589ZM116.056 28.1111L116.385 27.7858L116.392 27.7929L116.399 27.8004L116.056 28.1111ZM119.378 28.392L119.107 28.0169L119.427 27.7859L119.706 28.0652L119.378 28.392ZM144.742 53.8176L145.069 53.4908L145.205 53.6263V53.8176H144.742ZM144.742 76.5741H145.205V77.6911L144.415 76.9013L144.742 76.5741ZM106.251 38.0847V37.622H106.442L106.578 37.7575L106.251 38.0847ZM21.0029 38.0847L20.6757 37.7576L20.8112 37.622H21.0029V38.0847ZM5.42581 53.6685L5.75306 53.9956L5.42472 54.3241L5.09748 53.9945L5.42581 53.6685ZM5.37584 53.6197L5.05786 53.9558L5.05227 53.9505L5.04686 53.945L5.37584 53.6197ZM1.72929 53.6197L1.40028 53.2943H1.4003L1.72929 53.6197ZM1.72929 57.2719L2.05829 56.9466L2.06536 56.9537L2.07212 56.9612L1.72929 57.2719ZM5.05169 57.5529L5.37733 57.8817L5.35178 57.907L5.32262 57.928L5.05169 57.5529ZM5.61893 56.991L5.99056 57.2667L5.96958 57.295L5.94456 57.3197L5.61893 56.991ZM5.87937 54.3344L5.45768 54.5248L5.32632 54.2339L5.55153 54.0078L5.87937 54.3344ZM21.0839 39.0681L20.7561 38.7416L20.8917 38.6054H21.0839V39.0681ZM106.008 39.0681V38.6054H106.199L106.335 38.7412L106.008 39.0681ZM167.269 100.454V100.917H167.077L166.942 100.781L167.269 100.454ZM218.078 100.454V99.9917H218.269L218.405 100.127L218.078 100.454ZM287.443 169.848L287.77 169.521L288.097 169.848L287.77 170.175L287.443 169.848ZM280.15 177.152L280.477 177.479L280.15 177.807L279.822 177.479L280.15 177.152ZM214.188 111.13V110.668H214.38L214.515 110.803L214.188 111.13ZM155.844 111.13V111.593H155.652L155.516 111.457L155.844 111.13ZM127.482 82.7549L127.154 83.082L126.872 82.7997L127.11 82.4792L127.482 82.7549ZM127.238 79.3835L126.921 79.7197L126.915 79.7144L126.909 79.7089L127.238 79.3835ZM123.592 79.3835L123.263 79.0582H123.263L123.592 79.3835ZM123.592 83.0359L123.921 82.7106L123.928 82.7177L123.935 82.7252L123.592 83.0359ZM126.914 83.3168L126.643 82.9417L126.963 82.7105L127.242 82.9903L126.914 83.3168ZM155.6 112.114V112.576H155.408L155.273 112.44L155.6 112.114ZM213.945 112.114V111.651H214.138L214.274 111.788L213.945 112.114ZM223.669 121.947L223.998 121.621L224.777 122.409H223.669V121.947ZM145.876 121.947L145.549 121.62L145.685 121.484H145.876V121.947ZM84.3715 183.474L84.6987 183.801L84.4201 184.079L84.1006 183.849L84.3715 183.474ZM81.0491 183.755L80.7201 183.429L80.7256 183.424L80.7312 183.418L81.0491 183.755ZM81.0491 187.407L80.7201 187.732H80.7201L81.0491 187.407ZM84.6956 187.407L85.0385 187.718L85.0317 187.725L85.0246 187.732L84.6956 187.407ZM84.9387 184.036L84.5671 184.311L84.3302 183.992L84.6104 183.71L84.9387 184.036ZM145.876 122.649L145.548 122.323L145.684 122.186H145.876V122.649ZM224.56 122.649V122.186H224.752L224.887 122.322L224.56 122.649ZM249.195 147.232L249.521 146.904L249.849 147.231L249.523 147.558L249.195 147.232ZM239.552 156.924L239.88 157.251L239.744 157.387H239.552V156.924ZM222.372 156.924L222.046 156.597L222.181 156.462H222.372V156.924ZM206.328 172.938L206.655 173.266L206.376 173.544L206.057 173.313L206.328 172.938ZM203.005 173.219L202.676 172.894L202.682 172.888L202.687 172.883L203.005 173.219ZM203.005 176.871L203.334 176.546H203.334L203.005 176.871ZM206.652 176.871L206.995 177.182L206.988 177.19L206.981 177.197L206.652 176.871ZM206.895 173.5L206.523 173.776L206.285 173.455L206.568 173.172L206.895 173.5ZM222.534 157.908L222.208 157.58L222.343 157.445H222.534V157.908ZM238.498 157.908V157.445H239.615L238.825 158.235L238.498 157.908ZM201.142 195.273L201.469 195.6L201.333 195.736H201.142V195.273ZM166.54 195.273V195.736H166.349L166.213 195.601L166.54 195.273ZM147.254 176.029L146.927 176.356L146.644 176.074L146.882 175.753L147.254 176.029ZM147.011 172.657L146.693 172.993L146.687 172.988L146.682 172.983L147.011 172.657ZM143.364 172.657L143.693 172.983L143.693 172.983L143.364 172.657ZM143.364 176.31L143.693 175.984L143.7 175.991L143.707 175.999L143.364 176.31ZM146.687 176.59L146.416 176.215L146.736 175.984L147.014 176.264L146.687 176.59ZM166.297 196.257V196.719H166.105L165.969 196.583L166.297 196.257ZM201.223 196.257L201.55 196.584L201.414 196.719H201.223V196.257ZM249.681 147.794L249.354 147.467L249.681 147.139L250.009 147.467L249.681 147.794ZM270.263 168.443L270.591 168.116L271.378 168.906H270.263V168.443ZM258.919 168.443L258.592 168.115L258.727 167.98H258.919V168.443ZM249.762 177.574L250.089 177.901L249.81 178.179L249.491 177.949L249.762 177.574ZM246.439 177.855L246.782 178.166L246.776 178.173L246.768 178.18L246.439 177.855ZM246.439 181.507L246.11 181.832H246.11L246.439 181.507ZM250.086 181.507L249.757 181.182L249.762 181.176L249.768 181.171L250.086 181.507ZM250.41 178.276L250.039 178.552L249.8 178.23L250.084 177.948L250.41 178.276ZM259.162 169.567L258.835 169.239L258.971 169.104H259.162V169.567ZM271.398 169.567V169.104H271.59L271.726 169.241L271.398 169.567ZM279.501 177.714L279.829 177.388L280.155 177.715L279.829 178.041L279.501 177.714ZM262.241 194.992L261.912 195.318L261.588 194.991L261.914 194.665L262.241 194.992ZM267.67 200.471L267.999 200.145L268.323 200.472L267.998 200.798L267.67 200.471ZM237.931 230.251L238.258 230.578L238.123 230.714H237.931V230.251ZM227.964 230.251V230.714H227.772L227.637 230.579L227.964 230.251ZM216.133 218.451L215.806 218.779L215.523 218.497L215.761 218.176L216.133 218.451ZM215.89 215.08L215.572 215.416L215.566 215.411L215.561 215.405L215.89 215.08ZM212.243 215.08L211.914 214.755H211.914L212.243 215.08ZM212.243 218.732L212.572 218.407L212.579 218.414L212.586 218.422L212.243 218.732ZM215.566 219.013L215.295 218.638L215.614 218.408L215.893 218.686L215.566 219.013ZM227.802 231.234V231.697H227.61L227.475 231.562L227.802 231.234ZM238.093 231.234L238.419 231.562L238.284 231.697H238.093V231.234ZM259.729 209.742L259.403 209.414L260.192 208.63V209.742H259.729ZM259.729 229.549H260.192V229.74L260.056 229.876L259.729 229.549ZM239.471 249.777L239.798 250.104L239.519 250.382L239.2 250.152L239.471 249.777ZM236.148 250.058L235.819 249.732L235.825 249.727L235.83 249.721L236.148 250.058ZM236.148 253.71L236.477 253.384L236.477 253.384L236.148 253.71ZM239.795 253.71L240.138 254.021L240.131 254.028L240.124 254.035L239.795 253.71ZM240.038 250.338L239.666 250.614L239.428 250.293L239.711 250.011L240.038 250.338ZM260.296 230.111H260.759V230.302L260.623 230.438L260.296 230.111ZM260.296 209.18H259.834V208.988L259.969 208.853L260.296 209.18ZM268.319 201.173L267.992 200.846L268.319 200.519L268.646 200.846L268.319 201.173ZM296.356 229.268L296.684 228.941L297.01 229.268L296.684 229.595L296.356 229.268ZM283.31 242.332L283.637 242.659L283.502 242.794H283.31V242.332ZM266.455 242.332L266.128 242.005L266.263 241.869H266.455V242.332ZM239.795 269.021L240.122 269.348L239.987 269.484H239.795V269.021ZM219.536 269.021V269.484H219.344L219.209 269.348L219.536 269.021ZM191.336 240.786L191.009 241.113L190.727 240.831L190.965 240.511L191.336 240.786ZM191.093 237.415L190.775 237.751L190.77 237.746L190.764 237.74L191.093 237.415ZM187.447 237.415L187.776 237.74H187.776L187.447 237.415ZM187.447 241.067L187.776 240.742L187.783 240.749L187.79 240.757L187.447 241.067ZM190.769 241.348L190.498 240.973L190.818 240.742L191.096 241.021L190.769 241.348ZM219.293 269.864V270.327H219.101L218.966 270.191L219.293 269.864ZM239.957 269.864L240.284 270.191L240.149 270.327H239.957V269.864ZM266.617 243.174L266.29 242.847L266.425 242.712H266.617V243.174ZM282.338 243.174V242.712H283.454L282.665 243.501L282.338 243.174ZM204.14 321.418L204.467 321.745L204.331 321.88H204.14V321.418ZM204.302 322.401L204.629 322.728L204.493 322.864H204.302V322.401ZM297.005 229.689L296.677 229.362L297.005 229.035L297.332 229.362L297.005 229.689ZM307.539 240.224L307.866 239.897L308.193 240.224L307.866 240.551L307.539 240.224ZM213.945 333.92L214.272 334.247L213.617 333.593L213.945 333.92ZM308.025 240.786L307.698 240.459L308.026 240.131L308.354 240.46L308.025 240.786ZM319.046 251.884L319.374 251.558L319.699 251.885L319.373 252.211L319.046 251.884ZM264.186 306.808L264.513 307.135L264.501 307.147L264.489 307.158L264.186 306.808ZM264.024 306.949H263.561V306.738L263.721 306.599L264.024 306.949ZM264.024 354.99L263.696 355.317L263.561 355.182V354.99H264.024ZM358.428 449.528L358.756 449.201L359.038 449.484L358.8 449.804L358.428 449.528ZM358.671 452.9L358.989 452.563L358.995 452.569L359 452.574L358.671 452.9ZM362.318 452.9L361.989 452.574V452.574L362.318 452.9ZM362.318 449.247L361.989 449.573L361.982 449.566L361.975 449.558L362.318 449.247ZM358.996 448.966L359.267 449.342L358.947 449.572L358.668 449.293L358.996 448.966ZM289.712 379.573L289.384 379.9L288.596 379.11H289.712V379.573ZM310.537 379.573V379.11H310.729L310.865 379.246L310.537 379.573ZM347.894 416.939L348.221 416.612L348.503 416.894L348.266 417.214L347.894 416.939ZM348.137 420.31L348.455 419.974L348.461 419.979L348.466 419.985L348.137 420.31ZM351.784 420.31L352.113 420.635V420.635L351.784 420.31ZM351.784 416.658L351.455 416.983L351.448 416.976L351.441 416.969L351.784 416.658ZM348.461 416.377L348.732 416.752L348.413 416.983L348.134 416.704L348.461 416.377ZM310.699 378.59V378.127H310.891L311.027 378.263L310.699 378.59ZM288.658 378.59V379.053H288.466L288.331 378.917L288.658 378.59ZM264.672 354.569L264.345 354.896L264.209 354.76V354.569H264.672ZM264.672 307.651H264.209V307.46L264.345 307.324L264.672 307.651ZM308.836 263.402L308.508 263.076L309.298 262.284V263.402H308.836ZM308.836 287.283H309.298V287.475L309.163 287.61L308.836 287.283ZM281.689 314.394L282.016 314.721L282.005 314.733L281.992 314.744L281.689 314.394ZM281.527 314.534H281.064V314.323L281.224 314.185L281.527 314.534ZM281.527 338.696H281.99V339.158H281.527V338.696ZM279.988 339.398L280.321 339.719L280.317 339.723L279.988 339.398ZM283.634 339.398L283.305 339.723L283.301 339.719L283.634 339.398ZM282.094 338.696V339.158H281.632V338.696H282.094ZM282.094 315.096H281.632V314.904L281.767 314.769L282.094 315.096ZM309.241 287.985L308.914 287.658L308.925 287.646L308.938 287.636L309.241 287.985ZM309.403 287.845H309.866V288.056L309.706 288.194L309.403 287.845ZM309.403 262.841H308.94V262.648L309.076 262.513L309.403 262.841ZM319.694 252.586L319.368 252.258L319.695 251.932L320.022 252.259L319.694 252.586ZM331.039 263.964L331.366 264.292L331.038 264.619L330.711 264.291L331.039 263.964ZM337.927 257.081L337.6 256.754L338.389 255.965V257.081H337.927ZM337.927 309.056H338.389V309.247L338.255 309.382L337.927 309.056ZM314.022 333.077L314.35 333.403L314.071 333.683L313.751 333.452L314.022 333.077ZM310.699 333.358L310.37 333.032L310.376 333.027L310.382 333.021L310.699 333.358ZM310.699 337.01L310.37 337.335V337.335L310.699 337.01ZM314.346 337.01L314.689 337.321L314.682 337.328L314.675 337.335L314.346 337.01ZM314.589 333.639L314.217 333.914L313.98 333.594L314.261 333.312L314.589 333.639ZM338.413 309.758L338.085 309.432L338.097 309.42L338.11 309.409L338.413 309.758ZM338.575 309.618H339.038V309.829L338.878 309.967L338.575 309.618ZM338.575 288.407H338.112V287.286L338.903 288.08L338.575 288.407ZM356.484 306.387L356.811 306.06L356.946 306.196V306.387H356.484ZM356.484 326.475H356.946V326.666L356.811 326.802L356.484 326.475ZM317.425 365.526L317.752 365.853L317.474 366.132L317.154 365.901L317.425 365.526ZM314.103 365.807L313.774 365.481L313.779 365.476L313.785 365.471L314.103 365.807ZM314.103 369.459L314.432 369.134V369.134L314.103 369.459ZM317.749 369.459L318.092 369.77L318.085 369.777L318.078 369.784L317.749 369.459ZM317.992 366.088L317.621 366.363L317.383 366.043L317.665 365.761L317.992 366.088ZM356.889 327.177L356.562 326.85L356.573 326.838L356.586 326.827L356.889 327.177ZM357.051 327.036H357.514V327.248L357.354 327.386L357.051 327.036ZM357.051 305.685L357.379 305.358L357.514 305.493V305.685H357.051ZM338.575 287.142L338.247 287.469L338.112 287.333V287.142H338.575ZM338.575 256.379H338.112V256.188L338.247 256.052L338.575 256.379ZM348.38 246.546L348.053 246.219L348.38 245.89L348.708 246.219L348.38 246.546ZM356.646 254.834L356.973 254.507L357.108 254.642V254.834H356.646ZM356.646 273.657L356.319 273.985L356.183 273.849V273.657H356.646ZM369.206 286.159L369.532 285.831L369.798 286.096L369.594 286.411L369.206 286.159ZM369.449 289.53L369.767 289.194L369.773 289.199L369.778 289.205L369.449 289.53ZM373.096 289.53L373.425 289.856V289.856L373.096 289.53ZM373.096 285.878L372.767 286.203L372.759 286.196L372.753 286.189L373.096 285.878ZM369.773 285.597L370.044 285.972L369.725 286.202L369.447 285.925L369.773 285.597ZM357.213 273.095L356.886 273.423L356.75 273.287V273.095H357.213ZM357.213 255.396H356.75V254.278L357.54 255.068L357.213 255.396ZM384.602 282.788L384.93 282.46L385.065 282.596V282.788H384.602ZM384.602 324.087H385.065V324.278L384.93 324.413L384.602 324.087ZM343.356 365.385L343.684 365.712L343.672 365.724L343.659 365.735L343.356 365.385ZM343.194 365.526H342.731V365.315L342.891 365.176L343.194 365.526ZM343.194 381.118L342.867 381.446L342.731 381.31V381.118H343.194ZM366.532 404.437L366.859 404.109L367.124 404.374L366.92 404.689L366.532 404.437ZM366.775 407.808L367.093 407.472L367.098 407.477L367.104 407.483L366.775 407.808ZM370.421 407.808L370.75 408.133L370.75 408.133L370.421 407.808ZM370.421 404.156L370.092 404.481L370.085 404.474L370.079 404.467L370.421 404.156ZM367.099 403.875L367.37 404.25L367.051 404.481L366.772 404.202L367.099 403.875ZM343.761 380.556L343.434 380.884L343.299 380.748V380.556H343.761ZM343.761 366.088H343.299V365.896L343.434 365.761L343.761 366.088ZM385.008 324.789L384.68 324.462L384.692 324.45L384.704 324.439L385.008 324.789ZM385.17 324.648H385.632V324.86L385.473 324.998L385.17 324.648ZM385.17 282.226L385.497 281.899L385.632 282.034V282.226H385.17ZM348.947 245.984L348.62 246.311L348.293 245.984L348.62 245.657L348.947 245.984ZM356.24 238.679L355.913 238.352L356.24 238.024L356.568 238.352L356.24 238.679ZM403.24 285.738L403.568 285.411L403.703 285.546V285.738H403.24ZM403.24 363.138L402.912 363.464L402.777 363.329V363.138H403.24ZM416.935 376.904L417.263 376.578L417.398 376.713V376.904H416.935ZM416.935 448.124L416.608 448.451L416.472 448.315V448.124H416.935ZM473.254 504.453L473.581 504.126L473.799 504.344L473.681 504.629L473.254 504.453ZM398.54 195.133L398.868 194.806L399.194 195.133L398.868 195.46L398.54 195.133ZM331.039 127.566L330.712 127.239L331.039 126.911L331.366 127.239L331.039 127.566ZM331.039 262.7L331.366 263.027L331.039 263.355L330.712 263.027L331.039 262.7ZM263.538 195.133L263.21 195.46L262.884 195.133L263.21 194.806L263.538 195.133ZM146.599 319.023L146.27 318.697L146.275 318.692L146.281 318.687L146.599 319.023ZM149.921 318.742L149.763 319.177L149.702 319.155L149.65 319.117L149.921 318.742ZM146.599 322.675L146.928 322.35L146.599 322.675ZM150.245 322.675L150.612 322.957L150.595 322.98L150.574 323L150.245 322.675ZM210.194 333.454C211.234 332.47 212.939 332.291 214.105 333.134L213.563 333.884C212.785 333.322 211.573 333.424 210.83 334.126L210.194 333.454ZM210.183 337.767C209.032 336.604 209.032 334.628 210.183 333.464L210.841 334.115C210.047 334.918 210.047 336.314 210.841 337.117L210.183 337.767ZM214.487 337.767C213.334 338.934 211.336 338.934 210.183 337.767L210.841 337.117C211.632 337.917 213.038 337.917 213.829 337.117L214.487 337.767ZM213.791 337.161C214.147 336.696 214.534 335.982 214.606 335.336C214.641 335.022 214.598 334.753 214.473 334.535C214.35 334.321 214.118 334.104 213.676 333.944L213.992 333.074C214.596 333.293 215.022 333.634 215.275 334.073C215.525 334.508 215.576 334.988 215.526 335.438C215.428 336.32 214.932 337.193 214.526 337.724L213.791 337.161ZM477.796 507.588C476.643 508.754 474.645 508.754 473.492 507.588L474.15 506.937C474.941 507.737 476.347 507.737 477.138 506.937L477.796 507.588ZM477.817 503.167C478.94 504.465 478.94 506.268 477.817 507.565L477.117 506.96C477.939 506.01 477.939 504.722 477.117 503.773L477.817 503.167ZM473.492 503.144C474.645 501.978 476.643 501.978 477.796 503.144L477.138 503.795C476.347 502.995 474.941 502.995 474.15 503.795L473.492 503.144ZM473.339 503.379L473.42 503.239L474.222 503.701L474.141 503.841L473.339 503.379ZM417.829 447.094L474.067 503.283L473.413 503.938L417.175 447.749L417.829 447.094ZM417.965 377.466V447.421H417.039V377.466H417.965ZM490.592 451.26L417.175 377.793L417.829 377.139L491.246 450.606L490.592 451.26ZM491.382 449.809V450.933H490.456V449.809H491.382ZM404.054 362.249L491.246 449.482L490.592 450.136L403.399 362.903L404.054 362.249ZM404.189 285.176V362.576H403.264V285.176H404.189ZM357.054 237.79L404.054 284.849L403.399 285.503L356.399 238.444L357.054 237.79ZM365.399 230.158L357.053 238.446L356.401 237.789L364.747 229.501L365.399 230.158ZM410.53 275.951L364.746 230.157L365.4 229.502L411.185 275.296L410.53 275.951ZM410.263 275.879L410.426 275.457L411.289 275.79L411.127 276.211L410.263 275.879ZM453.883 319.918L410.368 276.372L411.023 275.718L454.538 319.264L453.883 319.918ZM453.748 329.144V319.591H454.673V329.144H453.748ZM462.716 338.32L453.883 329.47L454.538 328.817L463.371 337.666L462.716 338.32ZM462.58 365.245V337.993H463.506V365.245H462.58ZM490.592 393.386L462.716 365.572L463.37 364.917L491.246 392.731L490.592 393.386ZM491.382 391.935V393.058H490.456V391.935H491.382ZM463.937 364.355L491.246 391.607L490.592 392.262L463.284 365.011L463.937 364.355ZM464.073 338.555V364.683H463.148V338.555H464.073ZM474.547 350.121L463.284 338.883L463.937 338.228L475.201 349.465L474.547 350.121ZM474.799 353.501C473.717 352.477 473.658 350.817 474.486 349.541L475.262 350.045C474.632 351.017 474.735 352.166 475.435 352.828L474.799 353.501ZM479.093 353.49C477.939 354.656 475.942 354.656 474.788 353.49L475.446 352.839C476.238 353.639 477.643 353.639 478.435 352.839L479.093 353.49ZM479.093 349.187C480.244 350.35 480.244 352.326 479.093 353.49L478.435 352.839C479.229 352.036 479.229 350.64 478.435 349.837L479.093 349.187ZM475.171 348.856C476.303 348.038 478.032 348.016 479.107 349.201L478.421 349.823C477.713 349.041 476.525 349.019 475.712 349.606L475.171 348.856ZM455.105 328.254L475.768 348.904L475.114 349.558L454.451 328.909L455.105 328.254ZM455.24 319.029V328.582H454.315V319.029H455.24ZM411.914 275.437L455.105 318.703L454.45 319.356L411.259 276.091L411.914 275.437ZM431.683 276.227H411.587L411.587 275.301H431.683L431.683 276.227ZM490.592 335.37L431.356 276.091L432.01 275.437L491.246 334.716L490.592 335.37ZM491.382 333.92V335.043H490.456V333.92H491.382ZM433.145 275.437L491.246 333.593L490.592 334.247L432.49 276.091L433.145 275.437ZM490.919 276.227H432.818L432.818 275.301H490.919L490.919 276.227ZM491.382 274.781V275.764H490.456V274.781H491.382ZM411.182 274.318H490.919V275.243H411.182V274.318ZM365.968 228.8L411.509 274.454L410.854 275.107L365.313 229.454L365.968 228.8ZM374.557 220.886L365.967 229.455L365.314 228.8L373.903 220.231L374.557 220.886ZM406.964 254.037L373.902 220.885L374.558 220.232L407.619 253.383L406.964 254.037ZM491.382 252.446V253.71H490.456V252.446H491.382ZM431.683 251.983H490.919V252.908H431.683V251.983ZM450 234.792L432.01 252.773L431.356 252.118L449.346 234.138L450 234.792ZM490.919 234.928H449.673V234.002H490.919V234.928ZM491.382 233.482V234.465H490.456V233.482H491.382ZM449.511 233.019H490.919V233.944H449.511V233.019ZM430.141 252.118L449.184 233.154L449.837 233.81L430.794 252.773L430.141 252.118ZM407.454 251.983H430.468V252.908H407.454V251.983ZM375.125 219.389L407.782 252.119L407.126 252.772L374.47 220.042L375.125 219.389ZM382.741 212.458L375.124 220.043L374.471 219.388L382.088 211.802L382.741 212.458ZM411.016 241.395L382.087 212.457L382.742 211.803L411.671 240.74L411.016 241.395ZM447.082 217.796L423.42 241.395L422.767 240.74L446.429 217.14L447.082 217.796ZM491 217.931H446.755V217.005H491V217.931ZM491.463 216.485V217.468H490.537V216.485H491.463ZM446.593 216.022H491V216.947H446.593V216.022ZM422.605 239.756L446.267 216.157L446.92 216.812L423.258 240.412L422.605 239.756ZM411.587 239.621H422.931V240.547H411.587V239.621ZM390.927 218.687L411.915 239.757L411.259 240.41L390.271 219.34L390.927 218.687ZM401.133 219.476H390.599V218.55H401.133V219.476ZM411.016 229.594L400.805 219.34L401.461 218.687L411.671 228.941L411.016 229.594ZM419.285 229.73H411.344V228.805H419.285V229.73ZM437.278 211.895L419.612 229.595L418.957 228.941L436.623 211.241L437.278 211.895ZM440.51 211.623C439.472 212.605 437.848 212.787 436.679 211.943L437.221 211.193C437.997 211.754 439.129 211.655 439.874 210.951L440.51 211.623ZM440.521 207.309C441.671 208.473 441.671 210.449 440.521 211.613L439.863 210.962C440.657 210.159 440.657 208.763 439.863 207.96L440.521 207.309ZM436.216 207.309C437.37 206.143 439.367 206.143 440.521 207.309L439.863 207.96C439.071 207.16 437.665 207.16 436.874 207.96L436.216 207.309ZM435.945 211.301C434.972 210.12 435.09 208.448 436.216 207.31L436.874 207.96C436.055 208.788 436.011 209.926 436.659 210.712L435.945 211.301ZM418.714 227.957L435.975 210.679L436.629 211.333L419.369 228.611L418.714 227.957ZM411.425 227.822H419.042V228.747H411.425V227.822ZM401.542 217.703L411.752 227.958L411.097 228.611L400.886 218.356L401.542 217.703ZM389.545 217.567H401.214V218.492H389.545V217.567ZM383.31 211.101L389.874 217.704L389.217 218.356L382.654 211.754L383.31 211.101ZM394.005 201.079L383.309 211.755L382.655 211.1L393.351 200.424L394.005 201.079ZM409.399 201.214H393.678V200.289H409.399V201.214ZM429.255 181.553L409.726 201.079L409.072 200.424L428.601 180.899L429.255 181.553ZM432.568 181.281C431.528 182.265 429.824 182.444 428.657 181.601L429.199 180.851C429.977 181.413 431.19 181.311 431.932 180.609L432.568 181.281ZM432.579 176.968C433.73 178.131 433.73 180.107 432.579 181.27L431.921 180.62C432.715 179.817 432.715 178.421 431.921 177.618L432.579 176.968ZM428.275 176.967C429.428 175.801 431.426 175.801 432.579 176.967L431.921 177.618C431.13 176.818 429.724 176.818 428.933 177.618L428.275 176.967ZM427.989 180.94C427.12 179.767 427.231 178.118 428.261 176.982L428.947 177.604C428.193 178.435 428.143 179.594 428.732 180.389L427.989 180.94ZM408.99 199.442L428.033 180.337L428.688 180.991L409.645 200.095L408.99 199.442ZM394.732 199.306H409.318V200.231H394.732V199.306ZM400.084 195.038L395.06 200.095L394.403 199.442L399.427 194.385L400.084 195.038ZM392.305 186.52L400.085 194.386L399.427 195.037L391.647 187.17L392.305 186.52ZM413.453 166.102L392.303 187.173L391.65 186.517L412.8 165.446L413.453 166.102ZM435.33 166.237H413.126V165.311H435.33V166.237ZM458.421 189.56L435.002 166.101L435.657 165.447L459.076 188.906L458.421 189.56ZM458.674 192.941C457.599 191.925 457.519 190.114 458.377 188.957L459.12 189.509C458.519 190.318 458.601 191.598 459.309 192.268L458.674 192.941ZM462.967 192.93C461.814 194.096 459.816 194.096 458.663 192.93L459.321 192.279C460.112 193.079 461.518 193.079 462.309 192.279L462.967 192.93ZM462.967 188.627C464.118 189.79 464.118 191.766 462.967 192.93L462.309 192.279C463.103 191.476 463.103 190.08 462.309 189.277L462.967 188.627ZM459.045 188.296C460.177 187.478 461.906 187.456 462.981 188.641L462.295 189.263C461.587 188.481 460.399 188.459 459.587 189.046L459.045 188.296ZM447.569 176.263L459.643 188.344L458.988 188.998L446.914 176.918L447.569 176.263ZM491 177.053H447.242V176.128H491V177.053ZM491.463 175.467V176.59H490.537V175.467H491.463ZM490.535 175.258L490.697 175.117L491.303 175.816L491.141 175.957L490.535 175.258ZM446.188 175.145H490.838V176.07H446.188V175.145ZM435.819 164.604L446.515 175.28L445.861 175.935L435.165 165.259L435.819 164.604ZM423.096 156.55L414.344 165.259L413.691 164.603L422.443 155.894L423.096 156.55ZM473.01 156.685H422.769V155.759H473.01V156.685ZM486.303 143.626L473.337 156.55L472.684 155.894L485.649 142.971L486.303 143.626ZM490.919 143.761H485.976V142.836H490.919V143.761ZM491.382 142.315V143.299H490.456V142.315H491.382ZM486.948 141.853H490.919V142.778H486.948V141.853ZM491.245 138.711L487.274 142.644L486.623 141.987L490.593 138.053L491.245 138.711ZM491.382 137.258V138.382H490.456V137.258H491.382ZM472.521 155.052L490.591 136.931L491.247 137.585L473.176 155.706L472.521 155.052ZM422.607 154.916H472.848V155.842H422.607V154.916ZM391.001 186.377L422.28 155.052L422.935 155.706L391.656 187.031L391.001 186.377ZM377.07 171.768L391.656 186.377L391.001 187.031L376.415 172.422L377.07 171.768ZM413.453 136.04L377.069 172.423L376.415 171.768L412.799 135.386L413.453 136.04ZM452.266 136.176H413.126V135.25H452.266V136.176ZM491.327 97.2697L452.593 136.04L451.938 135.386L490.673 96.6156L491.327 97.2697ZM491.463 95.8188V96.9426H490.537V95.8188H491.463ZM451.938 134.262L490.673 95.4918L491.327 96.1459L452.593 134.916L451.938 134.262ZM414.261 134.127H452.266V135.052H414.261V134.127ZM462.642 86.734L414.588 134.916L413.933 134.263L461.986 86.0805L462.642 86.734ZM462.777 47.9177V86.4072H461.851V47.9177H462.777ZM491.328 19.4475L462.642 48.2443L461.986 47.5912L490.672 18.7944L491.328 19.4475ZM491.463 17.9972V19.1209H490.537V17.9972H491.463ZM461.338 47.0288L490.673 17.6701L491.327 18.3242L461.993 47.683L461.338 47.0288ZM461.203 85.8453V47.3559H462.128V85.8453H461.203ZM375.847 171.066L461.338 85.5182L461.993 86.1724L376.502 171.72L375.847 171.066ZM363.941 158.563L376.501 171.065L375.848 171.721L363.288 159.219L363.941 158.563ZM415.317 107.805L363.942 159.218L363.287 158.564L414.663 107.151L415.317 107.805ZM415.453 30.0778V107.478H414.527V30.0778H415.453ZM444.327 1.46799L415.317 30.4054L414.663 29.7502L443.673 0.812775L444.327 1.46799ZM442.866 0.677673H444V1.60309H442.866V0.677673ZM414.096 29.1882L442.539 0.812805L443.193 1.46796L414.75 29.8434L414.096 29.1882ZM413.96 106.916V29.5158H414.886V106.916H413.96ZM362.72 158.002L414.096 106.589L414.75 107.243L363.375 158.656L362.72 158.002ZM355.594 150.275L363.373 158.001L362.721 158.657L354.942 150.931L355.594 150.275ZM393.681 112.862L355.595 150.93L354.941 150.276L393.027 112.208L393.681 112.862ZM393.817 21.7899V112.535H392.891V21.7899H393.817ZM411.994 3.85611L393.681 22.1175L393.027 21.4622L411.341 3.20084L411.994 3.85611ZM412.13 1.14038V3.52847H411.205V1.14038H412.13ZM411.101 0.677673H411.668V1.60309H411.101V0.677673ZM410.638 2.96652V1.14038H411.563V2.96652H410.638ZM392.46 20.9004L410.774 2.63889L411.427 3.29416L393.113 21.5556L392.46 20.9004ZM392.324 111.973V21.228H393.249V111.973H392.324ZM354.374 149.714L392.46 111.646L393.114 112.3L355.028 150.368L354.374 149.714ZM344.574 139.318L355.027 149.713L354.375 150.369L343.921 139.974L344.574 139.318ZM373.667 110.754L344.575 139.973L343.92 139.32L373.011 110.102L373.667 110.754ZM373.801 1.14038V110.428H372.876V1.14038H373.801ZM372.771 0.677673H373.339V1.60309H372.771V0.677673ZM372.309 47.6368V1.14038H373.234V47.6368H372.309ZM358.513 32.7007L373.099 47.3098L372.444 47.9637L357.858 33.3545L358.513 32.7007ZM358.648 1.14038V33.0276H357.723V1.14038H358.648ZM357.618 0.677673H358.185V1.60309H357.618V0.677673ZM357.155 33.5895V1.14038H358.081V33.5895H357.155ZM372.444 49.0876L357.291 33.9165L357.945 33.2625L373.099 48.4336L372.444 49.0876ZM372.309 75.5908V48.7606H373.234V75.5908H372.309ZM353.894 56.0192L373.099 75.264L372.444 75.9177L353.239 56.6729L353.894 56.0192ZM353.56 52.779C354.631 53.7914 354.712 55.4492 353.953 56.6007L353.18 56.0914C353.717 55.2764 353.636 54.1248 352.924 53.4514L353.56 52.779ZM349.267 52.7899C350.42 51.6235 352.418 51.6235 353.571 52.7899L352.913 53.4406C352.122 52.6404 350.716 52.6404 349.925 53.4406L349.267 52.7899ZM349.267 57.0929C348.116 55.9293 348.116 53.9535 349.267 52.7899L349.925 53.4406C349.131 54.2437 349.131 55.6392 349.925 56.4421L349.267 57.0929ZM353.302 57.2577C352.121 58.2809 350.402 58.0789 349.293 57.1172L349.899 56.4179C350.734 57.1418 351.932 57.2206 352.696 56.5583L353.302 57.2577ZM372.444 77.0415L352.672 57.2349L353.327 56.5811L373.099 76.3877L372.444 77.0415ZM372.309 109.866V76.7146H373.234V109.866H372.309ZM343.352 138.758L372.443 109.54L373.099 110.193L344.008 139.411L343.352 138.758ZM334.688 129.485L344.007 138.756L343.354 139.412L334.035 130.141L334.688 129.485ZM348.87 115.953L334.689 130.14L334.034 129.486L348.215 115.298L348.87 115.953ZM349.005 94.6951V115.625H348.08V94.6951H349.005ZM345.301 90.8535L348.867 94.3654L348.218 95.0247L344.652 91.5128L345.301 90.8535ZM345.439 80.5074V91.1832H344.514V80.5074H345.439ZM319.779 54.6144L345.304 80.1805L344.649 80.8344L319.124 55.2683L319.779 54.6144ZM319.914 36.9609V54.9413H318.988V36.9609H319.914ZM299.034 15.8441L319.779 36.6341L319.124 37.2877L298.379 16.4977L299.034 15.8441ZM298.781 12.4635C299.856 13.4795 299.936 15.2897 299.078 16.4466L298.335 15.8953C298.935 15.0856 298.854 13.8056 298.145 13.1359L298.781 12.4635ZM294.488 12.4743C295.641 11.3079 297.639 11.3079 298.792 12.4743L298.134 13.1251C297.343 12.3249 295.937 12.3249 295.146 13.125L294.488 12.4743ZM294.488 16.7773C293.337 15.6138 293.337 13.6379 294.488 12.4743L295.146 13.125C294.352 13.928 294.352 15.3236 295.146 16.1266L294.488 16.7773ZM298.41 17.1079C297.278 17.9256 295.548 17.948 294.474 16.7627L295.16 16.1412C295.868 16.9225 297.055 16.9448 297.868 16.3578L298.41 17.1079ZM318.556 37.8496L297.812 17.0597L298.467 16.406L319.211 37.196L318.556 37.8496ZM318.421 55.5033V37.5228H319.347V55.5033H318.421ZM344.082 81.3961L318.556 55.8302L319.211 55.1764L344.737 80.7423L344.082 81.3961ZM343.947 90.6214V81.0692H344.872V90.6214H343.947ZM301.87 47.3101L344.737 90.2946L344.082 90.9481L301.215 47.9635L301.87 47.3101ZM301.536 44.0697C302.607 45.082 302.688 46.7398 301.929 47.8914L301.156 47.3821C301.694 46.567 301.613 45.4153 300.901 44.7422L301.536 44.0697ZM297.243 44.0806C298.396 42.9141 300.394 42.9141 301.547 44.0806L300.889 44.7313C300.098 43.9311 298.692 43.9311 297.901 44.7313L297.243 44.0806ZM297.243 48.3836C296.092 47.22 296.092 45.2441 297.243 44.0806L297.901 44.7313C297.107 45.5343 297.107 46.9299 297.901 47.7329L297.243 48.3836ZM301.278 48.5484C300.098 49.5717 298.378 49.3696 297.269 48.4079L297.875 47.7086C298.71 48.4326 299.908 48.5113 300.672 47.8491L301.278 48.5484ZM335.006 82.9414L300.648 48.5257L301.303 47.8719L335.661 82.2876L335.006 82.9414ZM318.155 82.1518H335.334V83.0772H318.155V82.1518ZM298.71 62.481L318.482 82.2876L317.827 82.9414L298.055 63.1348L298.71 62.481ZM298.457 59.1003C299.532 60.1163 299.612 61.9266 298.754 63.0835L298.011 62.5322C298.611 61.7224 298.53 60.4424 297.821 59.7727L298.457 59.1003ZM294.164 59.1111C295.317 57.9447 297.315 57.9447 298.468 59.1111L297.81 59.7618C297.019 58.9617 295.613 58.9617 294.822 59.7619L294.164 59.1111ZM294.164 63.4141C293.013 62.2505 293.013 60.2747 294.164 59.1111L294.822 59.7618C294.027 60.5648 294.027 61.9603 294.822 62.7634L294.164 63.4141ZM298.086 63.7448C296.954 64.5624 295.224 64.5848 294.15 63.3995L294.835 62.778C295.544 63.5593 296.731 63.5816 297.544 62.9946L298.086 63.7448ZM317.584 83.7845L297.488 63.6969L298.142 63.0424L318.239 83.13L317.584 83.7845ZM347.648 95.4438L335.979 83.7845L336.633 83.1299L348.302 94.7892L347.648 95.4438ZM347.512 114.783V95.1165H348.438V114.783H347.512ZM333.467 128.643L347.648 114.455L348.302 115.11L334.121 129.298L333.467 128.643ZM331.284 125.832L334.12 128.642L333.468 129.299L330.632 126.49L331.284 125.832ZM326.984 129.486L330.63 125.834L331.285 126.488L327.639 130.14L326.984 129.486ZM268.241 70.0662L327.639 129.486L326.984 130.14L267.586 70.7205L268.241 70.0662ZM251.23 68.8084C251.675 69.2716 251.977 69.7702 252.08 70.3059L251.171 70.4807C251.112 70.1736 250.928 69.8294 250.563 69.4499L251.23 68.8084ZM246.921 68.8038C248.074 67.6373 250.072 67.6373 251.225 68.8038L250.567 69.4545C249.776 68.6543 248.37 68.6543 247.579 69.4545L246.921 68.8038ZM246.921 73.1068C245.77 71.9431 245.77 69.9673 246.921 68.8038L247.579 69.4545C246.785 70.2575 246.785 71.6529 247.579 72.4561L246.921 73.1068ZM251.225 73.1068C250.072 74.2732 248.074 74.2732 246.921 73.1068L247.579 72.4561C248.37 73.2562 249.776 73.2562 250.567 72.4561L251.225 73.1068ZM252.08 71.6045C251.988 72.0811 251.707 72.782 251.16 73.1617L250.633 72.4012C250.896 72.2189 251.101 71.7961 251.171 71.4297L252.08 71.6045ZM267.67 71.9798H251.626V71.0544H267.67V71.9798ZM326.417 130.983L267.343 71.8441L267.998 71.1901L327.071 130.329L326.417 130.983ZM317.343 139.318L326.418 130.327L327.07 130.985L317.994 139.975L317.343 139.318ZM268.646 89.873L317.996 139.319L317.341 139.973L267.991 90.5268L268.646 89.873ZM268.393 86.4925C269.476 87.5159 269.535 89.1762 268.707 90.4518L267.931 89.948C268.561 88.9761 268.458 87.8269 267.758 87.1649L268.393 86.4925ZM264.1 86.5033C265.254 85.3368 267.251 85.3368 268.405 86.5033L267.747 87.154C266.955 86.3538 265.549 86.3538 264.758 87.154L264.1 86.5033ZM264.1 90.8062C262.949 89.6426 262.949 87.6669 264.1 86.5033L264.758 87.154C263.964 87.957 263.964 89.3525 264.758 90.1555L264.1 90.8062ZM268.022 91.137C266.89 91.9546 265.161 91.977 264.086 90.7916L264.772 90.1701C265.48 90.9515 266.668 90.9738 267.48 90.3868L268.022 91.137ZM316.855 140.395L267.425 91.0895L268.078 90.4343L317.509 139.74L316.855 140.395ZM307.455 149.152L316.855 139.741L317.509 140.395L308.11 149.806L307.455 149.152ZM238.339 79.3374L308.109 149.152L307.455 149.806L237.685 79.9916L238.339 79.3374ZM238.475 21.228V79.6645H237.549V21.228H238.475ZM258.435 1.46762L238.339 21.5552L237.685 20.9008L257.781 0.813141L258.435 1.46762ZM256.974 0.677673H258.108V1.60309H256.974V0.677673ZM244.654 12.7527L256.647 0.812469L257.3 1.46829L245.307 13.4085L244.654 12.7527ZM233.314 0.812469L245.307 12.7527L244.654 13.4085L232.661 1.46829L233.314 0.812469ZM231.853 0.677673H232.988V1.60309H231.853V0.677673ZM244.087 13.9705L231.527 1.46832L232.18 0.812439L244.74 13.3146L244.087 13.9705ZM237.116 20.3401L244.085 13.3167L244.742 13.9684L237.773 20.9919L237.116 20.3401ZM236.982 66.6005V20.666H237.907V66.6005H236.982ZM225.941 54.4732L237.771 66.2729L237.118 66.9281L225.287 55.1284L225.941 54.4732ZM226.076 26.1445V54.8008H225.151V26.1445H226.076ZM201.955 1.79669L225.941 25.8175L225.286 26.4714L201.3 2.45056L201.955 1.79669ZM202.477 1.26862C202.389 1.57388 202.215 2.03241 202.029 2.35486L201.227 1.8924C201.365 1.65302 201.514 1.26892 201.588 1.01215L202.477 1.26862ZM197.009 0.677673H202.033V1.60309H197.009V0.677673ZM197.405 2.72537C196.929 2.23041 196.74 1.72922 196.577 1.30646L197.441 0.974304C197.602 1.39441 197.737 1.73611 198.072 2.08401L197.405 2.72537ZM201.331 3.0607C200.199 3.87836 198.47 3.9007 197.395 2.71545L198.081 2.09393C198.789 2.87521 199.977 2.89755 200.79 2.31052L201.331 3.0607ZM224.719 27.0334L200.733 3.01254L201.388 2.35867L225.374 26.3795L224.719 27.0334ZM224.584 55.3628V26.7064H225.509V55.3628H224.584ZM237.118 68.0521L224.72 55.6905L225.373 55.0351L237.771 67.3968L237.118 68.0521ZM236.982 80.2264V67.7245H237.907V80.2264H236.982ZM306.888 150.368L237.117 80.5535L237.772 79.8993L307.542 149.714L306.888 150.368ZM296.597 159.968L306.888 149.713L307.542 150.369L297.25 160.623L296.597 159.968ZM161.924 24.5532L297.251 159.969L296.596 160.623L161.27 25.2074L161.924 24.5532ZM162.06 0.999969V24.8803H161.134V0.999969H162.06ZM161.03 0.537262H161.597V1.46268H161.03V0.537262ZM160.567 25.4423V0.999969H161.492V25.4423H160.567ZM296.029 161.185L160.702 25.7693L161.357 25.1152L296.684 160.53L296.029 161.185ZM287.684 168.817L296.03 160.529L296.682 161.186L288.336 169.474L287.684 168.817ZM218.648 99.0037L288.337 168.819L287.682 169.472L217.993 99.6575L218.648 99.0037ZM145.474 76.6682L167.839 99.0032L167.185 99.658L144.82 77.3229L145.474 76.6682ZM145.309 77.4583H145.147V76.5328H145.309V77.4583ZM145.772 53.2557V76.9955H144.846V53.2557H145.772ZM120.273 27.5034L145.637 52.9289L144.982 53.5825L119.618 28.157L120.273 27.5034ZM120.02 24.1227C121.095 25.1386 121.175 26.949 120.317 28.1059L119.574 27.5546C120.174 26.7449 120.093 25.4648 119.384 24.7951L120.02 24.1227ZM115.727 24.1335C116.88 22.9671 118.878 22.9671 120.031 24.1335L119.373 24.7842C118.582 23.9841 117.176 23.9841 116.385 24.7842L115.727 24.1335ZM115.727 28.4365C114.576 27.273 114.576 25.297 115.727 24.1335L116.385 24.7842C115.591 25.5872 115.591 26.9828 116.385 27.7858L115.727 28.4365ZM119.649 28.7671C118.517 29.5849 116.787 29.6071 115.713 28.4219L116.399 27.8004C117.107 28.5817 118.294 28.6041 119.107 28.0169L119.649 28.7671ZM144.414 54.1443L119.051 28.7188L119.706 28.0652L145.069 53.4908L144.414 54.1443ZM144.279 76.5741V53.8176H145.205V76.5741H144.279ZM106.578 37.7575L145.069 76.2469L144.415 76.9013L105.923 38.4119L106.578 37.7575ZM5.09855 53.3414L20.6757 37.7576L21.3302 38.4118L5.75306 53.9956L5.09855 53.3414ZM5.09748 53.9945C5.08384 53.9808 5.07074 53.968 5.05786 53.9558L5.69383 53.2835C5.7149 53.3035 5.73498 53.3232 5.75414 53.3425L5.09748 53.9945ZM5.04686 53.945C4.2555 53.1449 2.84957 53.1449 2.05829 53.945L1.4003 53.2943C2.5538 52.1279 4.55128 52.1279 5.70483 53.2943L5.04686 53.945ZM2.05831 53.945C1.26416 54.7481 1.26419 56.1436 2.05829 56.9466L1.4003 57.5973C0.249617 56.4337 0.249643 54.4579 1.40028 53.2943L2.05831 53.945ZM2.07212 56.9612C2.7804 57.7426 3.968 57.7649 4.78076 57.1779L5.32262 57.928C4.1906 58.7457 2.46095 58.7681 1.38647 57.5827L2.07212 56.9612ZM4.72605 57.2242L5.29329 56.6623L5.94456 57.3197L5.37733 57.8817L4.72605 57.2242ZM5.24729 56.7154C5.69482 56.112 5.77255 55.222 5.45768 54.5248L6.30107 54.1439C6.7457 55.1284 6.6499 56.3777 5.99056 57.2667L5.24729 56.7154ZM21.4118 39.3946L6.20722 54.6609L5.55153 54.0078L20.7561 38.7416L21.4118 39.3946ZM106.008 39.5308H21.0839V38.6054H106.008V39.5308ZM166.942 100.781L105.68 39.3949L106.335 38.7412L167.597 100.128L166.942 100.781ZM287.115 170.175L217.75 100.781L218.405 100.127L287.77 169.521L287.115 170.175ZM279.822 176.825L287.115 169.521L287.77 170.175L280.477 177.479L279.822 176.825ZM214.515 110.803L280.477 176.825L279.822 177.479L213.861 111.457L214.515 110.803ZM127.809 82.4277L156.171 110.803L155.516 111.457L127.154 83.082L127.809 82.4277ZM127.556 79.0473C128.631 80.0633 128.711 81.8737 127.853 83.0305L127.11 82.4792C127.71 81.6695 127.629 80.3895 126.921 79.7197L127.556 79.0473ZM123.263 79.0582C124.416 77.8918 126.414 77.8918 127.567 79.0582L126.909 79.7089C126.118 78.9087 124.712 78.9087 123.921 79.7089L123.263 79.0582ZM123.263 83.3613C122.112 82.1976 122.112 80.2218 123.263 79.0582L123.921 79.7089C123.127 80.512 123.127 81.9075 123.921 82.7106L123.263 83.3613ZM127.185 83.6919C126.053 84.5096 124.324 84.532 123.249 83.3467L123.935 82.7252C124.643 83.5064 125.831 83.5288 126.643 82.9417L127.185 83.6919ZM155.273 112.44L126.586 83.6433L127.242 82.9903L155.928 111.787L155.273 112.44ZM223.34 122.272L213.616 112.439L214.274 111.788L223.998 121.621L223.34 122.272ZM145.876 121.484H223.669V122.409H145.876V121.484ZM84.0443 183.146L145.549 121.62L146.204 122.274L84.6987 183.801L84.0443 183.146ZM80.7312 183.418C81.7711 182.435 83.4758 182.256 84.6424 183.098L84.1006 183.849C83.3224 183.287 82.1099 183.388 81.367 184.091L80.7312 183.418ZM80.7201 187.732C79.5695 186.569 79.5694 184.593 80.7201 183.429L81.3781 184.08C80.584 184.883 80.584 186.278 81.3781 187.082L80.7201 187.732ZM85.0246 187.732C83.8711 188.899 81.8736 188.899 80.7201 187.732L81.3781 187.082C82.1694 187.882 83.5753 187.882 84.3667 187.081L85.0246 187.732ZM85.3104 183.76C86.18 184.932 86.0679 186.582 85.0385 187.718L84.3528 187.096C85.106 186.265 85.1561 185.105 84.5671 184.311L85.3104 183.76ZM146.205 122.975L85.2671 184.362L84.6104 183.71L145.548 122.323L146.205 122.975ZM224.56 123.112H145.876V122.186H224.56V123.112ZM248.868 147.559L224.233 122.977L224.887 122.322L249.521 146.904L248.868 147.559ZM239.224 156.598L248.867 146.905L249.523 147.558L239.88 157.251L239.224 156.598ZM222.372 156.462L239.552 156.462V157.387L222.372 157.387V156.462ZM206.001 172.611L222.046 156.597L222.699 157.252L206.655 173.266L206.001 172.611ZM202.687 172.883C203.727 171.9 205.432 171.72 206.599 172.563L206.057 173.313C205.279 172.751 204.066 172.853 203.323 173.555L202.687 172.883ZM202.676 177.197C201.526 176.033 201.526 174.057 202.676 172.894L203.334 173.544C202.54 174.348 202.54 175.743 203.334 176.546L202.676 177.197ZM206.981 177.197C205.827 178.363 203.83 178.363 202.676 177.197L203.334 176.546C204.126 177.346 205.532 177.346 206.323 176.546L206.981 177.197ZM207.267 173.224C208.136 174.397 208.024 176.046 206.995 177.182L206.309 176.561C207.062 175.73 207.112 174.57 206.523 173.776L207.267 173.224ZM222.861 158.235L207.222 173.828L206.568 173.172L222.208 157.58L222.861 158.235ZM238.498 158.37L222.534 158.37V157.445L238.498 157.445V158.37ZM200.814 194.946L238.171 157.581L238.825 158.235L201.469 195.6L200.814 194.946ZM166.54 194.811H201.142V195.736H166.54V194.811ZM147.581 175.701L166.867 194.946L166.213 195.601L146.927 176.356L147.581 175.701ZM147.329 172.321C148.403 173.337 148.484 175.147 147.626 176.304L146.882 175.753C147.483 174.943 147.401 173.663 146.693 172.993L147.329 172.321ZM143.035 172.332C144.189 171.165 146.186 171.165 147.34 172.332L146.682 172.983C145.891 172.182 144.485 172.182 143.693 172.983L143.035 172.332ZM143.035 176.635C141.885 175.471 141.885 173.495 143.035 172.332L143.693 172.983C142.899 173.786 142.899 175.181 143.693 175.984L143.035 176.635ZM146.958 176.966C145.826 177.783 144.096 177.806 143.022 176.62L143.707 175.999C144.415 176.78 145.603 176.802 146.416 176.215L146.958 176.966ZM165.969 196.583L146.359 176.917L147.014 176.264L166.625 195.93L165.969 196.583ZM250.008 148.121L201.55 196.584L200.895 195.929L249.354 147.467L250.008 148.121ZM269.936 168.77L249.353 148.12L250.009 147.467L270.591 168.116L269.936 168.77ZM258.919 167.98H270.263V168.906H258.919V167.98ZM249.435 177.246L258.592 168.115L259.245 168.771L250.089 177.901L249.435 177.246ZM246.097 177.544C247.171 176.359 248.901 176.381 250.033 177.199L249.491 177.949C248.678 177.362 247.491 177.384 246.782 178.166L246.097 177.544ZM246.11 181.832C244.96 180.669 244.96 178.693 246.11 177.529L246.768 178.18C245.974 178.983 245.974 180.379 246.768 181.182L246.11 181.832ZM250.415 181.832C249.262 182.999 247.264 182.999 246.11 181.832L246.768 181.182C247.56 181.982 248.966 181.982 249.757 181.182L250.415 181.832ZM250.782 178.001C251.659 179.183 251.455 180.849 250.404 181.843L249.768 181.171C250.5 180.479 250.62 179.336 250.039 178.552L250.782 178.001ZM259.488 169.895L250.737 178.604L250.084 177.948L258.835 169.239L259.488 169.895ZM271.398 170.03H259.162V169.104H271.398V170.03ZM279.173 178.041L271.07 169.893L271.726 169.241L279.829 177.388L279.173 178.041ZM261.914 194.665L279.174 177.387L279.829 178.041L262.568 195.319L261.914 194.665ZM267.342 200.796L261.912 195.318L262.57 194.667L267.999 200.145L267.342 200.796ZM237.603 229.924L267.343 200.144L267.998 200.798L238.258 230.578L237.603 229.924ZM227.964 229.788L237.931 229.788V230.714L227.964 230.714V229.788ZM216.46 218.124L228.291 229.923L227.637 230.579L215.806 218.779L216.46 218.124ZM216.208 214.744C217.282 215.76 217.362 217.57 216.504 218.727L215.761 218.176C216.362 217.366 216.28 216.086 215.572 215.416L216.208 214.744ZM211.914 214.755C213.068 213.588 215.065 213.588 216.219 214.755L215.561 215.405C214.769 214.605 213.363 214.605 212.572 215.405L211.914 214.755ZM211.914 219.058C210.764 217.894 210.764 215.918 211.914 214.755L212.572 215.405C211.778 216.208 211.778 217.604 212.572 218.407L211.914 219.058ZM215.837 219.388C214.704 220.206 212.975 220.228 211.9 219.043L212.586 218.422C213.294 219.203 214.482 219.225 215.295 218.638L215.837 219.388ZM227.475 231.562L215.239 219.341L215.893 218.686L228.129 230.907L227.475 231.562ZM260.055 210.07L238.419 231.562L237.767 230.906L259.403 209.414L260.055 210.07ZM259.266 229.549V209.742H260.192V229.549H259.266ZM239.144 249.449L259.402 229.221L260.056 229.876L239.798 250.104L239.144 249.449ZM235.83 249.721C236.87 248.738 238.575 248.559 239.742 249.402L239.2 250.152C238.421 249.59 237.209 249.691 236.466 250.394L235.83 249.721ZM235.819 254.035C234.669 252.872 234.669 250.896 235.819 249.732L236.477 250.383C235.683 251.186 235.683 252.581 236.477 253.384L235.819 254.035ZM240.124 254.035C238.97 255.202 236.973 255.202 235.819 254.035L236.477 253.384C237.268 254.185 238.674 254.185 239.466 253.384L240.124 254.035ZM240.409 250.063C241.279 251.235 241.167 252.885 240.138 254.021L239.452 253.399C240.205 252.568 240.255 251.408 239.666 250.614L240.409 250.063ZM260.623 230.438L240.365 250.666L239.711 250.011L259.969 229.783L260.623 230.438ZM260.759 209.18V230.111H259.834V209.18H260.759ZM268.646 201.501L260.623 209.508L259.969 208.853L267.992 200.846L268.646 201.501ZM296.029 229.594L267.991 201.5L268.646 200.846L296.684 228.941L296.029 229.594ZM282.983 242.005L296.029 228.941L296.684 229.595L283.637 242.659L282.983 242.005ZM266.455 241.869H283.31V242.794H266.455V241.869ZM239.467 268.694L266.128 242.005L266.782 242.659L240.122 269.348L239.467 268.694ZM219.536 268.559H239.795V269.484H219.536V268.559ZM191.664 240.459L219.864 268.694L219.209 269.348L191.009 241.113L191.664 240.459ZM191.411 237.079C192.486 238.095 192.566 239.905 191.708 241.062L190.965 240.511C191.565 239.701 191.484 238.421 190.775 237.751L191.411 237.079ZM187.118 237.09C188.271 235.923 190.269 235.923 191.422 237.09L190.764 237.74C189.973 236.94 188.567 236.94 187.776 237.74L187.118 237.09ZM187.118 241.393C185.967 240.229 185.967 238.253 187.118 237.09L187.776 237.74C186.982 238.543 186.982 239.939 187.776 240.742L187.118 241.393ZM191.04 241.723C189.908 242.541 188.178 242.563 187.104 241.378L187.79 240.757C188.498 241.538 189.685 241.56 190.498 240.973L191.04 241.723ZM218.966 270.191L190.442 241.676L191.096 241.021L219.62 269.537L218.966 270.191ZM266.944 243.501L240.284 270.191L239.629 269.537L266.29 242.847L266.944 243.501ZM282.338 243.637H266.617V242.712H282.338V243.637ZM203.812 321.09L282.01 242.847L282.665 243.501L204.467 321.745L203.812 321.09ZM150.951 320.955H204.14V321.88H150.951V320.955ZM204.302 322.864H150.441V321.938H204.302V322.864ZM297.332 230.016L204.629 322.728L203.975 322.074L296.677 229.362L297.332 230.016ZM307.212 240.552L296.677 230.016L297.332 229.362L307.866 239.897L307.212 240.552ZM213.617 333.593L307.212 239.897L307.866 240.551L214.272 334.247L213.617 333.593ZM214.522 333.997L214.272 334.247L213.618 333.593L213.867 333.342L214.522 333.997ZM308.352 241.114L215.025 334.387L214.371 333.733L307.698 240.459L308.352 241.114ZM318.718 252.21L307.697 241.112L308.354 240.46L319.374 251.558L318.718 252.21ZM263.859 306.481L318.719 251.557L319.373 252.211L264.513 307.135L263.859 306.481ZM263.721 306.599L263.883 306.459L264.489 307.158L264.327 307.299L263.721 306.599ZM263.561 354.99V306.949H264.487V354.99H263.561ZM358.101 449.855L263.696 355.317L264.351 354.663L358.756 449.201L358.101 449.855ZM358.354 453.236C357.279 452.22 357.199 450.41 358.057 449.253L358.8 449.804C358.199 450.614 358.281 451.894 358.989 452.563L358.354 453.236ZM362.647 453.225C361.494 454.391 359.496 454.391 358.342 453.225L359 452.574C359.792 453.375 361.198 453.375 361.989 452.574L362.647 453.225ZM362.647 448.922C363.798 450.086 363.798 452.061 362.647 453.225L361.989 452.574C362.783 451.771 362.783 450.376 361.989 449.573L362.647 448.922ZM358.725 448.591C359.857 447.774 361.586 447.751 362.661 448.937L361.975 449.558C361.267 448.777 360.079 448.755 359.267 449.342L358.725 448.591ZM290.039 379.246L359.323 448.64L358.668 449.293L289.384 379.9L290.039 379.246ZM310.537 380.036L289.712 380.036V379.11H310.537V380.036ZM347.567 417.266L310.21 379.9L310.865 379.246L348.221 416.612L347.567 417.266ZM347.819 420.646C346.745 419.63 346.664 417.82 347.522 416.663L348.266 417.214C347.665 418.024 347.747 419.304 348.455 419.974L347.819 420.646ZM352.113 420.635C350.959 421.802 348.962 421.802 347.808 420.635L348.466 419.985C349.257 420.785 350.663 420.785 351.455 419.985L352.113 420.635ZM352.113 416.332C353.263 417.496 353.263 419.472 352.113 420.635L351.455 419.985C352.249 419.182 352.249 417.786 351.455 416.983L352.113 416.332ZM348.19 416.002C349.322 415.184 351.052 415.162 352.126 416.347L351.441 416.969C350.732 416.187 349.545 416.165 348.732 416.752L348.19 416.002ZM311.027 378.263L348.789 416.05L348.134 416.704L310.372 378.917L311.027 378.263ZM265 354.242L288.986 378.263L288.331 378.917L264.345 354.896L265 354.242ZM265.135 307.651V354.569H264.209V307.651H265.135ZM309.163 263.729L265 307.978L264.345 307.324L308.508 263.076L309.163 263.729ZM308.373 287.283L308.373 263.402H309.298L309.298 287.283H308.373ZM281.362 314.067L308.509 286.955L309.163 287.61L282.016 314.721L281.362 314.067ZM281.224 314.185L281.386 314.044L281.992 314.744L281.83 314.884L281.224 314.185ZM281.064 338.696V314.534H281.99V338.696H281.064ZM279.654 339.077C280.13 338.582 280.812 338.233 281.527 338.233V339.158C281.108 339.158 280.656 339.371 280.321 339.719L279.654 339.077ZM279.659 343.376C278.508 342.212 278.508 340.236 279.659 339.073L280.317 339.723C279.522 340.526 279.522 341.922 280.317 342.725L279.659 343.376ZM283.963 343.376C282.81 344.542 280.812 344.542 279.659 343.376L280.317 342.725C281.108 343.525 282.514 343.525 283.305 342.725L283.963 343.376ZM283.963 339.073C285.114 340.236 285.114 342.212 283.963 343.376L283.305 342.725C284.099 341.922 284.099 340.526 283.305 339.723L283.963 339.073ZM282.094 338.233C282.809 338.233 283.492 338.582 283.968 339.077L283.301 339.719C282.966 339.371 282.514 339.158 282.094 339.158V338.233ZM282.557 315.096V338.696H281.632V315.096H282.557ZM309.568 288.312L282.421 315.424L281.767 314.769L308.914 287.658L309.568 288.312ZM309.706 288.194L309.544 288.335L308.938 287.636L309.1 287.495L309.706 288.194ZM309.866 262.841L309.866 287.845H308.94L308.94 262.841H309.866ZM320.021 252.914L309.729 263.168L309.076 262.513L319.368 252.258L320.021 252.914ZM330.711 264.291L319.366 252.913L320.022 252.259L331.367 263.638L330.711 264.291ZM338.254 257.408L331.366 264.292L330.712 263.637L337.6 256.754L338.254 257.408ZM337.464 309.056L337.464 257.081H338.389L338.389 309.056H337.464ZM313.694 332.75L337.599 308.73L338.255 309.382L314.35 333.403L313.694 332.75ZM310.382 333.021C311.421 332.038 313.126 331.859 314.293 332.702L313.751 333.452C312.973 332.89 311.76 332.992 311.017 333.694L310.382 333.021ZM310.37 337.335C309.22 336.172 309.22 334.196 310.37 333.032L311.028 333.683C310.234 334.486 310.234 335.882 311.028 336.685L310.37 337.335ZM314.675 337.335C313.521 338.502 311.524 338.502 310.37 337.335L311.028 336.685C311.82 337.485 313.226 337.485 314.017 336.685L314.675 337.335ZM314.961 333.363C315.83 334.535 315.718 336.185 314.689 337.321L314.003 336.699C314.756 335.868 314.806 334.708 314.217 333.914L314.961 333.363ZM338.741 310.085L314.917 333.965L314.261 333.312L338.085 309.432L338.741 310.085ZM338.878 309.967L338.716 310.108L338.11 309.409L338.272 309.268L338.878 309.967ZM339.038 288.407V309.618H338.112V288.407H339.038ZM356.156 306.714L338.247 288.733L338.903 288.08L356.811 306.06L356.156 306.714ZM356.021 326.475V306.387H356.946V326.475H356.021ZM317.098 365.199L356.156 326.147L356.811 326.802L317.752 365.853L317.098 365.199ZM313.785 365.471C314.825 364.487 316.53 364.308 317.696 365.151L317.154 365.901C316.376 365.339 315.164 365.441 314.421 366.143L313.785 365.471ZM313.774 369.784C312.623 368.621 312.623 366.645 313.774 365.481L314.432 366.132C313.638 366.935 313.638 368.331 314.432 369.134L313.774 369.784ZM318.078 369.784C316.925 370.951 314.927 370.951 313.774 369.784L314.432 369.134C315.223 369.934 316.629 369.934 317.42 369.134L318.078 369.784ZM318.364 365.812C319.234 366.985 319.122 368.634 318.092 369.77L317.407 369.148C318.16 368.317 318.21 367.158 317.621 366.363L318.364 365.812ZM357.216 327.504L318.32 366.415L317.665 365.761L356.562 326.85L357.216 327.504ZM357.354 327.386L357.192 327.527L356.586 326.827L356.748 326.687L357.354 327.386ZM357.514 305.685V327.036H356.588V305.685H357.514ZM338.903 286.816L357.379 305.358L356.723 306.011L338.247 287.469L338.903 286.816ZM339.038 256.379L339.038 287.142H338.112L338.112 256.379H339.038ZM348.708 246.872L338.903 256.706L338.247 256.052L348.053 246.219L348.708 246.872ZM356.318 255.16L348.053 246.872L348.708 246.219L356.973 254.507L356.318 255.16ZM356.183 273.657V254.834H357.108V273.657H356.183ZM368.879 286.487L356.319 273.985L356.972 273.329L369.532 285.831L368.879 286.487ZM369.131 289.867C368.049 288.843 367.99 287.183 368.818 285.907L369.594 286.411C368.963 287.383 369.067 288.532 369.767 289.194L369.131 289.867ZM373.425 289.856C372.271 291.022 370.274 291.022 369.12 289.856L369.778 289.205C370.569 290.005 371.975 290.005 372.767 289.205L373.425 289.856ZM373.425 285.553C374.575 286.716 374.575 288.692 373.425 289.856L372.767 289.205C373.561 288.402 373.561 287.006 372.767 286.203L373.425 285.553ZM369.502 285.222C370.634 284.404 372.364 284.382 373.438 285.567L372.753 286.189C372.044 285.407 370.857 285.385 370.044 285.972L369.502 285.222ZM357.539 272.767L370.1 285.269L369.447 285.925L356.886 273.423L357.539 272.767ZM357.676 255.396V273.095H356.75V255.396H357.676ZM384.275 283.115L356.886 255.723L357.54 255.068L384.93 282.46L384.275 283.115ZM384.14 324.087V282.788H385.065V324.087H384.14ZM343.029 365.058L384.275 323.76L384.93 324.413L343.684 365.712L343.029 365.058ZM342.891 365.176L343.053 365.036L343.659 365.735L343.497 365.875L342.891 365.176ZM342.731 381.118V365.526H343.657V381.118H342.731ZM366.205 404.764L342.867 381.446L343.521 380.791L366.859 404.109L366.205 404.764ZM366.457 408.144C365.374 407.121 365.316 405.46 366.144 404.185L366.92 404.689C366.289 405.661 366.393 406.81 367.093 407.472L366.457 408.144ZM370.75 408.133C369.597 409.3 367.599 409.3 366.446 408.133L367.104 407.483C367.895 408.283 369.301 408.283 370.092 407.483L370.75 408.133ZM370.75 403.83C371.901 404.994 371.901 406.97 370.75 408.133L370.092 407.483C370.887 406.68 370.887 405.284 370.092 404.481L370.75 403.83ZM366.828 403.5C367.96 402.682 369.69 402.66 370.764 403.845L370.079 404.467C369.37 403.685 368.183 403.663 367.37 404.25L366.828 403.5ZM344.088 380.229L367.426 403.548L366.772 404.202L343.434 380.884L344.088 380.229ZM344.224 366.088V380.556H343.299V366.088H344.224ZM385.335 325.116L344.089 366.415L343.434 365.761L384.68 324.462L385.335 325.116ZM385.473 324.998L385.311 325.139L384.704 324.439L384.867 324.299L385.473 324.998ZM385.632 282.226V324.648H384.707V282.226H385.632ZM349.275 245.657L385.497 281.899L384.842 282.553L348.62 246.311L349.275 245.657ZM356.568 239.006L349.275 246.311L348.62 245.657L355.913 238.352L356.568 239.006ZM402.913 286.065L355.913 239.006L356.568 238.352L403.568 285.411L402.913 286.065ZM402.777 363.138V285.738H403.703V363.138H402.777ZM416.607 377.23L402.912 363.464L403.568 362.811L417.263 376.578L416.607 377.23ZM416.472 448.124V376.904H417.398V448.124H416.472ZM472.926 504.78L416.608 448.451L417.262 447.796L473.581 504.126L472.926 504.78ZM473.5 507.596C472.632 506.76 472.349 505.433 472.826 504.277L473.681 504.629C473.348 505.439 473.551 506.36 474.142 506.929L473.5 507.596ZM398.213 195.46L330.712 127.893L331.366 127.239L398.868 194.806L398.213 195.46ZM330.712 262.373L398.213 194.806L398.868 195.46L331.366 263.027L330.712 262.373ZM263.865 194.806L331.366 262.373L330.712 263.027L263.21 195.46L263.865 194.806ZM331.366 127.893L263.865 195.46L263.21 194.806L330.712 127.239L331.366 127.893ZM490.919 254.173H407.292V253.247H490.919V254.173ZM423.094 241.53H411.344V240.605H423.094V241.53ZM414.018 164.469H435.492V165.394H414.018V164.469ZM336.306 83.9199H317.911V82.9945H336.306V83.9199ZM251.626 69.9306H267.913V70.856H251.626V69.9306ZM167.512 98.8679H218.321V99.7933H167.512V98.8679ZM21.0029 37.622H106.251V38.5474H21.0029V37.622ZM218.078 100.917H167.269V99.9917H218.078V100.917ZM155.844 110.668H214.188V111.593H155.844V110.668ZM213.945 112.576H155.6V111.651H213.945V112.576ZM201.223 196.719H166.297V195.794H201.223V196.719ZM238.093 231.697L227.802 231.697V230.771L238.093 230.771V231.697ZM239.957 270.327H219.293V269.401H239.957V270.327ZM288.658 378.127H310.699V379.053H288.658V378.127ZM146.281 318.687C147.321 317.703 149.025 317.524 150.192 318.367L149.65 319.117C148.872 318.555 147.66 318.657 146.917 319.359L146.281 318.687ZM146.27 323C145.119 321.837 145.119 319.861 146.27 318.697L146.928 319.348C146.134 320.151 146.134 321.547 146.928 322.35L146.27 323ZM150.574 323C149.421 324.167 147.423 324.167 146.27 323L146.928 322.35C147.719 323.15 149.125 323.15 149.916 322.35L150.574 323ZM149.878 322.394C150.234 321.929 150.621 321.215 150.693 320.569C150.728 320.255 150.685 319.986 150.56 319.768C150.437 319.554 150.205 319.337 149.763 319.177L150.079 318.307C150.683 318.526 151.109 318.867 151.362 319.306C151.612 319.741 151.663 320.221 151.613 320.671C151.515 321.553 151.019 322.426 150.612 322.957L149.878 322.394Z" fill="#1B4ED1"/>
</svg>
