<svg width="335" height="372" viewBox="0 0 335 372" fill="none" xmlns="http://www.w3.org/2000/svg">
<g opacity="0.1">
<mask id="mask0_1_970" style="mask-type:alpha" maskUnits="userSpaceOnUse" x="0" y="0" width="335" height="372">
<rect width="334.999" height="372" transform="matrix(-1 0 0 1 335 0)" fill="white"/>
</mask>
<g mask="url(#mask0_1_970)">
<path d="M167.511 127.852L167.182 127.527L167.187 127.521L167.193 127.516L167.511 127.852ZM169.675 127.669L169.517 128.104L169.457 128.082L169.405 128.044L169.675 127.669ZM167.511 130.232L167.84 129.907L167.511 130.232ZM169.887 130.232L170.254 130.513L170.236 130.537L170.216 130.557L169.887 130.232ZM341.45 240.891L341.8 241.193L341.79 241.205L341.779 241.216L341.45 240.891ZM339.074 240.891L339.395 240.557L339.403 240.565L339.074 240.891ZM341.45 238.419L341.779 238.094L341.79 238.105L341.8 238.116L341.45 238.419ZM339.074 238.419L338.673 238.188L338.703 238.136L338.745 238.094L339.074 238.419ZM339.021 238.511L339.422 238.742L339.12 239.264L338.694 238.838L339.021 238.511ZM302.378 201.897L302.051 202.224L301.916 202.088V201.897H302.378ZM302.378 156.312H301.916V155.195L302.706 155.985L302.378 156.312ZM350.214 204.185H350.677V205.303L349.887 204.512L350.214 204.185ZM350.214 203.453L350.542 203.126L350.677 203.261V203.453H350.214ZM293.403 146.61L293.075 146.937L292.94 146.801V146.61H293.403ZM293.403 96.174L293.73 95.847L293.865 95.9825V96.174H293.403ZM262.779 65.5098L262.452 65.8367L262.124 65.5084L262.453 65.1814L262.779 65.5098ZM268.218 60.1092L267.892 59.7809L268.219 59.4559L268.545 59.7821L268.218 60.1092ZM298.049 89.9496L298.376 89.6225L298.589 89.8351L298.481 90.1157L298.049 89.9496ZM297.943 90.2242L297.616 90.5512L297.404 90.3386L297.512 90.0581L297.943 90.2242ZM326.296 118.6L326.624 118.273L326.759 118.408V118.6H326.296ZM326.296 124.824L325.969 125.151L325.834 125.016V124.824H326.296ZM332.051 130.591L332.379 130.264L332.514 130.4V130.591H332.051ZM332.051 148.349L331.725 148.676L331.589 148.541V148.349H332.051ZM350.214 166.473H350.677V167.588L349.887 166.8L350.214 166.473ZM350.214 165.74L350.541 165.413L350.677 165.549V165.74H350.214ZM332.421 147.983L332.094 148.31L331.958 148.175V147.983H332.421ZM332.421 130.957H331.958V129.842L332.748 130.63L332.421 130.957ZM339.76 138.28L340.087 137.952L340.352 138.217L340.148 138.532L339.76 138.28ZM339.918 140.477L340.236 140.141L340.242 140.146L340.247 140.152L339.918 140.477ZM342.294 140.477L342.623 140.802V140.802L342.294 140.477ZM342.294 138.097L341.965 138.422L341.958 138.415L341.952 138.408L342.294 138.097ZM340.13 137.914L340.401 138.289L340.081 138.52L339.803 138.241L340.13 137.914ZM326.666 124.458L326.339 124.785L326.203 124.65V124.458H326.666ZM326.666 118.234L326.993 117.907L327.129 118.042V118.234H326.666ZM298.524 90.0411L298.197 90.368L297.409 89.5784H298.524V90.0411ZM311.618 90.0411V89.5784H311.81L311.946 89.7141L311.618 90.0411ZM350.214 128.669H350.677V129.787L349.887 128.996L350.214 128.669ZM350.214 127.937L350.542 127.61L350.677 127.745V127.937H350.214ZM312.357 90.0411L312.03 90.3681L311.241 89.5784H312.357V90.0411ZM350.214 90.0411H350.677V90.5038H350.214V90.0411ZM350.214 89.4004V88.9377H350.677V89.4004H350.214ZM298.26 89.4004V89.8631H298.068L297.933 89.7272L298.26 89.4004ZM268.587 59.6516L268.26 59.9783L267.933 59.6508L268.26 59.324L268.587 59.6516ZM274.184 54.068L273.857 53.7404L274.185 53.4135L274.511 53.7413L274.184 54.068ZM295.726 75.6702V76.1329H295.534L295.398 75.9969L295.726 75.6702ZM350.214 75.6702H350.677V76.1329H350.214V75.6702ZM350.214 74.8464V74.3837H350.677V74.8464H350.214ZM311.618 74.8464V75.3091H310.501L311.291 74.5191L311.618 74.8464ZM323.34 63.1299L323.013 62.8027L323.148 62.6672H323.34V63.1299ZM350.214 63.1299H350.677V63.5926H350.214V63.1299ZM350.214 62.4891V62.0264H350.677V62.4891H350.214ZM323.234 62.4891L322.908 62.1613L323.043 62.0264H323.234V62.4891ZM310.826 74.8464L311.153 75.1742L311.017 75.3091H310.826V74.8464ZM295.831 74.8464V75.3091H295.639L295.504 75.1732L295.831 74.8464ZM274.553 53.5188L274.226 53.8456L273.899 53.5177L274.227 53.1909L274.553 53.5188ZM279.516 48.5758L279.19 48.248L279.517 47.9221L279.844 48.2487L279.516 48.5758ZM298.366 67.4321V67.8948H298.174L298.038 67.7592L298.366 67.4321ZM306.022 67.4321L306.348 67.7597L306.213 67.8948H306.022V67.4321ZM321.439 52.0542L321.112 51.7266L321.248 51.5915H321.439V52.0542ZM350.267 52.0542H350.73V52.5169H350.267V52.0542ZM350.267 51.4135V50.9508H350.73V51.4135H350.267ZM321.333 51.4135L321.007 51.0859L321.142 50.9508H321.333V51.4135ZM305.916 66.7913L306.243 67.1189L306.107 67.254H305.916V66.7913ZM298.524 66.7913V67.254H298.332L298.196 67.1178L298.524 66.7913ZM284.849 53.0611L284.521 53.3876L283.735 52.5984H284.849V53.0611ZM291.713 53.0611V52.5984H291.905L292.041 52.7346L291.713 53.0611ZM298.366 59.7431V60.2058H298.173L298.038 60.0696L298.366 59.7431ZM303.54 59.7431L303.868 60.07L303.732 60.2058H303.54V59.7431ZM315.05 48.2097L314.723 47.8829L315.001 47.6037L315.321 47.8346L315.05 48.2097ZM317.162 48.0267L317.491 48.352L317.486 48.3575L317.48 48.3629L317.162 48.0267ZM317.162 45.6467L316.833 45.972V45.972L317.162 45.6467ZM314.786 45.6467L314.457 45.3214L314.457 45.3214L314.786 45.6467ZM314.628 47.8436L314.985 47.5494L315.252 47.8735L314.955 48.1706L314.628 47.8436ZM303.382 59.1023L303.709 59.4293L303.573 59.565H303.382V59.1023ZM298.419 59.1023V59.565H298.226L298.091 59.4288L298.419 59.1023ZM291.766 52.4203V51.9576H291.958L292.094 52.0938L291.766 52.4203ZM284.163 52.4203V52.883H283.97L283.835 52.7465L284.163 52.4203ZM279.886 48.1182L279.558 48.4444L279.232 48.1169L279.559 47.7907L279.886 48.1182ZM286.856 41.1615L286.529 40.834L286.664 40.6988H286.856V41.1615ZM297.099 41.1615L297.426 41.4887L297.29 41.6242H297.099V41.1615ZM309.823 28.4382L309.496 28.111L309.775 27.8323L310.094 28.0631L309.823 28.4382ZM311.988 28.2551L312.317 28.5805L312.311 28.586L312.306 28.5913L311.988 28.2551ZM311.988 25.8752L312.317 25.5499L312.317 25.5499L311.988 25.8752ZM309.612 25.8752L309.269 25.5645L309.276 25.557L309.283 25.5499L309.612 25.8752ZM309.454 28.0721L309.825 27.7964L310.063 28.1165L309.781 28.3987L309.454 28.0721ZM297.046 40.5208L297.374 40.8474L297.238 40.9835H297.046V40.5208ZM287.542 40.5208V40.9835H286.43L287.214 40.1947L287.542 40.5208ZM290.815 37.2256L291.145 36.9002L291.467 37.2263L291.144 37.5517L290.815 37.2256ZM285.747 32.0996L285.418 32.4249L285.094 32.0972L285.42 31.7718L285.747 32.0996ZM299.527 18.3693L299.201 18.0415L299.336 17.9066H299.527V18.3693ZM313.994 18.3693V17.9066H314.186L314.322 18.0424L313.994 18.3693ZM329.253 33.6557L329.581 33.3288L329.862 33.611L329.625 33.9313L329.253 33.6557ZM329.412 35.8525L329.729 35.5163L329.735 35.5216L329.741 35.5272L329.412 35.8525ZM331.787 35.8525L331.458 35.5272L331.458 35.5271L331.787 35.8525ZM331.787 33.4726L331.458 33.7979L331.451 33.7908L331.445 33.7833L331.787 33.4726ZM329.623 33.2895L329.894 33.6646L329.574 33.8954L329.295 33.6166L329.623 33.2895ZM321.756 25.4175L321.428 25.7446L320.639 24.9548H321.756V25.4175ZM350.267 25.4175H350.73V25.8802H350.267V25.4175ZM350.267 24.6853L349.964 24.3357L350.73 23.6714V24.6853H350.267ZM350.162 24.7768L350.465 25.1264L350.334 25.2395H350.162V24.7768ZM321.069 24.7768V25.2395H320.878L320.742 25.1043L321.069 24.7768ZM314.1 17.8202V17.3575H314.291L314.427 17.4927L314.1 17.8202ZM300.108 17.8202V18.2829H298.987L299.782 17.4922L300.108 17.8202ZM305.81 12.145L305.484 11.817L305.619 11.6823H305.81V12.145ZM338.546 12.145L338.872 12.4727L338.737 12.6077H338.546V12.145ZM346.994 3.72382L346.667 3.39612L346.802 3.26111H346.994V3.72382ZM350.214 3.72382H350.677V4.18652H350.214V3.72382ZM350.214 3.08308V2.62038H350.677V3.08308H350.214ZM347.627 3.08308V3.54579H346.503L347.301 2.75438L347.627 3.08308ZM350.214 0.520065H350.677V0.712997L350.54 0.848785L350.214 0.520065ZM350.214 -0.212219L349.887 -0.538925L350.677 -1.33156V-0.212219H350.214ZM338.44 11.5958L338.768 11.9225L338.632 12.0585H338.44V11.5958ZM305.705 11.5958L305.377 11.2689L305.513 11.1331H305.705V11.5958ZM285.324 32.008L285.652 32.3349L285.324 32.6629L284.997 32.3349L285.324 32.008ZM275.821 22.4884L275.493 22.8153L275.167 22.4882L275.493 22.1612L275.821 22.4884ZM299.527 -1.2191L299.2 -1.54628L299.336 -1.68181H299.527V-1.2191ZM325.029 -1.2191L325.357 -0.89209L325.221 -0.756393H325.029V-1.2191ZM350.267 -26.4827H350.73V-26.2912L350.594 -26.1557L350.267 -26.4827ZM350.267 -27.215L349.94 -27.542L350.73 -28.3329V-27.215H350.267ZM325.029 -1.95131L325.357 -1.6243L325.221 -1.4886H325.029V-1.95131ZM300.267 -1.95131V-1.4886H299.152L299.939 -2.27805L300.267 -1.95131ZM331.576 -33.3478H332.039V-33.1565L331.904 -33.0211L331.576 -33.3478ZM331.576 -58.4284H331.114V-58.6195L331.248 -58.7549L331.576 -58.4284ZM350.267 -77.193H350.73V-77.0019L350.595 -76.8664L350.267 -77.193ZM350.267 -77.9253L349.94 -78.2523L350.73 -79.0431V-77.9253H350.267ZM331.154 -58.7945H330.691V-58.986L330.827 -59.1215L331.154 -58.7945ZM331.154 -33.714H331.617V-33.5224L331.481 -33.3869L331.154 -33.714ZM275.451 22.0307L275.778 22.3578L275.452 22.6845L275.125 22.3587L275.451 22.0307ZM267.267 13.8841L266.941 14.2121L266.612 13.885L266.94 13.5571L267.267 13.8841ZM300.742 -19.6176H301.204V-19.4261L301.069 -19.2906L300.742 -19.6176ZM300.742 -70.0533H300.279V-70.2452L300.415 -70.3808L300.742 -70.0533ZM319.644 -88.9095V-89.3722H320.763L319.97 -88.5819L319.644 -88.9095ZM318.905 -88.9095L318.578 -89.237L318.713 -89.3722H318.905V-88.9095ZM300.372 -70.4195H299.909V-70.6114L300.045 -70.747L300.372 -70.4195ZM300.372 -19.9837H300.835V-19.7922L300.699 -19.6567L300.372 -19.9837ZM266.898 13.5181L267.225 13.8451L266.899 14.1714L266.572 13.8463L266.898 13.5181ZM261.829 8.48363L261.503 8.81192L261.173 8.48466L261.502 8.15637L261.829 8.48363ZM286.644 -16.3224H287.107V-16.1306L286.972 -15.9951L286.644 -16.3224ZM286.644 -75.4539H286.182V-75.6459L286.318 -75.7815L286.644 -75.4539ZM298.577 -87.3534H299.04V-87.1613L298.904 -87.0257L298.577 -87.3534ZM298.577 -88.9095V-89.3722H299.04V-88.9095H298.577ZM298.207 -88.9095H297.745V-89.3722H298.207V-88.9095ZM298.207 -87.7195H298.67V-87.5275L298.534 -87.3919L298.207 -87.7195ZM286.275 -75.82H285.812V-76.012L285.948 -76.1476L286.275 -75.82ZM286.275 -16.6885H286.737V-16.4968L286.602 -16.3612L286.275 -16.6885ZM261.459 8.11743L261.786 8.44469L261.46 8.77083L261.133 8.44553L261.459 8.11743ZM254.648 1.34392L254.322 1.672L253.994 1.34555L254.32 1.01746L254.648 1.34392ZM273.603 -17.6953H274.066V-17.5043L273.931 -17.3689L273.603 -17.6953ZM273.603 -88.9095V-89.3722H274.066V-88.9095H273.603ZM273.233 -88.9095H272.771V-89.3722H273.233V-88.9095ZM273.233 -58.6115H273.696V-57.493L272.906 -58.2845L273.233 -58.6115ZM263.73 -68.1311L263.402 -67.8042L263.267 -67.9397V-68.1311H263.73ZM263.73 -88.9095V-89.3722H264.192V-88.9095H263.73ZM263.36 -88.9095H262.897V-89.3722H263.36V-88.9095ZM263.36 -67.7649L263.033 -67.438L262.897 -67.5735V-67.7649H263.36ZM273.233 -57.8791L273.561 -58.2061L273.696 -58.0706V-57.8791H273.233ZM273.233 -40.396H273.696V-39.2772L272.906 -40.0692L273.233 -40.396ZM260.72 -52.9363L260.393 -52.6095L260.126 -52.8763L260.334 -53.1909L260.72 -52.9363ZM260.509 -55.0416L260.191 -54.7054L260.185 -54.7107L260.18 -54.7162L260.509 -55.0416ZM258.133 -55.0416L257.804 -55.3669H257.804L258.133 -55.0416ZM258.133 -52.6617L257.83 -52.312L257.816 -52.3237L257.804 -52.3363L258.133 -52.6617ZM260.351 -52.5701L260.047 -52.9198L260.373 -53.2022L260.678 -52.897L260.351 -52.5701ZM273.233 -39.6637L273.561 -39.9906L273.696 -39.8551V-39.6637H273.233ZM273.233 -18.0615H273.696V-17.8704L273.561 -17.735L273.233 -18.0615ZM254.279 0.977722L254.607 1.30418L254.28 1.63199L253.952 1.30574L254.279 0.977722ZM248.207 -5.06358L247.88 -4.73558L247.552 -5.06267L247.879 -5.39069L248.207 -5.06358ZM257.447 -14.3086H257.909V-14.117L257.774 -13.9815L257.447 -14.3086ZM257.447 -27.9472L257.771 -28.2769L257.909 -28.141V-27.9472H257.447ZM255.123 -30.2357L254.799 -29.906L254.661 -30.042V-30.2357H255.123ZM255.123 -37.1922L255.451 -37.5191L255.586 -37.3837V-37.1922H255.123ZM238.492 -53.8516L238.164 -53.5247L238.029 -53.6602V-53.8516H238.492ZM238.492 -65.5681L238.819 -65.8949L238.954 -65.7594V-65.5681H238.492ZM224.975 -79.1153L224.648 -78.7885L224.366 -79.0707L224.604 -79.3909L224.975 -79.1153ZM224.817 -81.312L224.499 -80.9759L224.493 -80.9812L224.488 -80.9867L224.817 -81.312ZM222.441 -78.9321L222.77 -79.2575L222.777 -79.2503L222.784 -79.2429L222.441 -78.9321ZM224.606 -78.7491L224.335 -79.1242L224.655 -79.3552L224.933 -79.0759L224.606 -78.7491ZM238.122 -65.202L238.45 -65.5288L238.585 -65.3933V-65.202H238.122ZM238.122 -53.4854L237.795 -53.1585L237.659 -53.294V-53.4854H238.122ZM254.754 -36.8261L255.081 -37.153L255.217 -37.0176V-36.8261H254.754ZM254.754 -30.6018H255.217V-29.4825L254.426 -30.2751L254.754 -30.6018ZM226.823 -58.6115L226.496 -58.2847L226.229 -58.5515L226.437 -58.8661L226.823 -58.6115ZM226.612 -60.7167L226.294 -60.3805L226.288 -60.3859L226.283 -60.3914L226.612 -60.7167ZM224.236 -60.7167L224.565 -60.3914H224.565L224.236 -60.7167ZM224.236 -58.3368L223.933 -57.9872L223.92 -57.9988L223.907 -58.0115L224.236 -58.3368ZM226.454 -58.2452L226.151 -58.5949L226.476 -58.8773L226.781 -58.5721L226.454 -58.2452ZM248.84 -35.8192L249.168 -36.1461L249.956 -35.3565H248.84V-35.8192ZM237.647 -35.8192V-35.3565H237.455L237.319 -35.4923L237.647 -35.8192ZM224.764 -48.7256L224.437 -48.3987L224.155 -48.681L224.392 -49.0013L224.764 -48.7256ZM224.606 -50.9225L224.288 -50.5863L224.282 -50.5916L224.277 -50.5971L224.606 -50.9225ZM222.23 -50.9225L221.901 -51.2478L221.901 -51.2479L222.23 -50.9225ZM222.23 -48.5426L222.559 -48.8679L222.566 -48.8608L222.572 -48.8534L222.23 -48.5426ZM224.394 -48.3596L224.123 -48.7346L224.443 -48.9654L224.722 -48.6868L224.394 -48.3596ZM237.489 -35.2701V-34.8074H237.297L237.161 -34.9428L237.489 -35.2701ZM249.474 -35.2701V-35.7328H249.665L249.801 -35.5974L249.474 -35.2701ZM257.077 -27.6726L257.404 -27.9999L257.54 -27.8644V-27.6726H257.077ZM257.077 -14.8578H257.54V-14.6662L257.404 -14.5307L257.077 -14.8578ZM247.837 -5.61273L248.164 -5.28563L247.839 -4.95979L247.512 -5.28401L247.837 -5.61273ZM245.989 -7.44347L245.662 -7.77039L245.987 -8.09657L246.315 -7.77217L245.989 -7.44347ZM243.613 -5.06358L243.941 -4.73668L243.613 -4.40887L243.286 -4.73648L243.613 -5.06358ZM204.912 -43.7828V-44.2455H205.103L205.239 -44.1099L204.912 -43.7828ZM194.299 -43.7828V-43.3201H193.917L193.845 -43.6954L194.299 -43.7828ZM193.824 -44.6066L194.153 -44.9319L194.157 -44.9273L193.824 -44.6066ZM191.448 -44.6066L191.777 -44.2812L191.777 -44.2812L191.448 -44.6066ZM191.448 -42.2267L191.119 -41.9013L191.119 -41.9013L191.448 -42.2267ZM193.824 -42.2267L193.495 -42.552L193.525 -42.5825L193.56 -42.6069L193.824 -42.2267ZM194.299 -43.0505L193.845 -43.1379L193.917 -43.5132H194.299V-43.0505ZM204.753 -43.0505V-43.5132H204.945L205.081 -43.3775L204.753 -43.0505ZM243.244 -4.51436L243.571 -4.84134L243.899 -4.51262L243.569 -4.18564L243.244 -4.51436ZM237.33 1.34392L237.656 1.67262L237.328 1.99709L237.003 1.67076L237.33 1.34392ZM205.176 -30.8764L204.848 -30.5495L204.584 -30.8144L204.787 -31.1283L205.176 -30.8764ZM205.017 -33.0732L204.699 -32.7369L204.694 -32.7423L204.688 -32.7478L205.017 -33.0732ZM202.641 -33.0732L202.97 -32.7478H202.97L202.641 -33.0732ZM202.641 -30.6933L202.97 -31.0187L202.977 -31.0115L202.984 -31.0041L202.641 -30.6933ZM204.806 -30.5102L204.535 -30.8853L204.854 -31.1158L205.133 -30.8378L204.806 -30.5102ZM237.013 1.61853L237.34 1.29095L237.668 1.61792L237.341 1.9455L237.013 1.61853ZM230.889 7.75134L231.216 8.07831L230.889 8.40605L230.561 8.07841L230.889 7.75134ZM185.429 -37.7415L185.102 -37.4144L184.966 -37.5499V-37.7415H185.429ZM185.429 -75.82H184.966V-76.0117L185.102 -76.1472L185.429 -75.82ZM198.523 -88.9095V-89.3722H199.64L198.85 -88.5822L198.523 -88.9095ZM197.784 -88.9095L197.457 -89.2374L197.593 -89.3722H197.784V-88.9095ZM189.97 -81.129L190.296 -80.8011L189.97 -80.476L189.643 -80.8011L189.97 -81.129ZM182.155 -88.9095V-89.3722H182.346L182.482 -89.2374L182.155 -88.9095ZM181.416 -88.9095L181.09 -88.5816L180.295 -89.3722H181.416V-88.9095ZM189.6 -80.7628L189.926 -81.0907L190.254 -80.7649L189.928 -80.4369L189.6 -80.7628ZM185.059 -76.1862H184.597V-76.3767L184.731 -76.5121L185.059 -76.1862ZM185.059 -46.2543H185.522V-45.1392L184.732 -45.9267L185.059 -46.2543ZM177.351 -53.9432L177.024 -53.6156L176.888 -53.7512V-53.9432H177.351ZM177.351 -72.6163L177.678 -72.9432L177.813 -72.8077V-72.6163H177.351ZM161.722 -88.2688L161.395 -87.9419L161.144 -88.1928L161.321 -88.5L161.722 -88.2688ZM161.986 -88.9095V-89.3722H162.601L162.431 -88.7812L161.986 -88.9095ZM158.713 -88.9095L158.281 -88.7434L158.039 -89.3722H158.713V-88.9095ZM159.188 -88.0856L159.521 -88.4064L159.531 -88.3964L159.188 -88.0856ZM161.353 -87.9026L161.082 -88.2777L161.401 -88.5086L161.68 -88.2295L161.353 -87.9026ZM176.981 -72.2501L177.308 -72.5771L177.444 -72.4416V-72.2501H176.981ZM176.981 -53.577L176.654 -53.2494L176.518 -53.385V-53.577H176.981ZM185.059 -45.5219L185.386 -45.8495L185.522 -45.7139V-45.5219H185.059ZM185.059 -37.3754L184.732 -37.0483L184.597 -37.1838V-37.3754H185.059ZM230.519 8.11743L230.846 7.79037L231.174 8.11812L230.846 8.44519L230.519 8.11743ZM223.814 14.7995L224.14 15.1272L223.813 15.4534L223.486 15.1265L223.814 14.7995ZM135.639 -73.4401L135.312 -73.113L135.177 -73.2485V-73.4401H135.639ZM135.639 -89.001V-89.4637H136.102V-89.001H135.639ZM135.27 -89.001H134.807V-89.4637H135.27V-89.001ZM135.27 -73.0739L134.943 -72.7468L134.807 -72.8823V-73.0739H135.27ZM223.444 15.1656L223.771 14.8386L224.099 15.1669L223.77 15.494L223.444 15.1656ZM218.006 20.5663L218.332 20.8946L218.004 21.2198L217.678 20.8931L218.006 20.5663ZM172.599 -24.9266V-25.3893H172.791L172.926 -25.2535L172.599 -24.9266ZM139.494 -24.9266V-24.4639H139.302L139.167 -24.5992L139.494 -24.9266ZM124.921 -39.4807L124.594 -39.1533L123.803 -39.9434H124.921V-39.4807ZM125.027 -39.4807H125.49V-39.0179H125.027V-39.4807ZM125.027 -54.95L125.354 -55.2768L125.49 -55.1413V-54.95H125.027ZM108.501 -71.5178L108.173 -71.191L107.892 -71.4733L108.129 -71.7935L108.501 -71.5178ZM108.342 -73.7147L108.024 -73.3785L108.019 -73.3838L108.013 -73.3893L108.342 -73.7147ZM105.966 -73.7147L106.295 -73.3893L106.295 -73.3893L105.966 -73.7147ZM105.966 -71.3348L106.295 -71.6601L106.302 -71.653L106.309 -71.6455L105.966 -71.3348ZM108.131 -71.1517L107.86 -71.5268L108.18 -71.7579L108.459 -71.4785L108.131 -71.1517ZM124.657 -54.5839L124.985 -54.9107L125.12 -54.7752V-54.5839H124.657ZM124.657 -39.7552H125.12V-38.6382L124.33 -39.4281L124.657 -39.7552ZM99.5777 -64.8358V-65.2985H99.7694L99.9049 -65.163L99.5777 -64.8358ZM44.0332 -64.8358L43.706 -65.1629L43.8415 -65.2985H44.0332V-64.8358ZM33.8837 -54.681L34.211 -54.3539L33.8826 -54.0254L33.5554 -54.355L33.8837 -54.681ZM33.8511 -54.7129L33.5332 -54.3768L33.5276 -54.382L33.5221 -54.3875L33.8511 -54.7129ZM31.4752 -54.7129L31.1462 -55.0382H31.1462L31.4752 -54.7129ZM31.4752 -52.333L31.8042 -52.6583L31.8113 -52.6512L31.818 -52.6437L31.4752 -52.333ZM33.6399 -52.1498L33.9656 -51.8211L33.94 -51.7958L33.9109 -51.7748L33.6399 -52.1498ZM34.0095 -52.516L34.3812 -52.2404L34.3602 -52.2121L34.3352 -52.1873L34.0095 -52.516ZM34.1792 -54.2472L33.7575 -54.0567L33.6262 -54.3476L33.8514 -54.5737L34.1792 -54.2472ZM44.086 -64.195L43.7581 -64.5215L43.8938 -64.6577H44.086V-64.195ZM99.4193 -64.195V-64.6577H99.6112L99.7468 -64.5218L99.4193 -64.195ZM139.335 -24.1944V-23.7317H139.143L139.008 -23.8675L139.335 -24.1944ZM172.44 -24.1944V-24.6571H172.632L172.768 -24.5215L172.44 -24.1944ZM217.636 21.0238L217.963 20.6967L218.29 21.0237L217.964 21.3508L217.636 21.0238ZM212.884 25.7836L213.212 26.1105L212.884 26.4384L212.557 26.1107L212.884 25.7836ZM169.906 -17.2377V-17.7004H170.098L170.233 -17.5647L169.906 -17.2377ZM131.891 -17.2377V-16.775H131.699L131.563 -16.9106L131.891 -17.2377ZM113.411 -35.7278L113.084 -35.4007L112.802 -35.6829L113.039 -36.0034L113.411 -35.7278ZM113.253 -37.9246L112.935 -37.5884L112.929 -37.5937L112.924 -37.5992L113.253 -37.9246ZM110.877 -37.9246L110.548 -38.2499L110.548 -38.2499L110.877 -37.9246ZM110.877 -35.5446L111.206 -35.8699L111.213 -35.8628L111.219 -35.8554L110.877 -35.5446ZM113.041 -35.3616L112.77 -35.7367L113.091 -35.9679L113.369 -35.6881L113.041 -35.3616ZM131.732 -16.5969V-16.1342H131.54L131.405 -16.2704L131.732 -16.5969ZM169.748 -16.5969V-17.0596H169.941L170.077 -16.9222L169.748 -16.5969ZM176.083 -10.1895L176.412 -10.5148L177.192 -9.72678H176.083V-10.1895ZM125.396 -10.1895L125.069 -10.5166L125.205 -10.6522H125.396V-10.1895ZM85.322 29.9027L85.6493 30.2298L85.3706 30.5086L85.0511 30.2778L85.322 29.9027ZM83.1572 30.0859L82.8282 29.7605L82.8337 29.755L82.8393 29.7497L83.1572 30.0859ZM83.1572 32.4657L82.8282 32.7911L82.8282 32.7911L83.1572 32.4657ZM85.5332 32.4657L85.8761 32.7765L85.8693 32.7839L85.8622 32.7911L85.5332 32.4657ZM85.6916 30.2689L85.3199 30.5445L85.0831 30.2252L85.3632 29.9429L85.6916 30.2689ZM125.396 -9.73183L125.068 -10.0578L125.204 -10.1945H125.396V-9.73183ZM176.664 -9.73183V-10.1945H176.856L176.991 -10.0593L176.664 -9.73183ZM192.715 6.28676L193.042 5.95926L193.369 6.28558L193.043 6.6131L192.715 6.28676ZM186.432 12.6027L186.76 12.929L186.624 13.0654H186.432V12.6027ZM175.239 12.6027L174.912 12.2752L175.047 12.14H175.239V12.6027ZM164.784 23.0376L165.111 23.3651L164.833 23.6433L164.514 23.4127L164.784 23.0376ZM162.62 23.2207L162.291 22.8954L162.296 22.8898L162.302 22.8845L162.62 23.2207ZM162.62 25.6006L162.949 25.2753L162.949 25.2753L162.62 25.6006ZM164.996 25.6006L165.338 25.9114L165.332 25.9188L165.325 25.9259L164.996 25.6006ZM165.154 23.4037L164.782 23.6794L164.544 23.3583L164.827 23.0761L165.154 23.4037ZM175.344 13.2434L175.018 12.9158L175.153 12.7807H175.344V13.2434ZM185.746 13.2434V12.7807H186.862L186.073 13.5706L185.746 13.2434ZM161.405 37.5917L161.733 37.9188L161.597 38.0544H161.405V37.5917ZM138.86 37.5917V38.0544H138.669L138.533 37.9192L138.86 37.5917ZM126.294 25.0514L125.967 25.379L125.684 25.0967L125.922 24.7758L126.294 25.0514ZM126.136 22.8546L125.818 23.1908L125.812 23.1854L125.807 23.1799L126.136 22.8546ZM123.76 22.8546L124.089 23.1799L124.089 23.1799L123.76 22.8546ZM123.76 25.2345L124.089 24.9091L124.096 24.9163L124.103 24.9237L123.76 25.2345ZM125.924 25.4175L125.653 25.0424L125.973 24.8113L126.252 25.0908L125.924 25.4175ZM138.702 38.2325V38.6952H138.51L138.374 38.5592L138.702 38.2325ZM161.458 38.2325L161.785 38.5596L161.65 38.6952H161.458V38.2325ZM193.032 6.65295L192.705 6.32581L193.032 5.99802L193.36 6.32631L193.032 6.65295ZM206.443 20.1085L206.771 19.7819L207.557 20.5712H206.443V20.1085ZM199.051 20.1085L198.724 19.7809L198.86 19.6458H199.051V20.1085ZM193.085 26.0583L193.411 26.3859L193.133 26.6638L192.814 26.4333L193.085 26.0583ZM190.92 26.2414L191.263 26.5521L191.256 26.5596L191.249 26.5667L190.92 26.2414ZM190.92 28.6213L190.591 28.9466L190.591 28.9466L190.92 28.6213ZM193.296 28.6213L192.967 28.2959L192.972 28.2904L192.978 28.2851L193.296 28.6213ZM193.507 26.516L193.135 26.7916L192.897 26.4703L193.181 26.188L193.507 26.516ZM199.209 20.8408L198.883 20.5128L199.018 20.3781H199.209V20.8408ZM207.182 20.8408V20.3781H207.374L207.51 20.5145L207.182 20.8408ZM212.462 26.1498L212.79 25.8235L213.115 26.1506L212.789 26.4768L212.462 26.1498ZM201.216 37.4086L200.887 37.7343L200.563 37.4073L200.888 37.0816L201.216 37.4086ZM204.753 40.9785L205.082 40.6528L205.406 40.9797L205.081 41.3054L204.753 40.9785ZM185.376 60.3839L185.703 60.7108L185.568 60.8465H185.376V60.3839ZM178.882 60.3839V60.8465H178.69L178.555 60.7114L178.882 60.3839ZM171.173 52.6949L170.846 53.0225L170.563 52.7403L170.801 52.4193L171.173 52.6949ZM171.015 50.4981L170.697 50.8343L170.691 50.8289L170.686 50.8234L171.015 50.4981ZM168.639 50.4981L168.31 50.1727L168.31 50.1727L168.639 50.4981ZM168.639 52.878L168.968 52.5527L168.975 52.5598L168.982 52.5673L168.639 52.878ZM170.804 53.0611L170.533 52.686L170.852 52.4554L171.131 52.7337L170.804 53.0611ZM178.776 61.0246V61.4873H178.585L178.449 61.3519L178.776 61.0246ZM185.482 61.0246L185.808 61.3528L185.672 61.4873H185.482V61.0246ZM199.579 47.0198L199.253 46.6915L200.042 45.9079V47.0198H199.579ZM199.579 59.9262H200.042V60.118L199.906 60.2536L199.579 59.9262ZM186.379 73.1072L186.706 73.4346L186.428 73.7129L186.108 73.4823L186.379 73.1072ZM184.214 73.2903L183.885 72.9649L183.891 72.9594L183.897 72.9541L184.214 73.2903ZM184.214 75.6702L184.543 75.3448L184.543 75.3448L184.214 75.6702ZM186.59 75.6702L186.933 75.9809L186.926 75.9883L186.919 75.9955L186.59 75.6702ZM186.749 73.4733L186.377 73.7489L186.139 73.4281L186.422 73.1459L186.749 73.4733ZM199.949 60.2924H200.411V60.4842L200.275 60.6198L199.949 60.2924ZM199.949 46.6537H199.486V46.4618L199.622 46.3262L199.949 46.6537ZM205.176 41.4361L204.849 41.1087L205.176 40.7817L205.503 41.1093L205.176 41.4361ZM223.444 59.7431L223.772 59.4163L224.098 59.7432L223.771 60.0701L223.444 59.7431ZM214.943 68.2558L215.271 68.5828L215.135 68.7185H214.943V68.2558ZM203.961 68.2558L203.634 67.9288L203.769 67.7931H203.961V68.2558ZM186.59 85.6474L186.918 85.9744L186.782 86.1101H186.59V85.6474ZM173.391 85.6474V86.1101H173.199L173.063 85.9744L173.391 85.6474ZM155.017 67.2489L154.689 67.5759L154.407 67.2937L154.645 66.9733L155.017 67.2489ZM154.858 65.0522L154.54 65.3884L154.535 65.383L154.529 65.3775L154.858 65.0522ZM152.482 65.0522L152.811 65.3775L152.811 65.3775L152.482 65.0522ZM152.482 67.4321L152.811 67.1067L152.818 67.1139L152.825 67.1213L152.482 67.4321ZM154.647 67.6151L154.376 67.24L154.696 67.0093L154.974 67.2879L154.647 67.6151ZM173.232 86.1967V86.6594H173.041L172.905 86.5239L173.232 86.1967ZM186.696 86.1967L187.023 86.5237L186.888 86.6594H186.696V86.1967ZM204.067 68.8051L203.739 68.4781L203.875 68.3424H204.067V68.8051ZM214.31 68.8051V68.3424H215.426L214.637 69.1321L214.31 68.8051ZM163.359 119.79L163.686 120.117L163.551 120.253H163.359V119.79ZM163.464 120.431L163.792 120.758L163.656 120.893H163.464V120.431ZM223.866 60.0177L223.539 59.6906L223.866 59.3633L224.194 59.6906L223.866 60.0177ZM230.73 66.8828L231.058 66.5557L231.384 66.8827L231.058 67.2098L230.73 66.8828ZM169.748 127.937L170.075 128.264L169.42 127.61L169.748 127.937ZM231.047 67.2489L230.72 66.9217L231.048 66.5935L231.375 66.9229L231.047 67.2489ZM238.228 74.4802L238.556 74.1542L238.881 74.4811L238.555 74.8072L238.228 74.4802ZM202.483 110.27L202.81 110.597L202.798 110.609L202.786 110.62L202.483 110.27ZM202.377 110.362H201.915V110.151L202.074 110.012L202.377 110.362ZM202.377 141.667L202.05 141.994L201.915 141.858V141.667H202.377ZM263.888 203.27L264.215 202.943L264.497 203.225L264.26 203.545L263.888 203.27ZM264.046 205.467L264.364 205.13L264.37 205.136L264.375 205.141L264.046 205.467ZM266.422 205.467L266.093 205.141L266.093 205.141L266.422 205.467ZM266.422 203.087L266.093 203.412L266.086 203.405L266.08 203.397L266.422 203.087ZM264.258 202.904L264.529 203.279L264.209 203.51L263.93 203.23L264.258 202.904ZM219.115 157.685L218.787 158.012L217.999 157.223H219.115V157.685ZM232.684 157.685V157.223H232.876L233.011 157.358L232.684 157.685ZM257.024 182.034L257.351 181.707L257.634 181.989L257.396 182.309L257.024 182.034ZM257.183 184.23L257.501 183.894L257.506 183.9L257.512 183.905L257.183 184.23ZM259.559 184.23L259.888 184.556L259.888 184.556L259.559 184.23ZM259.559 181.851L259.23 182.176L259.222 182.169L259.216 182.161L259.559 181.851ZM257.394 181.667L257.665 182.043L257.345 182.273L257.066 181.995L257.394 181.667ZM232.789 157.045V156.582H232.981L233.117 156.718L232.789 157.045ZM218.428 157.045V157.507H218.236L218.101 157.372L218.428 157.045ZM202.8 141.392L202.472 141.719L202.337 141.584V141.392H202.8ZM202.8 110.82H202.337V110.628L202.472 110.493L202.8 110.82ZM231.575 81.9861L231.248 81.6592L232.038 80.8674V81.9861H231.575ZM231.575 97.547H232.038V97.7388L231.902 97.8744L231.575 97.547ZM213.887 115.213L214.214 115.541L214.203 115.552L214.191 115.563L213.887 115.213ZM213.782 115.305H213.319V115.094L213.479 114.955L213.782 115.305ZM213.782 131.049H214.245V131.511H213.782V131.049ZM212.779 131.506L213.112 131.827L213.108 131.832L212.779 131.506ZM215.155 131.506L214.826 131.832L214.821 131.827L215.155 131.506ZM214.151 131.049V131.511H213.689V131.049H214.151ZM214.151 115.671H213.689V115.479L213.824 115.343L214.151 115.671ZM231.839 98.0047L231.512 97.6773L231.524 97.6658L231.536 97.6552L231.839 98.0047ZM231.945 97.9131H232.407V98.1243L232.248 98.2626L231.945 97.9131ZM231.945 81.62H231.482V81.4279L231.618 81.2922L231.945 81.62ZM238.65 74.9379L238.324 74.6101L238.651 74.2836L238.978 74.6112L238.65 74.9379ZM246.042 82.3522L246.369 82.6795L246.041 83.007L245.714 82.6789L246.042 82.3522ZM250.53 77.867L250.203 77.5397L250.993 76.7504V77.867H250.53ZM250.53 111.735H250.993V111.926L250.858 112.061L250.53 111.735ZM234.954 127.387L235.282 127.714L235.004 127.994L234.683 127.762L234.954 127.387ZM232.789 127.57L232.46 127.245L232.466 127.24L232.472 127.234L232.789 127.57ZM232.789 129.95L232.46 130.276V130.276L232.789 129.95ZM235.165 129.95L235.508 130.261L235.502 130.269L235.494 130.276L235.165 129.95ZM235.324 127.754L234.952 128.029L234.715 127.709L234.996 127.427L235.324 127.754ZM250.847 112.193L250.519 111.866L250.531 111.854L250.544 111.843L250.847 112.193ZM250.952 112.101H251.415V112.312L251.255 112.451L250.952 112.101ZM250.952 98.2793H250.49V97.159L251.28 97.9528L250.952 98.2793ZM262.621 109.996L262.949 109.669L263.084 109.805V109.996H262.621ZM262.621 123.085H263.084V123.277L262.948 123.412L262.621 123.085ZM237.172 148.532L237.499 148.859L237.22 149.138L236.901 148.907L237.172 148.532ZM235.007 148.715L234.678 148.39L234.683 148.384L234.689 148.379L235.007 148.715ZM235.007 151.095L235.336 150.77L235.336 150.77L235.007 151.095ZM237.383 151.095L237.726 151.406L237.719 151.413L237.712 151.42L237.383 151.095ZM237.541 148.898L237.17 149.174L236.932 148.853L237.214 148.571L237.541 148.898ZM262.885 123.543L262.558 123.216L262.569 123.204L262.582 123.193L262.885 123.543ZM262.99 123.451H263.453V123.663L263.293 123.801L262.99 123.451ZM262.99 109.538L263.318 109.211L263.453 109.347V109.538H262.99ZM250.952 97.4554L250.625 97.782L250.49 97.6466V97.4554H250.952ZM250.952 77.4093H250.49V77.2181L250.625 77.0826L250.952 77.4093ZM257.341 71.0019L257.013 70.6752L257.341 70.3466L257.669 70.6752L257.341 71.0019ZM262.726 76.4024L263.054 76.0757L263.189 76.2112V76.4024H262.726ZM262.726 88.6681L262.4 88.996L262.264 88.8604V88.6681H262.726ZM270.91 96.8147L271.237 96.4868L271.503 96.7517L271.298 97.0666L270.91 96.8147ZM271.069 99.0116L271.387 98.6754L271.392 98.6807L271.398 98.6862L271.069 99.0116ZM273.445 99.0116L273.774 99.3369L273.774 99.3369L273.445 99.0116ZM273.445 96.6317L273.116 96.957L273.109 96.9499L273.102 96.9424L273.445 96.6317ZM271.28 96.4486L271.551 96.8237L271.232 97.054L270.953 96.7766L271.28 96.4486ZM263.096 88.3019L262.77 88.6299L262.633 88.4942V88.3019H263.096ZM263.096 76.7686H262.633V75.6514L263.423 76.4415L263.096 76.7686ZM280.942 94.6179L281.269 94.2907L281.405 94.4262V94.6179H280.942ZM280.942 121.529H281.405V121.721L281.27 121.856L280.942 121.529ZM254.067 148.44L254.395 148.767L254.383 148.779L254.371 148.79L254.067 148.44ZM253.962 148.532H253.499V148.321L253.659 148.182L253.962 148.532ZM253.962 158.692L253.635 159.02L253.499 158.884V158.692H253.962ZM269.168 173.887L269.495 173.56L269.76 173.825L269.556 174.139L269.168 173.887ZM269.326 176.084L269.644 175.748L269.65 175.753L269.655 175.759L269.326 176.084ZM271.702 176.084L272.031 176.409L272.031 176.409L271.702 176.084ZM271.702 173.704L271.373 174.029L271.366 174.022L271.359 174.015L271.702 173.704ZM269.538 173.521L269.808 173.896L269.489 174.127L269.21 173.848L269.538 173.521ZM254.331 158.326L254.004 158.653L253.869 158.518V158.326H254.331ZM254.331 148.898H253.869V148.707L254.004 148.571L254.331 148.898ZM281.206 121.987L280.879 121.66L280.89 121.648L280.903 121.637L281.206 121.987ZM281.312 121.895H281.774V122.107L281.615 122.245L281.312 121.895ZM281.312 94.2518L281.639 93.9247L281.774 94.0602V94.2518H281.312ZM257.711 70.6357L257.383 70.9628L257.057 70.6359L257.383 70.3088L257.711 70.6357ZM262.462 65.8759L262.135 65.549L262.462 65.2211L262.79 65.549L262.462 65.8759ZM293.086 96.5401L293.413 96.2131L293.549 96.3486V96.5401H293.086ZM293.086 146.976L292.758 147.302L292.623 147.167V146.976H293.086ZM302.009 155.946L302.337 155.62L302.472 155.755V155.946H302.009ZM302.009 202.354L301.682 202.681L301.546 202.546V202.354H302.009ZM338.704 239.06L339.031 238.733L339.249 238.951L339.132 239.236L338.704 239.06ZM290.024 37.5002L290.351 37.1732L290.678 37.5002L290.351 37.8272L290.024 37.5002ZM246.042 -6.52808L245.715 -6.85509L246.042 -7.18279L246.369 -6.85509L246.042 -6.52808ZM246.042 81.5284L246.369 81.8554L246.042 82.1831L245.715 81.8554L246.042 81.5284ZM202.061 37.5002L201.733 37.8272L201.406 37.5002L201.733 37.1732L202.061 37.5002ZM125.867 118.23L125.538 117.904L125.544 117.899L125.549 117.893L125.867 118.23ZM128.032 118.046L127.874 118.481L127.813 118.459L127.761 118.422L128.032 118.046ZM125.867 120.609L126.196 120.284L125.867 120.609ZM128.243 120.609L128.61 120.891L128.593 120.914L128.572 120.935L128.243 120.609ZM167.193 127.516C167.922 126.826 169.119 126.696 169.946 127.294L169.405 128.044C168.965 127.727 168.261 127.779 167.829 128.188L167.193 127.516ZM167.182 130.557C166.37 129.736 166.37 128.348 167.182 127.527L167.84 128.177C167.384 128.638 167.384 129.446 167.84 129.907L167.182 130.557ZM170.216 130.557C169.401 131.381 167.996 131.381 167.182 130.557L167.84 129.907C168.292 130.364 169.105 130.364 169.558 129.907L170.216 130.557ZM169.519 129.95C169.742 129.66 169.976 129.222 170.018 128.842C170.038 128.661 170.012 128.523 169.952 128.418C169.894 128.318 169.777 128.198 169.517 128.104L169.834 127.234C170.255 127.387 170.567 127.631 170.754 127.956C170.938 128.277 170.973 128.627 170.938 128.944C170.87 129.56 170.528 130.156 170.254 130.513L169.519 129.95ZM341.779 241.216C340.964 242.04 339.559 242.04 338.745 241.216L339.403 240.565C339.855 241.023 340.668 241.023 341.121 240.565L341.779 241.216ZM341.8 238.116C342.584 239.022 342.584 240.287 341.8 241.193L341.1 240.588C341.583 240.029 341.583 239.28 341.1 238.722L341.8 238.116ZM338.745 238.094C339.559 237.27 340.964 237.27 341.779 238.094L341.121 238.744C340.668 238.287 339.855 238.287 339.403 238.744L338.745 238.094ZM338.62 238.279L338.673 238.188L339.475 238.65L339.422 238.742L338.62 238.279ZM302.706 201.569L339.348 238.183L338.694 238.838L302.051 202.224L302.706 201.569ZM302.841 156.312V201.897H301.916V156.312H302.841ZM349.887 204.512L302.051 156.639L302.706 155.985L350.542 203.858L349.887 204.512ZM350.677 203.453V204.185H349.752V203.453H350.677ZM293.73 146.283L350.542 203.126L349.887 203.78L293.075 146.937L293.73 146.283ZM293.865 96.174V146.61H292.94V96.174H293.865ZM263.107 65.1828L293.73 95.847L293.075 96.501L262.452 65.8367L263.107 65.1828ZM268.544 60.4375L263.105 65.8381L262.453 65.1814L267.892 59.7809L268.544 60.4375ZM297.722 90.2768L267.89 60.4364L268.545 59.7821L298.376 89.6225L297.722 90.2768ZM297.512 90.0581L297.617 89.7836L298.481 90.1157L298.375 90.3902L297.512 90.0581ZM325.969 118.927L297.616 90.5512L298.271 89.8971L326.624 118.273L325.969 118.927ZM325.834 124.824V118.6H326.759V124.824H325.834ZM331.724 130.918L325.969 125.151L326.624 124.498L332.379 130.264L331.724 130.918ZM331.589 148.349V130.591H332.514V148.349H331.589ZM349.887 166.8L331.725 148.676L332.378 148.021L350.541 166.145L349.887 166.8ZM350.677 165.74V166.473H349.752V165.74H350.677ZM332.748 147.655L350.541 165.413L349.887 166.068L332.094 148.31L332.748 147.655ZM332.884 130.957V147.983H331.958V130.957H332.884ZM339.433 138.608L332.094 131.285L332.748 130.63L340.087 137.952L339.433 138.608ZM339.601 140.813C338.829 140.083 338.798 138.912 339.372 138.028L340.148 138.532C339.772 139.112 339.847 139.772 340.236 140.141L339.601 140.813ZM342.623 140.802C341.809 141.626 340.404 141.626 339.589 140.802L340.247 140.152C340.7 140.609 341.513 140.609 341.965 140.152L342.623 140.802ZM342.623 137.772C343.435 138.593 343.435 139.981 342.623 140.802L341.965 140.152C342.421 139.691 342.421 138.883 341.965 138.422L342.623 137.772ZM339.859 137.539C340.652 136.966 341.873 136.943 342.637 137.786L341.952 138.408C341.554 137.969 340.875 137.947 340.401 138.289L339.859 137.539ZM326.993 124.131L340.457 137.587L339.803 138.241L326.339 124.785L326.993 124.131ZM327.129 118.234V124.458H326.203V118.234H327.129ZM298.852 89.7142L326.993 117.907L326.338 118.561L298.197 90.368L298.852 89.7142ZM311.618 90.5038H298.524V89.5784H311.618V90.5038ZM349.887 128.996L311.291 90.3682L311.946 89.7141L350.542 128.342L349.887 128.996ZM350.677 127.937V128.669H349.752V127.937H350.677ZM312.685 89.7141L350.542 127.61L349.887 128.264L312.03 90.3681L312.685 89.7141ZM350.214 90.5038H312.357V89.5784H350.214V90.5038ZM350.677 89.4004V90.0411H349.752V89.4004H350.677ZM298.26 88.9377H350.214V89.8631H298.26V88.9377ZM268.915 59.3248L298.588 89.0736L297.933 89.7272L268.26 59.9783L268.915 59.3248ZM274.511 54.3956L268.914 59.9791L268.26 59.324L273.857 53.7404L274.511 54.3956ZM295.398 75.9969L273.856 54.3947L274.511 53.7413L296.053 75.3434L295.398 75.9969ZM350.677 74.8464V75.6702H349.752V74.8464H350.677ZM311.618 74.3837H350.214V75.3091H311.618V74.3837ZM323.667 63.4572L311.945 75.1736L311.291 74.5191L323.013 62.8027L323.667 63.4572ZM350.214 63.5926H323.34V62.6672H350.214V63.5926ZM350.677 62.4891V63.1299H349.752V62.4891H350.677ZM323.234 62.0264H350.214V62.9518H323.234V62.0264ZM310.5 74.5185L322.908 62.1613L323.561 62.817L311.153 75.1742L310.5 74.5185ZM295.831 74.3837H310.826V75.3091H295.831V74.3837ZM274.881 53.192L296.159 74.5196L295.504 75.1732L274.226 53.8456L274.881 53.192ZM279.843 48.9037L274.88 53.8466L274.227 53.1909L279.19 48.248L279.843 48.9037ZM298.038 67.7592L279.189 48.903L279.844 48.2487L298.693 67.1049L298.038 67.7592ZM321.766 52.3818L306.348 67.7597L305.695 67.1045L321.112 51.7266L321.766 52.3818ZM350.267 52.5169H321.439V51.5915H350.267V52.5169ZM350.73 51.4135V52.0542H349.804V51.4135H350.73ZM321.333 50.9508H350.267V51.8762H321.333V50.9508ZM305.589 66.4637L321.007 51.0859L321.66 51.7411L306.243 67.1189L305.589 66.4637ZM298.524 66.3286H305.916V67.254H298.524V66.3286ZM285.177 52.7346L298.852 66.4647L298.196 67.1178L284.521 53.3876L285.177 52.7346ZM291.713 53.5238H284.849V52.5984H291.713V53.5238ZM298.038 60.0696L291.385 53.3876L292.041 52.7346L298.694 59.4167L298.038 60.0696ZM303.54 60.2058H298.366V59.2804H303.54V60.2058ZM315.378 48.5366L303.868 60.07L303.213 59.4163L314.723 47.8829L315.378 48.5366ZM317.48 48.3629C316.753 49.0507 315.609 49.1842 314.779 48.5848L315.321 47.8346C315.759 48.1506 316.41 48.1009 316.844 47.6905L317.48 48.3629ZM317.491 45.3214C318.303 46.1424 318.303 47.5309 317.491 48.352L316.833 47.7013C317.289 47.2408 317.289 46.4326 316.833 45.972L317.491 45.3214ZM314.457 45.3214C315.272 44.4975 316.677 44.4975 317.491 45.3214L316.833 45.972C316.381 45.5145 315.568 45.5145 315.115 45.9721L314.457 45.3214ZM314.271 48.1379C313.58 47.2996 313.67 46.1175 314.457 45.3214L315.115 45.972C314.635 46.4575 314.62 47.106 314.985 47.5494L314.271 48.1379ZM303.054 58.7753L314.3 47.5166L314.955 48.1706L303.709 59.4293L303.054 58.7753ZM298.419 58.6396H303.382V59.565H298.419V58.6396ZM292.094 52.0938L298.746 58.7759L298.091 59.4288L291.438 52.7468L292.094 52.0938ZM284.163 51.9576H291.766V52.883H284.163V51.9576ZM280.214 47.792L284.491 52.0941L283.835 52.7465L279.558 48.4444L280.214 47.792ZM287.182 41.489L280.213 48.4456L279.559 47.7907L286.529 40.834L287.182 41.489ZM297.099 41.6242H286.856V40.6988H297.099V41.6242ZM310.15 28.7654L297.426 41.4887L296.771 40.8343L309.496 28.111L310.15 28.7654ZM312.306 28.5913C311.576 29.281 310.38 29.4113 309.552 28.8132L310.094 28.0631C310.533 28.3805 311.238 28.3277 311.67 27.9189L312.306 28.5913ZM312.317 25.5499C313.129 26.371 313.129 27.7595 312.317 28.5805L311.659 27.9298C312.114 27.4693 312.114 26.6611 311.659 26.2005L312.317 25.5499ZM309.283 25.5499C310.098 24.726 311.502 24.726 312.317 25.5499L311.659 26.2006C311.206 25.743 310.393 25.743 309.941 26.2006L309.283 25.5499ZM309.082 28.3477C308.466 27.5179 308.55 26.3577 309.269 25.5645L309.955 26.1859C309.512 26.6743 309.49 27.3448 309.825 27.7964L309.082 28.3477ZM296.718 40.1942L309.126 27.7454L309.781 28.3987L297.374 40.8474L296.718 40.1942ZM287.542 40.0581H297.046V40.9835H287.542V40.0581ZM291.144 37.5517L287.87 40.8469L287.214 40.1947L290.487 36.8995L291.144 37.5517ZM286.076 31.7742L291.145 36.9002L290.486 37.5509L285.418 32.4249L286.076 31.7742ZM299.854 18.6971L286.073 32.4274L285.42 31.7718L299.201 18.0415L299.854 18.6971ZM313.994 18.832H299.527V17.9066H313.994V18.832ZM328.926 33.9826L313.667 18.6962L314.322 18.0424L329.581 33.3288L328.926 33.9826ZM329.094 36.1887C328.33 35.4664 328.278 34.1943 328.881 33.3801L329.625 33.9313C329.278 34.3985 329.332 35.1403 329.729 35.5163L329.094 36.1887ZM332.116 36.1778C331.302 37.0018 329.897 37.0018 329.082 36.1778L329.741 35.5272C330.193 35.9848 331.006 35.9848 331.458 35.5272L332.116 36.1778ZM332.116 33.1472C332.928 33.9683 332.928 35.3568 332.116 36.1778L331.458 35.5271C331.914 35.0667 331.914 34.2585 331.458 33.7979L332.116 33.1472ZM329.352 32.9144C330.145 32.3415 331.366 32.3191 332.13 33.1618L331.445 33.7833C331.047 33.3446 330.368 33.3222 329.894 33.6646L329.352 32.9144ZM322.083 25.0905L329.95 32.9624L329.295 33.6166L321.428 25.7446L322.083 25.0905ZM350.267 25.8802H321.756V24.9548H350.267V25.8802ZM350.73 24.6853V25.4175H349.804V24.6853H350.73ZM349.858 24.4273L349.964 24.3357L350.57 25.0348L350.465 25.1264L349.858 24.4273ZM321.069 24.3141H350.162V25.2395H321.069V24.3141ZM314.427 17.4927L321.396 24.4493L320.742 25.1043L313.773 18.1476L314.427 17.4927ZM306.137 12.4729L300.435 18.1481L299.782 17.4922L305.484 11.817L306.137 12.4729ZM338.546 12.6077H305.81V11.6823H338.546V12.6077ZM347.32 4.05151L338.872 12.4727L338.219 11.8173L346.667 3.39612L347.32 4.05151ZM350.214 4.18652H346.994V3.26111H350.214V4.18652ZM350.677 3.08308V3.72382H349.752V3.08308H350.677ZM347.627 2.62038H350.214V3.54579H347.627V2.62038ZM350.54 0.848785L347.953 3.4118L347.301 2.75438L349.889 0.191345L350.54 0.848785ZM350.677 -0.212219V0.520065H349.752V-0.212219H350.677ZM338.112 11.2691L349.887 -0.538925L350.542 0.114502L338.768 11.9225L338.112 11.2691ZM305.705 11.1331H338.44V12.0585H305.705V11.1331ZM284.997 31.6811L305.377 11.2689L306.032 11.9227L285.652 32.3349L284.997 31.6811ZM276.148 22.1615L285.652 31.6811L284.997 32.3349L275.493 22.8153L276.148 22.1615ZM299.854 -0.891937L276.148 22.8156L275.493 22.1612L299.2 -1.54628L299.854 -0.891937ZM325.029 -0.756393H299.527V-1.68181H325.029V-0.756393ZM350.594 -26.1557L325.357 -0.89209L324.702 -1.54613L349.94 -26.8097L350.594 -26.1557ZM350.73 -27.215V-26.4827H349.804V-27.215H350.73ZM324.702 -2.27832L349.94 -27.542L350.594 -26.8879L325.357 -1.6243L324.702 -2.27832ZM300.267 -2.41402H325.029V-1.4886H300.267V-2.41402ZM331.904 -33.0211L300.594 -1.62459L299.939 -2.27805L331.249 -33.6745L331.904 -33.0211ZM332.039 -58.4284V-33.3478H331.114V-58.4284H332.039ZM350.595 -76.8664L331.904 -58.1018L331.248 -58.7549L349.939 -77.5195L350.595 -76.8664ZM350.73 -77.9253V-77.193H349.804V-77.9253H350.73ZM330.827 -59.1215L349.94 -78.2523L350.594 -77.5982L331.481 -58.4674L330.827 -59.1215ZM330.691 -33.714V-58.7945H331.617V-33.714H330.691ZM275.124 21.7037L330.827 -34.041L331.481 -33.3869L275.778 22.3578L275.124 21.7037ZM267.594 13.5562L275.777 21.7028L275.125 22.3587L266.941 14.2121L267.594 13.5562ZM301.069 -19.2906L267.594 14.2112L266.94 13.5571L300.414 -19.9446L301.069 -19.2906ZM301.204 -70.0533V-19.6176H300.279V-70.0533H301.204ZM319.97 -88.5819L301.068 -69.7257L300.415 -70.3808L319.317 -89.2371L319.97 -88.5819ZM318.905 -89.3722H319.644V-88.4468H318.905V-89.3722ZM300.045 -70.747L318.578 -89.237L319.231 -88.5819L300.699 -70.0919L300.045 -70.747ZM299.909 -19.9837V-70.4195H300.835V-19.9837H299.909ZM266.57 13.191L300.045 -20.3108L300.699 -19.6567L267.225 13.8451L266.57 13.191ZM262.155 8.15533L267.224 13.1898L266.572 13.8463L261.503 8.81192L262.155 8.15533ZM286.972 -15.9951L262.156 8.81087L261.502 8.15637L286.317 -16.6496L286.972 -15.9951ZM287.107 -75.4539V-16.3224H286.182V-75.4539H287.107ZM298.904 -87.0257L286.971 -75.1262L286.318 -75.7815L298.25 -87.681L298.904 -87.0257ZM299.04 -88.9095V-87.3534H298.114V-88.9095H299.04ZM298.207 -89.3722H298.577V-88.4468H298.207V-89.3722ZM297.745 -87.7195V-88.9095H298.67V-87.7195H297.745ZM285.948 -76.1476L297.881 -88.0472L298.534 -87.3919L286.601 -75.4923L285.948 -76.1476ZM285.812 -16.6885V-75.82H286.737V-16.6885H285.812ZM261.132 7.79019L285.948 -17.0157L286.602 -16.3612L261.786 8.44469L261.132 7.79019ZM254.974 1.01582L261.786 7.78935L261.133 8.44553L254.322 1.672L254.974 1.01582ZM273.931 -17.3689L254.976 1.67036L254.32 1.01746L273.275 -18.0218L273.931 -17.3689ZM274.066 -88.9095V-17.6953H273.14V-88.9095H274.066ZM273.233 -89.3722H273.603V-88.4468H273.233V-89.3722ZM272.771 -58.6115V-88.9095H273.696V-58.6115H272.771ZM264.057 -68.458L273.561 -58.9384L272.906 -58.2845L263.402 -67.8042L264.057 -68.458ZM264.192 -88.9095V-68.1311H263.267V-88.9095H264.192ZM263.36 -89.3722H263.73V-88.4468H263.36V-89.3722ZM262.897 -67.7649V-88.9095H263.823V-67.7649H262.897ZM272.906 -57.5522L263.033 -67.438L263.687 -68.0919L273.561 -58.2061L272.906 -57.5522ZM272.771 -40.396V-57.8791H273.696V-40.396H272.771ZM261.048 -53.2631L273.561 -40.7228L272.906 -40.0692L260.393 -52.6095L261.048 -53.2631ZM260.827 -55.3777C261.587 -54.659 261.64 -53.4906 261.106 -52.6816L260.334 -53.1909C260.645 -53.6634 260.592 -54.3257 260.191 -54.7054L260.827 -55.3777ZM257.804 -55.3669C258.619 -56.1908 260.023 -56.1908 260.838 -55.3669L260.18 -54.7162C259.727 -55.1738 258.914 -55.1738 258.462 -54.7162L257.804 -55.3669ZM257.804 -52.3363C256.992 -53.1573 256.992 -54.5459 257.804 -55.3669L258.462 -54.7162C258.007 -54.2557 258.007 -53.4474 258.462 -52.987L257.804 -52.3363ZM260.654 -52.2205C259.812 -51.4908 258.601 -51.6439 257.83 -52.312L258.436 -53.0113C258.932 -52.581 259.622 -52.5511 260.047 -52.9198L260.654 -52.2205ZM272.906 -39.3368L260.023 -52.2432L260.678 -52.897L273.561 -39.9906L272.906 -39.3368ZM272.771 -18.0615V-39.6637H273.696V-18.0615H272.771ZM253.951 0.651276L272.906 -18.3879L273.561 -17.735L254.607 1.30418L253.951 0.651276ZM248.533 -5.3916L254.605 0.649719L253.952 1.30574L247.88 -4.73558L248.533 -5.3916ZM257.774 -13.9815L248.534 -4.7365L247.879 -5.39069L257.119 -14.6357L257.774 -13.9815ZM257.909 -27.9472V-14.3086H256.984V-27.9472H257.909ZM255.448 -30.5653L257.771 -28.2769L257.122 -27.6176L254.799 -29.906L255.448 -30.5653ZM255.586 -37.1922V-30.2357H254.661V-37.1922H255.586ZM238.819 -54.1785L255.451 -37.5191L254.796 -36.8653L238.164 -53.5247L238.819 -54.1785ZM238.954 -65.5681V-53.8516H238.029V-65.5681H238.954ZM225.303 -79.4421L238.819 -65.8949L238.164 -65.2413L224.648 -78.7885L225.303 -79.4421ZM225.135 -81.6482C225.899 -80.9259 225.951 -79.6539 225.347 -78.8396L224.604 -79.3909C224.95 -79.8581 224.897 -80.5998 224.499 -80.9759L225.135 -81.6482ZM222.112 -81.6374C222.927 -82.4613 224.331 -82.4612 225.146 -81.6374L224.488 -80.9867C224.035 -81.4443 223.222 -81.4443 222.77 -80.9867L222.112 -81.6374ZM222.112 -78.6068C221.3 -79.4278 221.3 -80.8164 222.112 -81.6374L222.77 -80.9867C222.315 -80.5262 222.315 -79.7179 222.77 -79.2575L222.112 -78.6068ZM224.877 -78.374C224.083 -77.801 222.862 -77.7787 222.098 -78.6214L222.784 -79.2429C223.181 -78.8042 223.861 -78.7818 224.335 -79.1242L224.877 -78.374ZM237.795 -64.8752L224.278 -78.4223L224.933 -79.0759L238.45 -65.5288L237.795 -64.8752ZM237.659 -53.4854V-65.202H238.585V-53.4854H237.659ZM254.426 -36.4992L237.795 -53.1585L238.45 -53.8123L255.081 -37.153L254.426 -36.4992ZM254.291 -30.6018V-36.8261H255.217V-30.6018H254.291ZM227.151 -58.9382L255.081 -30.9285L254.426 -30.2751L226.496 -58.2847L227.151 -58.9382ZM226.93 -61.0529C227.69 -60.3342 227.743 -59.1658 227.21 -58.3568L226.437 -58.8661C226.748 -59.3387 226.696 -60.0009 226.294 -60.3805L226.93 -61.0529ZM223.907 -61.0421C224.722 -61.866 226.126 -61.866 226.941 -61.0421L226.283 -60.3914C225.83 -60.849 225.018 -60.849 224.565 -60.3914L223.907 -61.0421ZM223.907 -58.0115C223.095 -58.8325 223.095 -60.2211 223.907 -61.0421L224.565 -60.3914C224.11 -59.9309 224.11 -59.1226 224.565 -58.6622L223.907 -58.0115ZM226.757 -57.8956C225.915 -57.1659 224.704 -57.3191 223.933 -57.9872L224.539 -58.6864C225.036 -58.2561 225.725 -58.2263 226.151 -58.5949L226.757 -57.8956ZM248.513 -35.4923L226.126 -57.9184L226.781 -58.5721L249.168 -36.1461L248.513 -35.4923ZM237.647 -36.2819H248.84V-35.3565H237.647V-36.2819ZM225.091 -49.0525L237.974 -36.1461L237.319 -35.4923L224.437 -48.3987L225.091 -49.0525ZM224.924 -51.2587C225.687 -50.5363 225.74 -49.2643 225.136 -48.45L224.392 -49.0013C224.739 -49.4685 224.685 -50.2102 224.288 -50.5863L224.924 -51.2587ZM221.901 -51.2479C222.715 -52.0717 224.12 -52.0717 224.935 -51.2478L224.277 -50.5971C223.824 -51.0547 223.011 -51.0547 222.559 -50.5971L221.901 -51.2479ZM221.901 -48.2173C221.089 -49.0383 221.089 -50.4268 221.901 -51.2478L222.559 -50.5971C222.103 -50.1367 222.103 -49.3285 222.559 -48.8679L221.901 -48.2173ZM224.665 -47.9845C223.872 -47.4115 222.651 -47.3891 221.887 -48.2318L222.572 -48.8534C222.97 -48.4146 223.65 -48.3923 224.123 -48.7346L224.665 -47.9845ZM237.161 -34.9428L224.067 -48.0323L224.722 -48.6868L237.816 -35.5973L237.161 -34.9428ZM256.75 -27.3453L249.147 -34.9428L249.801 -35.5974L257.404 -27.9999L256.75 -27.3453ZM256.614 -14.8578V-27.6726H257.54V-14.8578H256.614ZM247.51 -5.93982L256.75 -15.1849L257.404 -14.5307L248.164 -5.28563L247.51 -5.93982ZM246.315 -7.77217L248.163 -5.94144L247.512 -5.28401L245.664 -7.11476L246.315 -7.77217ZM243.286 -5.3905L245.662 -7.77039L246.317 -7.11656L243.941 -4.73668L243.286 -5.3905ZM205.239 -44.1099L243.941 -5.3907L243.286 -4.73648L204.584 -43.4557L205.239 -44.1099ZM194.157 -44.9273C194.462 -44.6109 194.679 -44.2591 194.753 -43.8702L193.845 -43.6954C193.814 -43.8557 193.714 -44.0531 193.49 -44.2859L194.157 -44.9273ZM191.119 -44.9319C191.934 -45.7559 193.338 -45.7559 194.153 -44.9319L193.495 -44.2812C193.042 -44.7389 192.229 -44.7389 191.777 -44.2812L191.119 -44.9319ZM191.119 -41.9013C190.307 -42.7224 190.307 -44.1109 191.119 -44.9319L191.777 -44.2812C191.322 -43.8208 191.322 -43.0125 191.777 -42.552L191.119 -41.9013ZM194.153 -41.9013C193.338 -41.0775 191.934 -41.0775 191.119 -41.9013L191.777 -42.552C192.229 -42.0944 193.042 -42.0944 193.495 -42.552L194.153 -41.9013ZM194.753 -42.9631C194.69 -42.6334 194.494 -42.1282 194.088 -41.8464L193.56 -42.6069C193.682 -42.6913 193.802 -42.9184 193.845 -43.1379L194.753 -42.9631ZM204.753 -42.5878H194.299V-43.5132H204.753V-42.5878ZM242.916 -4.18736L204.426 -42.7235L205.081 -43.3775L243.571 -4.84134L242.916 -4.18736ZM237.005 1.0152L242.918 -4.84306L243.569 -4.18564L237.656 1.67262L237.005 1.0152ZM205.503 -31.2032L237.658 1.01706L237.003 1.67076L204.848 -30.5495L205.503 -31.2032ZM205.335 -33.4094C206.107 -32.6795 206.137 -31.5086 205.564 -30.6245L204.787 -31.1283C205.164 -31.7087 205.089 -32.3685 204.699 -32.7369L205.335 -33.4094ZM202.312 -33.3985C203.127 -34.2224 204.532 -34.2224 205.346 -33.3985L204.688 -32.7478C204.236 -33.2054 203.423 -33.2054 202.97 -32.7478L202.312 -33.3985ZM202.312 -30.368C201.5 -31.189 201.5 -32.5775 202.312 -33.3985L202.97 -32.7478C202.515 -32.2874 202.515 -31.4791 202.97 -31.0187L202.312 -30.368ZM205.077 -30.1351C204.284 -29.5622 203.062 -29.5398 202.298 -30.3826L202.984 -31.0041C203.382 -30.5653 204.061 -30.5429 204.535 -30.8853L205.077 -30.1351ZM236.687 1.94611L204.479 -30.1826L205.133 -30.8378L237.34 1.29095L236.687 1.94611ZM230.561 7.42438L236.686 1.29156L237.341 1.9455L231.216 8.07831L230.561 7.42438ZM185.756 -38.0685L231.216 7.42429L230.561 8.07841L185.102 -37.4144L185.756 -38.0685ZM185.892 -75.82V-37.7415H184.966V-75.82H185.892ZM198.85 -88.5822L185.756 -75.4927L185.102 -76.1472L198.196 -89.2367L198.85 -88.5822ZM197.784 -89.3722H198.523V-88.4468H197.784V-89.3722ZM189.643 -81.4569L197.457 -89.2374L198.11 -88.5816L190.296 -80.8011L189.643 -81.4569ZM182.482 -89.2374L190.296 -81.4569L189.643 -80.8011L181.829 -88.5816L182.482 -89.2374ZM181.416 -89.3722H182.155V-88.4468H181.416V-89.3722ZM189.273 -80.4349L181.09 -88.5816L181.743 -89.2374L189.926 -81.0907L189.273 -80.4349ZM184.731 -76.5121L189.271 -81.0887L189.928 -80.4369L185.388 -75.8603L184.731 -76.5121ZM184.597 -46.2543V-76.1862H185.522V-46.2543H184.597ZM177.677 -54.2708L185.386 -46.5818L184.732 -45.9267L177.024 -53.6156L177.677 -54.2708ZM177.813 -72.6163V-53.9432H176.888V-72.6163H177.813ZM162.05 -88.5957L177.678 -72.9432L177.023 -72.2894L161.395 -87.9419L162.05 -88.5957ZM162.431 -88.7812C162.371 -88.5739 162.252 -88.2621 162.123 -88.0376L161.321 -88.5C161.403 -88.6415 161.496 -88.8788 161.542 -89.0377L162.431 -88.7812ZM158.713 -89.3722H161.986V-88.4468H158.713V-89.3722ZM158.854 -87.765C158.52 -88.1131 158.387 -88.4675 158.281 -88.7434L159.144 -89.0756C159.25 -88.8022 159.328 -88.6074 159.521 -88.4063L158.854 -87.765ZM161.623 -87.5275C160.83 -86.9545 159.609 -86.9322 158.845 -87.7749L159.531 -88.3964C159.928 -87.9577 160.608 -87.9353 161.082 -88.2777L161.623 -87.5275ZM176.654 -71.9232L161.025 -87.5757L161.68 -88.2295L177.308 -72.5771L176.654 -71.9232ZM176.518 -53.577V-72.2501H177.444V-53.577H176.518ZM184.733 -45.1942L176.654 -53.2494L177.308 -53.9047L185.386 -45.8495L184.733 -45.1942ZM184.597 -37.3754V-45.5219H185.522V-37.3754H184.597ZM230.192 8.4445L184.732 -37.0483L185.387 -37.7024L230.846 7.79037L230.192 8.4445ZM223.487 14.4717L230.192 7.78969L230.846 8.44519L224.14 15.1272L223.487 14.4717ZM135.967 -73.7671L224.141 14.4724L223.486 15.1265L135.312 -73.113L135.967 -73.7671ZM136.102 -89.001V-73.4401H135.177V-89.001H136.102ZM135.27 -89.4637H135.639V-88.5383H135.27V-89.4637ZM134.807 -73.0739V-89.001H135.733V-73.0739H134.807ZM223.117 15.4927L134.943 -72.7468L135.597 -73.4009L223.771 14.8386L223.117 15.4927ZM217.68 20.2379L223.118 14.8373L223.77 15.494L218.332 20.8946L217.68 20.2379ZM172.926 -25.2535L218.333 20.2394L217.678 20.8931L172.271 -24.5998L172.926 -25.2535ZM125.248 -39.808L139.821 -25.254L139.167 -24.5992L124.594 -39.1533L125.248 -39.808ZM125.027 -39.0179H124.921V-39.9434H125.027V-39.0179ZM125.49 -54.95V-39.4807H124.564V-54.95H125.49ZM108.828 -71.8446L125.354 -55.2768L124.699 -54.6233L108.173 -71.191L108.828 -71.8446ZM108.66 -74.0509C109.424 -73.3285 109.476 -72.0565 108.872 -71.2422L108.129 -71.7935C108.476 -72.2606 108.422 -73.0024 108.024 -73.3785L108.66 -74.0509ZM105.637 -74.04C106.452 -74.8639 107.857 -74.8639 108.671 -74.04L108.013 -73.3893C107.561 -73.8469 106.748 -73.8469 106.295 -73.3893L105.637 -74.04ZM105.637 -71.0094C104.825 -71.8304 104.825 -73.219 105.637 -74.04L106.295 -73.3893C105.84 -72.9289 105.84 -72.1206 106.295 -71.6601L105.637 -71.0094ZM108.402 -70.7767C107.609 -70.2036 106.387 -70.1813 105.624 -71.024L106.309 -71.6455C106.707 -71.2068 107.386 -71.1844 107.86 -71.5268L108.402 -70.7767ZM124.33 -54.2571L107.804 -70.825L108.459 -71.4785L124.985 -54.9107L124.33 -54.2571ZM124.195 -39.7552V-54.5839H125.12V-39.7552H124.195ZM99.9049 -65.163L124.984 -40.0824L124.33 -39.4281L99.2505 -64.5086L99.9049 -65.163ZM33.5564 -55.0081L43.706 -65.1629L44.3605 -64.5087L34.211 -54.3539L33.5564 -55.0081ZM33.5554 -54.355C33.5474 -54.363 33.5401 -54.3702 33.5332 -54.3768L34.1691 -55.049C34.1843 -55.0346 34.1986 -55.0206 34.212 -55.007L33.5554 -54.355ZM33.5221 -54.3875C33.0696 -54.8451 32.2567 -54.8451 31.8042 -54.3875L31.1462 -55.0382C31.9609 -55.8621 33.3654 -55.8621 34.1801 -55.0382L33.5221 -54.3875ZM31.8042 -54.3875C31.3489 -53.927 31.3489 -53.1187 31.8042 -52.6583L31.1462 -52.0076C30.3343 -52.8286 30.3344 -54.2172 31.1462 -55.0382L31.8042 -54.3875ZM31.818 -52.6437C32.2157 -52.2049 32.8951 -52.1826 33.369 -52.5249L33.9109 -51.7748C33.1177 -51.2018 31.8962 -51.1794 31.1323 -52.0222L31.818 -52.6437ZM33.3143 -52.4785L33.6839 -52.8447L34.3352 -52.1873L33.9656 -51.8211L33.3143 -52.4785ZM33.6379 -52.7917C33.8926 -53.1351 33.9401 -53.6525 33.7575 -54.0567L34.6009 -54.4376C34.9132 -53.746 34.8477 -52.8694 34.3812 -52.2404L33.6379 -52.7917ZM44.4139 -63.8685L34.5071 -53.9207L33.8514 -54.5737L43.7581 -64.5215L44.4139 -63.8685ZM99.4193 -63.7323H44.086V-64.6577H99.4193V-63.7323ZM139.008 -23.8675L99.0918 -63.8682L99.7468 -64.5218L139.663 -24.5212L139.008 -23.8675ZM217.309 21.3509L172.113 -23.8672L172.768 -24.5215L217.963 20.6967L217.309 21.3509ZM212.557 25.4567L217.309 20.6969L217.964 21.3508L213.212 26.1105L212.557 25.4567ZM170.233 -17.5647L213.212 25.4566L212.557 26.1107L169.579 -16.9107L170.233 -17.5647ZM113.738 -36.0548L132.218 -17.5648L131.563 -16.9106L113.084 -35.4007L113.738 -36.0548ZM113.571 -38.2608C114.334 -37.5384 114.387 -36.2664 113.783 -35.4521L113.039 -36.0034C113.386 -36.4706 113.332 -37.2123 112.935 -37.5884L113.571 -38.2608ZM110.548 -38.2499C111.362 -39.0738 112.767 -39.0738 113.582 -38.2499L112.924 -37.5992C112.471 -38.0568 111.658 -38.0568 111.206 -37.5992L110.548 -38.2499ZM110.548 -35.2193C109.736 -36.0403 109.736 -37.4289 110.548 -38.2499L111.206 -37.5993C110.75 -37.1387 110.75 -36.3305 111.206 -35.8699L110.548 -35.2193ZM113.312 -34.9865C112.519 -34.4135 111.298 -34.3911 110.534 -35.2339L111.219 -35.8554C111.617 -35.4167 112.297 -35.3943 112.77 -35.7367L113.312 -34.9865ZM131.405 -16.2704L112.714 -35.035L113.369 -35.6881L132.06 -16.9235L131.405 -16.2704ZM175.754 -9.86415L169.419 -16.2716L170.077 -16.9222L176.412 -10.5148L175.754 -9.86415ZM125.396 -10.6522H176.083V-9.72678H125.396V-10.6522ZM84.9947 29.5756L125.069 -10.5166L125.724 -9.86238L85.6493 30.2298L84.9947 29.5756ZM82.8393 29.7497C83.5686 29.06 84.7651 28.9297 85.5929 29.5276L85.0511 30.2778C84.6117 29.9605 83.9075 30.0132 83.4752 30.4221L82.8393 29.7497ZM82.8282 32.7911C82.0164 31.97 82.0164 30.5815 82.8282 29.7605L83.4862 30.4112C83.0309 30.8716 83.0309 31.6799 83.4863 32.1404L82.8282 32.7911ZM85.8622 32.7911C85.0475 33.6149 83.6429 33.615 82.8282 32.7911L83.4862 32.1404C83.9387 32.598 84.7517 32.598 85.2042 32.1404L85.8622 32.7911ZM86.0632 29.9933C86.6787 30.8231 86.5949 31.9833 85.8761 32.7765L85.1904 32.155C85.633 31.6666 85.6549 30.9961 85.3199 30.5445L86.0632 29.9933ZM125.725 -9.40585L86.02 30.5949L85.3632 29.9429L125.068 -10.0578L125.725 -9.40585ZM176.664 -9.26912H125.396V-10.1945H176.664V-9.26912ZM192.388 6.61427L176.337 -9.40431L176.991 -10.0593L193.042 5.95926L192.388 6.61427ZM186.104 12.2764L192.387 5.96043L193.043 6.6131L186.76 12.929L186.104 12.2764ZM175.239 12.14H186.432V13.0654H175.239V12.14ZM164.458 22.7101L174.912 12.2752L175.566 12.9302L165.111 23.3651L164.458 22.7101ZM162.302 22.8845C163.031 22.1949 164.228 22.0646 165.055 22.6626L164.514 23.4127C164.074 23.0954 163.37 23.1482 162.938 23.5569L162.302 22.8845ZM162.291 25.9259C161.479 25.1049 161.479 23.7164 162.291 22.8954L162.949 23.546C162.493 24.0066 162.493 24.8148 162.949 25.2753L162.291 25.9259ZM165.325 25.9259C164.51 26.7499 163.105 26.7499 162.291 25.9259L162.949 25.2753C163.401 25.7329 164.214 25.7329 164.667 25.2753L165.325 25.9259ZM165.526 23.1281C166.141 23.958 166.057 25.1182 165.338 25.9114L164.653 25.2898C165.095 24.8016 165.117 24.131 164.782 23.6794L165.526 23.1281ZM175.671 13.5711L165.481 23.7314L164.827 23.0761L175.018 12.9158L175.671 13.5711ZM185.746 13.7061H175.344V12.7807H185.746V13.7061ZM161.078 37.2645L185.418 12.9163L186.073 13.5706L161.733 37.9188L161.078 37.2645ZM138.86 37.129H161.405V38.0544H138.86V37.129ZM126.621 24.7239L139.187 37.2641L138.533 37.9192L125.967 25.379L126.621 24.7239ZM126.454 22.5184C127.217 23.2407 127.27 24.5128 126.666 25.3271L125.922 24.7758C126.269 24.3085 126.215 23.5668 125.818 23.1908L126.454 22.5184ZM123.431 22.5293C124.245 21.7053 125.65 21.7053 126.465 22.5293L125.807 23.1799C125.354 22.7223 124.541 22.7223 124.089 23.1799L123.431 22.5293ZM123.431 25.5598C122.619 24.7388 122.619 23.3502 123.431 22.5292L124.089 23.1799C123.633 23.6404 123.633 24.4486 124.089 24.9091L123.431 25.5598ZM126.195 25.7926C125.402 26.3656 124.181 26.388 123.417 25.5452L124.103 24.9237C124.5 25.3625 125.18 25.3848 125.653 25.0424L126.195 25.7926ZM138.374 38.5592L125.597 25.7442L126.252 25.0908L139.029 37.9057L138.374 38.5592ZM193.359 6.9801L161.785 38.5596L161.131 37.9053L192.705 6.32581L193.359 6.9801ZM206.115 20.4352L192.704 6.97958L193.36 6.32631L206.771 19.7819L206.115 20.4352ZM199.051 19.6458H206.443V20.5712H199.051V19.6458ZM192.758 25.7306L198.724 19.7809L199.378 20.4362L193.411 26.3859L192.758 25.7306ZM190.577 25.9306C191.341 25.0878 192.562 25.1102 193.356 25.6832L192.814 26.4333C192.34 26.091 191.66 26.1133 191.263 26.5521L190.577 25.9306ZM190.591 28.9466C189.779 28.1256 189.779 26.737 190.591 25.916L191.249 26.5667C190.794 27.0272 190.794 27.8354 191.249 28.296L190.591 28.9466ZM193.625 28.9466C192.81 29.7705 191.406 29.7705 190.591 28.9466L191.249 28.2959C191.701 28.7535 192.514 28.7535 192.967 28.2959L193.625 28.9466ZM193.879 26.2404C194.502 27.0803 194.355 28.257 193.614 28.9575L192.978 28.2851C193.399 27.8871 193.463 27.2331 193.135 26.7916L193.879 26.2404ZM199.536 21.1688L193.833 26.844L193.181 26.188L198.883 20.5128L199.536 21.1688ZM207.182 21.3035H199.209V20.3781H207.182V21.3035ZM212.134 26.4761L206.854 21.1671L207.51 20.5145L212.79 25.8235L212.134 26.4761ZM200.888 37.0816L212.135 25.8228L212.789 26.4768L201.543 37.7356L200.888 37.0816ZM204.425 41.3042L200.887 37.7343L201.544 37.0829L205.082 40.6528L204.425 41.3042ZM185.049 60.0569L204.426 40.6515L205.081 41.3054L185.703 60.7108L185.049 60.0569ZM178.882 59.9211H185.376V60.8465H178.882V59.9211ZM171.5 52.3673L179.209 60.0562L178.555 60.7114L170.846 53.0225L171.5 52.3673ZM171.333 50.1619C172.097 50.8842 172.149 52.1563 171.545 52.9706L170.801 52.4193C171.148 51.9521 171.095 51.2104 170.697 50.8343L171.333 50.1619ZM168.31 50.1727C169.124 49.3489 170.529 49.3489 171.344 50.1727L170.686 50.8234C170.233 50.3658 169.42 50.3658 168.968 50.8234L168.31 50.1727ZM168.31 53.2034C167.498 52.3823 167.498 50.9938 168.31 50.1727L168.968 50.8234C168.512 51.2839 168.512 52.0922 168.968 52.5527L168.31 53.2034ZM171.074 53.4362C170.281 54.0092 169.06 54.0315 168.296 53.1888L168.982 52.5673C169.379 53.006 170.059 53.0284 170.533 52.686L171.074 53.4362ZM178.449 61.3519L170.477 53.3885L171.131 52.7337L179.103 60.6972L178.449 61.3519ZM199.905 47.348L185.808 61.3528L185.156 60.6963L199.253 46.6915L199.905 47.348ZM199.116 59.9262V47.0198H200.042V59.9262H199.116ZM186.052 72.7798L199.252 59.5988L199.906 60.2536L186.706 73.4346L186.052 72.7798ZM183.897 72.9541C184.626 72.2644 185.822 72.1341 186.65 72.7321L186.108 73.4823C185.669 73.1649 184.965 73.2177 184.532 73.6264L183.897 72.9541ZM183.885 75.9955C183.074 75.1745 183.074 73.7859 183.885 72.9649L184.543 73.6156C184.088 74.076 184.088 74.8844 184.543 75.3448L183.885 75.9955ZM186.919 75.9955C186.105 76.8194 184.7 76.8195 183.885 75.9955L184.543 75.3448C184.996 75.8024 185.809 75.8025 186.261 75.3448L186.919 75.9955ZM187.12 73.1977C187.736 74.0276 187.652 75.1878 186.933 75.9809L186.248 75.3594C186.69 74.8711 186.712 74.2006 186.377 73.7489L187.12 73.1977ZM200.275 60.6198L187.076 73.8007L186.422 73.1459L199.622 59.9649L200.275 60.6198ZM200.411 46.6537V60.2924H199.486V46.6537H200.411ZM205.503 41.7636L200.275 46.9812L199.622 46.3262L204.849 41.1087L205.503 41.7636ZM223.117 60.07L204.848 41.763L205.503 41.1093L223.772 59.4163L223.117 60.07ZM214.616 67.9289L223.117 59.4162L223.771 60.0701L215.271 68.5828L214.616 67.9289ZM203.961 67.7931H214.943V68.7185H203.961V67.7931ZM186.263 85.3204L203.634 67.9288L204.289 68.5828L186.918 85.9744L186.263 85.3204ZM173.391 85.1847H186.59V86.1101H173.391V85.1847ZM155.344 66.922L173.718 85.3205L173.063 85.9744L154.689 67.5759L155.344 66.922ZM155.176 64.716C155.94 65.4382 155.992 66.7103 155.388 67.5246L154.645 66.9733C154.991 66.5061 154.938 65.7644 154.54 65.3884L155.176 64.716ZM152.153 64.7268C152.968 63.9029 154.373 63.9029 155.187 64.7268L154.529 65.3775C154.077 64.9199 153.264 64.9199 152.811 65.3775L152.153 64.7268ZM152.153 67.7574C151.341 66.9363 151.341 65.5478 152.153 64.7268L152.811 65.3775C152.356 65.838 152.356 66.6462 152.811 67.1067L152.153 67.7574ZM154.918 67.9902C154.125 68.5632 152.903 68.5855 152.139 67.7428L152.825 67.1213C153.223 67.56 153.902 67.5824 154.376 67.24L154.918 67.9902ZM172.905 86.5239L154.32 67.9423L154.974 67.2879L173.559 85.8694L172.905 86.5239ZM204.394 69.132L187.023 86.5237L186.369 85.8697L203.739 68.4781L204.394 69.132ZM214.31 69.2678H204.067V68.3424H214.31V69.2678ZM163.032 119.463L213.983 68.478L214.637 69.1321L163.686 120.117L163.032 119.463ZM128.703 119.327H163.359V120.253H128.703V119.327ZM163.464 120.893H128.37V119.968H163.464V120.893ZM224.194 60.3449L163.792 120.758L163.137 120.104L223.539 59.6906L224.194 60.3449ZM230.403 67.21L223.539 60.3449L224.194 59.6906L231.058 66.5557L230.403 67.21ZM169.42 127.61L230.403 66.5558L231.058 67.2098L170.075 128.264L169.42 127.61ZM170.238 128.101L170.075 128.264L169.42 127.61L169.583 127.447L170.238 128.101ZM231.374 67.5762L170.565 128.355L169.911 127.701L230.72 66.9217L231.374 67.5762ZM237.899 74.8062L230.719 67.575L231.375 66.9229L238.556 74.1542L237.899 74.8062ZM202.155 109.943L237.9 74.1532L238.555 74.8072L202.81 110.597L202.155 109.943ZM202.074 110.012L202.18 109.921L202.786 110.62L202.68 110.712L202.074 110.012ZM201.915 141.667V110.362H202.84V141.667H201.915ZM263.561 203.597L202.05 141.994L202.705 141.34L264.215 202.943L263.561 203.597ZM263.729 205.803C262.965 205.08 262.913 203.808 263.516 202.994L264.26 203.545C263.913 204.013 263.967 204.754 264.364 205.13L263.729 205.803ZM266.751 205.792C265.937 206.616 264.532 206.616 263.717 205.792L264.375 205.141C264.828 205.599 265.641 205.599 266.093 205.141L266.751 205.792ZM266.751 202.761C267.563 203.582 267.563 204.971 266.751 205.792L266.093 205.141C266.549 204.681 266.549 203.872 266.093 203.412L266.751 202.761ZM263.987 202.528C264.78 201.956 266.001 201.933 266.765 202.776L266.08 203.397C265.682 202.959 265.003 202.936 264.529 203.279L263.987 202.528ZM219.442 157.358L264.585 202.577L263.93 203.23L218.787 158.012L219.442 157.358ZM232.684 158.148H219.115V157.223H232.684V158.148ZM256.697 182.361L232.357 158.012L233.011 157.358L257.351 181.707L256.697 182.361ZM256.865 184.567C256.101 183.844 256.049 182.572 256.653 181.758L257.396 182.309C257.049 182.776 257.103 183.518 257.501 183.894L256.865 184.567ZM259.888 184.556C259.073 185.38 257.668 185.38 256.854 184.556L257.512 183.905C257.964 184.363 258.777 184.363 259.23 183.905L259.888 184.556ZM259.888 181.525C260.699 182.346 260.699 183.735 259.888 184.556L259.229 183.905C259.685 183.445 259.685 182.636 259.23 182.176L259.888 181.525ZM257.123 181.292C257.916 180.719 259.137 180.697 259.901 181.54L259.216 182.161C258.818 181.723 258.139 181.7 257.665 182.043L257.123 181.292ZM233.117 156.718L257.721 181.34L257.066 181.995L232.462 157.372L233.117 156.718ZM203.127 141.065L218.756 156.718L218.101 157.372L202.472 141.719L203.127 141.065ZM203.262 110.82V141.392H202.337V110.82H203.262ZM231.903 82.3129L203.127 111.146L202.472 110.493L231.248 81.6592L231.903 82.3129ZM231.112 97.547V81.9861H232.038V97.547H231.112ZM213.56 114.886L231.248 97.2196L231.902 97.8744L214.214 115.541L213.56 114.886ZM213.479 114.955L213.584 114.864L214.191 115.563L214.085 115.654L213.479 114.955ZM213.319 131.049V115.305H214.245V131.049H213.319ZM212.445 131.186C212.78 130.838 213.264 130.586 213.782 130.586V131.511C213.56 131.511 213.305 131.626 213.112 131.827L212.445 131.186ZM212.45 134.212C211.638 133.391 211.638 132.002 212.45 131.181L213.108 131.832C212.652 132.292 212.652 133.101 213.108 133.561L212.45 134.212ZM215.484 134.212C214.669 135.036 213.264 135.036 212.45 134.212L213.108 133.561C213.56 134.019 214.373 134.019 214.826 133.561L215.484 134.212ZM215.484 131.181C216.295 132.002 216.295 133.391 215.484 134.212L214.826 133.561C215.281 133.101 215.281 132.292 214.826 131.832L215.484 131.181ZM214.151 130.586C214.669 130.586 215.153 130.838 215.488 131.186L214.821 131.827C214.628 131.626 214.373 131.511 214.151 131.511V130.586ZM214.614 115.671V131.049H213.689V115.671H214.614ZM232.166 98.3321L214.478 115.998L213.824 115.343L231.512 97.6773L232.166 98.3321ZM232.248 98.2626L232.142 98.3542L231.536 97.6552L231.641 97.5636L232.248 98.2626ZM232.407 81.62V97.9131H231.482V81.62H232.407ZM238.977 75.2656L232.271 81.9477L231.618 81.2922L238.324 74.6101L238.977 75.2656ZM245.714 82.6789L238.322 75.2646L238.978 74.6112L246.37 82.0255L245.714 82.6789ZM250.857 78.1943L246.369 82.6795L245.715 82.0249L250.203 77.5397L250.857 78.1943ZM250.067 111.735V77.867H250.993V111.735H250.067ZM234.626 127.061L250.202 111.409L250.858 112.061L235.282 127.714L234.626 127.061ZM232.472 127.234C233.201 126.545 234.397 126.414 235.225 127.012L234.683 127.762C234.244 127.445 233.54 127.498 233.107 127.907L232.472 127.234ZM232.46 130.276C231.649 129.455 231.649 128.066 232.46 127.245L233.118 127.896C232.663 128.356 232.663 129.164 233.118 129.625L232.46 130.276ZM235.494 130.276C234.68 131.1 233.275 131.1 232.46 130.276L233.118 129.625C233.571 130.083 234.384 130.083 234.836 129.625L235.494 130.276ZM235.695 127.478C236.311 128.308 236.227 129.468 235.508 130.261L234.823 129.64C235.265 129.151 235.287 128.481 234.952 128.029L235.695 127.478ZM251.174 112.519L235.651 128.08L234.996 127.427L250.519 111.866L251.174 112.519ZM251.255 112.451L251.15 112.542L250.544 111.843L250.649 111.751L251.255 112.451ZM251.415 98.2793V112.101H250.49V98.2793H251.415ZM262.293 110.322L250.624 98.6058L251.28 97.9528L262.949 109.669L262.293 110.322ZM262.158 123.085V109.996H263.084V123.085H262.158ZM236.845 148.205L262.294 122.758L262.948 123.412L237.499 148.859L236.845 148.205ZM234.689 148.379C235.418 147.689 236.615 147.559 237.443 148.157L236.901 148.907C236.461 148.59 235.757 148.642 235.325 149.051L234.689 148.379ZM234.678 151.42C233.866 150.599 233.866 149.211 234.678 148.39L235.336 149.04C234.881 149.501 234.881 150.309 235.336 150.77L234.678 151.42ZM237.712 151.42C236.897 152.244 235.493 152.244 234.678 151.42L235.336 150.77C235.788 151.227 236.601 151.227 237.054 150.77L237.712 151.42ZM237.913 148.622C238.528 149.452 238.445 150.612 237.726 151.406L237.04 150.784C237.483 150.296 237.505 149.625 237.17 149.174L237.913 148.622ZM263.212 123.87L237.869 149.225L237.214 148.571L262.558 123.216L263.212 123.87ZM263.293 123.801L263.188 123.893L262.582 123.193L262.688 123.102L263.293 123.801ZM263.453 109.538V123.451H262.528V109.538H263.453ZM251.28 97.1289L263.318 109.211L262.663 109.865L250.625 97.782L251.28 97.1289ZM251.415 77.4093V97.4554H250.49V77.4093H251.415ZM257.669 71.3286L251.28 77.736L250.625 77.0826L257.013 70.6752L257.669 71.3286ZM262.399 76.7292L257.013 71.3286L257.669 70.6752L263.054 76.0757L262.399 76.7292ZM262.264 88.6681V76.4024H263.189V88.6681H262.264ZM270.584 97.1427L262.4 88.996L263.053 88.3402L271.237 96.4868L270.584 97.1427ZM270.751 99.3477C269.979 98.6178 269.948 97.447 270.522 96.5629L271.298 97.0666C270.922 97.647 270.997 98.3069 271.387 98.6754L270.751 99.3477ZM273.774 99.3369C272.959 100.161 271.554 100.161 270.74 99.3369L271.398 98.6862C271.85 99.1438 272.663 99.1438 273.116 98.6862L273.774 99.3369ZM273.774 96.3063C274.585 97.1273 274.585 98.5158 273.774 99.3369L273.116 98.6862C273.571 98.2257 273.571 97.4174 273.116 96.957L273.774 96.3063ZM271.009 96.0736C271.802 95.5005 273.024 95.4781 273.787 96.3209L273.102 96.9424C272.704 96.5036 272.025 96.4813 271.551 96.8237L271.009 96.0736ZM263.422 87.974L271.606 96.1207L270.953 96.7766L262.77 88.6299L263.422 87.974ZM263.559 76.7686V88.3019H262.633V76.7686H263.559ZM280.615 94.945L262.769 77.0958L263.423 76.4415L281.269 94.2907L280.615 94.945ZM280.479 121.529V94.6179H281.405V121.529H280.479ZM253.74 148.113L280.615 121.202L281.27 121.856L254.395 148.767L253.74 148.113ZM253.659 148.182L253.764 148.091L254.371 148.79L254.265 148.881L253.659 148.182ZM253.499 158.692V148.532H254.425V158.692H253.499ZM268.841 174.214L253.635 159.02L254.289 158.365L269.495 173.56L268.841 174.214ZM269.008 176.42C268.236 175.69 268.206 174.519 268.78 173.635L269.556 174.139C269.179 174.719 269.255 175.379 269.644 175.748L269.008 176.42ZM272.031 176.409C271.217 177.233 269.812 177.233 268.997 176.409L269.655 175.759C270.108 176.216 270.921 176.216 271.373 175.759L272.031 176.409ZM272.031 173.379C272.843 174.2 272.843 175.588 272.031 176.409L271.373 175.759C271.829 175.298 271.829 174.49 271.373 174.029L272.031 173.379ZM269.267 173.146C270.06 172.573 271.281 172.55 272.045 173.393L271.359 174.015C270.962 173.576 270.282 173.554 269.808 173.896L269.267 173.146ZM254.658 157.999L269.865 173.194L269.21 173.848L254.004 158.653L254.658 157.999ZM254.794 148.898V158.326H253.869V148.898H254.794ZM281.533 122.314L254.659 149.225L254.004 148.571L280.879 121.66L281.533 122.314ZM281.615 122.245L281.509 122.336L280.903 121.637L281.009 121.546L281.615 122.245ZM281.774 94.2518V121.895H280.849V94.2518H281.774ZM258.038 70.3087L281.639 93.9247L280.984 94.5788L257.383 70.9628L258.038 70.3087ZM262.79 66.2028L258.038 70.9626L257.383 70.3088L262.135 65.549L262.79 66.2028ZM292.758 96.8671L262.135 66.2029L262.79 65.549L293.413 96.2131L292.758 96.8671ZM292.623 146.976V96.5401H293.549V146.976H292.623ZM301.681 156.273L292.758 147.302L293.414 146.649L302.337 155.62L301.681 156.273ZM301.546 202.354V155.946H302.472V202.354H301.546ZM338.377 239.387L301.682 202.681L302.336 202.027L339.031 238.733L338.377 239.387ZM338.753 241.224C338.139 240.633 337.941 239.698 338.276 238.884L339.132 239.236C338.939 239.704 339.058 240.233 339.395 240.557L338.753 241.224ZM289.696 37.8272L245.715 -6.20107L246.369 -6.85509L290.351 37.1732L289.696 37.8272ZM245.715 81.2014L289.696 37.1732L290.351 37.8272L246.369 81.8554L245.715 81.2014ZM202.388 37.1732L246.369 81.2014L245.715 81.8554L201.733 37.8272L202.388 37.1732ZM246.369 -6.20107L202.388 37.8272L201.733 37.1732L245.715 -6.85509L246.369 -6.20107ZM350.214 76.1329H295.726V75.2074H350.214V76.1329ZM306.022 67.8948H298.366V66.9694H306.022V67.8948ZM300.108 17.3575H314.1V18.2829H300.108V17.3575ZM249.474 -34.8074H237.489V-35.7328H249.474V-34.8074ZM194.299 -44.2455H204.912V-43.3201H194.299V-44.2455ZM139.494 -25.3893H172.599V-24.4639H139.494V-25.3893ZM44.0332 -65.2985H99.5777V-64.3731H44.0332V-65.2985ZM172.44 -23.7317H139.335V-24.6571H172.44V-23.7317ZM131.891 -17.7004H169.906V-16.775H131.891V-17.7004ZM169.748 -16.1342H131.732V-17.0596H169.748V-16.1342ZM161.458 38.6952H138.702V37.7697H161.458V38.6952ZM185.482 61.4873H178.776V60.5619H185.482V61.4873ZM186.696 86.6594H173.232V85.7339H186.696V86.6594ZM218.428 156.582H232.789V157.507H218.428V156.582ZM125.549 117.893C126.279 117.204 127.475 117.073 128.303 117.671L127.761 118.422C127.322 118.104 126.617 118.157 126.185 118.566L125.549 117.893ZM125.538 120.935C124.726 120.114 124.726 118.725 125.538 117.904L126.196 118.555C125.741 119.015 125.741 119.824 126.196 120.284L125.538 120.935ZM128.572 120.935C127.757 121.759 126.353 121.759 125.538 120.935L126.196 120.284C126.649 120.742 127.462 120.742 127.914 120.284L128.572 120.935ZM127.876 120.328C128.099 120.037 128.332 119.599 128.375 119.219C128.395 119.039 128.368 118.9 128.308 118.795C128.251 118.695 128.133 118.576 127.874 118.481L128.19 117.612C128.611 117.765 128.923 118.008 129.11 118.334C129.295 118.655 129.33 119.005 129.294 119.322C129.226 119.937 128.884 120.534 128.61 120.891L127.876 120.328Z" fill="#1B4ED1"/>
</g>
</g>
</svg>
