<svg width="335" height="372" viewBox="0 0 335 372" fill="none" xmlns="http://www.w3.org/2000/svg">
<g opacity="0.1">
<mask id="mask0_1_954" style="mask-type:alpha" maskUnits="userSpaceOnUse" x="0" y="0" width="335" height="372">
<rect width="334.999" height="372" transform="matrix(-1 0 0 1 335 0)" fill="white"/>
</mask>
<g mask="url(#mask0_1_954)">
<path d="M178.13 237.523L178.459 237.848L178.453 237.854L178.448 237.859L178.13 237.523ZM175.965 237.706L176.123 237.271L176.184 237.293L176.236 237.331L175.965 237.706ZM178.13 235.143L177.801 235.468L178.13 235.143ZM175.754 235.143L175.387 234.862L175.404 234.838L175.425 234.818L175.754 235.143ZM4.19092 124.484L3.841 124.182L3.85107 124.17L3.86191 124.159L4.19092 124.484ZM6.56689 124.484L6.24582 124.818L6.23788 124.81L6.56689 124.484ZM4.19092 126.956L3.86191 127.281L3.85107 127.27L3.841 127.259L4.19092 126.956ZM6.56689 126.956L6.96771 127.187L6.9379 127.239L6.89594 127.281L6.56689 126.956ZM6.61969 126.864L6.21884 126.633L6.52014 126.111L6.94672 126.537L6.61969 126.864ZM43.2621 163.478L43.5892 163.151L43.7249 163.287V163.478H43.2621ZM43.2621 209.063H43.7249V210.18L42.9348 209.39L43.2621 209.063ZM-4.5737 161.19H-5.03641V160.072L-4.24637 160.863L-4.5737 161.19ZM-4.5737 161.922L-4.90097 162.249L-5.03641 162.114V161.922H-4.5737ZM52.2379 218.765L52.5652 218.438L52.7007 218.574V218.765H52.2379ZM52.2379 269.201L51.9106 269.528L51.7752 269.392V269.201H52.2379ZM82.8614 299.865L83.1888 299.538L83.5166 299.867L83.1874 300.194L82.8614 299.865ZM77.4231 305.266L77.7491 305.594L77.4219 305.919L77.0958 305.593L77.4231 305.266ZM47.5917 275.425L47.2644 275.753L47.0519 275.54L47.1598 275.259L47.5917 275.425ZM47.6972 275.151L48.0245 274.824L48.237 275.036L48.1291 275.317L47.6972 275.151ZM19.3442 246.775L19.0169 247.102L18.8815 246.967V246.775H19.3442ZM19.3442 240.551L19.6718 240.224L19.8069 240.359V240.551H19.3442ZM13.5892 234.784L13.2617 235.111L13.1265 234.975V234.784H13.5892ZM13.5892 217.026L13.916 216.699L14.0519 216.834V217.026H13.5892ZM-4.5737 198.902H-5.03641V197.787L-4.24686 198.575L-4.5737 198.902ZM-4.5737 199.635L-4.90054 199.962L-5.03641 199.826V199.635H-4.5737ZM13.2196 217.392L13.5464 217.065L13.6823 217.2V217.392H13.2196ZM13.2196 234.418H13.6823V235.533L12.8928 234.745L13.2196 234.418ZM5.88058 227.095L5.55374 227.423L5.28833 227.158L5.4924 226.843L5.88058 227.095ZM5.72214 224.898L5.40421 225.234L5.39859 225.229L5.39313 225.223L5.72214 224.898ZM3.34616 224.898L3.01715 224.573V224.573L3.34616 224.898ZM3.34616 227.278L3.67517 226.953L3.68225 226.96L3.689 226.967L3.34616 227.278ZM5.51093 227.461L5.23999 227.086L5.55936 226.855L5.83801 227.134L5.51093 227.461ZM18.9747 240.917L19.3018 240.59L19.4374 240.725V240.917H18.9747ZM18.9747 247.141L18.6472 247.468L18.512 247.333V247.141H18.9747ZM47.1165 275.334L47.4439 275.007L48.2321 275.797H47.1165V275.334ZM34.0223 275.334V275.797H33.8306L33.695 275.661L34.0223 275.334ZM-4.5737 236.706H-5.03641V235.588L-4.24637 236.379L-4.5737 236.706ZM-4.5737 237.438L-4.90103 237.765L-5.03641 237.63V237.438H-4.5737ZM33.2832 275.334L33.6105 275.007L34.3994 275.797H33.2832V275.334ZM-4.5737 275.334H-5.03641V274.871H-4.5737V275.334ZM-4.5737 275.975V276.437H-5.03641V275.975H-4.5737ZM47.3805 275.975V275.512H47.5725L47.7081 275.648L47.3805 275.975ZM77.0535 305.723L77.3811 305.397L77.7078 305.724L77.3803 306.051L77.0535 305.723ZM71.4568 311.307L71.7836 311.635L71.456 311.961L71.1292 311.634L71.4568 311.307ZM49.9149 289.705V289.242H50.1069L50.2425 289.378L49.9149 289.705ZM-4.5737 289.705H-5.03641V289.242H-4.5737V289.705ZM-4.5737 290.529V290.991H-5.03641V290.529H-4.5737ZM34.0223 290.529V290.066H35.1397L34.3495 290.856L34.0223 290.529ZM22.301 302.245L22.6281 302.572L22.4926 302.708H22.301V302.245ZM-4.5737 302.245H-5.03641V301.782H-4.5737V302.245ZM-4.5737 302.886V303.349H-5.03641V302.886H-4.5737ZM22.4066 302.886L22.7331 303.214L22.5977 303.349H22.4066V302.886ZM34.8143 290.529L34.4878 290.201L34.6232 290.066H34.8143V290.529ZM49.8092 290.529V290.066H50.0012L50.1367 290.202L49.8092 290.529ZM71.0872 311.856L71.4147 311.529L71.7418 311.857L71.4137 312.184L71.0872 311.856ZM66.1241 316.799L66.4507 317.127L66.1234 317.453L65.7969 317.126L66.1241 316.799ZM47.2749 297.943V297.48H47.4666L47.6021 297.616L47.2749 297.943ZM39.619 297.943L39.2923 297.615L39.4277 297.48H39.619V297.943ZM24.2018 313.321L24.5285 313.648L24.393 313.784H24.2018V313.321ZM-4.62646 313.321H-5.08917V312.858H-4.62646V313.321ZM-4.62646 313.962V314.424H-5.08917V313.962H-4.62646ZM24.3074 313.962L24.6341 314.289L24.4987 314.424H24.3074V313.962ZM39.7247 298.584L39.3979 298.256L39.5334 298.121H39.7247V298.584ZM47.1165 298.584V298.121H47.3087L47.4443 298.257L47.1165 298.584ZM60.7914 312.314L61.1193 311.987L61.9053 312.777H60.7914V312.314ZM53.9275 312.314V312.777H53.7353L53.5996 312.64L53.9275 312.314ZM47.2749 305.632V305.169H47.4672L47.6028 305.305L47.2749 305.632ZM42.1006 305.632L41.773 305.305L41.9086 305.169H42.1006V305.632ZM30.5904 317.165L30.9179 317.492L30.6393 317.771L30.3195 317.54L30.5904 317.165ZM28.4785 317.348L28.1494 317.023L28.1549 317.017L28.1606 317.012L28.4785 317.348ZM28.4785 319.728L28.8075 319.403V319.403L28.4785 319.728ZM30.8544 319.728L31.1835 320.054L31.1834 320.054L30.8544 319.728ZM31.0129 317.531L30.6558 317.826L30.3887 317.501L30.6855 317.204L31.0129 317.531ZM42.259 306.273L41.9316 305.946L42.0672 305.81H42.259V306.273ZM47.2221 306.273V305.81H47.4144L47.55 305.946L47.2221 306.273ZM53.8747 312.955V313.417H53.6825L53.5468 313.281L53.8747 312.955ZM61.4778 312.955V312.492H61.6702L61.8059 312.628L61.4778 312.955ZM65.7545 317.257L66.0826 316.931L66.4082 317.258L66.0814 317.584L65.7545 317.257ZM58.785 324.213L59.1119 324.541L58.9765 324.676H58.785V324.213ZM48.5421 324.213L48.2149 323.886L48.3504 323.751H48.5421V324.213ZM35.8175 336.937L36.1447 337.264L35.866 337.543L35.5465 337.312L35.8175 336.937ZM33.6527 337.12L33.3237 336.795L33.3292 336.789L33.3348 336.784L33.6527 337.12ZM33.6527 339.5L33.3237 339.825L33.3237 339.825L33.6527 339.5ZM36.0288 339.5L36.3716 339.811L36.3649 339.818L36.3578 339.825L36.0288 339.5ZM36.1871 337.303L35.8155 337.579L35.5781 337.259L35.8594 336.976L36.1871 337.303ZM48.5948 324.854L48.2671 324.528L48.4027 324.391H48.5948V324.854ZM58.0987 324.854V324.391H59.2106L58.427 325.18L58.0987 324.854ZM54.8251 328.149L54.4961 328.475L54.1737 328.149L54.4969 327.823L54.8251 328.149ZM59.8938 333.275L60.2229 332.95L60.547 333.278L60.2204 333.603L59.8938 333.275ZM46.1133 347.006L46.4399 347.333L46.3045 347.468H46.1133V347.006ZM31.6464 347.006V347.468H31.4545L31.3189 347.333L31.6464 347.006ZM16.3875 331.719L16.06 332.046L15.7783 331.764L16.0159 331.444L16.3875 331.719ZM16.2291 329.523L15.9112 329.859L15.9055 329.853L15.9001 329.848L16.2291 329.523ZM13.8532 329.523L14.1823 329.848L14.1822 329.848L13.8532 329.523ZM13.8532 331.902L14.1822 331.577L14.1893 331.584L14.196 331.592L13.8532 331.902ZM16.018 332.085L15.747 331.71L16.0666 331.48L16.3452 331.758L16.018 332.085ZM23.8849 339.957L24.2122 339.63L25.0015 340.42H23.8849V339.957ZM-4.62646 339.957H-5.08917V339.495H-4.62646V339.957ZM-4.62646 340.69L-4.32327 341.039L-5.08917 341.704V340.69H-4.62646ZM-4.5209 340.598L-4.8241 340.249L-4.69363 340.135H-4.5209V340.598ZM24.5714 340.598V340.135H24.7628L24.8983 340.271L24.5714 340.598ZM31.5408 347.555V348.018H31.3494L31.214 347.882L31.5408 347.555ZM45.5325 347.555V347.092H46.6533L45.8589 347.883L45.5325 347.555ZM39.8302 353.23L40.1566 353.558L40.0212 353.693H39.8302V353.23ZM7.09488 353.23L6.76819 352.902L6.90363 352.767H7.09488V353.23ZM-1.35297 361.651L-1.02631 361.979L-1.16174 362.114H-1.35297V361.651ZM-4.5737 361.651H-5.03641V361.188H-4.5737V361.651ZM-4.5737 362.292V362.755H-5.03641V362.292H-4.5737ZM-1.98651 362.292V361.829H-0.861969L-1.66086 362.621L-1.98651 362.292ZM-4.5737 364.855H-5.03641V364.662L-4.89932 364.526L-4.5737 364.855ZM-4.5737 365.587L-4.24603 365.914L-5.03641 366.707V365.587H-4.5737ZM7.2005 353.779L6.87283 353.452L7.00845 353.316H7.2005V353.779ZM39.9358 353.779L40.2632 354.106L40.1277 354.242H39.9358V353.779ZM60.3162 333.367L59.9888 333.04L60.3163 332.712L60.6437 333.04L60.3162 333.367ZM69.82 342.887L70.1475 342.56L70.4741 342.887L70.1472 343.214L69.82 342.887ZM46.1133 366.594L46.4405 366.921L46.305 367.057H46.1133V366.594ZM20.6115 366.594L20.2841 366.267L20.4197 366.131H20.6115V366.594ZM-4.62646 391.858H-5.08917V391.666L-4.95383 391.531L-4.62646 391.858ZM-4.62646 392.59L-4.29913 392.917L-5.08917 393.708V392.59H-4.62646ZM20.6115 367.326L20.2841 366.999L20.4197 366.864H20.6115V367.326ZM45.3741 367.326V366.864H46.489L45.7018 367.653L45.3741 367.326ZM14.0643 398.723H13.6016V398.531L13.7367 398.396L14.0643 398.723ZM14.0643 423.803H14.527V423.995L14.3922 424.13L14.0643 423.803ZM-4.62646 442.568H-5.08917V442.377L-4.95432 442.241L-4.62646 442.568ZM-4.62646 443.3L-4.29913 443.627L-5.08917 444.418V443.3H-4.62646ZM14.4868 424.169H14.9495V424.361L14.8141 424.497L14.4868 424.169ZM14.4868 399.089H14.024V398.897L14.1595 398.762L14.4868 399.089ZM70.1897 343.344L69.8624 343.017L70.1888 342.691L70.5161 343.016L70.1897 343.344ZM78.3735 351.491L78.6999 351.163L79.0284 351.49L78.7008 351.818L78.3735 351.491ZM44.8989 384.993H44.4362V384.801L44.5716 384.666L44.8989 384.993ZM44.8989 435.428H45.3616V435.62L45.2257 435.756L44.8989 435.428ZM25.9969 454.284V454.747H24.8779L25.6701 453.957L25.9969 454.284ZM26.7361 454.284L27.0629 454.612L26.9275 454.747H26.7361V454.284ZM45.2685 435.794H45.7312V435.986L45.5953 436.122L45.2685 435.794ZM45.2685 385.359H44.8058V385.167L44.9412 385.032L45.2685 385.359ZM78.743 351.857L78.4157 351.53L78.7418 351.204L79.0691 351.529L78.743 351.857ZM83.8117 356.891L84.1378 356.563L84.4673 356.89L84.1389 357.219L83.8117 356.891ZM58.9962 381.697H58.5335V381.506L58.6691 381.37L58.9962 381.697ZM58.9962 440.829H59.4589V441.021L59.3229 441.156L58.9962 440.829ZM47.0637 452.728H46.601V452.536L46.737 452.401L47.0637 452.728ZM47.0637 454.284V454.747H46.601V454.284H47.0637ZM47.4333 454.284H47.896V454.747H47.4333V454.284ZM47.4333 453.095H46.9706V452.903L47.1065 452.767L47.4333 453.095ZM59.3659 441.195H59.8286V441.387L59.6926 441.523L59.3659 441.195ZM59.3659 382.063H58.9032V381.872L59.0387 381.736L59.3659 382.063ZM84.1813 357.258L83.8542 356.93L84.1805 356.604L84.5076 356.929L84.1813 357.258ZM90.9924 364.031L91.3187 363.703L91.647 364.029L91.3203 364.358L90.9924 364.031ZM72.0376 383.07H71.5748V382.879L71.7096 382.744L72.0376 383.07ZM72.0376 454.284V454.747H71.5748V454.284H72.0376ZM72.4072 454.284H72.8699V454.747H72.4072V454.284ZM72.4072 423.986H71.9445V422.868L72.7347 423.66L72.4072 423.986ZM81.911 433.506L82.2384 433.179L82.3737 433.315V433.506H81.911ZM81.911 454.284V454.747H81.4483V454.284H81.911ZM82.2806 454.284H82.7433V454.747H82.2806V454.284ZM82.2806 433.14L82.608 432.813L82.7433 432.948V433.14H82.2806ZM72.4072 423.254L72.0798 423.581L71.9445 423.446V423.254H72.4072ZM72.4072 405.771H71.9445V404.652L72.7347 405.444L72.4072 405.771ZM84.9205 418.311L85.248 417.984L85.5143 418.251L85.3068 418.566L84.9205 418.311ZM85.1317 420.417L85.4496 420.08L85.4553 420.086L85.4607 420.091L85.1317 420.417ZM87.5076 420.417L87.8367 420.742H87.8367L87.5076 420.417ZM87.5076 418.037L87.8107 417.687L87.8242 417.699L87.8366 417.711L87.5076 418.037ZM85.2901 417.945L85.5932 418.295L85.2673 418.577L84.9626 418.272L85.2901 417.945ZM72.4072 405.039L72.0797 405.366L71.9445 405.23V405.039H72.4072ZM72.4072 383.436H71.9445V383.245L72.0793 383.11L72.4072 383.436ZM91.362 364.397L91.0341 364.071L91.3604 363.743L91.6883 364.069L91.362 364.397ZM97.4339 370.439L97.7602 370.111L98.089 370.438L97.7612 370.766L97.4339 370.439ZM88.194 379.684H87.7313V379.492L87.8668 379.356L88.194 379.684ZM88.194 393.322L87.8693 393.652L87.7313 393.516V393.322H88.194ZM90.5172 395.611L90.8419 395.281L90.9799 395.417V395.611H90.5172ZM90.5172 402.567L90.1898 402.894L90.0545 402.759V402.567H90.5172ZM107.149 419.227L107.476 418.9L107.612 419.035V419.227H107.149ZM107.149 430.943L106.821 431.27L106.686 431.134V430.943H107.149ZM120.665 444.49L120.993 444.163L121.275 444.446L121.037 444.766L120.665 444.49ZM120.824 446.687L121.142 446.351L121.147 446.356L121.153 446.362L120.824 446.687ZM123.2 444.307L122.871 444.632L122.864 444.625L122.857 444.618L123.2 444.307ZM121.035 444.124L121.306 444.499L120.986 444.73L120.707 444.451L121.035 444.124ZM107.518 430.577L107.191 430.904L107.056 430.768V430.577H107.518ZM107.518 418.86L107.846 418.534L107.981 418.669V418.86H107.518ZM90.8868 402.201L90.5593 402.528L90.4241 402.393V402.201H90.8868ZM90.8868 395.977H90.4241V394.857L91.2144 395.65L90.8868 395.977ZM118.817 423.986L119.145 423.66L119.411 423.927L119.204 424.241L118.817 423.986ZM119.029 426.092L119.347 425.756L119.352 425.761L119.358 425.766L119.029 426.092ZM121.405 426.092L121.076 425.766H121.076L121.405 426.092ZM121.405 423.712L121.708 423.362L121.721 423.374L121.734 423.386L121.405 423.712ZM119.187 423.62L119.49 423.97L119.164 424.252L118.86 423.947L119.187 423.62ZM96.8003 401.194L96.4728 401.521L95.6846 400.732H96.8003V401.194ZM107.994 401.194V400.732H108.186L108.321 400.867L107.994 401.194ZM120.877 414.101L121.204 413.774L121.486 414.056L121.248 414.376L120.877 414.101ZM121.035 416.297L121.353 415.961L121.359 415.967L121.364 415.972L121.035 416.297ZM123.411 416.297L123.74 416.623L123.74 416.623L123.411 416.297ZM123.411 413.918L123.082 414.243L123.075 414.236L123.068 414.228L123.411 413.918ZM121.246 413.735L121.517 414.11L121.198 414.34L120.919 414.062L121.246 413.735ZM108.152 400.645V400.182H108.344L108.479 400.318L108.152 400.645ZM96.1667 400.645V401.108H95.9751L95.8396 400.972L96.1667 400.645ZM88.5636 393.048L88.2366 393.375L88.1009 393.239V393.048H88.5636ZM88.5636 380.233H88.1009V380.041L88.2364 379.906L88.5636 380.233ZM97.8035 370.988L97.4762 370.661L97.8018 370.335L98.1291 370.659L97.8035 370.988ZM99.6514 372.818L99.9789 373.145L99.6532 373.472L99.3258 373.147L99.6514 372.818ZM102.027 370.439L101.7 370.112L102.027 369.784L102.355 370.111L102.027 370.439ZM140.729 409.158V409.62H140.537L140.402 409.485L140.729 409.158ZM151.342 409.158V408.695H151.724L151.796 409.07L151.342 409.158ZM151.817 409.982L151.488 410.307L151.483 410.302L151.817 409.982ZM154.193 409.982L153.864 409.656L153.864 409.656L154.193 409.982ZM154.193 407.602L154.522 407.276L154.522 407.276L154.193 407.602ZM151.817 407.602L152.146 407.927L152.116 407.957L152.08 407.982L151.817 407.602ZM151.342 408.426L151.796 408.513L151.724 408.888H151.342V408.426ZM140.887 408.426V408.888H140.696L140.56 408.753L140.887 408.426ZM102.397 369.889L102.07 370.216L101.741 369.888L102.071 369.561L102.397 369.889ZM108.31 364.031L107.985 363.702L108.312 363.378L108.638 363.704L108.31 364.031ZM140.465 396.251L140.793 395.925L141.057 396.189L140.853 396.503L140.465 396.251ZM140.623 398.448L140.941 398.112L140.947 398.117L140.952 398.123L140.623 398.448ZM142.999 398.448L142.67 398.123H142.67L142.999 398.448ZM142.999 396.068L142.67 396.394L142.663 396.387L142.657 396.379L142.999 396.068ZM140.835 395.885L141.106 396.26L140.786 396.491L140.508 396.213L140.835 395.885ZM108.627 363.756L108.3 364.084L107.973 363.757L108.3 363.43L108.627 363.756ZM114.752 357.624L114.425 357.297L114.752 356.969L115.079 357.297L114.752 357.624ZM160.212 403.116L160.539 402.789L160.674 402.925V403.116H160.212ZM160.212 441.195H160.674V441.387L160.539 441.522L160.212 441.195ZM147.118 454.284V454.747H146L146.791 453.957L147.118 454.284ZM147.857 454.284L148.183 454.612L148.048 454.747H147.857V454.284ZM155.671 446.504L155.345 446.176L155.671 445.851L155.998 446.176L155.671 446.504ZM163.485 454.284V454.747H163.294L163.159 454.612L163.485 454.284ZM164.225 454.284L164.551 453.957L165.345 454.747H164.225V454.284ZM156.041 446.138L155.714 446.466L155.387 446.14L155.712 445.812L156.041 446.138ZM160.581 441.561H161.044V441.752L160.91 441.887L160.581 441.561ZM160.581 411.629H160.119V410.514L160.908 411.302L160.581 411.629ZM168.29 419.318L168.617 418.991L168.753 419.126V419.318H168.29ZM168.29 437.991L167.963 438.318L167.827 438.183V437.991H168.29ZM183.919 453.644L184.246 453.317L184.497 453.568L184.319 453.875L183.919 453.644ZM183.655 454.284V454.747H183.039L183.21 454.156L183.655 454.284ZM186.928 454.284L187.36 454.118L187.602 454.747H186.928V454.284ZM186.453 453.461L186.119 453.781L186.11 453.771L186.453 453.461ZM184.288 453.278L184.559 453.653L184.239 453.884L183.961 453.605L184.288 453.278ZM168.66 437.625L168.332 437.952L168.197 437.817V437.625H168.66ZM168.66 418.952L168.986 418.624L169.122 418.76V418.952H168.66ZM160.581 410.897L160.255 411.225L160.119 411.089V410.897H160.581ZM160.581 402.75L160.909 402.423L161.044 402.559V402.75H160.581ZM115.122 357.258L114.794 357.585L114.467 357.257L114.795 356.93L115.122 357.258ZM121.827 350.576L121.5 350.248L121.828 349.922L122.154 350.248L121.827 350.576ZM210.001 438.815L210.328 438.488L210.464 438.624V438.815H210.001ZM210.001 454.376V454.839H209.538V454.376H210.001ZM210.371 454.376H210.833V454.839H210.371V454.376ZM210.371 438.449L210.698 438.122L210.833 438.257V438.449H210.371ZM122.197 350.209L121.869 350.536L121.541 350.208L121.871 349.881L122.197 350.209ZM127.635 344.809L127.309 344.48L127.636 344.155L127.962 344.482L127.635 344.809ZM173.042 390.302V390.764H172.85L172.714 390.629L173.042 390.302ZM206.147 390.302V389.839H206.338L206.474 389.974L206.147 390.302ZM220.719 404.856L221.046 404.528L221.837 405.318H220.719V404.856ZM220.614 404.856H220.151V404.393H220.614V404.856ZM220.614 420.325L220.286 420.652L220.151 420.516V420.325H220.614ZM237.14 436.893L237.467 436.566L237.749 436.848L237.512 437.168L237.14 436.893ZM237.298 439.09L237.616 438.753L237.622 438.759L237.627 438.764L237.298 439.09ZM239.674 439.09L239.345 438.764L239.345 438.764L239.674 439.09ZM239.674 436.71L239.345 437.035L239.338 437.028L239.331 437.021L239.674 436.71ZM237.509 436.527L237.78 436.902L237.461 437.133L237.182 436.853L237.509 436.527ZM220.983 419.959L220.656 420.286L220.521 420.15V419.959H220.983ZM220.983 405.13H220.521V404.013L221.311 404.803L220.983 405.13ZM246.063 430.211V430.673H245.871L245.736 430.538L246.063 430.211ZM301.607 430.211L301.935 430.538L301.799 430.673H301.607V430.211ZM311.757 420.056L311.43 419.729L311.758 419.4L312.085 419.73L311.757 420.056ZM311.789 420.088L312.107 419.752L312.113 419.757L312.118 419.763L311.789 420.088ZM314.165 420.088L314.494 420.413H314.494L314.165 420.088ZM314.165 417.708L313.836 418.033L313.829 418.026L313.823 418.019L314.165 417.708ZM312.001 417.525L311.675 417.196L311.701 417.171L311.73 417.15L312.001 417.525ZM311.631 417.891L311.259 417.615L311.28 417.587L311.305 417.562L311.631 417.891ZM311.461 419.622L311.883 419.432L312.014 419.723L311.789 419.949L311.461 419.622ZM301.555 429.57L301.882 429.896L301.747 430.033H301.555V429.57ZM246.221 429.57V430.033H246.029L245.894 429.897L246.221 429.57ZM206.305 389.569V389.107H206.497L206.633 389.243L206.305 389.569ZM173.2 389.569V390.032H173.009L172.873 389.896L173.2 389.569ZM128.004 344.351L127.677 344.678L127.35 344.351L127.677 344.024L128.004 344.351ZM132.756 339.591L132.429 339.264L132.756 338.937L133.084 339.264L132.756 339.591ZM175.735 382.613V383.075H175.543L175.407 382.94L175.735 382.613ZM213.75 382.613V382.15H213.942L214.077 382.286L213.75 382.613ZM232.23 401.103L232.557 400.776L232.839 401.058L232.601 401.378L232.23 401.103ZM232.388 403.3L232.706 402.963L232.712 402.969L232.717 402.974L232.388 403.3ZM234.764 403.3L235.093 403.625L235.093 403.625L234.764 403.3ZM234.764 400.92L234.435 401.245L234.428 401.238L234.421 401.23L234.764 400.92ZM232.599 400.737L232.87 401.112L232.55 401.343L232.271 401.063L232.599 400.737ZM213.908 381.972V381.509H214.1L214.236 381.645L213.908 381.972ZM175.893 381.972V382.435H175.7L175.564 382.297L175.893 381.972ZM169.557 375.564L169.228 375.89L168.449 375.102H169.557V375.564ZM220.244 375.564L220.571 375.892L220.436 376.027H220.244V375.564ZM260.319 335.472L259.991 335.145L260.27 334.866L260.59 335.097L260.319 335.472ZM262.483 335.289L262.812 335.614L262.807 335.62L262.801 335.625L262.483 335.289ZM262.483 332.909L262.812 332.584L262.812 332.584L262.483 332.909ZM260.107 332.909L259.765 332.599L259.771 332.591L259.778 332.584L260.107 332.909ZM259.949 335.106L260.321 334.83L260.558 335.15L260.277 335.432L259.949 335.106ZM220.244 375.107L220.573 375.433L220.437 375.57H220.244V375.107ZM168.976 375.107V375.57H168.785L168.65 375.434L168.976 375.107ZM152.926 359.088L152.599 359.416L152.272 359.089L152.598 358.762L152.926 359.088ZM159.209 352.772L158.881 352.446L159.016 352.31H159.209V352.772ZM170.402 352.772L170.729 353.1L170.593 353.235H170.402V352.772ZM180.856 342.337L180.529 342.01L180.808 341.732L181.127 341.962L180.856 342.337ZM183.021 342.154L183.35 342.48L183.344 342.485L183.339 342.491L183.021 342.154ZM183.021 339.774L182.692 340.1L182.692 340.1L183.021 339.774ZM180.645 339.774L180.302 339.464L180.309 339.456L180.316 339.449L180.645 339.774ZM180.487 341.971L180.858 341.696L181.096 342.017L180.813 342.299L180.487 341.971ZM170.296 352.132L170.623 352.459L170.488 352.594H170.296V352.132ZM159.895 352.132V352.594H158.778L159.568 351.804L159.895 352.132ZM184.235 327.783L183.908 327.456L184.044 327.321H184.235V327.783ZM206.78 327.783V327.321H206.972L207.107 327.456L206.78 327.783ZM219.347 340.324L219.673 339.996L219.956 340.278L219.718 340.599L219.347 340.324ZM219.505 342.52L219.823 342.184L219.829 342.19L219.834 342.195L219.505 342.52ZM221.881 342.52L221.552 342.195L221.552 342.195L221.881 342.52ZM221.881 340.141L221.552 340.466L221.545 340.459L221.538 340.451L221.881 340.141ZM219.716 339.957L219.987 340.333L219.667 340.564L219.389 340.284L219.716 339.957ZM206.939 327.143V326.68H207.131L207.267 326.816L206.939 327.143ZM184.182 327.143L183.855 326.815L183.991 326.68H184.182V327.143ZM152.609 358.722L152.936 359.049L152.608 359.377L152.281 359.049L152.609 358.722ZM139.198 345.266L138.87 345.593L138.083 344.804H139.198V345.266ZM146.59 345.266L146.916 345.594L146.781 345.729H146.59V345.266ZM152.556 339.317L152.229 338.989L152.508 338.711L152.827 338.942L152.556 339.317ZM154.721 339.134L154.378 338.823L154.385 338.815L154.392 338.808L154.721 339.134ZM154.721 336.754L155.05 336.428L155.05 336.428L154.721 336.754ZM152.345 336.754L152.674 337.079L152.668 337.085L152.663 337.09L152.345 336.754ZM152.134 338.859L152.505 338.583L152.744 338.905L152.46 339.187L152.134 338.859ZM146.431 344.534L146.758 344.862L146.622 344.997H146.431V344.534ZM138.459 344.534V344.997H138.266L138.131 344.86L138.459 344.534ZM133.179 339.225L132.851 339.551L132.525 339.224L132.851 338.898L133.179 339.225ZM144.425 327.966L144.754 327.641L145.078 327.968L144.752 328.293L144.425 327.966ZM140.887 324.397L140.559 324.722L140.235 324.395L140.56 324.07L140.887 324.397ZM160.265 304.991L159.937 304.664L160.073 304.528H160.265V304.991ZM166.759 304.991V304.528H166.95L167.086 304.664L166.759 304.991ZM174.468 312.68L174.794 312.352L175.077 312.635L174.839 312.956L174.468 312.68ZM174.626 314.877L174.944 314.541L174.949 314.546L174.955 314.552L174.626 314.877ZM177.002 314.877L177.331 315.202L177.331 315.202L177.002 314.877ZM177.002 312.497L176.673 312.822L176.666 312.815L176.659 312.808L177.002 312.497ZM174.837 312.314L175.108 312.689L174.789 312.92L174.51 312.641L174.837 312.314ZM166.864 304.35V303.888H167.056L167.191 304.023L166.864 304.35ZM160.159 304.35L159.833 304.022L159.968 303.888H160.159V304.35ZM146.062 318.355L146.388 318.683L145.599 319.467V318.355H146.062ZM146.062 305.449H145.599V305.257L145.735 305.121L146.062 305.449ZM159.261 292.268L158.934 291.94L159.213 291.662L159.532 291.893L159.261 292.268ZM161.426 292.085L161.755 292.41L161.75 292.416L161.744 292.421L161.426 292.085ZM161.426 289.705L161.097 290.03L161.097 290.03L161.426 289.705ZM159.05 289.705L158.707 289.394L158.714 289.387L158.721 289.38L159.05 289.705ZM158.892 291.902L159.263 291.626L159.501 291.947L159.219 292.229L158.892 291.902ZM145.692 305.083H145.229V304.891L145.365 304.755L145.692 305.083ZM145.692 318.721H146.155V318.913L146.019 319.049L145.692 318.721ZM140.465 323.939L140.792 324.266L140.464 324.593L140.137 324.266L140.465 323.939ZM122.197 305.632L121.869 305.959L121.543 305.632L121.869 305.305L122.197 305.632ZM130.697 297.119L130.37 296.792L130.505 296.656H130.697V297.119ZM141.679 297.119L142.007 297.446L141.871 297.582H141.679V297.119ZM159.05 279.728L158.723 279.401L158.858 279.265H159.05V279.728ZM172.25 279.728V279.265H172.442L172.577 279.401L172.25 279.728ZM190.624 298.126L190.951 297.799L191.233 298.081L190.996 298.402L190.624 298.126ZM190.782 300.323L191.1 299.987L191.106 299.992L191.111 299.998L190.782 300.323ZM193.158 300.323L192.829 299.998L192.829 299.997L193.158 300.323ZM193.158 297.943L192.829 298.268L192.822 298.261L192.816 298.254L193.158 297.943ZM190.994 297.76L191.265 298.135L190.945 298.366L190.666 298.087L190.994 297.76ZM172.408 279.178V278.716H172.6L172.736 278.851L172.408 279.178ZM158.945 279.178L158.617 278.851L158.753 278.716H158.945V279.178ZM141.574 296.57L141.901 296.897L141.766 297.033H141.574V296.57ZM131.331 296.57V297.033H130.214L131.003 296.243L131.331 296.57ZM182.282 245.585L181.954 245.258L182.09 245.122H182.282V245.585ZM182.176 244.944L181.849 244.617L181.984 244.482H182.176V244.944ZM121.774 305.357L122.101 305.684L121.774 306.012L121.447 305.684L121.774 305.357ZM114.91 298.492L114.583 298.819L114.256 298.492L114.583 298.165L114.91 298.492ZM175.893 237.438L175.566 237.111L176.22 237.765L175.893 237.438ZM114.594 298.126L114.921 298.453L114.592 298.781L114.265 298.452L114.594 298.126ZM107.413 290.895L107.085 291.221L106.76 290.894L107.086 290.568L107.413 290.895ZM143.158 255.105L142.83 254.778L142.842 254.766L142.855 254.755L143.158 255.105ZM143.263 255.013H143.726V255.224L143.566 255.363L143.263 255.013ZM143.263 223.708L143.591 223.381L143.726 223.517V223.708H143.263ZM81.7526 162.105L81.4252 162.432L81.1434 162.15L81.3809 161.83L81.7526 162.105ZM81.5942 159.908L81.2763 160.245L81.2706 160.239L81.2652 160.234L81.5942 159.908ZM79.2182 159.908L79.5473 160.234L79.5472 160.234L79.2182 159.908ZM79.2182 162.288L79.5473 161.963L79.5543 161.97L79.5611 161.978L79.2182 162.288ZM81.383 162.471L81.1121 162.096L81.4318 161.865L81.7105 162.145L81.383 162.471ZM126.526 207.69L126.854 207.363L127.642 208.152H126.526V207.69ZM112.957 207.69V208.152H112.765L112.63 208.017L112.957 207.69ZM88.6165 183.341L88.2892 183.668L88.0071 183.386L88.2448 183.066L88.6165 183.341ZM88.458 181.145L88.1401 181.481L88.1345 181.475L88.129 181.47L88.458 181.145ZM86.0821 181.145L85.7531 180.819L85.7531 180.819L86.0821 181.145ZM86.0821 183.524L86.4111 183.199L86.4182 183.206L86.4249 183.214L86.0821 183.524ZM88.2468 183.708L87.9759 183.332L88.2955 183.102L88.5741 183.38L88.2468 183.708ZM112.851 208.33V208.793H112.659L112.524 208.657L112.851 208.33ZM127.212 208.33V207.868H127.404L127.54 208.003L127.212 208.33ZM142.841 223.983L143.168 223.656L143.304 223.791V223.983H142.841ZM142.841 254.555H143.304V254.747L143.168 254.882L142.841 254.555ZM114.066 283.389L114.393 283.716L113.603 284.508V283.389H114.066ZM114.066 267.828H113.603V267.636L113.739 267.501L114.066 267.828ZM131.753 250.162L131.426 249.834L131.438 249.823L131.45 249.812L131.753 250.162ZM131.859 250.07H132.321V250.281L132.162 250.42L131.859 250.07ZM131.859 234.326H131.396V233.864H131.859V234.326ZM132.862 233.869L132.528 233.548L132.533 233.543L132.862 233.869ZM130.486 233.869L130.815 233.543L130.82 233.548L130.486 233.869ZM131.489 234.326V233.864H131.952V234.326H131.489ZM131.489 249.704H131.952V249.896L131.816 250.032L131.489 249.704ZM113.802 267.37L114.129 267.698L114.117 267.709L114.105 267.72L113.802 267.37ZM113.696 267.462H113.233V267.251L113.393 267.112L113.696 267.462ZM113.696 283.755H114.159V283.947L114.023 284.083L113.696 283.755ZM106.99 290.437L107.317 290.765L106.989 291.091L106.663 290.764L106.99 290.437ZM99.5986 283.023L99.2715 282.696L99.5992 282.368L99.9263 282.696L99.5986 283.023ZM95.1107 287.508L95.4378 287.835L94.648 288.625V287.508H95.1107ZM95.1107 253.64H94.648V253.449L94.7827 253.314L95.1107 253.64ZM110.686 237.988L110.358 237.661L110.637 237.381L110.957 237.613L110.686 237.988ZM112.851 237.805L113.18 238.13L113.175 238.135L113.169 238.141L112.851 237.805ZM112.851 235.425L113.18 235.099V235.099L112.851 235.425ZM110.475 235.425L110.132 235.114L110.139 235.106L110.146 235.099L110.475 235.425ZM110.317 237.621L110.688 237.346L110.926 237.666L110.644 237.948L110.317 237.621ZM94.7939 253.182L95.1215 253.509L95.1097 253.521L95.0971 253.532L94.7939 253.182ZM94.6883 253.274H94.2256V253.063L94.3852 252.924L94.6883 253.274ZM94.6883 267.096H95.151V268.216L94.3605 267.422L94.6883 267.096ZM83.0198 255.379L82.6919 255.706L82.5571 255.57V255.379H83.0198ZM83.0198 242.29H82.5571V242.098L82.6926 241.963L83.0198 242.29ZM108.469 216.843L108.142 216.516L108.42 216.237L108.74 216.468L108.469 216.843ZM110.634 216.66L110.963 216.985L110.957 216.991L110.952 216.996L110.634 216.66ZM110.634 214.28L110.305 214.605L110.305 214.605L110.634 214.28ZM108.258 214.28L107.915 213.969L107.922 213.962L107.929 213.955L108.258 214.28ZM108.099 216.477L108.471 216.201L108.709 216.522L108.427 216.804L108.099 216.477ZM82.7558 241.832L83.083 242.159L83.0713 242.171L83.0587 242.182L82.7558 241.832ZM82.6501 241.924H82.1874V241.712L82.3472 241.574L82.6501 241.924ZM82.6501 255.837L82.3224 256.164L82.1874 256.028V255.837H82.6501ZM94.6883 267.92L95.0161 267.593L95.151 267.728V267.92H94.6883ZM94.6883 287.966H95.151V288.157L95.016 288.292L94.6883 287.966ZM88.2996 294.373L88.6273 294.7L88.2997 295.028L87.972 294.7L88.2996 294.373ZM82.9141 288.973L82.5865 289.299L82.4514 289.164V288.973H82.9141ZM82.9141 276.707L83.2406 276.379L83.3768 276.515V276.707H82.9141ZM74.7303 268.56L74.4039 268.888L74.1378 268.623L74.3422 268.308L74.7303 268.56ZM74.572 266.363L74.254 266.7L74.2484 266.694L74.243 266.689L74.572 266.363ZM72.196 266.363L71.867 266.038L71.867 266.038L72.196 266.363ZM72.196 268.743L72.525 268.418L72.5321 268.425L72.5388 268.433L72.196 268.743ZM74.3607 268.926L74.0898 268.551L74.4085 268.321L74.6872 268.598L74.3607 268.926ZM82.5446 277.073L82.871 276.745L83.0073 276.881V277.073H82.5446ZM82.5446 288.606H83.0073V289.724L82.2174 288.934L82.5446 288.606ZM64.6985 270.757L64.3713 271.084L64.2358 270.949V270.757H64.6985ZM64.6985 243.846H64.2358V243.654L64.3711 243.519L64.6985 243.846ZM91.5732 216.935L91.2458 216.608L91.2575 216.596L91.2701 216.585L91.5732 216.935ZM91.6788 216.843H92.1415V217.054L91.9819 217.193L91.6788 216.843ZM91.6788 206.683L92.0058 206.355L92.1415 206.491V206.683H91.6788ZM76.4727 191.488L76.1456 191.815L75.8806 191.55L76.0845 191.236L76.4727 191.488ZM76.3143 189.291L75.9964 189.627L75.9908 189.622L75.9853 189.616L76.3143 189.291ZM73.9383 189.291L73.6093 188.966L73.6093 188.966L73.9383 189.291ZM73.9383 191.671L74.2673 191.346L74.2744 191.353L74.2812 191.36L73.9383 191.671ZM76.1031 191.854L75.8322 191.479L76.1515 191.248L76.4301 191.527L76.1031 191.854ZM91.3092 207.049L91.6363 206.722L91.7719 206.857V207.049H91.3092ZM91.3092 216.477H91.7719V216.668L91.6366 216.804L91.3092 216.477ZM64.4346 243.388L64.762 243.715L64.7502 243.727L64.7376 243.738L64.4346 243.388ZM64.3289 243.48H63.8662V243.268L64.0259 243.13L64.3289 243.48ZM64.3289 271.123L64.0016 271.45L63.8662 271.315V271.123H64.3289ZM87.9301 294.739L88.2574 294.412L88.5841 294.739L88.2575 295.066L87.9301 294.739ZM83.1782 299.499L83.5056 299.826L83.1782 300.154L82.8508 299.826L83.1782 299.499ZM52.5548 268.835L52.2274 269.162L52.0921 269.026V268.835H52.5548ZM52.5548 218.399L52.8829 218.073L53.0175 218.208V218.399H52.5548ZM43.6318 209.429L43.3037 209.755L43.1691 209.62V209.429H43.6318ZM43.6318 163.021L43.959 162.694L44.0945 162.829V163.021H43.6318ZM6.93652 126.315L6.60928 126.642L6.39117 126.424L6.5087 126.139L6.93652 126.315ZM55.6171 327.875L55.2897 328.202L54.9631 327.875L55.2897 327.548L55.6171 327.875ZM99.5986 371.903L99.926 372.23L99.5986 372.558L99.2713 372.23L99.5986 371.903ZM99.5986 283.847L99.2713 283.52L99.5986 283.192L99.926 283.52L99.5986 283.847ZM143.58 327.875L143.907 327.548L144.234 327.875L143.907 328.202L143.58 327.875ZM219.773 247.145L220.102 247.471L220.097 247.476L220.091 247.482L219.773 247.145ZM217.609 247.329L217.767 246.894L217.827 246.916L217.88 246.953L217.609 247.329ZM219.773 244.766L219.444 245.091L219.773 244.766ZM217.398 244.766L217.03 244.484L217.048 244.461L217.068 244.44L217.398 244.766ZM178.448 237.859C177.719 238.549 176.522 238.679 175.694 238.081L176.236 237.331C176.675 237.648 177.38 237.596 177.812 237.187L178.448 237.859ZM178.459 234.818C179.271 235.639 179.271 237.027 178.459 237.848L177.801 237.198C178.256 236.737 178.256 235.929 177.801 235.468L178.459 234.818ZM175.425 234.818C176.24 233.994 177.644 233.994 178.459 234.818L177.801 235.468C177.348 235.011 176.535 235.011 176.083 235.468L175.425 234.818ZM176.121 235.425C175.898 235.715 175.665 236.153 175.622 236.533C175.602 236.714 175.629 236.852 175.689 236.957C175.747 237.057 175.864 237.177 176.123 237.271L175.807 238.141C175.386 237.988 175.074 237.744 174.887 237.419C174.702 237.098 174.668 236.748 174.703 236.431C174.771 235.815 175.113 235.219 175.387 234.862L176.121 235.425ZM3.86191 124.159C4.67664 123.335 6.08127 123.335 6.8959 124.159L6.23788 124.81C5.78546 124.352 4.97244 124.352 4.51993 124.81L3.86191 124.159ZM3.841 127.259C3.0571 126.353 3.0571 125.088 3.841 124.182L4.54083 124.787C4.05768 125.346 4.05768 126.095 4.54083 126.653L3.841 127.259ZM6.89594 127.281C6.08127 128.105 4.67664 128.105 3.86191 127.281L4.51993 126.631C4.97244 127.088 5.78546 127.088 6.23785 126.631L6.89594 127.281ZM7.02051 127.096L6.96771 127.187L6.16608 126.725L6.21884 126.633L7.02051 127.096ZM42.9351 163.806L6.29263 127.192L6.94672 126.537L43.5892 163.151L42.9351 163.806ZM42.7994 209.063V163.478H43.7249V209.063H42.7994ZM-4.24637 160.863L43.5894 208.736L42.9348 209.39L-4.901 161.517L-4.24637 160.863ZM-5.03641 161.922V161.19H-4.11099V161.922H-5.03641ZM51.9107 219.092L-4.90097 162.249L-4.24643 161.595L52.5652 218.438L51.9107 219.092ZM51.7752 269.201V218.765H52.7007V269.201H51.7752ZM82.534 300.192L51.9106 269.528L52.5653 268.874L83.1888 299.538L82.534 300.192ZM77.097 304.937L82.5353 299.537L83.1874 300.194L77.7491 305.594L77.097 304.937ZM47.9189 275.098L77.7503 304.939L77.0958 305.593L47.2644 275.753L47.9189 275.098ZM48.1291 275.317L48.0235 275.591L47.1598 275.259L47.2654 274.985L48.1291 275.317ZM19.6715 246.448L48.0245 274.824L47.3699 275.478L19.0169 247.102L19.6715 246.448ZM19.8069 240.551V246.775H18.8815V240.551H19.8069ZM13.9167 234.457L19.6718 240.224L19.0167 240.877L13.2617 235.111L13.9167 234.457ZM14.0519 217.026V234.784H13.1265V217.026H14.0519ZM-4.24686 198.575L13.916 216.699L13.2624 217.354L-4.90051 199.23L-4.24686 198.575ZM-5.03641 199.635V198.902H-4.11099V199.635H-5.03641ZM12.8927 217.72L-4.90054 199.962L-4.24683 199.307L13.5464 217.065L12.8927 217.72ZM12.7569 234.418V217.392H13.6823V234.418H12.7569ZM6.2074 226.767L13.5464 234.09L12.8928 234.745L5.55374 227.423L6.2074 226.767ZM6.04007 224.562C6.81192 225.292 6.84235 226.463 6.26874 227.347L5.4924 226.843C5.86902 226.263 5.79388 225.603 5.40421 225.234L6.04007 224.562ZM3.01715 224.573C3.83188 223.749 5.23642 223.749 6.05115 224.573L5.39313 225.223C4.94061 224.766 4.12769 224.766 3.67517 225.223L3.01715 224.573ZM3.01715 227.603C2.20529 226.782 2.20529 225.394 3.01715 224.573L3.67517 225.223C3.21982 225.684 3.21982 226.492 3.67517 226.953L3.01715 227.603ZM5.78186 227.836C4.98862 228.409 3.76721 228.432 3.00333 227.589L3.689 226.967C4.08664 227.406 4.76599 227.428 5.23999 227.086L5.78186 227.836ZM18.6476 241.244L5.18384 227.788L5.83801 227.134L19.3018 240.59L18.6476 241.244ZM18.512 247.141V240.917H19.4374V247.141H18.512ZM46.789 275.661L18.6472 247.468L19.3022 246.814L47.4439 275.007L46.789 275.661ZM34.0223 274.871H47.1165V275.797H34.0223V274.871ZM-4.24637 236.379L34.3497 275.007L33.695 275.661L-4.901 237.033L-4.24637 236.379ZM-5.03641 237.438V236.706H-4.11099V237.438H-5.03641ZM32.9558 275.661L-4.90103 237.765L-4.24634 237.111L33.6105 275.007L32.9558 275.661ZM-4.5737 274.871H33.2832V275.797H-4.5737V274.871ZM-5.03641 275.975V275.334H-4.11099V275.975H-5.03641ZM47.3805 276.437H-4.5737V275.512H47.3805V276.437ZM76.7259 306.05L47.0529 276.301L47.7081 275.648L77.3811 305.397L76.7259 306.05ZM71.13 310.979L76.7267 305.396L77.3803 306.051L71.7836 311.635L71.13 310.979ZM50.2425 289.378L71.7844 310.98L71.1292 311.634L49.5872 290.032L50.2425 289.378ZM-5.03641 290.529V289.705H-4.11099V290.529H-5.03641ZM34.0223 290.991H-4.5737V290.066H34.0223V290.991ZM21.9738 301.918L33.6953 290.201L34.3495 290.856L22.6281 302.572L21.9738 301.918ZM-4.5737 301.782H22.301V302.708H-4.5737V301.782ZM-5.03641 302.886V302.245H-4.11099V302.886H-5.03641ZM22.4066 303.349H-4.5737V302.423H22.4066V303.349ZM35.1408 290.856L22.7331 303.214L22.0801 302.558L34.4878 290.201L35.1408 290.856ZM49.8092 290.991H34.8143V290.066H49.8092V290.991ZM70.7596 312.183L49.4816 290.855L50.1367 290.202L71.4147 311.529L70.7596 312.183ZM65.7976 316.471L70.7607 311.528L71.4137 312.184L66.4507 317.127L65.7976 316.471ZM47.6021 297.616L66.4514 316.472L65.7969 317.126L46.9477 298.27L47.6021 297.616ZM23.875 312.993L39.2923 297.615L39.9458 298.271L24.5285 313.648L23.875 312.993ZM-4.62646 312.858H24.2018V313.784H-4.62646V312.858ZM-5.08917 313.962V313.321H-4.16376V313.962H-5.08917ZM24.3074 314.424H-4.62646V313.499H24.3074V314.424ZM40.0514 298.911L24.6341 314.289L23.9806 313.634L39.3979 298.256L40.0514 298.911ZM47.1165 299.046H39.7247V298.121H47.1165V299.046ZM60.4636 312.64L46.7886 298.91L47.4443 298.257L61.1193 311.987L60.4636 312.64ZM53.9275 311.851H60.7914V312.777H53.9275V311.851ZM47.6028 305.305L54.2554 311.987L53.5996 312.64L46.947 305.958L47.6028 305.305ZM42.1006 305.169H47.2749V306.095H42.1006V305.169ZM30.2629 316.838L41.773 305.305L42.4281 305.959L30.9179 317.492L30.2629 316.838ZM28.1606 317.012C28.888 316.324 30.0316 316.191 30.8614 316.79L30.3195 317.54C29.882 317.224 29.2304 317.274 28.7964 317.685L28.1606 317.012ZM28.1494 320.054C27.3376 319.233 27.3376 317.844 28.1494 317.023L28.8075 317.674C28.3521 318.134 28.3521 318.942 28.8075 319.403L28.1494 320.054ZM31.1834 320.054C30.3687 320.877 28.9641 320.878 28.1494 320.054L28.8075 319.403C29.2599 319.861 30.0729 319.861 30.5254 319.403L31.1834 320.054ZM31.37 317.237C32.0606 318.075 31.9705 319.258 31.1835 320.054L30.5254 319.403C31.0054 318.917 31.0211 318.269 30.6558 317.826L31.37 317.237ZM42.5864 306.6L31.3402 317.858L30.6855 317.204L41.9316 305.946L42.5864 306.6ZM47.2221 306.735H42.259V305.81H47.2221V306.735ZM53.5468 313.281L46.8942 306.599L47.55 305.946L54.2026 312.628L53.5468 313.281ZM61.4778 313.417H53.8747V312.492H61.4778V313.417ZM65.4263 317.583L61.1496 313.281L61.8059 312.628L66.0826 316.931L65.4263 317.583ZM58.4582 323.886L65.4276 316.929L66.0814 317.584L59.1119 324.541L58.4582 323.886ZM48.5421 323.751H58.785V324.676H48.5421V323.751ZM35.4903 336.61L48.2149 323.886L48.8692 324.541L36.1447 337.264L35.4903 336.61ZM33.3348 336.784C34.0641 336.094 35.2607 335.964 36.0885 336.562L35.5465 337.312C35.1072 336.995 34.403 337.047 33.9706 337.456L33.3348 336.784ZM33.3237 339.825C32.5119 339.004 32.5119 337.616 33.3237 336.795L33.9818 337.445C33.5265 337.906 33.5265 338.714 33.9818 339.174L33.3237 339.825ZM36.3578 339.825C35.5431 340.649 34.1385 340.649 33.3237 339.825L33.9817 339.174C34.4342 339.632 35.2473 339.632 35.6998 339.174L36.3578 339.825ZM36.5587 337.027C37.1742 337.857 37.0905 339.017 36.3716 339.811L35.6859 339.189C36.1286 338.701 36.1504 338.03 35.8155 337.579L36.5587 337.027ZM48.9226 325.181L36.5148 337.63L35.8594 336.976L48.2671 324.528L48.9226 325.181ZM58.0987 325.317H48.5948V324.391H58.0987V325.317ZM54.4969 327.823L57.7704 324.528L58.427 325.18L55.1534 328.476L54.4969 327.823ZM59.5648 333.601L54.4961 328.475L55.1541 327.824L60.2229 332.95L59.5648 333.601ZM45.7867 346.678L59.5672 332.948L60.2204 333.603L46.4399 347.333L45.7867 346.678ZM31.6464 346.543H46.1133V347.468H31.6464V346.543ZM16.715 331.392L31.9738 346.679L31.3189 347.333L16.06 332.046L16.715 331.392ZM16.547 329.186C17.311 329.909 17.363 331.181 16.7592 331.995L16.0159 331.444C16.3624 330.976 16.3089 330.235 15.9112 329.859L16.547 329.186ZM13.5242 329.197C14.3388 328.373 15.7435 328.373 16.5581 329.197L15.9001 329.848C15.4476 329.39 14.6347 329.39 14.1823 329.848L13.5242 329.197ZM13.5242 332.228C12.7123 331.407 12.7123 330.018 13.5242 329.197L14.1822 329.848C13.7269 330.308 13.7268 331.117 14.1822 331.577L13.5242 332.228ZM16.2889 332.461C15.4956 333.034 14.2742 333.056 13.5104 332.213L14.196 331.592C14.5937 332.03 15.273 332.053 15.747 331.71L16.2889 332.461ZM23.5577 340.285L15.6907 332.413L16.3452 331.758L24.2122 339.63L23.5577 340.285ZM-4.62646 339.495H23.8849V340.42H-4.62646V339.495ZM-5.08917 340.69V339.957H-4.16376V340.69H-5.08917ZM-4.21771 340.948L-4.32327 341.039L-4.92966 340.34L-4.8241 340.249L-4.21771 340.948ZM24.5714 341.061H-4.5209V340.135H24.5714V341.061ZM31.214 347.882L24.2445 340.926L24.8983 340.271L31.8677 347.227L31.214 347.882ZM39.5038 352.902L45.2061 347.227L45.8589 347.883L40.1566 353.558L39.5038 352.902ZM7.09488 352.767H39.8302V353.693H7.09488V352.767ZM-1.67963 361.323L6.76819 352.902L7.42154 353.558L-1.02631 361.979L-1.67963 361.323ZM-4.5737 361.188H-1.35297V362.114H-4.5737V361.188ZM-5.03641 362.292V361.651H-4.11099V362.292H-5.03641ZM-1.98651 362.755H-4.5737V361.829H-1.98651V362.755ZM-4.89932 364.526L-2.31213 361.963L-1.66086 362.621L-4.24805 365.184L-4.89932 364.526ZM-5.03641 365.587V364.855H-4.11099V365.587H-5.03641ZM7.52814 354.106L-4.24603 365.914L-4.90134 365.26L6.87283 353.452L7.52814 354.106ZM39.9358 354.242H7.2005V353.316H39.9358V354.242ZM60.6437 333.694L40.2632 354.106L39.6084 353.452L59.9888 333.04L60.6437 333.694ZM69.4926 343.213L59.9888 333.694L60.6437 333.04L70.1475 342.56L69.4926 343.213ZM45.7861 366.267L69.4928 342.559L70.1472 343.214L46.4405 366.921L45.7861 366.267ZM20.6115 366.131H46.1133V367.057H20.6115V366.131ZM-4.95383 391.531L20.2841 366.267L20.9388 366.921L-4.29913 392.185L-4.95383 391.531ZM-5.08917 392.59V391.858H-4.16376V392.59H-5.08917ZM20.9388 367.653L-4.29913 392.917L-4.95383 392.263L20.2841 366.999L20.9388 367.653ZM45.3741 367.789H20.6115V366.864H45.3741V367.789ZM13.7367 398.396L45.0465 367L45.7018 367.653L14.3919 399.049L13.7367 398.396ZM13.6016 423.803V398.723H14.527V423.803H13.6016ZM-4.95432 442.241L13.7365 423.477L14.3922 424.13L-4.29865 442.895L-4.95432 442.241ZM-5.08917 443.3V442.568H-4.16376V443.3H-5.08917ZM14.8141 424.497L-4.29913 443.627L-4.9538 442.973L14.1594 423.842L14.8141 424.497ZM14.9495 399.089V424.169H14.024V399.089H14.9495ZM70.517 343.671L14.8141 399.416L14.1595 398.762L69.8624 343.017L70.517 343.671ZM78.047 351.819L69.8632 343.672L70.5161 343.016L78.6999 351.163L78.047 351.819ZM44.5716 384.666L78.0461 351.164L78.7008 351.818L45.2263 385.32L44.5716 384.666ZM44.4362 435.428V384.993H45.3616V435.428H44.4362ZM25.6701 453.957L44.5721 435.101L45.2257 435.756L26.3237 454.612L25.6701 453.957ZM26.7361 454.747H25.9969V453.822H26.7361V454.747ZM45.5953 436.122L27.0629 454.612L26.4093 453.957L44.9417 435.467L45.5953 436.122ZM45.7312 385.359V435.794H44.8058V385.359H45.7312ZM79.0704 352.184L45.5958 385.686L44.9412 385.032L78.4157 351.53L79.0704 352.184ZM83.4857 357.22L78.417 352.185L79.0691 351.529L84.1378 356.563L83.4857 357.22ZM58.6691 381.37L83.4846 356.564L84.1389 357.219L59.3233 382.025L58.6691 381.37ZM58.5335 440.829V381.697H59.4589V440.829H58.5335ZM46.737 452.401L58.6695 440.501L59.3229 441.156L47.3904 453.056L46.737 452.401ZM46.601 454.284V452.728H47.5264V454.284H46.601ZM47.4333 454.747H47.0637V453.822H47.4333V454.747ZM47.896 453.095V454.284H46.9706V453.095H47.896ZM59.6926 441.523L47.76 453.422L47.1065 452.767L59.0391 440.867L59.6926 441.523ZM59.8286 382.063V441.195H58.9032V382.063H59.8286ZM84.5085 357.585L59.693 382.391L59.0387 381.736L83.8542 356.93L84.5085 357.585ZM90.6662 364.359L83.8551 357.586L84.5076 356.929L91.3187 363.703L90.6662 364.359ZM71.7096 382.744L90.6645 363.705L91.3203 364.358L72.3655 383.397L71.7096 382.744ZM71.5748 454.284V383.07H72.5003V454.284H71.5748ZM72.4072 454.747H72.0376V453.822H72.4072V454.747ZM72.8699 423.986V454.284H71.9445V423.986H72.8699ZM81.5835 433.833L72.0797 424.313L72.7347 423.66L82.2384 433.179L81.5835 433.833ZM81.4483 454.284V433.506H82.3737V454.284H81.4483ZM82.2806 454.747H81.911V453.822H82.2806V454.747ZM82.7433 433.14V454.284H81.8179V433.14H82.7433ZM72.7346 422.927L82.608 432.813L81.9532 433.467L72.0798 423.581L72.7346 422.927ZM72.8699 405.771V423.254H71.9445V405.771H72.8699ZM84.593 418.638L72.0797 406.098L72.7347 405.444L85.248 417.984L84.593 418.638ZM84.8138 420.753C84.0537 420.034 84.0009 418.866 84.5342 418.057L85.3068 418.566C84.9954 419.038 85.0481 419.701 85.4496 420.08L84.8138 420.753ZM87.8367 420.742C87.022 421.566 85.6174 421.566 84.8027 420.742L85.4607 420.091C85.9132 420.549 86.7262 420.549 87.1786 420.091L87.8367 420.742ZM87.8366 417.711C88.6485 418.532 88.6485 419.921 87.8367 420.742L87.1786 420.091C87.634 419.631 87.634 418.822 87.1786 418.362L87.8366 417.711ZM84.9871 417.595C85.829 416.866 87.04 417.019 87.8107 417.687L87.2046 418.386C86.7082 417.956 86.0185 417.926 85.5932 418.295L84.9871 417.595ZM72.7347 404.712L85.6176 417.618L84.9626 418.272L72.0797 405.366L72.7347 404.712ZM72.8699 383.436V405.039H71.9445V383.436H72.8699ZM91.6899 364.724L72.7351 383.763L72.0793 383.11L91.0341 364.071L91.6899 364.724ZM97.1075 370.767L91.0356 364.725L91.6883 364.069L97.7602 370.111L97.1075 370.767ZM87.8668 379.356L97.1066 370.111L97.7612 370.766L88.5213 380.011L87.8668 379.356ZM87.7313 393.322V379.684H88.6568V393.322H87.7313ZM90.1925 395.94L87.8693 393.652L88.5188 392.993L90.8419 395.281L90.1925 395.94ZM90.0545 402.567V395.611H90.9799V402.567H90.0545ZM106.821 419.554L90.1898 402.894L90.8447 402.24L107.476 418.9L106.821 419.554ZM106.686 430.943V419.227H107.612V430.943H106.686ZM120.338 444.817L106.821 431.27L107.476 430.616L120.993 444.163L120.338 444.817ZM120.506 447.023C119.742 446.301 119.69 445.029 120.294 444.215L121.037 444.766C120.691 445.233 120.744 445.975 121.142 446.351L120.506 447.023ZM123.529 447.012C122.714 447.836 121.31 447.836 120.495 447.012L121.153 446.362C121.605 446.819 122.418 446.819 122.871 446.362L123.529 447.012ZM123.529 443.982C124.341 444.803 124.341 446.191 123.529 447.012L122.871 446.362C123.326 445.901 123.326 445.093 122.871 444.632L123.529 443.982ZM120.764 443.749C121.557 443.176 122.779 443.154 123.543 443.996L122.857 444.618C122.459 444.179 121.78 444.157 121.306 444.499L120.764 443.749ZM107.846 430.25L121.363 443.797L120.707 444.451L107.191 430.904L107.846 430.25ZM107.981 418.86V430.577H107.056V418.86H107.981ZM91.2142 401.874L107.846 418.534L107.191 419.187L90.5593 402.528L91.2142 401.874ZM91.3495 395.977V402.201H90.4241V395.977H91.3495ZM118.49 424.313L90.5591 396.303L91.2144 395.65L119.145 423.66L118.49 424.313ZM118.711 426.428C117.951 425.709 117.898 424.541 118.431 423.732L119.204 424.241C118.892 424.714 118.945 425.376 119.347 425.756L118.711 426.428ZM121.734 426.417C120.919 427.241 119.514 427.241 118.7 426.417L119.358 425.766C119.81 426.224 120.623 426.224 121.076 425.766L121.734 426.417ZM121.734 423.386C122.545 424.207 122.545 425.596 121.734 426.417L121.076 425.766C121.531 425.306 121.531 424.498 121.076 424.037L121.734 423.386ZM118.884 423.271C119.726 422.541 120.937 422.694 121.708 423.362L121.102 424.061C120.605 423.631 119.915 423.601 119.49 423.97L118.884 423.271ZM97.1278 400.867L119.514 423.293L118.86 423.947L96.4728 401.521L97.1278 400.867ZM107.994 401.657H96.8003V400.732H107.994V401.657ZM120.549 414.428L107.666 401.521L108.321 400.867L121.204 413.774L120.549 414.428ZM120.717 416.634C119.953 415.911 119.901 414.639 120.505 413.825L121.248 414.376C120.902 414.844 120.955 415.585 121.353 415.961L120.717 416.634ZM123.74 416.623C122.925 417.447 121.521 417.447 120.706 416.623L121.364 415.972C121.816 416.43 122.629 416.43 123.082 415.972L123.74 416.623ZM123.74 413.592C124.552 414.413 124.552 415.802 123.74 416.623L123.082 415.972C123.537 415.512 123.537 414.703 123.082 414.243L123.74 413.592ZM120.975 413.359C121.768 412.786 122.99 412.764 123.754 413.607L123.068 414.228C122.67 413.79 121.991 413.767 121.517 414.11L120.975 413.359ZM108.479 400.318L121.573 413.407L120.919 414.062L107.825 400.972L108.479 400.318ZM88.8907 392.72L96.4937 400.318L95.8396 400.972L88.2366 393.375L88.8907 392.72ZM89.0263 380.233V393.048H88.1009V380.233H89.0263ZM98.1308 371.315L88.8909 380.56L88.2364 379.906L97.4762 370.661L98.1308 371.315ZM99.3258 373.147L97.4778 371.316L98.1291 370.659L99.9771 372.49L99.3258 373.147ZM102.355 370.766L99.9789 373.145L99.324 372.492L101.7 370.112L102.355 370.766ZM140.402 409.485L101.7 370.766L102.355 370.111L141.056 408.831L140.402 409.485ZM151.483 410.302C151.179 409.986 150.962 409.634 150.887 409.245L151.796 409.07C151.827 409.231 151.927 409.428 152.15 409.661L151.483 410.302ZM154.522 410.307C153.707 411.131 152.302 411.131 151.488 410.307L152.146 409.656C152.598 410.114 153.411 410.114 153.864 409.656L154.522 410.307ZM154.522 407.276C155.334 408.097 155.334 409.486 154.522 410.307L153.864 409.656C154.319 409.196 154.319 408.388 153.864 407.927L154.522 407.276ZM151.488 407.276C152.302 406.452 153.707 406.452 154.522 407.276L153.864 407.927C153.411 407.469 152.598 407.469 152.146 407.927L151.488 407.276ZM150.887 408.338C150.951 408.008 151.147 407.503 151.553 407.221L152.08 407.982C151.959 408.066 151.838 408.293 151.796 408.513L150.887 408.338ZM140.887 407.963H151.342V408.888H140.887V407.963ZM102.724 369.562L141.215 408.099L140.56 408.753L102.07 370.216L102.724 369.562ZM108.636 364.36L102.723 370.218L102.071 369.561L107.985 363.702L108.636 364.36ZM140.137 396.578L107.983 364.358L108.638 363.704L140.793 395.925L140.137 396.578ZM140.305 398.784C139.534 398.054 139.503 396.884 140.077 396L140.853 396.503C140.476 397.084 140.552 397.744 140.941 398.112L140.305 398.784ZM143.328 398.773C142.514 399.597 141.109 399.597 140.294 398.773L140.952 398.123C141.405 398.58 142.218 398.58 142.67 398.123L143.328 398.773ZM143.328 395.743C144.14 396.564 144.14 397.953 143.328 398.773L142.67 398.123C143.126 397.662 143.126 396.854 142.67 396.394L143.328 395.743ZM140.564 395.51C141.357 394.937 142.578 394.915 143.342 395.758L142.657 396.379C142.259 395.94 141.579 395.918 141.106 396.26L140.564 395.51ZM108.954 363.429L141.161 395.558L140.508 396.213L108.3 364.084L108.954 363.429ZM115.079 357.951L108.955 364.083L108.3 363.43L114.425 357.297L115.079 357.951ZM159.884 403.444L114.425 357.951L115.079 357.297L160.539 402.789L159.884 403.444ZM159.749 441.195V403.116H160.674V441.195H159.749ZM146.791 453.957L159.885 440.868L160.539 441.522L147.445 454.612L146.791 453.957ZM147.857 454.747H147.118V453.822H147.857V454.747ZM155.998 446.832L148.183 454.612L147.53 453.957L155.345 446.176L155.998 446.832ZM163.159 454.612L155.345 446.832L155.998 446.176L163.812 453.957L163.159 454.612ZM164.225 454.747H163.485V453.822H164.225V454.747ZM156.367 445.81L164.551 453.957L163.898 454.612L155.714 446.466L156.367 445.81ZM160.91 441.887L156.369 446.464L155.712 445.812L160.253 441.235L160.91 441.887ZM161.044 411.629V441.561H160.119V411.629H161.044ZM167.963 419.646L160.255 411.957L160.908 411.302L168.617 418.991L167.963 419.646ZM167.827 437.991V419.318H168.753V437.991H167.827ZM183.591 453.971L167.963 438.318L168.617 437.664L184.246 453.317L183.591 453.971ZM183.21 454.156C183.27 453.949 183.388 453.637 183.518 453.413L184.319 453.875C184.238 454.017 184.145 454.254 184.099 454.413L183.21 454.156ZM186.928 454.747H183.655V453.822H186.928V454.747ZM186.786 453.14C187.121 453.488 187.254 453.842 187.36 454.118L186.496 454.451C186.391 454.177 186.313 453.982 186.119 453.781L186.786 453.14ZM184.017 452.903C184.81 452.33 186.032 452.307 186.796 453.15L186.11 453.771C185.712 453.333 185.033 453.31 184.559 453.653L184.017 452.903ZM168.987 437.298L184.616 452.951L183.961 453.605L168.332 437.952L168.987 437.298ZM169.122 418.952V437.625H168.197V418.952H169.122ZM160.908 410.569L168.986 418.624L168.333 419.28L160.255 411.225L160.908 410.569ZM161.044 402.75V410.897H160.119V402.75H161.044ZM115.449 356.93L160.909 402.423L160.254 403.077L114.794 357.585L115.449 356.93ZM122.154 350.903L115.448 357.585L114.795 356.93L121.5 350.248L122.154 350.903ZM209.674 439.142L121.5 350.903L122.154 350.248L210.328 438.488L209.674 439.142ZM209.538 454.376V438.815H210.464V454.376H209.538ZM210.371 454.839H210.001V453.913H210.371V454.839ZM210.833 438.449V454.376H209.908V438.449H210.833ZM122.524 349.882L210.698 438.122L210.043 438.776L121.869 350.536L122.524 349.882ZM127.961 345.137L122.523 350.538L121.871 349.881L127.309 344.48L127.961 345.137ZM172.714 390.629L127.307 345.136L127.962 344.482L173.369 389.975L172.714 390.629ZM220.392 405.183L205.82 390.629L206.474 389.974L221.046 404.528L220.392 405.183ZM220.614 404.393H220.719V405.318H220.614V404.393ZM220.151 420.325V404.856H221.076V420.325H220.151ZM236.812 437.22L220.286 420.652L220.941 419.998L237.467 436.566L236.812 437.22ZM236.98 439.426C236.217 438.704 236.164 437.431 236.768 436.617L237.512 437.168C237.165 437.636 237.219 438.377 237.616 438.753L236.98 439.426ZM240.003 439.415C239.189 440.239 237.784 440.239 236.969 439.415L237.627 438.764C238.08 439.222 238.893 439.222 239.345 438.764L240.003 439.415ZM240.003 436.384C240.815 437.205 240.815 438.594 240.003 439.415L239.345 438.764C239.801 438.304 239.801 437.496 239.345 437.035L240.003 436.384ZM237.239 436.152C238.032 435.579 239.253 435.556 240.017 436.399L239.331 437.021C238.934 436.582 238.254 436.559 237.78 436.902L237.239 436.152ZM221.311 419.632L237.837 436.2L237.182 436.853L220.656 420.286L221.311 419.632ZM221.446 405.13V419.959H220.521V405.13H221.446ZM245.736 430.538L220.656 405.457L221.311 404.803L246.39 429.884L245.736 430.538ZM312.084 420.383L301.935 430.538L301.28 429.884L311.43 419.729L312.084 420.383ZM312.085 419.73C312.093 419.738 312.101 419.745 312.107 419.752L311.471 420.424C311.456 420.41 311.442 420.396 311.429 420.382L312.085 419.73ZM312.118 419.763C312.571 420.22 313.384 420.22 313.836 419.763L314.494 420.413C313.68 421.237 312.275 421.237 311.46 420.413L312.118 419.763ZM313.836 419.763C314.292 419.302 314.292 418.494 313.836 418.033L314.494 417.383C315.306 418.204 315.306 419.592 314.494 420.413L313.836 419.763ZM313.823 418.019C313.425 417.58 312.746 417.558 312.272 417.9L311.73 417.15C312.523 416.577 313.744 416.554 314.508 417.397L313.823 418.019ZM312.326 417.854L311.957 418.22L311.305 417.562L311.675 417.196L312.326 417.854ZM312.003 418.167C311.748 418.51 311.701 419.027 311.883 419.432L311.04 419.813C310.727 419.121 310.793 418.244 311.259 417.615L312.003 418.167ZM301.227 429.243L311.134 419.296L311.789 419.949L301.882 429.896L301.227 429.243ZM246.221 429.107H301.555V430.033H246.221V429.107ZM206.633 389.243L246.549 429.243L245.894 429.897L205.978 389.896L206.633 389.243ZM128.332 344.024L173.528 389.242L172.873 389.896L127.677 344.678L128.332 344.024ZM133.084 339.918L128.332 344.678L127.677 344.024L132.429 339.264L133.084 339.918ZM175.407 382.94L132.429 339.918L133.084 339.264L176.062 382.286L175.407 382.94ZM231.902 401.43L213.423 382.94L214.077 382.286L232.557 400.776L231.902 401.43ZM232.07 403.636C231.306 402.913 231.254 401.641 231.858 400.827L232.601 401.378C232.255 401.846 232.308 402.587 232.706 402.963L232.07 403.636ZM235.093 403.625C234.278 404.449 232.874 404.449 232.059 403.625L232.717 402.974C233.169 403.432 233.982 403.432 234.435 402.974L235.093 403.625ZM235.093 400.594C235.905 401.415 235.905 402.804 235.093 403.625L234.435 402.974C234.89 402.514 234.89 401.705 234.435 401.245L235.093 400.594ZM232.328 400.361C233.121 399.789 234.343 399.766 235.107 400.609L234.421 401.23C234.023 400.792 233.344 400.769 232.87 401.112L232.328 400.361ZM214.236 381.645L232.927 400.41L232.271 401.063L213.58 382.298L214.236 381.645ZM169.886 375.239L176.222 381.647L175.564 382.297L169.228 375.89L169.886 375.239ZM220.244 376.027H169.557V375.102H220.244V376.027ZM260.646 335.799L220.571 375.892L219.917 375.237L259.991 335.145L260.646 335.799ZM262.801 335.625C262.072 336.315 260.876 336.445 260.048 335.847L260.59 335.097C261.029 335.415 261.733 335.362 262.165 334.953L262.801 335.625ZM262.812 332.584C263.624 333.405 263.624 334.793 262.812 335.614L262.154 334.964C262.61 334.503 262.61 333.695 262.154 333.235L262.812 332.584ZM259.778 332.584C260.593 331.76 261.998 331.76 262.812 332.584L262.154 333.235C261.702 332.777 260.889 332.777 260.436 333.235L259.778 332.584ZM259.577 335.382C258.962 334.552 259.046 333.392 259.765 332.599L260.45 333.22C260.008 333.708 259.986 334.379 260.321 334.83L259.577 335.382ZM219.916 374.781L259.621 334.78L260.277 335.432L220.573 375.433L219.916 374.781ZM168.976 374.644H220.244V375.57H168.976V374.644ZM153.252 358.761L169.303 374.779L168.65 375.434L152.599 359.416L153.252 358.761ZM159.537 353.099L153.254 359.415L152.598 358.762L158.881 352.446L159.537 353.099ZM170.402 353.235H159.209V352.31H170.402V353.235ZM181.183 342.665L170.729 353.1L170.075 352.445L180.529 342.01L181.183 342.665ZM183.339 342.491C182.61 343.18 181.413 343.31 180.585 342.712L181.127 341.962C181.566 342.28 182.271 342.227 182.703 341.818L183.339 342.491ZM183.35 339.449C184.162 340.27 184.162 341.659 183.35 342.48L182.692 341.829C183.147 341.368 183.147 340.56 182.692 340.1L183.35 339.449ZM180.316 339.449C181.131 338.625 182.535 338.625 183.35 339.449L182.692 340.1C182.239 339.642 181.426 339.642 180.974 340.1L180.316 339.449ZM180.115 342.247C179.499 341.417 179.583 340.257 180.302 339.464L180.988 340.085C180.545 340.573 180.523 341.244 180.858 341.696L180.115 342.247ZM169.97 351.804L180.16 341.644L180.813 342.299L170.623 352.459L169.97 351.804ZM159.895 351.669H170.296V352.594H159.895V351.669ZM184.563 328.11L160.222 352.459L159.568 351.804L183.908 327.456L184.563 328.11ZM206.78 328.246H184.235V327.321H206.78V328.246ZM219.02 340.651L206.454 328.111L207.107 327.456L219.673 339.996L219.02 340.651ZM219.187 342.857C218.423 342.134 218.371 340.862 218.975 340.048L219.718 340.599C219.372 341.066 219.425 341.808 219.823 342.184L219.187 342.857ZM222.21 342.846C221.395 343.67 219.991 343.67 219.176 342.846L219.834 342.195C220.286 342.653 221.099 342.653 221.552 342.195L222.21 342.846ZM222.21 339.815C223.022 340.636 223.022 342.025 222.21 342.846L221.552 342.195C222.007 341.735 222.007 340.926 221.552 340.466L222.21 339.815ZM219.445 339.582C220.238 339.009 221.46 338.987 222.224 339.83L221.538 340.451C221.14 340.013 220.461 339.99 219.987 340.333L219.445 339.582ZM207.267 326.816L220.044 339.631L219.389 340.284L206.611 327.469L207.267 326.816ZM152.282 358.395L183.855 326.815L184.51 327.47L152.936 359.049L152.282 358.395ZM139.526 344.94L152.936 358.395L152.281 359.049L138.87 345.593L139.526 344.94ZM146.59 345.729H139.198V344.804H146.59V345.729ZM152.883 339.644L146.916 345.594L146.263 344.939L152.229 338.989L152.883 339.644ZM155.064 339.444C154.3 340.287 153.078 340.265 152.285 339.692L152.827 338.942C153.301 339.284 153.98 339.262 154.378 338.823L155.064 339.444ZM155.05 336.428C155.862 337.249 155.862 338.638 155.05 339.459L154.392 338.808C154.847 338.348 154.847 337.54 154.392 337.079L155.05 336.428ZM152.016 336.428C152.83 335.605 154.235 335.605 155.05 336.428L154.392 337.079C153.939 336.621 153.126 336.621 152.674 337.079L152.016 336.428ZM151.762 339.135C151.139 338.295 151.286 337.118 152.027 336.418L152.663 337.09C152.242 337.488 152.178 338.142 152.505 338.583L151.762 339.135ZM146.105 344.206L151.807 338.531L152.46 339.187L146.758 344.862L146.105 344.206ZM138.459 344.072H146.431V344.997H138.459V344.072ZM133.507 338.899L138.787 344.208L138.131 344.86L132.851 339.551L133.507 338.899ZM144.752 328.293L133.506 339.552L132.851 338.898L144.098 327.639L144.752 328.293ZM141.216 324.071L144.754 327.641L144.096 328.292L140.559 324.722L141.216 324.071ZM160.592 305.318L141.215 324.723L140.56 324.07L159.937 304.664L160.592 305.318ZM166.759 305.454H160.265V304.528H166.759V305.454ZM174.141 313.008L166.432 305.319L167.086 304.664L174.794 312.352L174.141 313.008ZM174.308 315.213C173.544 314.491 173.492 313.219 174.096 312.404L174.839 312.956C174.493 313.423 174.546 314.165 174.944 314.541L174.308 315.213ZM177.331 315.202C176.516 316.026 175.112 316.026 174.297 315.202L174.955 314.552C175.407 315.009 176.22 315.009 176.673 314.552L177.331 315.202ZM177.331 312.172C178.143 312.993 178.143 314.381 177.331 315.202L176.673 314.552C177.128 314.091 177.128 313.283 176.673 312.822L177.331 312.172ZM174.566 311.939C175.359 311.366 176.581 311.344 177.345 312.186L176.659 312.808C176.261 312.369 175.582 312.347 175.108 312.689L174.566 311.939ZM167.191 304.023L175.164 311.987L174.51 312.641L166.537 304.678L167.191 304.023ZM145.736 318.027L159.833 304.022L160.485 304.679L146.388 318.683L145.736 318.027ZM146.524 305.449V318.355H145.599V305.449H146.524ZM159.588 292.595L146.389 305.776L145.735 305.121L158.934 291.94L159.588 292.595ZM161.744 292.421C161.015 293.111 159.818 293.241 158.99 292.643L159.532 291.893C159.972 292.21 160.676 292.157 161.108 291.749L161.744 292.421ZM161.755 289.38C162.567 290.2 162.567 291.589 161.755 292.41L161.097 291.759C161.552 291.299 161.552 290.491 161.097 290.03L161.755 289.38ZM158.721 289.38C159.536 288.556 160.941 288.556 161.755 289.38L161.097 290.03C160.645 289.573 159.832 289.573 159.379 290.03L158.721 289.38ZM158.52 292.177C157.905 291.347 157.988 290.187 158.707 289.394L159.393 290.016C158.95 290.504 158.929 291.174 159.263 291.626L158.52 292.177ZM145.365 304.755L158.565 291.574L159.219 292.229L146.019 305.41L145.365 304.755ZM145.229 318.721V305.083H146.155V318.721H145.229ZM140.138 323.611L145.365 318.394L146.019 319.049L140.792 324.266L140.138 323.611ZM122.524 305.305L140.793 323.612L140.137 324.266L121.869 305.959L122.524 305.305ZM131.025 297.446L122.524 305.959L121.869 305.305L130.37 296.792L131.025 297.446ZM141.679 297.582H130.697V296.656H141.679V297.582ZM159.378 280.055L142.007 297.446L141.352 296.792L158.723 279.401L159.378 280.055ZM172.25 280.19H159.05V279.265H172.25V280.19ZM190.297 298.453L171.923 280.055L172.577 279.401L190.951 297.799L190.297 298.453ZM190.464 300.659C189.701 299.937 189.648 298.665 190.252 297.85L190.996 298.402C190.649 298.869 190.703 299.611 191.1 299.987L190.464 300.659ZM193.487 300.648C192.673 301.472 191.268 301.472 190.453 300.648L191.111 299.998C191.564 300.455 192.377 300.455 192.829 299.998L193.487 300.648ZM193.487 297.618C194.299 298.439 194.299 299.827 193.487 300.648L192.829 299.997C193.285 299.537 193.285 298.729 192.829 298.268L193.487 297.618ZM190.723 297.385C191.516 296.812 192.737 296.789 193.501 297.632L192.816 298.254C192.418 297.815 191.738 297.793 191.265 298.135L190.723 297.385ZM172.736 278.851L191.321 297.433L190.666 298.087L172.081 279.506L172.736 278.851ZM141.246 296.243L158.617 278.851L159.272 279.505L141.901 296.897L141.246 296.243ZM131.331 296.107H141.574V297.033H131.331V296.107ZM182.609 245.912L131.658 296.897L131.003 296.243L181.954 245.258L182.609 245.912ZM216.937 246.048H182.282V245.122H216.937V246.048ZM182.176 244.482H217.27V245.407H182.176V244.482ZM121.447 305.03L181.849 244.617L182.503 245.271L122.101 305.684L121.447 305.03ZM115.238 298.165L122.101 305.03L121.447 305.684L114.583 298.819L115.238 298.165ZM176.22 237.765L115.238 298.819L114.583 298.165L175.566 237.111L176.22 237.765ZM175.403 237.274L175.566 237.111L176.22 237.765L176.058 237.928L175.403 237.274ZM114.266 297.799L175.075 237.02L175.73 237.674L114.921 298.453L114.266 297.799ZM107.741 290.569L114.922 297.8L114.265 298.452L107.085 291.221L107.741 290.569ZM143.485 255.432L107.74 291.222L107.086 290.568L142.83 254.778L143.485 255.432ZM143.566 255.363L143.461 255.454L142.855 254.755L142.96 254.663L143.566 255.363ZM143.726 223.708V255.013H142.801V223.708H143.726ZM82.08 161.778L143.591 223.381L142.936 224.035L81.4252 162.432L82.08 161.778ZM81.9121 159.572C82.676 160.295 82.7281 161.567 82.1242 162.381L81.3809 161.83C81.7274 161.362 81.674 160.621 81.2763 160.245L81.9121 159.572ZM78.8892 159.583C79.7039 158.759 81.1085 158.759 81.9232 159.583L81.2652 160.234C80.8127 159.776 79.9997 159.776 79.5473 160.234L78.8892 159.583ZM78.8892 162.614C78.0774 161.793 78.0774 160.404 78.8892 159.583L79.5472 160.234C79.0919 160.694 79.0919 161.503 79.5473 161.963L78.8892 162.614ZM81.6539 162.847C80.8607 163.419 79.6393 163.442 78.8754 162.599L79.5611 161.978C79.9588 162.416 80.6381 162.439 81.1121 162.096L81.6539 162.847ZM126.199 208.017L81.0555 162.798L81.7105 162.145L126.854 207.363L126.199 208.017ZM112.957 207.227H126.526V208.152H112.957V207.227ZM88.9437 183.014L113.284 207.363L112.63 208.017L88.2892 183.668L88.9437 183.014ZM88.776 180.808C89.5398 181.531 89.592 182.803 88.9881 183.617L88.2448 183.066C88.5913 182.599 88.5378 181.857 88.1401 181.481L88.776 180.808ZM85.7531 180.819C86.5678 179.995 87.9724 179.995 88.787 180.819L88.129 181.47C87.6766 181.012 86.8636 181.012 86.4111 181.47L85.7531 180.819ZM85.7531 183.85C84.9413 183.029 84.9413 181.64 85.7531 180.819L86.4111 181.47C85.9558 181.93 85.9558 182.739 86.4111 183.199L85.7531 183.85ZM88.5178 184.083C87.7246 184.656 86.5032 184.678 85.7393 183.835L86.4249 183.214C86.8226 183.652 87.502 183.675 87.9759 183.332L88.5178 184.083ZM112.524 208.657L87.9195 184.035L88.5741 183.38L113.178 208.003L112.524 208.657ZM142.514 224.31L126.885 208.657L127.54 208.003L143.168 223.656L142.514 224.31ZM142.378 254.555V223.983H143.304V254.555H142.378ZM113.738 283.062L142.513 254.229L143.168 254.882L114.393 283.716L113.738 283.062ZM114.528 267.828V283.389H113.603V267.828H114.528ZM132.08 250.489L114.393 268.155L113.739 267.501L131.426 249.834L132.08 250.489ZM132.162 250.42L132.056 250.511L131.45 249.812L131.556 249.721L132.162 250.42ZM132.321 234.326V250.07H131.396V234.326H132.321ZM133.196 234.189C132.861 234.537 132.376 234.789 131.859 234.789V233.864C132.081 233.864 132.335 233.749 132.528 233.548L133.196 234.189ZM133.191 231.163C134.003 231.984 134.003 233.373 133.191 234.194L132.533 233.543C132.988 233.083 132.988 232.274 132.533 231.814L133.191 231.163ZM130.157 231.163C130.972 230.339 132.376 230.339 133.191 231.163L132.533 231.814C132.08 231.356 131.267 231.356 130.815 231.814L130.157 231.163ZM130.157 234.194C129.345 233.373 129.345 231.984 130.157 231.163L130.815 231.814C130.36 232.274 130.36 233.083 130.815 233.543L130.157 234.194ZM131.489 234.789C130.972 234.789 130.487 234.537 130.152 234.189L130.82 233.548C131.013 233.749 131.267 233.864 131.489 233.864V234.789ZM131.026 249.704V234.326H131.952V249.704H131.026ZM113.475 267.043L131.162 249.377L131.816 250.032L114.129 267.698L113.475 267.043ZM113.393 267.112L113.498 267.021L114.105 267.72L113.999 267.811L113.393 267.112ZM113.233 283.755V267.462H114.159V283.755H113.233ZM106.664 290.109L113.369 283.427L114.023 284.083L107.317 290.765L106.664 290.109ZM99.9263 282.696L107.318 290.11L106.663 290.764L99.2709 283.35L99.9263 282.696ZM94.7836 287.181L99.2715 282.696L99.9257 283.35L95.4378 287.835L94.7836 287.181ZM95.5734 253.64V287.508H94.648V253.64H95.5734ZM111.014 238.314L95.4387 253.966L94.7827 253.314L110.358 237.661L111.014 238.314ZM113.169 238.141C112.44 238.83 111.243 238.961 110.415 238.363L110.957 237.613C111.397 237.93 112.101 237.877 112.533 237.468L113.169 238.141ZM113.18 235.099C113.992 235.92 113.992 237.309 113.18 238.13L112.522 237.479C112.977 237.019 112.977 236.211 112.522 235.75L113.18 235.099ZM110.146 235.099C110.961 234.275 112.365 234.275 113.18 235.099L112.522 235.75C112.07 235.292 111.257 235.292 110.804 235.75L110.146 235.099ZM109.945 237.897C109.33 237.067 109.413 235.907 110.132 235.114L110.818 235.735C110.375 236.224 110.354 236.894 110.688 237.346L109.945 237.897ZM94.4663 252.856L109.989 237.295L110.644 237.948L95.1215 253.509L94.4663 252.856ZM94.3852 252.924L94.4908 252.833L95.0971 253.532L94.9915 253.624L94.3852 252.924ZM94.2256 267.096V253.274H95.151V267.096H94.2256ZM83.3476 255.053L95.0162 266.769L94.3605 267.422L82.6919 255.706L83.3476 255.053ZM83.4825 242.29V255.379H82.5571V242.29H83.4825ZM108.796 217.17L83.347 242.617L82.6926 241.963L108.142 216.516L108.796 217.17ZM110.952 216.996C110.222 217.686 109.026 217.816 108.198 217.218L108.74 216.468C109.179 216.785 109.883 216.733 110.316 216.324L110.952 216.996ZM110.963 213.955C111.774 214.776 111.774 216.164 110.963 216.985L110.305 216.335C110.76 215.874 110.76 215.066 110.305 214.605L110.963 213.955ZM107.929 213.955C108.743 213.131 110.148 213.131 110.963 213.955L110.305 214.605C109.852 214.148 109.039 214.148 108.587 214.605L107.929 213.955ZM107.728 216.753C107.112 215.923 107.196 214.763 107.915 213.969L108.6 214.591C108.158 215.079 108.136 215.75 108.471 216.201L107.728 216.753ZM82.4285 241.505L107.772 216.15L108.427 216.804L83.083 242.159L82.4285 241.505ZM82.3472 241.574L82.4528 241.482L83.0587 242.182L82.9531 242.273L82.3472 241.574ZM82.1874 255.837V241.924H83.1129V255.837H82.1874ZM94.3605 268.246L82.3224 256.164L82.9779 255.51L95.0161 267.593L94.3605 268.246ZM94.2256 287.966V267.92H95.151V287.966H94.2256ZM87.972 294.046L94.3607 287.639L95.016 288.292L88.6273 294.7L87.972 294.046ZM83.2418 288.646L88.6273 294.046L87.972 294.7L82.5865 289.299L83.2418 288.646ZM83.3768 276.707V288.973H82.4514V276.707H83.3768ZM75.0568 268.232L83.2406 276.379L82.5877 277.035L74.4039 268.888L75.0568 268.232ZM74.8899 266.027C75.6617 266.757 75.6922 267.928 75.1185 268.812L74.3422 268.308C74.7188 267.728 74.6437 267.068 74.254 266.7L74.8899 266.027ZM71.867 266.038C72.6817 265.214 74.0862 265.214 74.901 266.038L74.243 266.689C73.7904 266.231 72.9775 266.231 72.525 266.689L71.867 266.038ZM71.867 269.069C71.0551 268.248 71.0552 266.859 71.867 266.038L72.525 266.689C72.0697 267.149 72.0697 267.958 72.525 268.418L71.867 269.069ZM74.6317 269.301C73.8385 269.875 72.6171 269.897 71.8531 269.054L72.5388 268.433C72.9365 268.871 73.6158 268.894 74.0898 268.551L74.6317 269.301ZM82.2182 277.401L74.0343 269.254L74.6872 268.598L82.871 276.745L82.2182 277.401ZM82.0819 288.606V277.073H83.0073V288.606H82.0819ZM65.0257 270.43L82.8718 288.279L82.2174 288.934L64.3713 271.084L65.0257 270.43ZM65.1612 243.846V270.757H64.2358V243.846H65.1612ZM91.9006 217.262L65.0259 244.173L64.3711 243.519L91.2458 216.608L91.9006 217.262ZM91.9819 217.193L91.8763 217.284L91.2701 216.585L91.3756 216.494L91.9819 217.193ZM92.1415 206.683V216.843H91.2161V206.683H92.1415ZM76.7997 191.161L92.0058 206.355L91.3517 207.01L76.1456 191.815L76.7997 191.161ZM76.6322 188.955C77.4041 189.685 77.4345 190.856 76.8608 191.74L76.0845 191.236C76.4612 190.656 76.3861 189.996 75.9964 189.627L76.6322 188.955ZM73.6093 188.966C74.4241 188.142 75.8286 188.142 76.6433 188.966L75.9853 189.616C75.5328 189.159 74.7198 189.159 74.2673 189.616L73.6093 188.966ZM73.6093 191.996C72.7975 191.175 72.7975 189.787 73.6093 188.966L74.2673 189.616C73.812 190.077 73.812 190.885 74.2673 191.346L73.6093 191.996ZM76.374 192.229C75.5808 192.802 74.3594 192.825 73.5955 191.982L74.2812 191.36C74.6789 191.799 75.3582 191.821 75.8322 191.479L76.374 192.229ZM90.9821 207.376L75.776 192.181L76.4301 191.527L91.6363 206.722L90.9821 207.376ZM90.8465 216.477V207.049H91.7719V216.477H90.8465ZM64.1072 243.061L90.9818 216.15L91.6366 216.804L64.762 243.715L64.1072 243.061ZM64.0259 243.13L64.1315 243.039L64.7376 243.738L64.6319 243.829L64.0259 243.13ZM63.8662 271.123V243.48H64.7916V271.123H63.8662ZM87.6028 295.066L64.0016 271.45L64.6562 270.796L88.2574 294.412L87.6028 295.066ZM82.8507 299.172L87.6026 294.412L88.2575 295.066L83.5056 299.826L82.8507 299.172ZM52.8822 268.508L83.5056 299.172L82.8508 299.826L52.2274 269.162L52.8822 268.508ZM53.0175 218.399V268.835H52.0921V218.399H53.0175ZM43.9598 209.102L52.8829 218.073L52.2268 218.726L43.3037 209.755L43.9598 209.102ZM44.0945 163.021V209.429H43.1691V163.021H44.0945ZM7.26373 125.988L43.959 162.694L43.3045 163.348L6.60928 126.642L7.26373 125.988ZM6.88788 124.151C7.50177 124.742 7.69971 125.677 7.36432 126.491L6.5087 126.139C6.70129 125.671 6.5824 125.142 6.24591 124.818L6.88788 124.151ZM55.9444 327.548L99.926 371.576L99.2713 372.23L55.2897 328.202L55.9444 327.548ZM99.926 284.174L55.9444 328.202L55.2897 327.548L99.2713 283.52L99.926 284.174ZM143.253 328.202L99.2713 284.174L99.926 283.52L143.907 327.548L143.253 328.202ZM99.2713 371.576L143.253 327.548L143.907 328.202L99.926 372.23L99.2713 371.576ZM-4.5737 289.242H49.9149V290.168H-4.5737V289.242ZM39.619 297.48H47.2749V298.406H39.619V297.48ZM45.5325 348.018H31.5408V347.092H45.5325V348.018ZM96.1667 400.182H108.152V401.108H96.1667V400.182ZM151.342 409.62H140.729V408.695H151.342V409.62ZM206.147 390.764H173.042V389.839H206.147V390.764ZM301.607 430.673H246.063V429.748H301.607V430.673ZM173.2 389.107H206.305V390.032H173.2V389.107ZM213.75 383.075H175.735V382.15H213.75V383.075ZM175.893 381.509H213.908V382.435H175.893V381.509ZM184.182 326.68H206.939V327.605H184.182V326.68ZM160.159 303.888H166.864V304.813H160.159V303.888ZM158.945 278.716H172.408V279.641H158.945V278.716ZM127.212 208.793H112.851V207.868H127.212V208.793ZM220.091 247.482C219.362 248.171 218.166 248.302 217.338 247.704L217.88 246.953C218.319 247.271 219.023 247.218 219.456 246.809L220.091 247.482ZM220.102 244.44C220.914 245.261 220.914 246.65 220.102 247.471L219.444 246.82C219.9 246.36 219.9 245.551 219.444 245.091L220.102 244.44ZM217.068 244.44C217.883 243.616 219.288 243.616 220.102 244.44L219.444 245.091C218.992 244.633 218.179 244.633 217.727 245.091L217.068 244.44ZM217.765 245.047C217.542 245.338 217.308 245.776 217.266 246.156C217.246 246.336 217.272 246.475 217.332 246.58C217.39 246.68 217.507 246.799 217.767 246.894L217.451 247.763C217.029 247.61 216.718 247.367 216.53 247.041C216.346 246.72 216.311 246.37 216.346 246.053C216.415 245.438 216.756 244.841 217.03 244.484L217.765 245.047Z" fill="#1B4ED1"/>
</g>
</g>
</svg>
