<svg width="321" height="332" viewBox="0 0 321 332" fill="none" xmlns="http://www.w3.org/2000/svg">
<path opacity="0.5" d="M183.757 114.519L184.112 114.871L184.106 114.877L184.1 114.882L183.757 114.519ZM181.592 114.702L181.763 114.232L181.828 114.256L181.885 114.297L181.592 114.702ZM183.757 112.139L183.401 112.491L183.757 112.139ZM181.381 112.139L180.984 111.835L181.003 111.81L181.025 111.788L181.381 112.139ZM9.81787 1.48054L9.43973 1.1534L9.45065 1.14081L9.46234 1.12896L9.81787 1.48054ZM12.1938 1.48054L11.8469 1.84077L11.8383 1.83209L12.1938 1.48054ZM9.81787 3.952L9.46234 4.30357L9.45062 4.29173L9.43973 4.27914L9.81787 3.952ZM12.1938 3.952L12.627 4.20184L12.5947 4.25769L12.5494 4.30355L12.1938 3.952ZM12.2466 3.86048L11.8135 3.61065L12.1391 3.04621L12.6001 3.50679L12.2466 3.86048ZM48.8891 40.4744L49.2425 40.1207L49.3891 40.2672V40.4744H48.8891ZM48.8891 86.0587H49.3891V87.2665L48.5354 86.4122L48.8891 86.0587ZM1.05325 38.186H0.553253V36.9783L1.40695 37.8326L1.05325 38.186ZM1.05325 38.9183L0.699615 39.2718L0.553253 39.1253V38.9183H1.05325ZM57.8649 95.7614L58.2185 95.408L58.3649 95.5544V95.7614H57.8649ZM57.8649 146.197L57.5111 146.55L57.3649 146.404V146.197H57.8649ZM88.4883 176.861L88.8421 176.508L89.1964 176.863L88.8406 177.216L88.4883 176.861ZM83.05 182.262L83.4023 182.617L83.0487 182.968L82.6964 182.615L83.05 182.262ZM53.2186 152.421L52.865 152.775L52.6353 152.545L52.7519 152.242L53.2186 152.421ZM53.3242 152.147L53.6779 151.794L53.9074 152.023L53.7909 152.326L53.3242 152.147ZM24.9712 123.771L24.6175 124.124L24.4712 123.978V123.771H24.9712ZM24.9712 117.547L25.3251 117.194L25.4712 117.34V117.547H24.9712ZM19.2162 111.78L18.8622 112.133L18.7162 111.987V111.78H19.2162ZM19.2162 94.0223L19.5693 93.6683L19.7162 93.8148V94.0223H19.2162ZM1.05325 75.8984H0.553253V74.6931L1.40643 75.5444L1.05325 75.8984ZM1.05325 76.6307L0.700043 76.9846L0.553253 76.8381V76.6307H1.05325ZM18.8466 94.3884L19.1998 94.0345L19.3466 94.181V94.3884H18.8466ZM18.8466 111.414H19.3466V112.619L18.4934 111.768L18.8466 111.414ZM11.5075 104.091L11.1544 104.445L10.8676 104.159L11.0881 103.819L11.5075 104.091ZM11.3491 101.894L11.0055 102.258L10.9995 102.252L10.9936 102.246L11.3491 101.894ZM8.97311 101.894L8.61758 101.543V101.543L8.97311 101.894ZM8.97311 104.274L9.32864 103.923L9.33627 103.93L9.34357 103.938L8.97311 104.274ZM11.1379 104.457L10.8451 104.052L11.1902 103.803L11.4913 104.104L11.1379 104.457ZM24.6017 117.913L24.9551 117.559L25.1017 117.706V117.913H24.6017ZM24.6017 124.137L24.2478 124.49L24.1017 124.344V124.137H24.6017ZM52.7434 152.33L53.0973 151.977L53.949 152.83H52.7434V152.33ZM39.6493 152.33V152.83H39.4421L39.2956 152.683L39.6493 152.33ZM1.05325 113.702H0.553253V112.494L1.40695 113.349L1.05325 113.702ZM1.05325 114.435L0.699524 114.788L0.553253 114.641V114.435H1.05325ZM38.9102 152.33L39.2639 151.977L40.1164 152.83H38.9102V152.33ZM1.05325 152.33H0.553253V151.83H1.05325V152.33ZM1.05325 152.971V153.471H0.553253V152.971H1.05325ZM53.0074 152.971V152.471H53.2149L53.3614 152.618L53.0074 152.971ZM82.6804 182.72L83.0344 182.366L83.3875 182.72L83.0336 183.074L82.6804 182.72ZM77.0838 188.303L77.4369 188.657L77.0829 189.01L76.7297 188.656L77.0838 188.303ZM55.5418 166.701V166.201H55.7493L55.8958 166.348L55.5418 166.701ZM1.05325 166.701H0.553253V166.201H1.05325V166.701ZM1.05325 167.525V168.025H0.553253V167.525H1.05325ZM39.6493 167.525V167.025H40.8568L40.0028 167.878L39.6493 167.525ZM27.9279 179.241L28.2814 179.595L28.1349 179.741H27.9279V179.241ZM1.05325 179.241H0.553253V178.741H1.05325V179.241ZM1.05325 179.882V180.382H0.553253V179.882H1.05325ZM28.0336 179.882L28.3864 180.236L28.2401 180.382H28.0336V179.882ZM40.4413 167.525L40.0884 167.17L40.2348 167.025H40.4413V167.525ZM55.4362 167.525V167.025H55.6436L55.7901 167.172L55.4362 167.525ZM76.7141 188.852L77.0681 188.499L77.4215 188.853L77.067 189.207L76.7141 188.852ZM71.7511 193.795L72.1039 194.15L71.7503 194.502L71.3975 194.149L71.7511 193.795ZM52.9019 174.939V174.439H53.109L53.2555 174.586L52.9019 174.939ZM45.246 174.939L44.8929 174.585L45.0392 174.439H45.246V174.939ZM29.8287 190.317L30.1818 190.671L30.0354 190.817H29.8287V190.317ZM1.00049 190.317H0.500488V189.817H1.00049V190.317ZM1.00049 190.958V191.458H0.500488V190.958H1.00049ZM29.9343 190.958L30.2874 191.312L30.1411 191.458H29.9343V190.958ZM45.3516 175.58L44.9985 175.226L45.1449 175.08H45.3516V175.58ZM52.7434 175.58V175.08H52.9511L53.0977 175.227L52.7434 175.58ZM66.4184 189.31L66.7726 188.957L67.6221 189.81H66.4184V189.31ZM59.5545 189.31V189.81H59.3467L59.2001 189.663L59.5545 189.31ZM52.9019 182.628V182.128H53.1096L53.2562 182.275L52.9019 182.628ZM47.7275 182.628L47.3736 182.275L47.5201 182.128H47.7275V182.628ZM36.2174 194.161L36.5713 194.515L36.2702 194.816L35.9246 194.567L36.2174 194.161ZM34.1054 194.344L33.7499 193.993L33.7558 193.987L33.7619 193.981L34.1054 194.344ZM34.1054 196.724L34.4609 196.373V196.373L34.1054 196.724ZM36.4814 196.724L36.8369 197.076L36.8369 197.076L36.4814 196.724ZM36.6398 194.527L36.2539 194.845L35.9654 194.495L36.2861 194.174L36.6398 194.527ZM47.886 183.269L47.5322 182.915L47.6787 182.769H47.886V183.269ZM52.8491 183.269V182.769H53.0568L53.2034 182.916L52.8491 183.269ZM59.5017 189.951V190.451H59.2939L59.1473 190.304L59.5017 189.951ZM67.1047 189.951V189.451H67.3127L67.4593 189.598L67.1047 189.951ZM71.3814 194.253L71.736 193.9L72.0878 194.254L71.7346 194.607L71.3814 194.253ZM64.412 201.21L64.7652 201.563L64.6188 201.71H64.412V201.21ZM54.169 201.21L53.8155 200.856L53.9619 200.71H54.169V201.21ZM41.4444 213.933L41.798 214.286L41.4968 214.588L41.1516 214.338L41.4444 213.933ZM39.2797 214.116L38.9242 213.764L38.9301 213.758L38.9362 213.753L39.2797 214.116ZM39.2797 216.496L38.9242 216.847L38.9241 216.847L39.2797 216.496ZM41.6557 216.496L42.0262 216.832L42.0189 216.84L42.0113 216.847L41.6557 216.496ZM41.8141 214.299L41.4124 214.597L41.1559 214.251L41.4599 213.946L41.8141 214.299ZM54.2218 201.85L53.8677 201.497L54.0142 201.35H54.2218V201.85ZM63.7256 201.85V201.35H64.9271L64.0804 202.203L63.7256 201.85ZM60.4521 205.146L60.0966 205.497L59.7481 205.145L60.0974 204.793L60.4521 205.146ZM65.5208 210.272L65.8763 209.92L66.2265 210.274L65.8737 210.626L65.5208 210.272ZM51.7403 224.002L52.0932 224.356L51.9468 224.502H51.7403V224.002ZM37.2733 224.002V224.502H37.066L36.9195 224.355L37.2733 224.002ZM22.0145 208.715L21.6606 209.069L21.3562 208.764L21.6129 208.418L22.0145 208.715ZM21.856 206.519L21.5125 206.882L21.5064 206.876L21.5005 206.87L21.856 206.519ZM19.4802 206.519L19.8357 206.87L19.8357 206.87L19.4802 206.519ZM19.4802 208.898L19.8357 208.547L19.8433 208.555L19.8506 208.563L19.4802 208.898ZM21.6449 209.082L21.3522 208.676L21.6975 208.427L21.9986 208.728L21.6449 209.082ZM29.5119 216.954L29.8656 216.6L30.7185 217.454H29.5119V216.954ZM1.00049 216.954H0.500488V216.454H1.00049V216.954ZM1.00049 217.686L1.32812 218.064L0.500488 218.781V217.686H1.00049ZM1.10605 217.594L0.778412 217.217L0.919403 217.094H1.10605V217.594ZM30.1983 217.594V217.094H30.4052L30.5515 217.24L30.1983 217.594ZM37.1678 224.551V225.051H36.9609L36.8145 224.905L37.1678 224.551ZM51.1594 224.551V224.051H52.3706L51.5121 224.905L51.1594 224.551ZM45.4572 230.226L45.8099 230.581L45.6636 230.726H45.4572V230.226ZM12.7218 230.226L12.3688 229.872L12.5152 229.726H12.7218V230.226ZM4.27399 238.647L4.62698 239.001L4.48062 239.147H4.27399V238.647ZM1.05325 238.647H0.553253V238.147H1.05325V238.647ZM1.05325 239.288V239.788H0.553253V239.288H1.05325ZM3.64044 239.288V238.788H4.85559L3.99234 239.643L3.64044 239.288ZM1.05325 241.851H0.553253V241.643L0.701355 241.496L1.05325 241.851ZM1.05325 242.583L1.40732 242.936L0.553253 243.793V242.583H1.05325ZM12.8275 230.775L12.4734 230.422L12.6199 230.275H12.8275V230.775ZM45.5627 230.775L45.9166 231.129L45.7701 231.275H45.5627V230.775ZM65.9432 210.363L65.5894 210.01L65.9432 209.655L66.297 210.01L65.9432 210.363ZM75.447 219.883L75.8008 219.529L76.1538 219.883L75.8005 220.236L75.447 219.883ZM51.7403 243.59L52.0938 243.944L51.9474 244.09H51.7403V243.59ZM26.2384 243.59L25.8847 243.237L26.0312 243.09H26.2384V243.59ZM1.00049 268.854H0.500488V268.647L0.646759 268.5L1.00049 268.854ZM1.00049 269.586L1.35422 269.939L0.500488 270.794V269.586H1.00049ZM26.2384 244.322L25.8847 243.969L26.0312 243.822H26.2384V244.322ZM51.0011 244.322V243.822H52.2058L51.3551 244.675L51.0011 244.322ZM19.6913 275.719H19.1913V275.512L19.3372 275.366L19.6913 275.719ZM19.6913 300.799H20.1913V301.006L20.0455 301.152L19.6913 300.799ZM1.00049 319.564H0.500488V319.358L0.64624 319.211L1.00049 319.564ZM1.00049 320.296L1.35422 320.65L0.500488 321.504V320.296H1.00049ZM20.1137 301.166H20.6137V301.373L20.4674 301.519L20.1137 301.166ZM20.1137 276.085H19.6137V275.878L19.76 275.732L20.1137 276.085ZM75.8166 220.34L75.4629 219.987L75.8157 219.634L76.1694 219.986L75.8166 220.34ZM84.0004 228.487L84.3532 228.133L84.7082 228.486L84.3541 228.84L84.0004 228.487ZM50.5259 261.989H50.0259V261.782L50.1722 261.635L50.5259 261.989ZM50.5259 312.424H51.0259V312.632L50.879 312.778L50.5259 312.424ZM31.6239 331.281V331.781H30.4147L31.2708 330.927L31.6239 331.281ZM32.3631 331.281L32.7162 331.635L32.5699 331.781H32.3631V331.281ZM50.8954 312.791H51.3954V312.998L51.2486 313.145L50.8954 312.791ZM50.8954 262.355H50.3954V262.148L50.5417 262.001L50.8954 262.355ZM84.37 228.853L84.0163 228.5L84.3687 228.147L84.7224 228.498L84.37 228.853ZM89.4387 233.887L89.791 233.533L90.1471 233.886L89.7922 234.241L89.4387 233.887ZM64.6232 258.693H64.1232V258.486L64.2697 258.34L64.6232 258.693ZM64.6232 317.825H65.1232V318.032L64.9762 318.179L64.6232 317.825ZM52.6906 329.724H52.1906V329.517L52.3376 329.37L52.6906 329.724ZM52.6906 331.281V331.781H52.1906V331.281H52.6906ZM53.0602 331.281H53.5602V331.781H53.0602V331.281ZM53.0602 330.091H52.5602V329.883L52.7072 329.737L53.0602 330.091ZM64.9928 318.191H65.4928V318.399L65.3459 318.545L64.9928 318.191ZM64.9928 259.06H64.4928V258.852L64.6393 258.706L64.9928 259.06ZM89.8083 234.254L89.4548 233.9L89.8074 233.548L90.1609 233.899L89.8083 234.254ZM96.6194 241.027L96.972 240.673L97.3267 241.025L96.9737 241.38L96.6194 241.027ZM77.6645 260.066H77.1645V259.86L77.3102 259.714L77.6645 260.066ZM77.6645 331.281V331.781H77.1645V331.281H77.6645ZM78.0341 331.281H78.5341V331.781H78.0341V331.281ZM78.0341 300.983H77.5341V299.774L78.388 300.629L78.0341 300.983ZM87.5379 310.502L87.8918 310.149L88.0379 310.295V310.502H87.5379ZM87.5379 331.281V331.781H87.0379V331.281H87.5379ZM87.9076 331.281H88.4076V331.781H87.9076V331.281ZM87.9076 310.136L88.2613 309.783L88.4076 309.929V310.136H87.9076ZM78.0341 300.25L77.6804 300.604L77.5341 300.457V300.25H78.0341ZM78.0341 282.767H77.5341V281.558L78.3881 282.414L78.0341 282.767ZM90.5475 295.307L90.9014 294.954L91.1891 295.243L90.9649 295.583L90.5475 295.307ZM90.7587 297.413L91.1022 297.049L91.1083 297.055L91.1142 297.061L90.7587 297.413ZM93.1346 297.413L93.4901 297.764H93.4901L93.1346 297.413ZM93.1346 295.033L93.4621 294.655L93.4766 294.668L93.4901 294.681L93.1346 295.033ZM90.9171 294.941L91.2445 295.319L90.8924 295.624L90.5632 295.294L90.9171 294.941ZM78.0341 282.035L77.6803 282.388L77.5341 282.242V282.035H78.0341ZM78.0341 260.433H77.5341V260.226L77.6798 260.08L78.0341 260.433ZM96.9889 241.393L96.6346 241.041L96.9873 240.686L97.3416 241.039L96.9889 241.393ZM103.061 247.435L103.413 247.08L103.769 247.434L103.414 247.788L103.061 247.435ZM93.821 256.68H93.321V256.473L93.4673 256.326L93.821 256.68ZM93.821 270.318L93.4701 270.675L93.321 270.528V270.318H93.821ZM96.1442 272.607L96.4951 272.251L96.6442 272.397V272.607H96.1442ZM96.1442 279.563L95.7903 279.917L95.6442 279.77V279.563H96.1442ZM112.776 296.223L113.13 295.869L113.276 296.016V296.223H112.776ZM112.776 307.939L112.422 308.292L112.276 308.146V307.939H112.776ZM126.292 321.486L126.646 321.133L126.951 321.438L126.694 321.784L126.292 321.486ZM126.451 323.683L126.794 323.32L126.8 323.326L126.806 323.332L126.451 323.683ZM128.827 321.303L128.471 321.655L128.464 321.647L128.456 321.639L128.827 321.303ZM126.662 321.12L126.955 321.525L126.609 321.775L126.308 321.473L126.662 321.12ZM113.145 307.573L112.791 307.926L112.645 307.78V307.573H113.145ZM113.145 295.857L113.499 295.503L113.645 295.65V295.857H113.145ZM96.5137 279.197L96.1599 279.551L96.0137 279.404V279.197H96.5137ZM96.5137 272.973H96.0137V271.763L96.8678 272.62L96.5137 272.973ZM124.444 300.983L124.798 300.629L125.086 300.918L124.862 301.258L124.444 300.983ZM124.656 303.088L124.999 302.725L125.005 302.73L125.011 302.736L124.656 303.088ZM127.032 303.088L126.676 302.736L126.676 302.736L127.032 303.088ZM127.032 300.708L127.359 300.33L127.374 300.343L127.387 300.356L127.032 300.708ZM124.814 300.616L125.141 300.994L124.789 301.299L124.46 300.97L124.814 300.616ZM102.427 278.19L102.073 278.544L101.222 277.69H102.427V278.19ZM113.621 278.19V277.69H113.828L113.974 277.837L113.621 278.19ZM126.504 291.097L126.857 290.743L127.162 291.048L126.905 291.395L126.504 291.097ZM126.662 293.294L127.005 292.93L127.012 292.936L127.017 292.942L126.662 293.294ZM129.038 293.294L129.393 293.645L129.393 293.645L129.038 293.294ZM129.038 290.914L128.682 291.265L128.675 291.258L128.667 291.25L129.038 290.914ZM126.873 290.731L127.166 291.136L126.821 291.385L126.52 291.084L126.873 290.731ZM113.779 277.641V277.141H113.986L114.133 277.288L113.779 277.641ZM101.794 277.641V278.141H101.587L101.44 277.995L101.794 277.641ZM94.1906 270.044L93.8372 270.397L93.6906 270.251V270.044H94.1906ZM94.1906 257.229H93.6906V257.022L93.8369 256.875L94.1906 257.229ZM103.43 247.984L103.077 247.63L103.429 247.278L103.782 247.629L103.43 247.984ZM105.278 249.815L105.632 250.168L105.28 250.52L104.926 250.17L105.278 249.815ZM107.654 247.435L107.3 247.081L107.654 246.727L108.008 247.081L107.654 247.435ZM146.356 286.154V286.654H146.149L146.002 286.507L146.356 286.154ZM156.969 286.154V285.654H157.382L157.46 286.059L156.969 286.154ZM157.444 286.978L157.088 287.329L157.083 287.324L157.444 286.978ZM159.82 286.978L159.464 286.626L159.464 286.626L159.82 286.978ZM159.82 284.598L160.175 284.246H160.175L159.82 284.598ZM157.444 284.598L157.799 284.949L157.767 284.982L157.729 285.009L157.444 284.598ZM156.969 285.422L157.46 285.516L157.382 285.922H156.969V285.422ZM146.514 285.422V285.922H146.307L146.161 285.775L146.514 285.422ZM108.024 246.885L107.67 247.239L107.315 246.884L107.672 246.53L108.024 246.885ZM113.937 241.027L113.585 240.672L113.939 240.321L114.291 240.674L113.937 241.027ZM146.092 273.247L146.446 272.894L146.731 273.18L146.511 273.52L146.092 273.247ZM146.25 275.444L146.594 275.081L146.6 275.087L146.606 275.093L146.25 275.444ZM148.626 275.444L148.271 275.093L148.271 275.093L148.626 275.444ZM148.626 273.064L148.271 273.416L148.263 273.408L148.256 273.4L148.626 273.064ZM146.462 272.881L146.754 273.287L146.41 273.536L146.108 273.235L146.462 272.881ZM114.254 240.753L113.901 241.107L113.547 240.753L113.9 240.399L114.254 240.753ZM120.379 234.62L120.025 234.266L120.379 233.912L120.733 234.266L120.379 234.62ZM165.839 280.113L166.192 279.759L166.339 279.906V280.113H165.839ZM165.839 318.191H166.339V318.398L166.192 318.545L165.839 318.191ZM152.745 331.281V331.781H151.537L152.391 330.927L152.745 331.281ZM153.484 331.281L153.837 331.635L153.69 331.781H153.484V331.281ZM161.298 323.5L160.945 323.146L161.298 322.795L161.651 323.146L161.298 323.5ZM169.112 331.281V331.781H168.906L168.759 331.635L169.112 331.281ZM169.852 331.281L170.204 330.926L171.062 331.781H169.852V331.281ZM161.668 323.134L161.315 323.488L160.961 323.136L161.313 322.782L161.668 323.134ZM166.208 318.557H166.708V318.763L166.563 318.909L166.208 318.557ZM166.208 288.625H165.708V287.42L166.561 288.271L166.208 288.625ZM173.917 296.314L174.27 295.96L174.417 296.107V296.314H173.917ZM173.917 314.987L173.563 315.341L173.417 315.194V314.987H173.917ZM189.545 330.64L189.899 330.287L190.17 330.558L189.979 330.89L189.545 330.64ZM189.281 331.281V331.781H188.617L188.801 331.142L189.281 331.281ZM192.555 331.281L193.022 331.101L193.283 331.781H192.555V331.281ZM192.08 330.457L191.719 330.803L191.714 330.798L191.709 330.793L192.08 330.457ZM189.915 330.274L190.208 330.679L189.862 330.929L189.561 330.627L189.915 330.274ZM174.287 314.621L173.933 314.974L173.787 314.828V314.621H174.287ZM174.287 295.948L174.64 295.594L174.787 295.741V295.948H174.287ZM166.208 287.893L165.855 288.247L165.708 288.1V287.893H166.208ZM166.208 279.746L166.562 279.393L166.708 279.539V279.746H166.208ZM120.749 234.254L120.395 234.607L120.041 234.253L120.396 233.899L120.749 234.254ZM127.454 227.572L127.101 227.217L127.455 226.865L127.808 227.218L127.454 227.572ZM215.628 315.811L215.982 315.458L216.128 315.604V315.811H215.628ZM215.628 331.372V331.872H215.128V331.372H215.628ZM215.998 331.372H216.498V331.872H215.998V331.372ZM215.998 315.445L216.351 315.092L216.498 315.238V315.445H215.998ZM127.824 227.205L127.47 227.559L127.115 227.204L127.471 226.851L127.824 227.205ZM133.262 221.805L132.909 221.45L133.263 221.099L133.616 221.452L133.262 221.805ZM178.669 267.298V267.798H178.462L178.315 267.651L178.669 267.298ZM211.774 267.298V266.798H211.981L212.127 266.944L211.774 267.298ZM226.346 281.852L226.7 281.498L227.555 282.352H226.346V281.852ZM226.241 281.852H225.741V281.352H226.241V281.852ZM226.241 297.321L225.887 297.674L225.741 297.528V297.321H226.241ZM242.767 313.889L243.121 313.536L243.425 313.841L243.168 314.187L242.767 313.889ZM242.925 316.086L243.269 315.723L243.275 315.728L243.281 315.734L242.925 316.086ZM245.301 316.086L244.946 315.734L244.946 315.734L245.301 316.086ZM245.301 313.706L244.946 314.057L244.938 314.05L244.931 314.042L245.301 313.706ZM243.136 313.523L243.429 313.928L243.084 314.178L242.782 313.876L243.136 313.523ZM226.61 296.955L226.256 297.308L226.11 297.162V296.955H226.61ZM226.61 282.126H226.11V280.919L226.964 281.773L226.61 282.126ZM251.69 307.207V307.707H251.483L251.336 307.56L251.69 307.207ZM307.234 307.207L307.588 307.56L307.442 307.707H307.234V307.207ZM317.384 297.052L317.03 296.699L317.385 296.344L317.739 296.7L317.384 297.052ZM317.416 297.084L317.76 296.721L317.766 296.726L317.772 296.732L317.416 297.084ZM319.792 297.084L320.148 297.435L320.148 297.436L319.792 297.084ZM319.792 294.704L319.437 295.056L319.429 295.048L319.422 295.04L319.792 294.704ZM317.628 294.521L317.276 294.166L317.303 294.138L317.335 294.116L317.628 294.521ZM317.258 294.887L316.856 294.589L316.879 294.559L316.906 294.532L317.258 294.887ZM317.088 296.618L317.544 296.412L317.686 296.727L317.443 296.971L317.088 296.618ZM307.182 306.566L307.536 306.919L307.389 307.066H307.182V306.566ZM251.848 306.566V307.066H251.641L251.494 306.919L251.848 306.566ZM211.932 266.565V266.065H212.14L212.286 266.212L211.932 266.565ZM178.827 266.565V267.065H178.62L178.474 266.919L178.827 266.565ZM133.631 221.347L133.278 221.701L132.925 221.347L133.278 220.994L133.631 221.347ZM138.383 216.587L138.029 216.234L138.383 215.88L138.737 216.234L138.383 216.587ZM181.362 259.609V260.109H181.154L181.008 259.962L181.362 259.609ZM219.377 259.609V259.109H219.584L219.731 259.255L219.377 259.609ZM237.857 278.099L238.21 277.745L238.515 278.05L238.258 278.397L237.857 278.099ZM238.015 280.296L238.358 279.932L238.365 279.938L238.37 279.944L238.015 280.296ZM240.391 280.296L240.746 280.647L240.746 280.647L240.391 280.296ZM240.391 277.916L240.035 278.267L240.028 278.26L240.02 278.252L240.391 277.916ZM238.226 277.733L238.519 278.138L238.173 278.388L237.872 278.086L238.226 277.733ZM219.535 258.968V258.468H219.743L219.889 258.615L219.535 258.968ZM181.52 258.968V259.468H181.311L181.165 259.32L181.52 258.968ZM175.184 252.561L174.829 252.912L173.987 252.061H175.184V252.561ZM225.871 252.561L226.225 252.914L226.078 253.061H225.871V252.561ZM265.946 212.468L265.592 212.115L265.893 211.814L266.238 212.063L265.946 212.468ZM268.11 212.285L268.466 212.637L268.46 212.643L268.454 212.649L268.11 212.285ZM268.11 209.905L268.466 209.554L268.466 209.554L268.11 209.905ZM265.734 209.905L265.364 209.57L265.371 209.562L265.379 209.554L265.734 209.905ZM265.576 212.102L265.978 211.804L266.234 212.149L265.931 212.454L265.576 212.102ZM225.871 252.103L226.226 252.455L226.079 252.603H225.871V252.103ZM174.603 252.103V252.603H174.397L174.25 252.457L174.603 252.103ZM158.553 236.084L158.199 236.438L157.846 236.086L158.198 235.732L158.553 236.084ZM164.836 229.768L164.481 229.416L164.628 229.268H164.836V229.768ZM176.029 229.768L176.382 230.122L176.236 230.268H176.029V229.768ZM186.483 219.333L186.13 218.98L186.431 218.679L186.776 218.928L186.483 219.333ZM188.648 219.15L189.003 219.502L188.998 219.508L188.991 219.514L188.648 219.15ZM188.648 216.77L188.292 217.122L188.292 217.122L188.648 216.77ZM186.272 216.77L185.901 216.435L185.909 216.427L185.916 216.419L186.272 216.77ZM186.114 218.967L186.515 218.67L186.772 219.016L186.467 219.321L186.114 218.967ZM175.923 229.128L176.276 229.482L176.13 229.628H175.923V229.128ZM165.522 229.128V229.628H164.315L165.168 228.774L165.522 229.128ZM189.862 204.779L189.509 204.426L189.655 204.279H189.862V204.779ZM212.407 204.779V204.279H212.614L212.761 204.426L212.407 204.779ZM224.974 217.32L225.327 216.966L225.632 217.271L225.375 217.617L224.974 217.32ZM225.132 219.517L225.475 219.153L225.482 219.159L225.488 219.165L225.132 219.517ZM227.508 219.517L227.152 219.165L227.152 219.165L227.508 219.517ZM227.508 217.137L227.152 217.488L227.145 217.48L227.137 217.472L227.508 217.137ZM225.343 216.954L225.636 217.359L225.29 217.609L224.989 217.307L225.343 216.954ZM212.566 204.139V203.639H212.773L212.92 203.786L212.566 204.139ZM189.809 204.139L189.456 203.785L189.602 203.639H189.809V204.139ZM158.236 235.718L158.589 236.072L158.235 236.426L157.882 236.071L158.236 235.718ZM144.825 222.263L144.471 222.616L143.62 221.763H144.825V222.263ZM152.217 222.263L152.57 222.617L152.423 222.763H152.217V222.263ZM158.183 216.313L157.83 215.959L158.131 215.659L158.476 215.908L158.183 216.313ZM160.348 216.13L159.977 215.794L159.984 215.786L159.992 215.778L160.348 216.13ZM160.348 213.75L160.703 213.398L160.703 213.398L160.348 213.75ZM157.972 213.75L158.327 214.101L158.321 214.107L158.315 214.113L157.972 213.75ZM157.76 215.855L158.162 215.557L158.42 215.905L158.113 216.21L157.76 215.855ZM152.058 221.53L152.411 221.885L152.265 222.03H152.058V221.53ZM144.086 221.53V222.03H143.878L143.731 221.883L144.086 221.53ZM138.806 216.221L138.451 216.574L138.1 216.22L138.452 215.868L138.806 216.221ZM150.052 204.962L150.407 204.611L150.757 204.964L150.406 205.316L150.052 204.962ZM146.514 201.393L146.159 201.745L145.809 201.391L146.161 201.039L146.514 201.393ZM165.892 181.987L165.538 181.634L165.684 181.487H165.892V181.987ZM172.386 181.987V181.487H172.593L172.739 181.633L172.386 181.987ZM180.094 189.676L180.448 189.322L180.753 189.627L180.496 189.974L180.094 189.676ZM180.253 191.873L180.596 191.51L180.602 191.515L180.608 191.521L180.253 191.873ZM182.629 191.873L182.984 192.225L182.984 192.225L182.629 191.873ZM182.629 189.493L182.273 189.845L182.266 189.837L182.258 189.829L182.629 189.493ZM180.464 189.31L180.757 189.715L180.412 189.965L180.111 189.664L180.464 189.31ZM172.491 181.347V180.847H172.698L172.845 180.993L172.491 181.347ZM165.786 181.347L165.434 180.992L165.58 180.847H165.786V181.347ZM151.689 195.351L152.041 195.706L151.189 196.553V195.351H151.689ZM151.689 182.445H151.189V182.238L151.335 182.091L151.689 182.445ZM164.888 169.264L164.535 168.91L164.836 168.609L165.181 168.859L164.888 169.264ZM167.053 169.081L167.409 169.432L167.403 169.438L167.397 169.444L167.053 169.081ZM167.053 166.701L166.698 167.053L166.698 167.052L167.053 166.701ZM164.677 166.701L164.307 166.365L164.314 166.357L164.322 166.349L164.677 166.701ZM164.519 168.898L164.92 168.6L165.177 168.947L164.872 169.252L164.519 168.898ZM151.319 182.079H150.819V181.871L150.966 181.725L151.319 182.079ZM151.319 195.717H151.819V195.925L151.672 196.071L151.319 195.717ZM146.092 200.935L146.445 201.289L146.091 201.642L145.738 201.288L146.092 200.935ZM127.824 182.628L127.47 182.981L127.117 182.628L127.47 182.275L127.824 182.628ZM136.324 174.115L135.97 173.762L136.117 173.615H136.324V174.115ZM147.306 174.115L147.66 174.469L147.514 174.615H147.306V174.115ZM164.677 156.724L164.323 156.37L164.47 156.224H164.677V156.724ZM177.877 156.724V156.224H178.084L178.231 156.37L177.877 156.724ZM196.251 175.122L196.605 174.769L196.909 175.074L196.653 175.42L196.251 175.122ZM196.409 177.319L196.753 176.956L196.759 176.961L196.765 176.967L196.409 177.319ZM198.785 177.319L198.43 176.967L198.43 176.967L198.785 177.319ZM198.785 174.939L198.43 175.291L198.422 175.283L198.415 175.275L198.785 174.939ZM196.621 174.756L196.913 175.161L196.568 175.411L196.267 175.11L196.621 174.756ZM178.035 156.174V155.674H178.242L178.389 155.821L178.035 156.174ZM164.572 156.174L164.218 155.821L164.364 155.674H164.572V156.174ZM147.201 173.566L147.554 173.919L147.408 174.066H147.201V173.566ZM136.958 173.566V174.066H135.751L136.604 173.213L136.958 173.566ZM187.909 122.581L187.555 122.228L187.702 122.081H187.909V122.581ZM187.803 121.94L187.45 121.587L187.596 121.44H187.803V121.94ZM127.401 182.353L127.755 182.707L127.401 183.061L127.048 182.707L127.401 182.353ZM120.537 175.488L120.184 175.842L119.83 175.488L120.184 175.135L120.537 175.488ZM181.52 114.435L181.166 114.081L181.874 114.788L181.52 114.435ZM120.22 175.122L120.574 175.476L120.219 175.83L119.866 175.474L120.22 175.122ZM113.04 167.891L112.685 168.243L112.334 167.89L112.686 167.538L113.04 167.891ZM148.785 132.101L148.431 131.747L148.444 131.735L148.457 131.723L148.785 132.101ZM148.89 132.009H149.39V132.238L149.218 132.387L148.89 132.009ZM148.89 100.704L149.244 100.351L149.39 100.497V100.704H148.89ZM87.3795 39.1014L87.0257 39.4547L86.7212 39.1497L86.9779 38.8035L87.3795 39.1014ZM87.2212 36.9046L86.8776 37.2679L86.8715 37.2621L86.8656 37.2561L87.2212 36.9046ZM84.8452 36.9046L85.2007 37.2561L85.2007 37.2561L84.8452 36.9046ZM84.8452 39.2845L85.2007 38.9329L85.2083 38.9406L85.2156 38.9486L84.8452 39.2845ZM87.01 39.4675L86.7172 39.0622L87.0627 38.8126L87.3638 39.1142L87.01 39.4675ZM132.153 84.6857L132.507 84.3325L133.359 85.1857H132.153V84.6857ZM118.584 84.6857V85.1857H118.377L118.23 85.0392L118.584 84.6857ZM94.2434 60.3375L93.8898 60.691L93.5849 60.386L93.8418 60.0396L94.2434 60.3375ZM94.085 58.1406L93.7415 58.5039L93.7354 58.4981L93.7295 58.4922L94.085 58.1406ZM91.7091 58.1406L91.3535 57.7891L91.3535 57.789L91.7091 58.1406ZM91.7091 60.5205L92.0646 60.1689L92.0722 60.1767L92.0795 60.1847L91.7091 60.5205ZM93.8738 60.7036L93.581 60.2983L93.9263 60.0488L94.2275 60.3502L93.8738 60.7036ZM118.478 85.3265V85.8265H118.271L118.124 85.6799L118.478 85.3265ZM132.839 85.3265V84.8265H133.047L133.193 84.9732L132.839 85.3265ZM148.468 100.979L148.822 100.626L148.968 100.772V100.979H148.468ZM148.468 131.552H148.968V131.758L148.822 131.905L148.468 131.552ZM119.692 160.385L120.046 160.738L119.192 161.594V160.385H119.692ZM119.692 144.824H119.192V144.617L119.339 144.47L119.692 144.824ZM137.38 127.158L137.027 126.804L137.039 126.792L137.053 126.78L137.38 127.158ZM137.486 127.066H137.986V127.295L137.813 127.444L137.486 127.066ZM137.486 111.322H136.986V110.822H137.486V111.322ZM138.489 110.865L138.128 110.518L138.133 110.513L138.489 110.865ZM136.113 110.865L136.469 110.513L136.473 110.518L136.113 110.865ZM137.116 111.322V110.822H137.616V111.322H137.116ZM137.116 126.7H137.616V126.908L137.469 127.054L137.116 126.7ZM119.428 144.366L119.782 144.72L119.769 144.733L119.756 144.744L119.428 144.366ZM119.323 144.458H118.823V144.23L118.995 144.08L119.323 144.458ZM119.323 160.751H119.823V160.959L119.676 161.105L119.323 160.751ZM112.617 167.433L112.97 167.787L112.616 168.14L112.263 167.786L112.617 167.433ZM105.226 160.019L104.872 159.665L105.226 159.311L105.58 159.666L105.226 160.019ZM100.738 164.504L101.091 164.858L100.238 165.711V164.504H100.738ZM100.738 130.636H100.238V130.43L100.383 130.283L100.738 130.636ZM116.313 114.984L115.959 114.631L116.26 114.328L116.606 114.578L116.313 114.984ZM118.478 114.801L118.834 115.152L118.828 115.158L118.822 115.164L118.478 114.801ZM118.478 112.421L118.834 112.069L118.834 112.069L118.478 112.421ZM116.102 112.421L115.732 112.085L115.739 112.077L115.747 112.069L116.102 112.421ZM115.944 114.618L116.345 114.32L116.602 114.666L116.298 114.971L115.944 114.618ZM100.421 130.178L100.775 130.532L100.762 130.544L100.748 130.556L100.421 130.178ZM100.315 130.27H99.8153V130.042L99.9877 129.892L100.315 130.27ZM100.315 144.092H100.815V145.302L99.961 144.445L100.315 144.092ZM88.6467 132.375L88.2925 132.728L88.1467 132.582V132.375H88.6467ZM88.6467 119.286H88.1467V119.079L88.2932 118.932L88.6467 119.286ZM114.096 93.8392L113.742 93.4856L114.043 93.1845L114.389 93.4339L114.096 93.8392ZM116.261 93.6561L116.616 94.0077L116.61 94.0137L116.604 94.0194L116.261 93.6561ZM116.261 91.2762L115.905 91.6278L115.905 91.6278L116.261 91.2762ZM113.885 91.2762L113.514 90.9404L113.521 90.9324L113.529 90.9247L113.885 91.2762ZM113.726 93.4731L114.128 93.1753L114.385 93.5216L114.08 93.8266L113.726 93.4731ZM88.3827 118.828L88.7363 119.182L88.7236 119.194L88.7101 119.206L88.3827 118.828ZM88.2771 118.92H87.7771V118.691L87.9497 118.542L88.2771 118.92ZM88.2771 132.833L87.9229 133.186L87.7771 133.04V132.833H88.2771ZM100.315 144.916L100.669 144.563L100.815 144.709V144.916H100.315ZM100.315 164.962H100.815V165.168L100.669 165.315L100.315 164.962ZM93.9266 171.369L94.2807 171.722L93.9266 172.077L93.5725 171.722L93.9266 171.369ZM88.5411 165.969L88.187 166.322L88.0411 166.175V165.969H88.5411ZM88.5411 153.703L88.8938 153.349L89.0411 153.495V153.703H88.5411ZM80.3573 145.556L80.0045 145.911L79.717 145.625L79.9379 145.284L80.3573 145.556ZM80.1989 143.36L79.8554 143.723L79.8493 143.717L79.8434 143.711L80.1989 143.36ZM77.8229 143.36L77.4674 143.008L77.4674 143.008L77.8229 143.36ZM77.8229 145.739L78.1785 145.388L78.1861 145.396L78.1934 145.404L77.8229 145.739ZM79.9877 145.922L79.6949 145.517L80.0393 145.268L80.3404 145.568L79.9877 145.922ZM88.1716 154.069L88.5243 153.715L88.6716 153.861V154.069H88.1716ZM88.1716 165.602H88.6716V166.81L87.818 165.956L88.1716 165.602ZM70.3255 147.753L69.9719 148.107L69.8255 147.96V147.753H70.3255ZM70.3255 120.842H69.8255V120.635L69.9717 120.489L70.3255 120.842ZM97.2001 93.9308L96.8463 93.5775L96.859 93.5648L96.8726 93.553L97.2001 93.9308ZM97.3057 93.8392H97.8057V94.0674L97.6333 94.2169L97.3057 93.8392ZM97.3057 83.6788L97.6591 83.3251L97.8057 83.4716V83.6788H97.3057ZM82.0996 68.4841L81.7462 68.8377L81.4598 68.5515L81.6802 68.2119L82.0996 68.4841ZM81.9413 66.2872L81.5977 66.6505L81.5916 66.6447L81.5857 66.6388L81.9413 66.2872ZM79.5653 66.2872L79.2097 65.9357L79.2098 65.9356L79.5653 66.2872ZM79.5653 68.6671L79.9208 68.3155L79.9285 68.3233L79.9358 68.3313L79.5653 68.6671ZM81.73 68.8502L81.4373 68.4449L81.7823 68.1956L82.0835 68.4965L81.73 68.8502ZM96.9361 84.045L97.2896 83.6913L97.4361 83.8378V84.045H96.9361ZM96.9361 93.4731H97.4361V93.68L97.2899 93.8264L96.9361 93.4731ZM70.0615 120.384L70.4153 120.738L70.4026 120.75L70.389 120.762L70.0615 120.384ZM69.9559 120.476H69.4559V120.248L69.6284 120.098L69.9559 120.476ZM69.9559 148.119L69.6022 148.473L69.4559 148.326V148.119H69.9559ZM93.557 171.735L93.9107 171.382L94.2637 171.735L93.9109 172.089L93.557 171.735ZM88.8051 176.495L89.159 176.848L88.8052 177.203L88.4513 176.848L88.8051 176.495ZM58.1818 145.831L57.828 146.184L57.6818 146.038V145.831H58.1818ZM58.1818 95.3953L58.5363 95.0427L58.6818 95.189V95.3953H58.1818ZM49.2587 86.4249L48.9042 86.7775L48.7587 86.6312V86.4249H49.2587ZM49.2587 40.0167L49.6123 39.6632L49.7587 39.8097V40.0167H49.2587ZM12.5635 3.31125L12.2099 3.66475L11.9742 3.429L12.1012 3.12077L12.5635 3.31125ZM61.244 204.871L60.8903 205.224L60.5373 204.871L60.8903 204.518L61.244 204.871ZM105.226 248.899L105.579 249.253L105.226 249.607L104.872 249.253L105.226 248.899ZM105.226 160.843L104.872 160.489L105.226 160.135L105.579 160.489L105.226 160.843ZM149.207 204.871L149.561 204.518L149.914 204.871L149.561 205.224L149.207 204.871ZM225.4 124.142L225.756 124.493L225.75 124.499L225.744 124.505L225.4 124.142ZM223.236 124.325L223.407 123.855L223.472 123.879L223.528 123.919L223.236 124.325ZM225.4 121.762L225.045 122.113L225.4 121.762ZM223.024 121.762L222.628 121.457L222.647 121.432L222.669 121.41L223.024 121.762ZM184.1 114.882C183.359 115.583 182.143 115.717 181.299 115.107L181.885 114.297C182.309 114.603 182.993 114.553 183.413 114.156L184.1 114.882ZM184.112 111.788C184.939 112.623 184.939 114.035 184.112 114.871L183.401 114.168C183.842 113.722 183.842 112.937 183.401 112.491L184.112 111.788ZM181.025 111.788C181.855 110.949 183.283 110.949 184.112 111.788L183.401 112.491C182.963 112.048 182.174 112.048 181.736 112.491L181.025 111.788ZM181.778 112.443C181.557 112.732 181.328 113.163 181.287 113.533C181.267 113.709 181.293 113.839 181.348 113.935C181.401 114.026 181.51 114.14 181.763 114.232L181.421 115.172C180.993 115.017 180.674 114.768 180.481 114.433C180.292 114.104 180.257 113.745 180.293 113.423C180.362 112.798 180.708 112.195 180.984 111.835L181.778 112.443ZM9.46234 1.12896C10.2917 0.290359 11.7201 0.290325 12.5494 1.12899L11.8383 1.83209C11.4005 1.38932 10.6113 1.38928 10.1734 1.83212L9.46234 1.12896ZM9.43973 4.27914C8.64371 3.35904 8.64371 2.07351 9.43973 1.1534L10.196 1.80768C9.72498 2.35214 9.72498 3.08041 10.196 3.62487L9.43973 4.27914ZM12.5494 4.30355C11.7202 5.14226 10.2917 5.14222 9.46234 4.30357L10.1734 3.60044C10.6113 4.0433 11.4005 4.04326 11.8383 3.60046L12.5494 4.30355ZM12.6797 4.11031L12.627 4.20184L11.7607 3.70217L11.8135 3.61065L12.6797 4.11031ZM48.5357 40.8281L11.8932 4.21417L12.6001 3.50679L49.2425 40.1207L48.5357 40.8281ZM48.3891 86.0587V40.4744H49.3891V86.0587H48.3891ZM1.40695 37.8326L49.2428 85.7053L48.5354 86.4122L0.699554 38.5394L1.40695 37.8326ZM0.553253 38.9183V38.186H1.55325V38.9183H0.553253ZM57.5113 96.1149L0.699615 39.2718L1.40689 38.5649L58.2185 95.408L57.5113 96.1149ZM57.3649 146.197V95.7614H58.3649V146.197H57.3649ZM88.1345 177.215L57.5111 146.55L58.2187 145.844L88.8421 176.508L88.1345 177.215ZM82.6977 181.907L88.136 176.507L88.8406 177.216L83.4023 182.617L82.6977 181.907ZM53.5722 152.068L83.4036 181.908L82.6964 182.615L52.865 152.775L53.5722 152.068ZM53.7909 152.326L53.6853 152.601L52.7519 152.242L52.8575 151.967L53.7909 152.326ZM25.3249 123.418L53.6779 151.794L52.9705 152.5L24.6175 124.124L25.3249 123.418ZM25.4712 117.547V123.771H24.4712V117.547H25.4712ZM19.5701 111.427L25.3251 117.194L24.6173 117.9L18.8622 112.133L19.5701 111.427ZM19.7162 94.0223V111.78H18.7162V94.0223H19.7162ZM1.40643 75.5444L19.5693 93.6683L18.863 94.3762L0.700073 76.2523L1.40643 75.5444ZM0.553253 76.6307V75.8984H1.55325V76.6307H0.553253ZM18.4933 94.7423L0.700043 76.9846L1.40646 76.2768L19.1998 94.0345L18.4933 94.7423ZM18.3466 111.414V94.3884H19.3466V111.414H18.3466ZM11.8607 103.737L19.1997 111.06L18.4934 111.768L11.1544 104.445L11.8607 103.737ZM11.6927 101.531C12.4799 102.275 12.5085 103.467 11.927 104.363L11.0881 103.819C11.4568 103.251 11.3798 102.611 11.0055 102.258L11.6927 101.531ZM8.61758 101.543C9.44693 100.704 10.8753 100.704 11.7046 101.543L10.9936 102.246C10.5557 101.803 9.76654 101.803 9.32864 102.246L8.61758 101.543ZM8.61758 104.626C7.79135 103.79 7.79135 102.378 8.61758 101.543L9.32864 102.246C8.88763 102.692 8.88763 103.477 9.32864 103.923L8.61758 104.626ZM11.4306 104.863C10.6245 105.445 9.38129 105.469 8.60266 104.61L9.34357 103.938C9.72647 104.361 10.384 104.385 10.8451 104.052L11.4306 104.863ZM24.2482 118.267L10.7844 104.811L11.4913 104.104L24.9551 117.559L24.2482 118.267ZM24.1017 124.137V117.913H25.1017V124.137H24.1017ZM52.3896 152.683L24.2478 124.49L24.9555 123.784L53.0973 151.977L52.3896 152.683ZM39.6493 151.83H52.7434V152.83H39.6493V151.83ZM1.40695 113.349L40.003 151.977L39.2956 152.683L0.699554 114.056L1.40695 113.349ZM0.553253 114.435V113.702H1.55325V114.435H0.553253ZM38.5564 152.683L0.699524 114.788L1.40698 114.081L39.2639 151.977L38.5564 152.683ZM1.05325 151.83H38.9102V152.83H1.05325V151.83ZM0.553253 152.971V152.33H1.55325V152.971H0.553253ZM53.0074 153.471H1.05325V152.471H53.0074V153.471ZM82.3264 183.073L52.6534 153.324L53.3614 152.618L83.0344 182.366L82.3264 183.073ZM76.7306 187.949L82.3273 182.366L83.0336 183.074L77.4369 188.657L76.7306 187.949ZM55.8958 166.348L77.4378 187.95L76.7297 188.656L55.1878 167.054L55.8958 166.348ZM0.553253 167.525V166.701H1.55325V167.525H0.553253ZM39.6493 168.025H1.05325V167.025H39.6493V168.025ZM27.5744 178.888L39.2958 167.171L40.0028 167.878L28.2814 179.595L27.5744 178.888ZM1.05325 178.741H27.9279V179.741H1.05325V178.741ZM0.553253 179.882V179.241H1.55325V179.882H0.553253ZM28.0336 180.382H1.05325V179.382H28.0336V180.382ZM40.7941 167.879L28.3864 180.236L27.6807 179.528L40.0884 167.17L40.7941 167.879ZM55.4362 168.025H40.4413V167.025H55.4362V168.025ZM76.3602 189.205L55.0822 167.878L55.7901 167.172L77.0681 188.499L76.3602 189.205ZM71.3983 193.441L76.3613 188.498L77.067 189.207L72.1039 194.15L71.3983 193.441ZM53.2555 174.586L72.1047 193.442L71.3975 194.149L52.5482 175.293L53.2555 174.586ZM29.4756 189.963L44.8929 174.585L45.5991 175.293L30.1818 190.671L29.4756 189.963ZM1.00049 189.817H29.8287V190.817H1.00049V189.817ZM0.500488 190.958V190.317H1.50049V190.958H0.500488ZM29.9343 191.458H1.00049V190.458H29.9343V191.458ZM45.7047 175.934L30.2874 191.312L29.5812 190.604L44.9985 175.226L45.7047 175.934ZM52.7434 176.08H45.3516V175.08H52.7434V176.08ZM66.0641 189.663L52.3892 175.933L53.0977 175.227L66.7726 188.957L66.0641 189.663ZM59.5545 188.81H66.4184V189.81H59.5545V188.81ZM53.2562 182.275L59.9088 188.957L59.2001 189.663L52.5475 182.981L53.2562 182.275ZM47.7275 182.128H52.9019V183.128H47.7275V182.128ZM35.8635 193.808L47.3736 182.275L48.0814 182.981L36.5713 194.515L35.8635 193.808ZM33.7619 193.981C34.5011 193.282 35.6646 193.145 36.5101 193.756L35.9246 194.567C35.503 194.262 34.8712 194.308 34.4489 194.708L33.7619 193.981ZM33.7499 197.076C32.9236 196.24 32.9236 194.828 33.7499 193.993L34.4609 194.696C34.0199 195.142 34.0199 195.927 34.4609 196.373L33.7499 197.076ZM36.8369 197.076C36.0076 197.915 34.5791 197.915 33.7499 197.076L34.4609 196.373C34.8988 196.816 35.6879 196.816 36.1259 196.373L36.8369 197.076ZM37.0257 194.21C37.7295 195.064 37.6364 196.267 36.8369 197.076L36.1258 196.373C36.5935 195.9 36.6061 195.273 36.2539 194.845L37.0257 194.21ZM48.2397 183.622L36.9936 194.881L36.2861 194.174L47.5322 182.915L48.2397 183.622ZM52.8491 183.769H47.886V182.769H52.8491V183.769ZM59.1473 190.304L52.4947 183.622L53.2034 182.916L59.856 189.598L59.1473 190.304ZM67.1047 190.451H59.5017V189.451H67.1047V190.451ZM71.0268 194.605L66.7501 190.303L67.4593 189.598L71.736 193.9L71.0268 194.605ZM64.0588 200.856L71.0282 193.899L71.7346 194.607L64.7652 201.563L64.0588 200.856ZM54.169 200.71H64.412V201.71H54.169V200.71ZM41.0909 213.579L53.8155 200.856L54.5226 201.563L41.798 214.286L41.0909 213.579ZM38.9362 213.753C39.6775 213.052 40.8938 212.918 41.7372 213.528L41.1516 214.338C40.728 214.032 40.0436 214.082 39.6232 214.479L38.9362 213.753ZM38.9241 216.847C38.098 216.012 38.098 214.6 38.9242 213.764L39.6352 214.468C39.1943 214.913 39.1943 215.698 39.6353 216.144L38.9241 216.847ZM42.0113 216.847C41.1819 217.686 39.7535 217.686 38.9242 216.847L39.6352 216.144C40.0731 216.587 40.8623 216.587 41.3002 216.144L42.0113 216.847ZM42.2157 214.001C42.8424 214.846 42.7562 216.026 42.0262 216.832L41.2852 216.16C41.7167 215.684 41.7361 215.033 41.4124 214.597L42.2157 214.001ZM54.5759 202.203L42.1682 214.652L41.4599 213.946L53.8677 201.497L54.5759 202.203ZM63.7256 202.35H54.2218V201.35H63.7256V202.35ZM60.0974 204.793L63.3709 201.498L64.0804 202.203L60.8068 205.498L60.0974 204.793ZM65.1653 210.623L60.0966 205.497L60.8076 204.794L65.8763 209.92L65.1653 210.623ZM51.3874 223.648L65.1679 209.917L65.8737 210.626L52.0932 224.356L51.3874 223.648ZM37.2733 223.502H51.7403V224.502H37.2733V223.502ZM22.3683 208.362L37.6272 223.649L36.9195 224.355L21.6606 209.069L22.3683 208.362ZM22.1996 206.155C22.9783 206.892 23.0303 208.185 22.4161 209.013L21.6129 208.418C21.949 207.964 21.8955 207.244 21.5125 206.882L22.1996 206.155ZM19.1246 206.167C19.9539 205.328 21.3824 205.328 22.2116 206.167L21.5005 206.87C21.0627 206.427 20.2736 206.427 19.8357 206.87L19.1246 206.167ZM19.1246 209.25C18.2984 208.414 18.2984 207.003 19.1246 206.167L19.8357 206.87C19.3947 207.316 19.3947 208.101 19.8357 208.547L19.1246 209.25ZM21.9377 209.487C21.1316 210.069 19.8883 210.093 19.1097 209.234L19.8506 208.563C20.2335 208.985 20.891 209.009 21.3522 208.676L21.9377 209.487ZM29.1582 217.307L21.2913 209.435L21.9986 208.728L29.8656 216.6L29.1582 217.307ZM1.00049 216.454H29.5119V217.454H1.00049V216.454ZM0.500488 217.686V216.954H1.50049V217.686H0.500488ZM1.43369 217.972L1.32812 218.064L0.672852 217.308L0.778412 217.217L1.43369 217.972ZM30.1983 218.094H1.10605V217.094H30.1983V218.094ZM36.8145 224.905L29.8451 217.948L30.5515 217.24L37.521 224.197L36.8145 224.905ZM45.1045 229.872L50.8067 224.197L51.5121 224.905L45.8099 230.581L45.1045 229.872ZM12.7218 229.726H45.4572V230.726H12.7218V229.726ZM3.92099 238.293L12.3688 229.872L13.0748 230.58L4.62698 239.001L3.92099 238.293ZM1.05325 238.147H4.27399V239.147H1.05325V238.147ZM0.553253 239.288V238.647H1.55325V239.288H0.553253ZM3.64044 239.788H1.05325V238.788H3.64044V239.788ZM0.701355 241.496L3.28854 238.933L3.99234 239.643L1.40515 242.206L0.701355 241.496ZM0.553253 242.583V241.851H1.55325V242.583H0.553253ZM13.1815 231.128L1.40732 242.936L0.699188 242.23L12.4734 230.422L13.1815 231.128ZM45.5627 231.275H12.8275V230.275H45.5627V231.275ZM66.297 210.716L45.9166 231.129L45.2089 230.422L65.5894 210.01L66.297 210.716ZM75.0931 220.236L65.5893 210.716L66.297 210.01L75.8008 219.529L75.0931 220.236ZM51.3867 243.237L75.0934 219.529L75.8005 220.236L52.0938 243.944L51.3867 243.237ZM26.2384 243.09H51.7403V244.09H26.2384V243.09ZM0.646759 268.5L25.8847 243.237L26.5922 243.944L1.35422 269.207L0.646759 268.5ZM0.500488 269.586V268.854H1.50049V269.586H0.500488ZM26.5922 244.676L1.35422 269.939L0.646759 269.233L25.8847 243.969L26.5922 244.676ZM51.0011 244.822H26.2384V243.822H51.0011V244.822ZM19.3372 275.366L50.647 243.969L51.3551 244.675L20.0453 276.072L19.3372 275.366ZM19.1913 300.799V275.719H20.1913V300.799H19.1913ZM0.64624 319.211L19.337 300.447L20.0455 301.152L1.35474 319.917L0.64624 319.211ZM0.500488 320.296V319.564H1.50049V320.296H0.500488ZM20.4674 301.519L1.35422 320.65L0.646759 319.943L19.76 300.812L20.4674 301.519ZM20.6137 276.085V301.166H19.6137V276.085H20.6137ZM76.1703 220.694L20.4674 276.438L19.76 275.732L75.4629 219.987L76.1703 220.694ZM83.6477 228.841L75.4639 220.695L76.1694 219.986L84.3532 228.133L83.6477 228.841ZM50.1722 261.635L83.6467 228.134L84.3541 228.84L50.8796 262.342L50.1722 261.635ZM50.0259 312.424V261.989H51.0259V312.424H50.0259ZM31.2708 330.927L50.1728 312.07L50.879 312.778L31.977 331.635L31.2708 330.927ZM32.3631 331.781H31.6239V330.781H32.3631V331.781ZM51.2486 313.145L32.7162 331.635L32.0099 330.927L50.5423 312.437L51.2486 313.145ZM51.3954 262.355V312.791H50.3954V262.355H51.3954ZM84.7237 229.206L51.2491 262.708L50.5417 262.001L84.0163 228.5L84.7237 229.206ZM89.0863 234.242L84.0176 229.208L84.7224 228.498L89.791 233.533L89.0863 234.242ZM64.2697 258.34L89.0852 233.534L89.7922 234.241L64.9767 259.047L64.2697 258.34ZM64.1232 317.825V258.693H65.1232V317.825H64.1232ZM52.3376 329.37L64.2701 317.471L64.9762 318.179L53.0437 330.078L52.3376 329.37ZM52.1906 331.281V329.724H53.1906V331.281H52.1906ZM53.0602 331.781H52.6906V330.781H53.0602V331.781ZM53.5602 330.091V331.281H52.5602V330.091H53.5602ZM65.3459 318.545L53.4133 330.445L52.7072 329.737L64.6398 317.837L65.3459 318.545ZM65.4928 259.06V318.191H64.4928V259.06H65.4928ZM90.1618 234.607L65.3463 259.413L64.6393 258.706L89.4548 233.9L90.1618 234.607ZM96.2668 241.382L89.4557 234.608L90.1609 233.899L96.972 240.673L96.2668 241.382ZM77.3102 259.714L96.265 240.674L96.9737 241.38L78.0188 260.419L77.3102 259.714ZM77.1645 331.281V260.066H78.1645V331.281H77.1645ZM78.0341 331.781H77.6645V330.781H78.0341V331.781ZM78.5341 300.983V331.281H77.5341V300.983H78.5341ZM87.1841 310.855L77.6803 301.336L78.388 300.629L87.8918 310.149L87.1841 310.855ZM87.0379 331.281V310.502H88.0379V331.281H87.0379ZM87.9076 331.781H87.5379V330.781H87.9076V331.781ZM88.4076 310.136V331.281H87.4076V310.136H88.4076ZM78.3879 299.897L88.2613 309.783L87.5538 310.489L77.6804 300.604L78.3879 299.897ZM78.5341 282.767V300.25H77.5341V282.767H78.5341ZM90.1935 295.661L77.6802 283.12L78.3881 282.414L90.9014 294.954L90.1935 295.661ZM90.4151 297.776C89.6406 297.044 89.5878 295.855 90.13 295.032L90.9649 295.583C90.6624 296.041 90.7152 296.683 91.1022 297.049L90.4151 297.776ZM93.4901 297.764C92.6608 298.603 91.2324 298.603 90.4032 297.764L91.1142 297.061C91.5521 297.504 92.3412 297.504 92.7791 297.061L93.4901 297.764ZM93.4901 294.681C94.3164 295.517 94.3164 296.929 93.4901 297.764L92.7791 297.061C93.2201 296.615 93.22 295.83 92.7791 295.384L93.4901 294.681ZM90.5896 294.563C91.4483 293.819 92.6803 293.977 93.4621 294.655L92.8071 295.411C92.3217 294.99 91.653 294.965 91.2445 295.319L90.5896 294.563ZM78.388 281.682L91.2709 294.588L90.5632 295.294L77.6803 282.388L78.388 281.682ZM78.5341 260.433V282.035H77.5341V260.433H78.5341ZM97.3433 241.746L78.3885 260.785L77.6798 260.08L96.6346 241.041L97.3433 241.746ZM102.708 247.789L96.6363 241.748L97.3416 241.039L103.413 247.08L102.708 247.789ZM93.4673 256.326L102.707 247.081L103.414 247.788L94.1747 257.033L93.4673 256.326ZM93.321 270.318V256.68H94.321V270.318H93.321ZM95.7933 272.963L93.4701 270.675L94.1719 269.962L96.4951 272.251L95.7933 272.963ZM95.6442 279.563V272.607H96.6442V279.563H95.6442ZM112.422 296.576L95.7903 279.917L96.498 279.21L113.13 295.869L112.422 296.576ZM112.276 307.939V296.223H113.276V307.939H112.276ZM125.938 321.84L112.422 308.292L113.13 307.586L126.646 321.133L125.938 321.84ZM126.107 324.046C125.329 323.31 125.276 322.017 125.891 321.189L126.694 321.784C126.358 322.237 126.411 322.958 126.794 323.32L126.107 324.046ZM129.182 324.035C128.353 324.873 126.925 324.873 126.095 324.035L126.806 323.332C127.244 323.774 128.033 323.774 128.471 323.332L129.182 324.035ZM129.182 320.952C130.008 321.787 130.008 323.199 129.182 324.035L128.471 323.332C128.912 322.886 128.912 322.101 128.471 321.655L129.182 320.952ZM126.369 320.715C127.175 320.133 128.418 320.108 129.197 320.967L128.456 321.639C128.073 321.217 127.416 321.192 126.955 321.525L126.369 320.715ZM113.499 307.22L127.016 320.767L126.308 321.473L112.791 307.926L113.499 307.22ZM113.645 295.857V307.573H112.645V295.857H113.645ZM96.8676 278.844L113.499 295.503L112.792 296.21L96.1599 279.551L96.8676 278.844ZM97.0137 272.973V279.197H96.0137V272.973H97.0137ZM124.09 301.336L96.1597 273.326L96.8678 272.62L124.798 300.629L124.09 301.336ZM124.312 303.451C123.538 302.719 123.485 301.53 124.027 300.707L124.862 301.258C124.559 301.717 124.612 302.359 124.999 302.725L124.312 303.451ZM127.387 303.439C126.558 304.278 125.129 304.278 124.3 303.439L125.011 302.736C125.449 303.179 126.238 303.179 126.676 302.736L127.387 303.439ZM127.387 300.356C128.213 301.192 128.213 302.604 127.387 303.439L126.676 302.736C127.117 302.29 127.117 301.505 126.676 301.059L127.387 300.356ZM124.486 300.238C125.345 299.494 126.577 299.652 127.359 300.33L126.704 301.086C126.219 300.665 125.55 300.64 125.141 300.994L124.486 300.238ZM102.781 277.837L125.168 300.263L124.46 300.97L102.073 278.544L102.781 277.837ZM113.621 278.69H102.427V277.69H113.621V278.69ZM126.15 291.45L113.267 278.544L113.974 277.837L126.857 290.743L126.15 291.45ZM126.318 293.657C125.54 292.921 125.488 291.627 126.102 290.799L126.905 291.395C126.569 291.848 126.623 292.568 127.005 292.93L126.318 293.657ZM129.393 293.645C128.564 294.484 127.136 294.484 126.306 293.645L127.017 292.942C127.455 293.385 128.244 293.385 128.682 292.942L129.393 293.645ZM129.393 290.562C130.22 291.398 130.22 292.81 129.393 293.645L128.682 292.942C129.123 292.496 129.123 291.711 128.682 291.265L129.393 290.562ZM126.58 290.325C127.386 289.743 128.63 289.719 129.408 290.578L128.667 291.25C128.285 290.827 127.627 290.803 127.166 291.136L126.58 290.325ZM114.133 277.288L127.227 290.377L126.52 291.084L113.426 277.995L114.133 277.288ZM94.544 269.69L102.147 277.287L101.44 277.995L93.8372 270.397L94.544 269.69ZM94.6906 257.229V270.044H93.6906V257.229H94.6906ZM103.784 248.337L94.5442 257.582L93.8369 256.875L103.077 247.63L103.784 248.337ZM104.926 250.17L103.079 248.339L103.782 247.629L105.63 249.459L104.926 250.17ZM108.008 247.788L105.632 250.168L104.925 249.461L107.3 247.081L108.008 247.788ZM146.002 286.507L107.301 247.788L108.008 247.081L146.71 285.8L146.002 286.507ZM157.083 287.324C156.776 287.004 156.554 286.646 156.478 286.248L157.46 286.059C157.489 286.211 157.584 286.402 157.804 286.631L157.083 287.324ZM160.175 287.329C159.346 288.168 157.917 288.168 157.088 287.329L157.799 286.626C158.237 287.069 159.026 287.069 159.464 286.626L160.175 287.329ZM160.175 284.246C161.001 285.082 161.001 286.494 160.175 287.329L159.464 286.626C159.905 286.18 159.905 285.395 159.464 284.949L160.175 284.246ZM157.088 284.246C157.917 283.408 159.346 283.408 160.175 284.246L159.464 284.949C159.026 284.507 158.237 284.507 157.799 284.949L157.088 284.246ZM156.478 285.327C156.542 284.993 156.741 284.477 157.159 284.187L157.729 285.009C157.683 285.041 157.624 285.106 157.568 285.21C157.514 285.312 157.477 285.425 157.46 285.516L156.478 285.327ZM146.514 284.922H156.969V285.922H146.514V284.922ZM108.378 246.532L146.868 285.068L146.161 285.775L107.67 247.239L108.378 246.532ZM114.289 241.382L108.376 247.241L107.672 246.53L113.585 240.672L114.289 241.382ZM145.738 273.601L113.583 241.38L114.291 240.674L146.446 272.894L145.738 273.601ZM145.907 275.808C145.119 275.063 145.091 273.872 145.673 272.975L146.511 273.52C146.143 274.088 146.22 274.727 146.594 275.081L145.907 275.808ZM148.982 275.796C148.153 276.635 146.724 276.635 145.895 275.796L146.606 275.093C147.044 275.536 147.833 275.536 148.271 275.093L148.982 275.796ZM148.982 272.713C149.808 273.548 149.808 274.96 148.982 275.796L148.271 275.093C148.712 274.647 148.712 273.862 148.271 273.416L148.982 272.713ZM146.169 272.476C146.975 271.894 148.218 271.87 148.997 272.729L148.256 273.4C147.873 272.978 147.215 272.954 146.754 273.287L146.169 272.476ZM114.607 240.399L146.815 272.527L146.108 273.235L113.901 241.107L114.607 240.399ZM120.733 234.973L114.608 241.106L113.9 240.399L120.025 234.266L120.733 234.973ZM165.485 280.466L120.025 234.973L120.733 234.266L166.192 279.759L165.485 280.466ZM165.339 318.191V280.113H166.339V318.191H165.339ZM152.391 330.927L165.485 317.837L166.192 318.545L153.098 331.634L152.391 330.927ZM153.484 331.781H152.745V330.781H153.484V331.781ZM161.651 323.854L153.837 331.635L153.131 330.926L160.945 323.146L161.651 323.854ZM168.759 331.635L160.945 323.854L161.651 323.146L169.465 330.926L168.759 331.635ZM169.852 331.781H169.112V330.781H169.852V331.781ZM162.02 322.78L170.204 330.926L169.499 331.635L161.315 323.488L162.02 322.78ZM166.563 318.909L162.023 323.486L161.313 322.782L165.853 318.205L166.563 318.909ZM166.708 288.625V318.557H165.708V288.625H166.708ZM173.564 296.668L165.855 288.979L166.561 288.271L174.27 295.96L173.564 296.668ZM173.417 314.987V296.314H174.417V314.987H173.417ZM189.192 330.993L173.563 315.341L174.271 314.634L189.899 330.287L189.192 330.993ZM188.801 331.142C188.861 330.933 188.981 330.618 189.112 330.39L189.979 330.89C189.899 331.028 189.807 331.262 189.762 331.419L188.801 331.142ZM192.555 331.781H189.281V330.781H192.555V331.781ZM192.44 330.11C192.781 330.464 192.916 330.825 193.022 331.101L192.088 331.46C191.983 331.187 191.907 330.998 191.719 330.803L192.44 330.11ZM189.622 329.868C190.428 329.286 191.672 329.262 192.45 330.121L191.709 330.793C191.326 330.37 190.669 330.346 190.208 330.679L189.622 329.868ZM174.64 314.268L190.269 329.92L189.561 330.627L173.933 314.974L174.64 314.268ZM174.787 295.948V314.621H173.787V295.948H174.787ZM166.561 287.539L174.64 295.594L173.934 296.302L165.855 288.247L166.561 287.539ZM166.708 279.746V287.893H165.708V279.746H166.708ZM121.102 233.9L166.562 279.393L165.855 280.1L120.395 234.607L121.102 233.9ZM127.807 227.926L121.101 234.608L120.396 233.899L127.101 227.217L127.807 227.926ZM215.274 316.165L127.1 227.925L127.808 227.218L215.982 315.458L215.274 316.165ZM215.128 331.372V315.811H216.128V331.372H215.128ZM215.998 331.872H215.628V330.872H215.998V331.872ZM216.498 315.445V331.372H215.498V315.445H216.498ZM128.177 226.852L216.351 315.092L215.644 315.798L127.47 227.559L128.177 226.852ZM133.614 222.16L128.176 227.56L127.471 226.851L132.909 221.45L133.614 222.16ZM178.315 267.651L132.908 222.158L133.616 221.452L179.023 266.945L178.315 267.651ZM225.993 282.206L211.42 267.652L212.127 266.944L226.7 281.498L225.993 282.206ZM226.241 281.352H226.346V282.352H226.241V281.352ZM225.741 297.321V281.852H226.741V297.321H225.741ZM242.413 314.242L225.887 297.674L226.595 296.968L243.121 313.536L242.413 314.242ZM242.582 316.449C241.803 315.713 241.751 314.419 242.365 313.591L243.168 314.187C242.832 314.64 242.886 315.36 243.269 315.723L242.582 316.449ZM245.657 316.437C244.827 317.276 243.399 317.276 242.57 316.437L243.281 315.734C243.719 316.177 244.508 316.177 244.946 315.734L245.657 316.437ZM245.657 313.354C246.483 314.19 246.483 315.602 245.657 316.437L244.946 315.734C245.387 315.288 245.387 314.503 244.946 314.057L245.657 313.354ZM242.844 313.118C243.65 312.535 244.893 312.511 245.672 313.37L244.931 314.042C244.548 313.619 243.89 313.595 243.429 313.928L242.844 313.118ZM226.964 296.602L243.49 313.17L242.782 313.876L226.256 297.308L226.964 296.602ZM227.11 282.126V296.955H226.11V282.126H227.11ZM251.336 307.56L226.257 282.48L226.964 281.773L252.043 306.853L251.336 307.56ZM317.738 297.406L307.588 307.56L306.881 306.853L317.03 296.699L317.738 297.406ZM317.739 296.7C317.746 296.707 317.753 296.714 317.76 296.721L317.073 297.447C317.057 297.433 317.043 297.418 317.029 297.404L317.739 296.7ZM317.772 296.732C318.21 297.175 318.999 297.175 319.437 296.732L320.148 297.436C319.319 298.274 317.89 298.274 317.061 297.436L317.772 296.732ZM319.437 296.732C319.878 296.286 319.878 295.502 319.437 295.056L320.148 294.353C320.974 295.188 320.974 296.6 320.148 297.435L319.437 296.732ZM319.422 295.04C319.039 294.617 318.381 294.593 317.92 294.926L317.335 294.116C318.141 293.533 319.384 293.509 320.163 294.368L319.422 295.04ZM317.98 294.876L317.61 295.242L316.906 294.532L317.276 294.166L317.98 294.876ZM317.66 295.185C317.413 295.517 317.367 296.02 317.544 296.412L316.633 296.824C316.315 296.121 316.381 295.23 316.856 294.589L317.66 295.185ZM306.827 306.213L316.734 296.265L317.443 296.971L307.536 306.919L306.827 306.213ZM251.848 306.066H307.182V307.066H251.848V306.066ZM212.286 266.212L252.202 306.213L251.494 306.919L211.578 266.919L212.286 266.212ZM133.985 220.994L179.181 266.212L178.474 266.919L133.278 221.701L133.985 220.994ZM138.737 216.941L133.985 221.701L133.278 220.994L138.029 216.234L138.737 216.941ZM181.008 259.962L138.03 216.941L138.737 216.234L181.715 259.255L181.008 259.962ZM237.503 278.452L219.023 259.962L219.731 259.255L238.21 277.745L237.503 278.452ZM237.671 280.659C236.893 279.923 236.841 278.629 237.455 277.801L238.258 278.397C237.922 278.85 237.976 279.57 238.358 279.932L237.671 280.659ZM240.746 280.647C239.917 281.486 238.489 281.486 237.659 280.647L238.37 279.944C238.808 280.387 239.598 280.387 240.035 279.944L240.746 280.647ZM240.746 277.564C241.573 278.4 241.573 279.812 240.746 280.647L240.035 279.944C240.476 279.498 240.476 278.713 240.035 278.267L240.746 277.564ZM237.933 277.327C238.739 276.745 239.983 276.721 240.761 277.58L240.02 278.252C239.638 277.829 238.98 277.805 238.519 278.138L237.933 277.327ZM219.889 258.615L238.58 277.38L237.872 278.086L219.181 259.321L219.889 258.615ZM175.54 252.209L181.876 258.616L181.165 259.32L174.829 252.912L175.54 252.209ZM225.871 253.061H175.184V252.061H225.871V253.061ZM266.299 212.822L226.225 252.914L225.518 252.207L265.592 212.115L266.299 212.822ZM268.454 212.649C267.713 213.35 266.496 213.483 265.653 212.874L266.238 212.063C266.662 212.369 267.346 212.319 267.767 211.922L268.454 212.649ZM268.466 209.554C269.292 210.389 269.292 211.801 268.466 212.637L267.755 211.934C268.196 211.488 268.196 210.703 267.755 210.257L268.466 209.554ZM265.379 209.554C266.208 208.715 267.637 208.715 268.466 209.554L267.755 210.257C267.317 209.814 266.528 209.814 266.09 210.257L265.379 209.554ZM265.174 212.4C264.548 211.555 264.634 210.375 265.364 209.57L266.105 210.241C265.673 210.717 265.654 211.368 265.978 211.804L265.174 212.4ZM225.516 251.751L265.221 211.75L265.931 212.454L226.226 252.455L225.516 251.751ZM174.603 251.603H225.871V252.603H174.603V251.603ZM158.906 235.73L174.957 251.749L174.25 252.457L158.199 236.438L158.906 235.73ZM165.19 230.121L158.907 236.437L158.198 235.732L164.481 229.416L165.19 230.121ZM176.029 230.268H164.836V229.268H176.029V230.268ZM186.836 219.687L176.382 230.122L175.676 229.415L186.13 218.98L186.836 219.687ZM188.991 219.514C188.25 220.215 187.034 220.348 186.19 219.739L186.776 218.928C187.2 219.234 187.884 219.185 188.304 218.787L188.991 219.514ZM189.003 216.419C189.83 217.254 189.83 218.666 189.003 219.502L188.292 218.799C188.733 218.353 188.733 217.568 188.292 217.122L189.003 216.419ZM185.916 216.419C186.746 215.58 188.174 215.58 189.003 216.419L188.292 217.122C187.854 216.679 187.065 216.679 186.627 217.122L185.916 216.419ZM185.712 219.265C185.085 218.42 185.171 217.24 185.901 216.435L186.642 217.106C186.211 217.582 186.191 218.233 186.515 218.67L185.712 219.265ZM175.57 228.774L185.761 218.613L186.467 219.321L176.276 229.482L175.57 228.774ZM165.522 228.628H175.923V229.628H165.522V228.628ZM190.216 205.133L165.876 229.481L165.168 228.774L189.509 204.426L190.216 205.133ZM212.407 205.279H189.862V204.279H212.407V205.279ZM224.62 217.674L212.054 205.133L212.761 204.426L225.327 216.966L224.62 217.674ZM224.788 219.88C224.01 219.144 223.958 217.85 224.572 217.022L225.375 217.617C225.039 218.071 225.093 218.791 225.475 219.153L224.788 219.88ZM227.863 219.868C227.034 220.707 225.606 220.707 224.776 219.868L225.488 219.165C225.925 219.608 226.714 219.608 227.152 219.165L227.863 219.868ZM227.863 216.785C228.69 217.621 228.69 219.033 227.863 219.868L227.152 219.165C227.593 218.719 227.593 217.934 227.152 217.488L227.863 216.785ZM225.05 216.548C225.856 215.966 227.1 215.942 227.878 216.801L227.137 217.472C226.755 217.05 226.097 217.026 225.636 217.359L225.05 216.548ZM212.92 203.786L225.697 216.601L224.989 217.307L212.212 204.492L212.92 203.786ZM157.882 235.365L189.456 203.785L190.163 204.492L158.589 236.072L157.882 235.365ZM145.179 221.91L158.59 235.365L157.882 236.071L144.471 222.616L145.179 221.91ZM152.217 222.763H144.825V221.763H152.217V222.763ZM158.536 216.667L152.57 222.617L151.864 221.909L157.83 215.959L158.536 216.667ZM160.718 216.465C159.939 217.325 158.696 217.3 157.89 216.718L158.476 215.908C158.937 216.241 159.594 216.216 159.977 215.794L160.718 216.465ZM160.703 213.398C161.529 214.234 161.529 215.646 160.703 216.481L159.992 215.778C160.433 215.332 160.433 214.547 159.992 214.101L160.703 213.398ZM157.616 213.398C158.445 212.56 159.874 212.56 160.703 213.398L159.992 214.101C159.554 213.659 158.765 213.659 158.327 214.101L157.616 213.398ZM157.359 216.153C156.724 215.297 156.875 214.099 157.628 213.387L158.315 214.113C157.907 214.499 157.847 215.132 158.162 215.557L157.359 216.153ZM151.706 221.176L157.408 215.501L158.113 216.21L152.411 221.885L151.706 221.176ZM144.086 221.03H152.058V222.03H144.086V221.03ZM139.16 215.869L144.44 221.178L143.731 221.883L138.451 216.574L139.16 215.869ZM150.406 205.316L139.159 216.575L138.452 215.868L149.698 204.609L150.406 205.316ZM146.87 201.041L150.407 204.611L149.697 205.314L146.159 201.745L146.87 201.041ZM166.245 182.341L146.868 201.746L146.161 201.039L165.538 181.634L166.245 182.341ZM172.386 182.487H165.892V181.487H172.386V182.487ZM179.741 190.03L172.033 182.341L172.739 181.633L180.448 189.322L179.741 190.03ZM179.909 192.236C179.131 191.5 179.079 190.207 179.693 189.378L180.496 189.974C180.16 190.427 180.213 191.148 180.596 191.51L179.909 192.236ZM182.984 192.225C182.155 193.063 180.727 193.063 179.897 192.225L180.608 191.521C181.046 191.964 181.835 191.964 182.273 191.521L182.984 192.225ZM182.984 189.142C183.811 189.977 183.811 191.389 182.984 192.225L182.273 191.521C182.714 191.075 182.714 190.291 182.273 189.845L182.984 189.142ZM180.171 188.905C180.977 188.322 182.221 188.298 182.999 189.157L182.258 189.829C181.875 189.406 181.218 189.382 180.757 189.715L180.171 188.905ZM172.845 180.993L180.817 188.956L180.111 189.664L172.138 181.7L172.845 180.993ZM151.336 194.997L165.434 180.992L166.138 181.701L152.041 195.706L151.336 194.997ZM152.189 182.445V195.351H151.189V182.445H152.189ZM165.242 169.618L152.042 182.799L151.335 182.091L164.535 168.91L165.242 169.618ZM167.397 169.444C166.655 170.145 165.439 170.278 164.596 169.669L165.181 168.859C165.605 169.165 166.289 169.115 166.71 168.718L167.397 169.444ZM167.409 166.349C168.235 167.185 168.235 168.597 167.409 169.432L166.698 168.729C167.139 168.283 167.139 167.498 166.698 167.053L167.409 166.349ZM164.322 166.349C165.151 165.511 166.579 165.511 167.409 166.349L166.698 167.052C166.26 166.61 165.471 166.61 165.033 167.053L164.322 166.349ZM164.117 169.196C163.49 168.35 163.577 167.171 164.307 166.365L165.048 167.037C164.616 167.513 164.597 168.164 164.92 168.6L164.117 169.196ZM150.966 181.725L164.165 168.544L164.872 169.252L151.672 182.433L150.966 181.725ZM150.819 195.717V182.079H151.819V195.717H150.819ZM145.739 200.581L150.966 195.364L151.672 196.071L146.445 201.289L145.739 200.581ZM128.177 182.275L146.446 200.582L145.738 201.288L127.47 182.981L128.177 182.275ZM136.678 174.469L128.177 182.981L127.47 182.275L135.97 173.762L136.678 174.469ZM147.306 174.615H136.324V173.615H147.306V174.615ZM165.031 157.077L147.66 174.469L146.953 173.762L164.323 156.37L165.031 157.077ZM177.877 157.224H164.677V156.224H177.877V157.224ZM195.897 175.475L177.523 157.077L178.231 156.37L196.605 174.769L195.897 175.475ZM196.066 177.682C195.287 176.946 195.235 175.653 195.849 174.824L196.653 175.42C196.316 175.873 196.37 176.594 196.753 176.956L196.066 177.682ZM199.141 177.67C198.312 178.509 196.883 178.509 196.054 177.67L196.765 176.967C197.203 177.41 197.992 177.41 198.43 176.967L199.141 177.67ZM199.141 174.587C199.967 175.423 199.967 176.835 199.141 177.67L198.43 176.967C198.871 176.521 198.871 175.737 198.43 175.291L199.141 174.587ZM196.328 174.351C197.134 173.768 198.377 173.744 199.156 174.603L198.415 175.275C198.032 174.852 197.374 174.828 196.913 175.161L196.328 174.351ZM178.389 155.821L196.974 174.402L196.267 175.11L177.682 156.528L178.389 155.821ZM146.847 173.213L164.218 155.821L164.925 156.528L147.554 173.919L146.847 173.213ZM136.958 173.066H147.201V174.066H136.958V173.066ZM188.262 122.935L137.311 173.919L136.604 173.213L187.555 122.228L188.262 122.935ZM222.564 123.081H187.909V122.081H222.564V123.081ZM187.803 121.44H222.897V122.44H187.803V121.44ZM127.048 182L187.45 121.587L188.157 122.294L127.755 182.707L127.048 182ZM120.891 175.135L127.755 182L127.048 182.707L120.184 175.842L120.891 175.135ZM181.874 114.788L120.891 175.842L120.184 175.135L181.166 114.081L181.874 114.788ZM181.004 114.244L181.166 114.081L181.874 114.788L181.711 114.951L181.004 114.244ZM119.867 174.769L180.676 113.989L181.383 114.697L120.574 175.476L119.867 174.769ZM113.395 167.539L120.575 174.77L119.866 175.474L112.685 168.243L113.395 167.539ZM149.138 132.454L113.394 168.244L112.686 167.538L148.431 131.747L149.138 132.454ZM149.218 132.387L149.112 132.479L148.457 131.723L148.563 131.631L149.218 132.387ZM149.39 100.704V132.009H148.39V100.704H149.39ZM87.7334 38.7481L149.244 100.351L148.536 101.058L87.0257 39.4547L87.7334 38.7481ZM87.5647 36.5413C88.3434 37.2775 88.3954 38.571 87.7811 39.3992L86.9779 38.8035C87.3141 38.3503 87.2606 37.6299 86.8776 37.2679L87.5647 36.5413ZM84.4896 36.553C85.3189 35.7143 86.7474 35.7143 87.5767 36.553L86.8656 37.2561C86.4277 36.8133 85.6386 36.8133 85.2007 37.2561L84.4896 36.553ZM84.4896 39.636C83.6635 38.8005 83.6635 37.3885 84.4897 36.553L85.2007 37.2561C84.7598 37.702 84.7598 38.4869 85.2007 38.9329L84.4896 39.636ZM87.3027 39.8728C86.4966 40.4551 85.2534 40.4792 84.4747 39.6203L85.2156 38.9486C85.5986 39.3711 86.2561 39.3953 86.7172 39.0622L87.3027 39.8728ZM131.799 85.039L86.6561 39.8208L87.3638 39.1142L132.507 84.3325L131.799 85.039ZM118.584 84.1857H132.153V85.1857H118.584V84.1857ZM94.597 59.984L118.937 84.3322L118.23 85.0392L93.8898 60.691L94.597 59.984ZM94.4285 57.7773C95.2072 58.5136 95.2593 59.807 94.645 60.6353L93.8418 60.0396C94.1779 59.5864 94.1244 58.866 93.7415 58.5039L94.4285 57.7773ZM91.3535 57.789C92.1828 56.9504 93.6112 56.9504 94.4405 57.789L93.7295 58.4922C93.2916 58.0494 92.5025 58.0494 92.0646 58.4922L91.3535 57.789ZM91.3535 60.8721C90.5273 60.0365 90.5273 58.6246 91.3535 57.7891L92.0646 58.4922C91.6236 58.9381 91.6236 59.723 92.0646 60.1689L91.3535 60.8721ZM94.1666 61.1089C93.3605 61.6912 92.1172 61.7153 91.3386 60.8563L92.0795 60.1847C92.4625 60.6072 93.1199 60.6313 93.581 60.2983L94.1666 61.1089ZM118.124 85.6799L93.5201 61.057L94.2275 60.3502L118.832 84.973L118.124 85.6799ZM148.114 101.332L132.486 85.6797L133.193 84.9732L148.822 100.626L148.114 101.332ZM147.968 131.552V100.979H148.968V131.552H147.968ZM119.339 160.032L148.114 131.198L148.822 131.905L120.046 160.738L119.339 160.032ZM120.192 144.824V160.385H119.192V144.824H120.192ZM137.733 127.512L120.046 145.178L119.339 144.47L137.027 126.804L137.733 127.512ZM137.813 127.444L137.708 127.536L137.053 126.78L137.158 126.689L137.813 127.444ZM137.986 111.322V127.066H136.986V111.322H137.986ZM138.849 111.211C138.509 111.565 138.015 111.822 137.486 111.822V110.822C137.696 110.822 137.941 110.713 138.128 110.518L138.849 111.211ZM138.844 108.133C139.671 108.969 139.671 110.381 138.844 111.216L138.133 110.513C138.574 110.067 138.574 109.282 138.133 108.836L138.844 108.133ZM135.757 108.133C136.587 107.295 138.015 107.295 138.844 108.133L138.133 108.836C137.696 108.394 136.906 108.394 136.468 108.836L135.757 108.133ZM135.757 111.216C134.931 110.381 134.931 108.969 135.757 108.133L136.468 108.836C136.028 109.282 136.028 110.067 136.468 110.513L135.757 111.216ZM137.116 111.822C136.587 111.822 136.093 111.565 135.752 111.211L136.473 110.518C136.661 110.713 136.906 110.822 137.116 110.822V111.822ZM136.616 126.7V111.322H137.616V126.7H136.616ZM119.075 144.013L136.763 126.346L137.469 127.054L119.782 144.72L119.075 144.013ZM118.995 144.08L119.101 143.989L119.756 144.744L119.651 144.836L118.995 144.08ZM118.823 160.751V144.458H119.823V160.751H118.823ZM112.265 167.079L118.97 160.397L119.676 161.105L112.97 167.787L112.265 167.079ZM105.58 159.666L112.972 167.08L112.263 167.786L104.871 160.372L105.58 159.666ZM100.384 164.15L104.872 159.665L105.579 160.373L101.091 164.858L100.384 164.15ZM101.238 130.636V164.504H100.238V130.636H101.238ZM116.668 115.336L101.092 130.989L100.383 130.283L115.959 114.631L116.668 115.336ZM118.822 115.164C118.08 115.865 116.864 115.998 116.021 115.389L116.606 114.578C117.03 114.885 117.714 114.835 118.135 114.437L118.822 115.164ZM118.834 112.069C119.66 112.905 119.66 114.317 118.834 115.152L118.123 114.449C118.564 114.003 118.564 113.218 118.123 112.772L118.834 112.069ZM115.747 112.069C116.576 111.231 118.004 111.231 118.834 112.069L118.123 112.772C117.685 112.33 116.896 112.329 116.458 112.772L115.747 112.069ZM115.542 114.915C114.915 114.07 115.002 112.89 115.732 112.085L116.473 112.757C116.041 113.233 116.022 113.883 116.345 114.32L115.542 114.915ZM100.067 129.825L115.59 114.264L116.298 114.971L100.775 130.532L100.067 129.825ZM99.9877 129.892L100.093 129.801L100.748 130.556L100.643 130.648L99.9877 129.892ZM99.8153 144.092V130.27H100.815V144.092H99.8153ZM89.001 132.023L100.67 143.739L99.961 144.445L88.2925 132.728L89.001 132.023ZM89.1467 119.286V132.375H88.1467V119.286H89.1467ZM114.449 94.1928L89.0003 119.639L88.2932 118.932L113.742 93.4856L114.449 94.1928ZM116.604 94.0194C115.863 94.7204 114.646 94.8538 113.803 94.2445L114.389 93.4339C114.812 93.7399 115.497 93.6903 115.917 93.2929L116.604 94.0194ZM116.616 90.9247C117.442 91.7602 117.442 93.1722 116.616 94.0077L115.905 93.3046C116.346 92.8587 116.346 92.0737 115.905 91.6278L116.616 90.9247ZM113.529 90.9247C114.358 90.086 115.787 90.086 116.616 90.9247L115.905 91.6278C115.467 91.185 114.678 91.185 114.24 91.6278L113.529 90.9247ZM113.325 93.7709C112.698 92.9258 112.784 91.7459 113.514 90.9404L114.255 91.612C113.824 92.088 113.804 92.7388 114.128 93.1753L113.325 93.7709ZM88.0291 118.475L113.373 93.1196L114.08 93.8266L88.7363 119.182L88.0291 118.475ZM87.9497 118.542L88.0553 118.45L88.7101 119.206L88.6045 119.298L87.9497 118.542ZM87.7771 132.833V118.92H88.7771V132.833H87.7771ZM99.9611 145.269L87.9229 133.186L88.6313 132.48L100.669 144.563L99.9611 145.269ZM99.8153 164.962V144.916H100.815V164.962H99.8153ZM93.5725 171.016L99.9612 164.609L100.669 165.315L94.2807 171.722L93.5725 171.016ZM88.8951 165.616L94.2806 171.016L93.5725 171.722L88.187 166.322L88.8951 165.616ZM89.0411 153.703V165.969H88.0411V153.703H89.0411ZM80.71 145.202L88.8938 153.349L88.1883 154.057L80.0045 145.911L80.71 145.202ZM80.5425 142.996C81.3297 143.741 81.3584 144.932 80.7767 145.829L79.9379 145.284C80.3066 144.716 80.2296 144.077 79.8554 143.723L80.5425 142.996ZM77.4674 143.008C78.2967 142.169 79.7251 142.169 80.5544 143.008L79.8434 143.711C79.4055 143.268 78.6163 143.268 78.1785 143.711L77.4674 143.008ZM77.4674 146.091C76.6412 145.255 76.6412 143.844 77.4674 143.008L78.1785 143.711C77.7375 144.157 77.7375 144.942 78.1785 145.388L77.4674 146.091ZM80.2805 146.328C79.4744 146.91 78.2311 146.934 77.4525 146.075L78.1934 145.404C78.5764 145.826 79.2338 145.85 79.6949 145.517L80.2805 146.328ZM87.8188 154.424L79.6349 146.277L80.3404 145.568L88.5243 153.715L87.8188 154.424ZM87.6716 165.602V154.069H88.6716V165.602H87.6716ZM70.6791 147.4L88.5251 165.249L87.818 165.956L69.9719 148.107L70.6791 147.4ZM70.8255 120.842V147.753H69.8255V120.842H70.8255ZM97.5539 94.2841L70.6793 121.195L69.9717 120.489L96.8463 93.5775L97.5539 94.2841ZM97.6333 94.2169L97.5277 94.3085L96.8726 93.553L96.9781 93.4614L97.6333 94.2169ZM97.8057 83.6788V93.8392H96.8057V83.6788H97.8057ZM82.4531 68.1304L97.6591 83.3251L96.9523 84.0325L81.7462 68.8377L82.4531 68.1304ZM82.2848 65.9239C83.0721 66.6684 83.1007 67.8599 82.5191 68.7562L81.6802 68.2119C82.0489 67.6437 81.972 67.0044 81.5977 66.6505L82.2848 65.9239ZM79.2098 65.9356C80.0391 65.097 81.4675 65.097 82.2968 65.9356L81.5857 66.6388C81.1479 66.196 80.3587 66.196 79.9208 66.6388L79.2098 65.9356ZM79.2098 69.0187C78.3836 68.1832 78.3836 66.7712 79.2097 65.9357L79.9208 66.6388C79.4799 67.0847 79.4799 67.8696 79.9208 68.3155L79.2098 69.0187ZM82.0228 69.2555C81.2167 69.8378 79.9735 69.8619 79.1948 69.0029L79.9358 68.3313C80.3187 68.7538 80.9762 68.7779 81.4373 68.4449L82.0228 69.2555ZM96.5827 84.3987L81.3766 69.2039L82.0835 68.4965L97.2896 83.6913L96.5827 84.3987ZM96.4361 93.4731V84.045H97.4361V93.4731H96.4361ZM69.7077 120.031L96.5824 93.1198L97.2899 93.8264L70.4153 120.738L69.7077 120.031ZM69.6284 120.098L69.734 120.006L70.389 120.762L70.2834 120.854L69.6284 120.098ZM69.4559 148.119V120.476H70.4559V148.119H69.4559ZM93.2034 172.089L69.6022 148.473L70.3095 147.766L93.9107 171.382L93.2034 172.089ZM88.4513 176.142L93.2032 171.382L93.9109 172.089L89.159 176.848L88.4513 176.142ZM58.5356 145.478L89.1589 176.142L88.4513 176.848L57.828 146.184L58.5356 145.478ZM58.6818 95.3953V145.831H57.6818V95.3953H58.6818ZM49.6132 86.0723L58.5363 95.0427L57.8273 95.7479L48.9042 86.7775L49.6132 86.0723ZM49.7587 40.0167V86.4249H48.7587V40.0167H49.7587ZM12.9171 2.95774L49.6123 39.6632L48.9051 40.3702L12.2099 3.66475L12.9171 2.95774ZM12.5407 1.12042C13.1658 1.72249 13.3669 2.67377 13.0258 3.50172L12.1012 3.12077C12.288 2.66728 12.1723 2.154 11.847 1.84066L12.5407 1.12042ZM61.5978 204.518L105.579 248.546L104.872 249.253L60.8903 205.224L61.5978 204.518ZM105.579 161.196L61.5978 205.224L60.8903 204.518L104.872 160.489L105.579 161.196ZM148.853 205.224L104.872 161.196L105.579 160.489L149.561 204.518L148.853 205.224ZM104.872 248.546L148.853 204.518L149.561 205.224L105.579 249.253L104.872 248.546ZM1.05325 166.201H55.5418V167.201H1.05325V166.201ZM45.246 174.439H52.9019V175.439H45.246V174.439ZM51.1594 225.051H37.1678V224.051H51.1594V225.051ZM101.794 277.141H113.779V278.141H101.794V277.141ZM156.969 286.654H146.356V285.654H156.969V286.654ZM211.774 267.798H178.669V266.798H211.774V267.798ZM307.234 307.707H251.69V306.707H307.234V307.707ZM178.827 266.065H211.932V267.065H178.827V266.065ZM219.377 260.109H181.362V259.109H219.377V260.109ZM181.52 258.468H219.535V259.468H181.52V258.468ZM189.809 203.639H212.566V204.639H189.809V203.639ZM165.786 180.847H172.491V181.847H165.786V180.847ZM164.572 155.674H178.035V156.674H164.572V155.674ZM132.839 85.8265H118.478V84.8265H132.839V85.8265ZM225.744 124.505C225.003 125.206 223.786 125.339 222.943 124.73L223.528 123.919C223.952 124.225 224.637 124.176 225.057 123.778L225.744 124.505ZM225.756 121.41C226.582 122.246 226.582 123.658 225.756 124.493L225.045 123.79C225.486 123.344 225.486 122.559 225.045 122.113L225.756 121.41ZM222.669 121.41C223.498 120.571 224.927 120.571 225.756 121.41L225.045 122.113C224.607 121.67 223.818 121.67 223.38 122.113L222.669 121.41ZM223.421 122.066C223.2 122.354 222.971 122.785 222.93 123.156C222.911 123.331 222.936 123.461 222.992 123.557C223.044 123.648 223.154 123.763 223.407 123.855L223.065 124.795C222.637 124.639 222.317 124.39 222.125 124.056C221.935 123.726 221.9 123.368 221.936 123.045C222.006 122.42 222.352 121.817 222.628 121.457L223.421 122.066Z" fill="#9CB5F3"/>
</svg>
